<svg version="1.2" xmlns="http://www.w3.org/2000/svg" viewBox="0 0 396 108" width="396" height="108"><style>.s0{fill:#202a31}</style><g style="opacity: .1"><path class="s0" d="m6 12c-3.3 0-6-2.7-6-6c0-3.3 2.7-6 6-6c3.3 0 6 2.7 6 6c0 3.3-2.7 6-6 6z" /><path class="s0" d="m6 76c-3.3 0-6-2.7-6-6c0-3.3 2.7-6 6-6c3.3 0 6 2.7 6 6c0 3.3-2.7 6-6 6z" /><path class="s0" d="m6 44c-3.3 0-6-2.7-6-6c0-3.3 2.7-6 6-6c3.3 0 6 2.7 6 6c0 3.3-2.7 6-6 6z" /><path class="s0" d="m6 108c-3.3 0-6-2.7-6-6c0-3.3 2.7-6 6-6c3.3 0 6 2.7 6 6c0 3.3-2.7 6-6 6z" /><path class="s0" d="m38 12c-3.3 0-6-2.7-6-6c0-3.3 2.7-6 6-6c3.3 0 6 2.7 6 6c0 3.3-2.7 6-6 6z" /><path class="s0" d="m38 76c-3.3 0-6-2.7-6-6c0-3.3 2.7-6 6-6c3.3 0 6 2.7 6 6c0 3.3-2.7 6-6 6z" /><path class="s0" d="m38 44c-3.3 0-6-2.7-6-6c0-3.3 2.7-6 6-6c3.3 0 6 2.7 6 6c0 3.3-2.7 6-6 6z" /><path class="s0" d="m38 108c-3.3 0-6-2.7-6-6c0-3.3 2.7-6 6-6c3.3 0 6 2.7 6 6c0 3.3-2.7 6-6 6z" /><path class="s0" d="m70 12c-3.3 0-6-2.7-6-6c0-3.3 2.7-6 6-6c3.3 0 6 2.7 6 6c0 3.3-2.7 6-6 6z" /><path class="s0" d="m70 76c-3.3 0-6-2.7-6-6c0-3.3 2.7-6 6-6c3.3 0 6 2.7 6 6c0 3.3-2.7 6-6 6z" /><path class="s0" d="m70 44c-3.3 0-6-2.7-6-6c0-3.3 2.7-6 6-6c3.3 0 6 2.7 6 6c0 3.3-2.7 6-6 6z" /><path class="s0" d="m70 108c-3.3 0-6-2.7-6-6c0-3.3 2.7-6 6-6c3.3 0 6 2.7 6 6c0 3.3-2.7 6-6 6z" /><path class="s0" d="m102 12c-3.3 0-6-2.7-6-6c0-3.3 2.7-6 6-6c3.3 0 6 2.7 6 6c0 3.3-2.7 6-6 6z" /><path class="s0" d="m102 76c-3.3 0-6-2.7-6-6c0-3.3 2.7-6 6-6c3.3 0 6 2.7 6 6c0 3.3-2.7 6-6 6z" /><path class="s0" d="m102 44c-3.3 0-6-2.7-6-6c0-3.3 2.7-6 6-6c3.3 0 6 2.7 6 6c0 3.3-2.7 6-6 6z" /><path class="s0" d="m102 108c-3.3 0-6-2.7-6-6c0-3.3 2.7-6 6-6c3.3 0 6 2.7 6 6c0 3.3-2.7 6-6 6z" /><path class="s0" d="m134 12c-3.3 0-6-2.7-6-6c0-3.3 2.7-6 6-6c3.3 0 6 2.7 6 6c0 3.3-2.7 6-6 6z" /><path class="s0" d="m134 76c-3.3 0-6-2.7-6-6c0-3.3 2.7-6 6-6c3.3 0 6 2.7 6 6c0 3.3-2.7 6-6 6z" /><path class="s0" d="m134 44c-3.3 0-6-2.7-6-6c0-3.3 2.7-6 6-6c3.3 0 6 2.7 6 6c0 3.3-2.7 6-6 6z" /><path class="s0" d="m134 108c-3.3 0-6-2.7-6-6c0-3.3 2.7-6 6-6c3.3 0 6 2.7 6 6c0 3.3-2.7 6-6 6z" /><path class="s0" d="m166 12c-3.3 0-6-2.7-6-6c0-3.3 2.7-6 6-6c3.3 0 6 2.7 6 6c0 3.3-2.7 6-6 6z" /><path class="s0" d="m230 12c-3.3 0-6-2.7-6-6c0-3.3 2.7-6 6-6c3.3 0 6 2.7 6 6c0 3.3-2.7 6-6 6z" /><path class="s0" d="m294 12c-3.3 0-6-2.7-6-6c0-3.3 2.7-6 6-6c3.3 0 6 2.7 6 6c0 3.3-2.7 6-6 6z" /><path class="s0" d="m358 12c-3.3 0-6-2.7-6-6c0-3.3 2.7-6 6-6c3.3 0 6 2.7 6 6c0 3.3-2.7 6-6 6z" /><path class="s0" d="m166 76c-3.3 0-6-2.7-6-6c0-3.3 2.7-6 6-6c3.3 0 6 2.7 6 6c0 3.3-2.7 6-6 6z" /><path class="s0" d="m230 76c-3.3 0-6-2.7-6-6c0-3.3 2.7-6 6-6c3.3 0 6 2.7 6 6c0 3.3-2.7 6-6 6z" /><path class="s0" d="m294 76c-3.3 0-6-2.7-6-6c0-3.3 2.7-6 6-6c3.3 0 6 2.7 6 6c0 3.3-2.7 6-6 6z" /><path class="s0" d="m358 76c-3.3 0-6-2.7-6-6c0-3.3 2.7-6 6-6c3.3 0 6 2.7 6 6c0 3.3-2.7 6-6 6z" /><path class="s0" d="m166 44c-3.3 0-6-2.7-6-6c0-3.3 2.7-6 6-6c3.3 0 6 2.7 6 6c0 3.3-2.7 6-6 6z" /><path class="s0" d="m230 44c-3.3 0-6-2.7-6-6c0-3.3 2.7-6 6-6c3.3 0 6 2.7 6 6c0 3.3-2.7 6-6 6z" /><path class="s0" d="m294 44c-3.3 0-6-2.7-6-6c0-3.3 2.7-6 6-6c3.3 0 6 2.7 6 6c0 3.3-2.7 6-6 6z" /><path class="s0" d="m358 44c-3.3 0-6-2.7-6-6c0-3.3 2.7-6 6-6c3.3 0 6 2.7 6 6c0 3.3-2.7 6-6 6z" /><path class="s0" d="m166 108c-3.3 0-6-2.7-6-6c0-3.3 2.7-6 6-6c3.3 0 6 2.7 6 6c0 3.3-2.7 6-6 6z" /><path class="s0" d="m230 108c-3.3 0-6-2.7-6-6c0-3.3 2.7-6 6-6c3.3 0 6 2.7 6 6c0 3.3-2.7 6-6 6z" /><path class="s0" d="m294 108c-3.3 0-6-2.7-6-6c0-3.3 2.7-6 6-6c3.3 0 6 2.7 6 6c0 3.3-2.7 6-6 6z" /><path class="s0" d="m358 108c-3.3 0-6-2.7-6-6c0-3.3 2.7-6 6-6c3.3 0 6 2.7 6 6c0 3.3-2.7 6-6 6z" /><path class="s0" d="m198 12c-3.3 0-6-2.7-6-6c0-3.3 2.7-6 6-6c3.3 0 6 2.7 6 6c0 3.3-2.7 6-6 6z" /><path class="s0" d="m262 12c-3.3 0-6-2.7-6-6c0-3.3 2.7-6 6-6c3.3 0 6 2.7 6 6c0 3.3-2.7 6-6 6z" /><path class="s0" d="m326 12c-3.3 0-6-2.7-6-6c0-3.3 2.7-6 6-6c3.3 0 6 2.7 6 6c0 3.3-2.7 6-6 6z" /><path class="s0" d="m390 12c-3.3 0-6-2.7-6-6c0-3.3 2.7-6 6-6c3.3 0 6 2.7 6 6c0 3.3-2.7 6-6 6z" /><path class="s0" d="m198 76c-3.3 0-6-2.7-6-6c0-3.3 2.7-6 6-6c3.3 0 6 2.7 6 6c0 3.3-2.7 6-6 6z" /><path class="s0" d="m262 76c-3.3 0-6-2.7-6-6c0-3.3 2.7-6 6-6c3.3 0 6 2.7 6 6c0 3.3-2.7 6-6 6z" /><path class="s0" d="m326 76c-3.3 0-6-2.7-6-6c0-3.3 2.7-6 6-6c3.3 0 6 2.7 6 6c0 3.3-2.7 6-6 6z" /><path class="s0" d="m390 76c-3.3 0-6-2.7-6-6c0-3.3 2.7-6 6-6c3.3 0 6 2.7 6 6c0 3.3-2.7 6-6 6z" /><path class="s0" d="m198 44c-3.3 0-6-2.7-6-6c0-3.3 2.7-6 6-6c3.3 0 6 2.7 6 6c0 3.3-2.7 6-6 6z" /><path class="s0" d="m262 44c-3.3 0-6-2.7-6-6c0-3.3 2.7-6 6-6c3.3 0 6 2.7 6 6c0 3.3-2.7 6-6 6z" /><path class="s0" d="m326 44c-3.3 0-6-2.7-6-6c0-3.3 2.7-6 6-6c3.3 0 6 2.7 6 6c0 3.3-2.7 6-6 6z" /><path class="s0" d="m390 44c-3.3 0-6-2.7-6-6c0-3.3 2.7-6 6-6c3.3 0 6 2.7 6 6c0 3.3-2.7 6-6 6z" /><path class="s0" d="m198 108c-3.3 0-6-2.7-6-6c0-3.3 2.7-6 6-6c3.3 0 6 2.7 6 6c0 3.3-2.7 6-6 6z" /><path class="s0" d="m262 108c-3.3 0-6-2.7-6-6c0-3.3 2.7-6 6-6c3.3 0 6 2.7 6 6c0 3.3-2.7 6-6 6z" /><path class="s0" d="m326 108c-3.3 0-6-2.7-6-6c0-3.3 2.7-6 6-6c3.3 0 6 2.7 6 6c0 3.3-2.7 6-6 6z" /><path class="s0" d="m390 108c-3.3 0-6-2.7-6-6c0-3.3 2.7-6 6-6c3.3 0 6 2.7 6 6c0 3.3-2.7 6-6 6z" /></g></svg>