<svg version="1.2" xmlns="http://www.w3.org/2000/svg" width="829" height="829"><style>.s2{fill:#c8d1e3}.s3{fill:#e0e0e0}.s4{fill:#a5a5c6}.s5{fill:#ebebeb}.s6{fill:#f5f5f5}.s7{fill:#fafafa}.s9{fill:#1f161e}.s10{fill:#263238}.s11{fill:#6b6a7b}.s12{fill:#69d2c9}.s13{fill:#455a64}.s14{fill:#ffbe9d}.s15{fill:#eb996e}.s16{fill:#207bbd}.s17{fill:#fa9e9f}.s19{fill:#245980}.s20{fill:#fff}.s21{fill:#b8c3d9}</style><g style="opacity:.9"><path d="M414.5 829C185.3 829 0 643.7 0 414.5S185.3 0 414.5 0 829 185.3 829 414.5 643.7 829 414.5 829z" style="fill:#f5f8fe"/></g><path d="M414.5 758C224.5 758 71 604.5 71 414.5S224.5 71 414.5 71 758 224.5 758 414.5 604.5 758 414.5 758z" style="fill:none;stroke:#cbcbd9"/><path class="s2" d="M554.7 439.2c-38.1-17-54-59.1-60.1-98.5-1.1-6.5-3.1-13.3-1.1-19.6 2-6.3 8.5-11.6 14.9-10 5.3 1.4 8.5 6.6 12.1 10.8q1.8 2 3.8 3.8 2.1 1.8 4.4 3.3 2.3 1.5 4.8 2.6 2.5 1.2 5.1 2c4.6 1.3 10 1.7 13.6-1.4 5.1-4.2 4.3-12.1 3-18.6l-7.2-36.2c-1.3-6.5-2.6-13.1-1.7-19.7.8-6.5 4.2-13.1 10.1-16 5.8-2.9 14.1-.8 16.6 5.3 1.1 2.5 1.1 5.4 1.8 8 .7 2.7 2.5 5.4 5.2 5.7 2.7.3 5-2.1 6.6-4.4 5.4-7.8 8.4-17.1 11-26.3 2.6-9.2 5.1-18.6 9.9-26.9 4.7-8.4 12-15.6 21.2-17.9 9.2-2.3 20.2 1.5 24.3 10.2 4.1 8.7.5 19-3.9 27.5q-2.4 4.8-5.2 9.3-2.8 4.6-5.9 8.9-3.1 4.3-6.5 8.4-3.4 4.1-7.1 8c-1.7 1.8-3.6 3.8-4 6.4-.6 4.6 4.4 8.1 8.9 8.7 5.2.7 10.3-.8 15.5-1.2 5.2-.4 11.1.8 13.9 5.3 4 6.1-.3 14.1-4.9 19.7q-3.4 4.2-7.2 8.1-3.8 3.9-7.9 7.4-4.1 3.6-8.5 6.8-4.4 3.1-9.1 5.9c-4.4 2.7-9.2 5.2-12.4 9.3-3.2 4.1-4.4 10.4-1.2 14.5s9.5 4.4 14.3 2.6c4.8-1.9 8.8-5.5 13.2-8.2 8.3-5.1 19.9-6.7 27.1 0 4.8 4.3 6.4 11.3 5.7 17.7-.8 6.4-3.6 12.4-6.8 18-11.1 19.5-26.8 36.5-46.2 47.6-19.3 11.1-38.1 16.7-60.1 13.1z"/><path class="s3" d="m560.8 411.1-.2-.2q-.1-.2-.2-.3l-.2-.2-.2-.2q-.8-1.2-2-2.8c-1.7-2.4-4.1-5.9-7-10.3-5.9-8.8-13.6-21.2-21.9-35-8.3-13.8-15.9-26.3-21.6-35.2l-6.7-10.5q-1.1-1.8-1.8-2.9-.1-.1-.2-.3-.1-.1-.1-.2-.1-.2-.2-.3 0-.1-.1-.3l.2.2q.1.1.2.3l.2.2.2.2q.8 1.1 2 2.8c1.7 2.4 4.1 5.9 7 10.3 5.9 8.8 13.6 21.2 21.9 35 8.3 13.8 15.9 26.3 21.6 35.2 2.8 4.3 5 7.9 6.7 10.5q1.1 1.8 1.8 2.9.1.1.2.3l.2.2q0 .1.1.3.1.1.1.3z"/><path class="s4" d="M560.1 412.8c2-20.8 6-43.5 11.1-67.1q2-8.8 3.8-17.4c1.3-5.7 2.6-11.4 4.1-16.9l2.4-7.8 2.6-7.8q1.4-3.8 2.9-7.7 1.4-3.8 3-7.6c3.9-9.7 8-18.7 11.9-27.1 3.8-8.4 7.6-16.2 11.4-23.1q2.2-4.1 4.5-8.2 2.4-4 4.9-7.9 2.5-3.9 5.2-7.8 2.6-3.8 5.4-7.5c2.7-3.5 4.8-6.2 6.3-7.9q1.1-1.3 1.7-2.1.1 0 .2-.1 0-.1.1-.2l.2-.2.1-.1q0 .1-.1.2 0 .1-.1.2l-.1.1-.2.2q-.6.8-1.6 2.1c-1.4 1.8-3.5 4.5-6.1 8.1q-2.7 3.7-5.3 7.6-2.6 3.8-5.1 7.8-2.5 3.9-4.8 7.9-2.3 4.1-4.5 8.2c-3.7 6.9-7.4 14.7-11.2 23.1-3.9 8.5-7.9 17.5-11.8 27.1l-3 7.6q-1.4 3.9-2.8 7.7-1.3 3.9-2.5 7.8-1.3 3.8-2.4 7.8c-1.6 5.4-2.8 11-4.1 16.8q-1.9 8.6-3.8 17.4c-5.1 23.5-9.2 46.1-11.2 66.9"/><path class="s4" d="m579.5 311.3-.4-.6q-.1-.3-.3-.7l-.2-.6q-.2-.4-.3-.7c-.7-1.8-1.6-4.3-2.7-7.4-2.1-6.3-4.8-15.1-7.7-24.8-2.9-9.7-5.7-18.5-7.9-24.7-1.2-3.1-2.1-5.7-2.7-7.4q-.2-.3-.3-.7-.2-.3-.3-.6-.1-.4-.2-.7-.1-.4-.1-.7.2.3.3.6l.4.6q.2.3.3.7.2.3.3.6c.8 1.7 1.8 4.2 3.1 7.3 2.4 6.2 5.4 14.9 8.3 24.6 2.8 9.6 5.4 18.3 7.4 24.9q1.3 4.5 2.3 7.5.1.4.2.7.1.3.2.7.1.3.2.7 0 .4.1.7zM660 279.8q-.4.1-.8.3-.4.1-.8.3l-.8.2-.8.2c-2.1.6-5.2 1.5-8.9 2.6-7.5 2.3-17.8 5.8-28.9 10.2-11.1 4.4-21 8.8-28.1 12.2-3.5 1.7-6.4 3.1-8.3 4.1l-.8.4q-.4.2-.7.4-.4.2-.8.3-.4.2-.8.3.3-.2.7-.5.3-.2.7-.5.3-.2.7-.4l.8-.4c1.9-1.1 4.6-2.7 8.1-4.5 7-3.6 16.9-8.1 28.1-12.5q3.5-1.5 7.1-2.8 3.6-1.3 7.3-2.5 3.6-1.3 7.3-2.4 3.6-1.2 7.3-2.2c3.8-1.1 6.9-1.8 9-2.3q.5-.1.9-.2.4 0 .8-.1t.9-.1q.4-.1.8-.1zM665 354.1q-.2.1-.3.2l-.2.2q-.2.1-.3.1-.1.1-.3.2l-3 1.7c-2.8 1.5-6.5 3.6-11.1 6.1-9.4 5.2-22.4 12.5-36.6 20.5-14.3 8.1-27.3 15.3-36.8 20.3-4.8 2.4-8.6 4.4-11.3 5.7l-3.2 1.5-.2.2q-.2 0-.3.1-.2 0-.3.1-.2 0-.3.1l.2-.2q.2-.1.3-.2l.2-.2q.2 0 .3-.1 1.2-.7 3-1.7c2.8-1.5 6.6-3.6 11.2-6.1 9.4-5.2 22.3-12.5 36.6-20.5 14.2-8.1 27.2-15.3 36.8-20.3 4.7-2.5 8.6-4.4 11.3-5.7q1.9-.9 3.1-1.5.2-.1.3-.2.1 0 .3-.1.1-.1.3-.1.1 0 .3-.1z"/><path class="s3" d="m32.6 159.5 113.2-2.8 37 86.9-9.7-2c-25.9-7.2-46.1 8.3-46.1 8.3q-.1.7-.5 1.4t-1 1.2q-.5.5-1.2.9-.7.3-1.5.4l-9.6 1.2q-.6.1-1.2 0t-1.2-.3q-.6-.2-1.1-.6-.5-.3-.9-.8c-25.4-6.7-59.9 17.5-59.9 17.5l-1.9-7.1z"/><path class="s5" d="m94.3 192.4 23.1 59.7c-42.8-15-75.6 15.7-75.6 15.7L38.7 255c0-13.7 55.6-62.6 55.6-62.6z"/><path class="s6" d="M11.3 163.4s37.6-44.5 82.3-3.5l23.8 92.2s-50.4-32.9-82.3 6.6z"/><path class="s5" d="m94.4 163.1 63.8-7.2 26.5 83.1c-33.8-20.1-67.3 13.1-67.3 13.1z"/><path class="s6" d="M93.6 160s6.9-33 36-36.3l18.8-1.5 28.4 83.2s-45.9 4.6-59.5 46.8z"/><path class="s3" d="m117.4 252.1-.4-.8q-.2-.5-.3-.9-.2-.4-.3-.9-.1-.4-.2-.9-1.1-3.9-2.7-9.8c-2.3-8.6-5.3-19.9-8.6-32.5l-8.5-32.4q-1.6-5.9-2.6-9.8-.2-.5-.3-.9-.1-.5-.2-.9l-.2-1q0-.4-.1-.9.2.4.4.9l.4.8q.2.5.3.9.1.4.3.9c.8 2.3 1.8 5.6 3 9.7 2.5 8.2 5.7 19.7 9 32.3 3.3 12.7 6.2 24.2 8.1 32.6 1 4.2 1.8 7.6 2.3 9.9l.2 1q.1.4.2.9 0 .4.1.9 0 .5.1.9zM141.8 138.4c0 .3-3 .4-7.6 1.5q-4.5 1.1-8.7 3-4.2 1.9-8 4.5-3.8 2.7-7 6-3.2 3.4-5.7 7.2c-2.6 4-3.7 6.8-3.9 6.7-.1-.1.1-.8.5-2.1q.2-.6.5-1.3.3-.7.6-1.3.3-.7.6-1.3.4-.6.7-1.2 2.4-4.2 5.7-7.7 3.2-3.5 7.1-6.2 3.9-2.8 8.3-4.7 4.4-1.8 9.1-2.7l1.4-.2 1.4-.2q.7-.1 1.5-.1h1.4c1.4 0 2.1 0 2.1.1zM146.3 147.6c0 .3-3 .3-7.6 1.4q-4.5 1.1-8.7 3-4.2 1.9-8 4.6-3.8 2.6-7 6-3.2 3.3-5.7 7.2c-2.6 4-3.7 6.7-4 6.6-.1 0 .1-.7.6-2q.2-.7.5-1.3l.6-1.4.6-1.2q.4-.7.7-1.3 2.4-4.1 5.7-7.6 3.2-3.5 7.1-6.3 3.9-2.7 8.3-4.6 4.4-1.9 9.1-2.7.7-.2 1.4-.3l1.4-.2q.7 0 1.4-.1h1.5c1.3 0 2.1.1 2.1.2zM149.2 158c0 .3-3 .4-7.6 1.5q-4.5 1-8.7 2.9-4.3 1.9-8 4.6-3.8 2.7-7 6t-5.8 7.2c-2.5 4-3.6 6.8-3.9 6.7-.1-.1.1-.8.6-2.1q.2-.6.5-1.3.2-.7.6-1.3.3-.7.6-1.3.3-.6.7-1.3 2.4-4.1 5.6-7.6 3.3-3.5 7.2-6.3 3.9-2.7 8.3-4.6 4.4-1.8 9-2.7.8-.1 1.5-.3.7-.1 1.4-.1.7-.1 1.4-.1.7-.1 1.5-.1c1.3 0 2.1.1 2.1.2zM153.3 167.4c0 .3-3 .3-7.6 1.4q-4.5 1.1-8.7 3-4.2 1.9-8 4.6-3.8 2.6-7 6-3.2 3.3-5.7 7.2c-2.6 4-3.7 6.7-3.9 6.6-.1 0 .1-.7.5-2q.2-.7.5-1.3l.6-1.4.6-1.2q.4-.7.7-1.3 2.4-4.1 5.7-7.6 3.2-3.5 7.1-6.3 3.9-2.7 8.3-4.6 4.4-1.9 9.1-2.7.7-.2 1.4-.3l1.4-.2q.7 0 1.5-.1h1.4c1.3 0 2.1.1 2.1.2zM157.8 177.2c.1.3-2.9.4-7.5 1.5q-4.5 1-8.8 2.9-4.2 1.9-8 4.6-3.7 2.7-6.9 6-3.3 3.3-5.8 7.2c-2.6 4-3.6 6.8-3.9 6.7-.1-.1.1-.8.5-2.1q.3-.6.6-1.3.2-.7.5-1.3.3-.7.7-1.3.3-.6.7-1.3 2.4-4.1 5.6-7.6 3.2-3.5 7.1-6.3 4-2.7 8.3-4.6 4.4-1.8 9.1-2.7.7-.2 1.5-.3.7-.1 1.4-.1.7-.1 1.4-.1.7-.1 1.4-.1c1.4 0 2.1.1 2.1.2zM163.4 188.1c0 .3-3.3.4-8.3 1.7q-1.1.2-2.1.6l-2.2.6q-1.1.4-2.1.8-1.1.4-2.1.9-1.3.5-2.5 1.1-1.3.6-2.5 1.3l-2.4 1.4-2.4 1.4-2.2 1.6q-1.2.8-2.2 1.7-1.1.8-2.2 1.7-1 .9-2 1.9-.9.7-1.6 1.6L125 208l-1.4 1.8q-.7.8-1.4 1.8c-3 4.1-4.1 7.2-4.4 7.1q0-.3.1-.6 0-.3.1-.6.1-.2.2-.5t.2-.5q.1-.4.3-.7l.2-.6q.2-.3.3-.6.2-.3.3-.6l.4-.8q.3-.4.5-.8.2-.3.4-.7.3-.4.5-.8.7-.9 1.3-1.9.7-.9 1.5-1.8.7-.9 1.5-1.8.7-.8 1.6-1.7 1-1 2-1.9l2.2-1.8q1.1-.9 2.3-1.8 1.1-.8 2.3-1.6 1.2-.8 2.4-1.5t2.5-1.4q1.2-.6 2.5-1.2l2.6-1.2 2.2-.8q1.1-.4 2.2-.7l2.2-.6q1.2-.3 2.3-.5.4-.1.9-.2l.8-.2q.5 0 .9-.1.5 0 .9-.1.3 0 .7-.1H160.4q.3-.1.7 0 .3-.1.6-.1h.5q.3.1.6.1t.6.1zM165.8 197.3c0 .3-3.2.3-8.2 1.7q-1.1.3-2.2.7-1.1.3-2.1.7-1.1.4-2.1.8-1.1.5-2.1.9-2.5 1.2-4.9 2.6-2.5 1.4-4.7 3-2.3 1.6-4.4 3.4-2.2 1.8-4.1 3.8l-1.6 1.6q-.7.9-1.5 1.8-.7.8-1.4 1.7-.7.9-1.3 1.9c-3 4.2-4.2 7.2-4.4 7.1q0-.3.1-.5 0-.3.1-.6t.2-.5l.2-.6.2-.6q.2-.3.3-.6.1-.3.3-.6.1-.3.3-.6l.4-.8.4-.8q.3-.4.5-.8t.5-.8q.6-.9 1.3-1.9.6-.9 1.3-1.9.7-.9 1.5-1.8t1.6-1.7q1.9-2.1 4.1-3.9 2.2-1.9 4.5-3.5 2.3-1.7 4.8-3.1 2.5-1.4 5.1-2.6 1.1-.4 2.1-.8 1.1-.5 2.2-.8 1.1-.4 2.3-.7l2.2-.6q.5-.1.9-.2.4 0 .9-.1.4-.1.9-.2.4 0 .8-.1h.7q.4-.1.7-.1h.7q.3-.1.6-.1h1.2q.3 0 .6.1.2 0 .5.1zM99 231.1c-.1.2-2.7-2-7.4-4.5-3-1.6-6.3-2.9-9.6-3.7-3.4-.9-6.8-1.3-10.3-1.4-3.4 0-6.9.3-10.3 1.1-3.3.8-6.6 2-9.7 3.5-4.8 2.4-7.4 4.5-7.5 4.3-.1-.1.5-.7 1.7-1.7q.6-.5 1.2-.9.7-.5 1.3-1 .7-.4 1.4-.9l1.4-.8c3.1-1.7 6.5-3 9.9-3.9 3.5-.9 7.1-1.3 10.6-1.2 3.6 0 7.2.5 10.6 1.5 3.5.9 6.8 2.3 9.8 4.1q.7.4 1.4.9.7.4 1.4.9.6.4 1.3.9.6.5 1.2 1.1c1.1 1 1.7 1.6 1.6 1.7zM95.7 219.3c-.2.2-2.7-2-7.4-4.5-3.1-1.6-6.3-2.9-9.7-3.7-3.3-.9-6.8-1.3-10.2-1.4-3.5 0-6.9.4-10.3 1.1-3.4.8-6.6 2-9.7 3.5-4.8 2.4-7.4 4.6-7.5 4.3-.1 0 .5-.7 1.6-1.6q.7-.6 1.3-1 .6-.5 1.3-1l1.4-.8q.7-.5 1.4-.8c3.1-1.8 6.4-3.1 9.9-4 3.5-.9 7-1.3 10.6-1.2 3.6 0 7.1.5 10.6 1.5 3.4.9 6.7 2.3 9.8 4.1q.7.4 1.4.9.7.4 1.3.9.7.5 1.3 1 .7.5 1.3 1c1.1 1 1.7 1.6 1.6 1.7zM92.4 207.5c-.2.2-2.7-2-7.4-4.5-3.1-1.6-6.3-2.8-9.7-3.7-3.3-.9-6.8-1.3-10.2-1.4-3.5 0-7 .4-10.3 1.2-3.4.7-6.7 1.9-9.8 3.5-4.7 2.3-7.3 4.5-7.5 4.3 0-.1.5-.7 1.7-1.7q.6-.5 1.3-1 .6-.5 1.3-.9.7-.5 1.3-.9l1.4-.8c3.2-1.8 6.5-3.1 10-4 3.4-.8 7-1.3 10.6-1.2 3.6 0 7.1.5 10.6 1.5 3.4 1 6.7 2.4 9.8 4.2l1.4.8q.6.4 1.3.9.7.5 1.3 1l1.2 1c1.2 1 1.7 1.6 1.7 1.7zM89 195.7c-.1.2-2.7-2-7.4-4.5-3-1.6-6.3-2.8-9.6-3.7-3.4-.8-6.8-1.3-10.3-1.3-3.4-.1-6.9.3-10.3 1.1-3.3.7-6.6 1.9-9.7 3.5-4.8 2.3-7.3 4.5-7.5 4.3-.1-.1.5-.7 1.7-1.7l1.2-1q.7-.5 1.4-.9.6-.5 1.3-.9l1.4-.8c3.1-1.7 6.5-3.1 9.9-3.9 3.5-.9 7.1-1.3 10.6-1.3 3.6.1 7.2.6 10.6 1.5 3.5 1 6.8 2.4 9.9 4.2q.7.4 1.3.8.7.5 1.4.9.6.5 1.3 1l1.2 1c1.1 1 1.7 1.7 1.6 1.7zM85.7 183.9c-.2.3-2.7-2-7.4-4.4-3.1-1.7-6.3-2.9-9.7-3.8-3.3-.8-6.7-1.3-10.2-1.3-3.5-.1-6.9.3-10.3 1.1-3.4.8-6.6 1.9-9.7 3.5-4.8 2.3-7.4 4.5-7.5 4.3-.1-.1.5-.7 1.6-1.7q.7-.5 1.3-1 .7-.5 1.3-.9.7-.5 1.4-.9l1.4-.8c3.1-1.7 6.4-3 9.9-3.9 3.5-.9 7-1.3 10.6-1.3 3.6.1 7.1.6 10.6 1.5 3.4 1 6.7 2.4 9.8 4.2l1.4.8q.7.5 1.3.9.7.5 1.3 1 .7.5 1.3 1c1.1 1 1.7 1.7 1.6 1.7zM82.4 172.2c-.2.2-2.7-2-7.4-4.5-3.1-1.6-6.3-2.9-9.7-3.8-3.3-.8-6.8-1.3-10.2-1.3-3.5 0-6.9.3-10.3 1.1-3.4.8-6.7 2-9.7 3.5-4.8 2.4-7.4 4.5-7.6 4.3 0-.1.5-.7 1.7-1.7q.6-.5 1.3-1 .6-.4 1.3-.9.7-.5 1.3-.9l1.4-.8c3.2-1.7 6.5-3 10-3.9 3.4-.9 7-1.3 10.6-1.3 3.6.1 7.1.6 10.6 1.5 3.4 1 6.7 2.4 9.8 4.2q.7.4 1.4.9.6.4 1.3.9.7.4 1.3.9l1.2 1c1.2 1.1 1.7 1.7 1.7 1.8z"/><path class="s5" d="M382.4 593.3c8 12.5-1.7 23.3-1.7 23.3l-112.9.7h-.3q-.1-.1-.2-.1-.1-.1-.2-.1l-.2-.2c-12.3-13 .6-22.8.6-22.8z"/><path class="s3" d="M355.8 604.3c0 .2-14.1.3-31.4.3-17.4 0-31.5-.1-31.5-.3 0-.1 14.1-.2 31.5-.2 17.3 0 31.4.1 31.4.2zM338.2 608.4c0 .2-6.6.3-14.8.3-8.1 0-14.7-.1-14.7-.3 0-.1 6.6-.2 14.7-.2 8.2 0 14.8.1 14.8.2zM367.3 616.3c0-.1.3-1.3.6-3.4q.4-2.1.5-4.1.2-2.1.2-4.2 0-2-.2-4.1-.2-2.1-.6-4.1c-.4-2.1-.8-3.4-.7-3.4q.1.1.1.2.1.1.1.2 0 .2.1.3v.2q.3.9.7 2.4.4 2.1.7 4.2.2 2 .2 4.1.1 2.1-.1 4.2t-.7 4.1c-.2 1.1-.4 1.9-.6 2.5v.2q0 .1-.1.2 0 .1-.1.3 0 .1-.1.2zM375.8 593.2q0 .1.1.2t.1.2l.2.2q0 .1.1.2 0 .1.1.3.1.1.1.2.1.1.1.3l.2.2c.1.4.4.9.5 1.4q.2.5.4.9.1.5.3 1 .1.4.2.9l.2 1q.2 1.1.4 2.3.1 1.2.1 2.4t-.1 2.4q-.1 1.2-.3 2.4-.1.5-.2.9l-.2 1q-.2.4-.3.9-.2.5-.3.9c-.2.6-.4 1-.6 1.4q0 .2-.1.3 0 .1-.1.2-.1.2-.1.3l-.2.2q0 .2-.1.3 0 .1-.1.2 0 .1-.1.2l-.2.2c0-.1.6-1.3 1.3-3.4q.1-.4.2-.9.2-.5.3-.9l.2-1q.1-.4.2-.9.2-1.2.3-2.3.1-1.2 0-2.4 0-1.2-.1-2.3-.1-1.2-.3-2.4-.1-.4-.2-.9t-.2-.9q-.1-.5-.3-1-.1-.4-.3-.9c-.7-2.1-1.3-3.3-1.2-3.3zM285.3 616.4q-.1-.1-.1-.2-.1-.1-.2-.1 0-.1-.1-.2t-.1-.2q-.1-.2-.2-.3 0-.1-.1-.2t-.1-.2q-.1-.2-.1-.3-.1-.1-.2-.3-.1-.2-.2-.3 0-.2-.1-.4-.1-.1-.1-.3-.2-.4-.4-.9-.1-.4-.3-.8-.1-.5-.2-.9-.1-.5-.2-.9-.3-1.2-.4-2.3-.1-1.2-.1-2.3 0-1.1.2-2.3.1-1.1.4-2.2.1-.5.2-.9.1-.5.3-.9.2-.5.3-.9.2-.4.4-.9.1-.1.1-.3.1-.2.2-.3.1-.2.2-.3 0-.2.1-.4.1-.1.1-.2l.2-.2q.1-.1.1-.3l.2-.2q0-.1.1-.2t.1-.2l.2-.2.1-.1c.1 0-.6 1.1-1.4 3.1q-.2.4-.3.8-.2.4-.3.9-.2.4-.3.9-.1.4-.2.9l-.4 2.2q-.1 1.1-.1 2.2t.1 2.2q.1 1.2.3 2.3.1.4.2.9.1.4.2.9.1.4.3.8.1.5.3.9c.7 2 1.4 3.1 1.3 3.1zM273.1 619.2q-.1-.1-.1-.2l-.2-.2q-.1-.2-.1-.3l-.2-.2q0-.1-.1-.2-.1-.2-.2-.3 0-.1-.1-.3-.1-.1-.2-.3c-.2-.4-.4-.9-.6-1.4l-.4-1-.4-1q-.1-.5-.3-1l-.2-1q-.3-1.3-.5-2.5l-.2-2.6q0-1.3.1-2.6.1-1.2.3-2.5.1-.5.3-1 .1-.6.2-1.1.2-.5.3-1l.4-1c.1-.5.4-1 .6-1.4q0-.2.1-.3.1-.2.1-.3.1-.1.2-.3 0-.1.1-.2t.1-.3l.2-.2q0-.1.1-.2l.2-.2s-.7 1.3-1.4 3.6q-.2.4-.4.9l-.2 1q-.1.5-.3 1-.1.6-.1 1.1-.3 1.2-.3 2.5-.1 1.2-.1 2.5t.2 2.5q.1 1.3.4 2.5l.2 1q.1.5.3 1 .1.5.3 1l.4 1c.8 2.2 1.6 3.4 1.5 3.5z"/><path class="s5" d="M376.6 651v21.7h-41.8V651z"/><path class="s3" d="M242.3 657.1c.6-1.5 1.5-2.9 2.7-4.1 1.1-1.2 2.5-2.2 4.1-2.8 1.5-.7 3.2-1 4.8-1l124.7-.5v2.3H349c-1.4 0-2.8.3-4.2.9-1.3.5-2.5 1.3-3.5 2.3-1 1-1.8 2.2-2.3 3.5-.6 1.3-.8 2.7-.8 4.1 0 1.5.2 2.9.8 4.2.5 1.3 1.3 2.5 2.3 3.5 1 1 2.2 1.8 3.5 2.3 1.4.6 2.8.9 4.2.9h29.6v1.5H254c-1.6 0-3.2-.3-4.6-.8-1.5-.6-2.8-1.4-4-2.5-1.1-1.1-2-2.4-2.7-3.8-.7-1.4-1.1-2.9-1.2-4.5v-.6c-.1-1.6.2-3.3.8-4.9z"/><path class="s3" d="M376.6 662.1c0 .2-8.6.3-19.2.3s-19.2-.1-19.2-.3c0-.1 8.6-.2 19.2-.2s19.2.1 19.2.2zM376 667c0 .1-8.1.2-18.2.2-10 0-18.2-.1-18.2-.2s8.2-.2 18.2-.2c10.1 0 18.2.1 18.2.2zM376.6 671.5c0 .1-7.3.2-16.3.2-9.1 0-16.4-.1-16.4-.2 0-.2 7.3-.3 16.4-.3 9 0 16.3.1 16.3.3zM376.6 657.8c0 .1-8.4.2-18.8.2s-18.8-.1-18.8-.2c0-.2 8.4-.3 18.8-.3s18.8.1 18.8.3zM376 653.4c0 .1-7.5.2-16.8.2-9.2 0-16.7-.1-16.7-.2 0-.2 7.5-.3 16.7-.3 9.3 0 16.8.2 16.8.3z"/><path class="s6" d="M256.6 649.5q-.4.4-.7.8-.4.3-.7.7l-.6.8q-.4.4-.7.9-1.4 2-2.1 4.4-.7 2.4-.7 4.9 0 2.5.8 4.8.8 2.4 2.3 4.4l.6.8q.3.4.7.8.3.4.7.7.3.4.7.8-.1-.1-.3-.2-.1 0-.2-.1l-.2-.2-.2-.2q-.3-.2-.6-.5l-.5-.5q-.3-.3-.5-.6-.3-.3-.5-.6c-1-1.4-1.8-2.9-2.4-4.5-.6-1.6-.8-3.2-.9-4.9 0-1.7.3-3.4.8-5s1.3-3.2 2.3-4.5l.4-.6q.3-.3.5-.6.3-.3.5-.6.3-.2.6-.5l.2-.2.2-.2q.1-.1.2-.1.2-.1.3-.2z"/><path class="s6" d="M252.4 649.1q-.4.3-.7.7-.4.4-.7.8-.3.4-.7.8l-.6.8q-1.4 2.1-2.1 4.4-.7 2.4-.7 4.9 0 2.5.8 4.9.8 2.3 2.2 4.3.4.4.7.8l.6.8q.4.4.7.8.4.4.8.7-.2-.1-.3-.1l-.2-.2-.2-.2q-.1-.1-.2-.1l-.6-.6q-.3-.2-.5-.5-.3-.3-.5-.6-.3-.3-.5-.6c-1-1.3-1.9-2.8-2.4-4.4-.6-1.6-.9-3.3-.9-5 0-1.7.3-3.4.8-5s1.3-3.1 2.3-4.5l.4-.6q.3-.3.5-.6l.5-.5.6-.6q.1-.1.2-.1l.2-.2.2-.2q.2-.1.3-.1zM337 649.5q-.3.4-.7.8l-.7.7-.6.8q-.3.4-.6.9-1.4 2-2.2 4.4-.7 2.4-.7 4.9.1 2.5.9 4.8.7 2.4 2.2 4.4l.6.8q.4.4.7.8.3.4.7.7.4.4.7.8l-.2-.2q-.1 0-.2-.1-.2-.1-.3-.2l-.2-.2q-.3-.2-.5-.5-.3-.3-.6-.5-.2-.3-.5-.6-.2-.3-.5-.6c-1-1.4-1.8-2.9-2.4-4.5-.5-1.6-.8-3.2-.8-4.9 0-1.7.2-3.4.7-5 .5-1.6 1.3-3.2 2.3-4.5q.2-.3.5-.6.2-.3.5-.6.2-.3.5-.6.3-.2.5-.5.1-.1.3-.2l.2-.2q.1-.1.2-.1l.2-.2z"/><path class="s6" d="m332.8 649.1-.7.7q-.3.4-.7.8l-.6.8-.6.8q-1.4 2.1-2.2 4.4-.7 2.4-.7 4.9.1 2.5.8 4.9.8 2.3 2.3 4.3l.6.8q.4.4.7.8.3.4.7.8.3.4.7.7-.1-.1-.2-.1-.1-.1-.3-.2l-.2-.2q-.1-.1-.2-.1l-.6-.6-.5-.5q-.3-.3-.5-.6t-.5-.6c-1-1.3-1.8-2.8-2.4-4.4-.5-1.6-.8-3.3-.8-5 0-1.7.2-3.4.7-5 .5-1.6 1.3-3.1 2.3-4.5q.2-.3.5-.6.2-.3.5-.6.2-.3.5-.5.3-.3.5-.6.1-.1.2-.1.1-.1.3-.2l.2-.2q.1-.1.2-.1zM270.8 665.9q0 .4-.1.8 0 .4-.1.8l-.2.8q-.1.4-.4.8-.2.3-.5.6-.3.2-.7.4-.3.2-.7.3-.5 0-.9-.1t-.7-.4q-.4-.2-.7-.5-.2-.3-.4-.7-.2-.3-.4-.7l-.2-.8-.2-.8v-.8l-.2-1.8q-.1-.8-.1-1.7-.1-.9-.1-1.7V657.5q0-.5.2-1.1.1-.5.3-1.1.1-.5.4-1c.8-1.3 2.5-2.2 3.6-1.7q.3.1.5.2.3.1.5.3l.4.4q.1.3.2.5l.2.6q.1.3.1.5v.6q.1.3 0 .6l.2 8.8v.8zM319.2 662.6c0 .1-9.1.2-20.2.2s-20.1-.1-20.1-.2c0-.2 9-.3 20.1-.3 11.2 0 20.2.1 20.2.3zM262.4 648.7l-.2-20.5h11.1l.4 20.5z"/><path class="s3" d="M272.7 631.8q-.7.1-1.3.1-.7.1-1.3.1-.7.1-1.3.1-.7 0-1.3-.1-.6.1-1.3.1-.6 0-1.3-.1-.6 0-1.3-.1-.6 0-1.3-.1.7-.1 1.3-.1.7-.1 1.3-.1.7-.1 1.3-.1.7 0 1.3.1.6-.1 1.3-.1.6 0 1.3.1.6 0 1.3.1.6 0 1.3.1zM272.7 635q-.7.1-1.3.1-.7.1-1.3.1h-5.2q-.6 0-1.3-.1-.6 0-1.3-.1.7-.1 1.3-.2.7 0 1.3-.1h5.2q.6.1 1.3.1.6.1 1.3.2zM272.7 638.1q-.7.1-1.3.2-.7 0-1.3.1h-5.2q-.6-.1-1.3-.1-.6-.1-1.3-.2.7-.1 1.3-.1.7-.1 1.3-.1h5.2q.6 0 1.3.1.6 0 1.3.1zM272.7 641.3q-.7.1-1.3.1-.7.1-1.3.1-.7.1-1.3.1-.7 0-1.3-.1-.6.1-1.3.1-.6 0-1.3-.1-.6 0-1.3-.1-.6 0-1.3-.1.7-.1 1.3-.1.7-.1 1.3-.1.7-.1 1.3-.1.7 0 1.3.1.6-.1 1.3-.1.6 0 1.3.1.6 0 1.3.1.6 0 1.3.1zM272.7 644.5q-.7 0-1.3.1-.7.1-1.3.1h-5.2q-.6 0-1.3-.1-.6-.1-1.3-.1.7-.1 1.3-.2.7 0 1.3-.1h5.2q.6.1 1.3.1.6.1 1.3.2z"/><path class="s5" d="M261.6 627.6h123.6c1.6 6.8 1.3 14.3 0 22.2H262.1v-1.5h7.5q.8 0 1.4-.3.7-.3 1.2-.8t.7-1.1q.3-.7.3-1.4v-12.2q0-.8-.3-1.4-.2-.7-.7-1.2-.5-.5-1.2-.7-.6-.3-1.4-.3h-8z"/><path class="s7" d="M290.8 638.7H293.1v.1h.1q0 .1.1.1v.4q0 .2-.1.5l-.2.6q-.2.4-.3.7-.2.2-.4.5t-.4.5l-.4.4q-.2.2-.4.3-.2.1-.5.2-.2 0-.5.1h-.1q0-.1-.1-.1-.2 0-.4-.1-.3-.1-.4-.2-.2-.1-.4-.3l-.2-.4q-.2-.3-.3-.6l-.2-.6q-.1-.3-.1-.6-.1-.3 0-.7v-.9q.1-.2.1-.4t.1-.4q.1-.4.2-.7.1-.3.3-.6.1-.3.3-.6.2-.3.4-.5l.4-.4q.2-.2.5-.3.2-.1.5-.2.2-.1.5-.1h.4q.1.1.2.1t.2.1l.4.2q.2.2.3.4.2.2.3.4.1.2.2.5v.4l-.1.1q-.1 0-.1.1h-.5v-.1q-.1 0-.1-.1v-.1h-.1v-.1q0-.1-.1-.2v-.1q-.1 0-.1-.1l-.2-.2q-.1-.2-.2-.2-.2-.1-.3-.1-.2-.1-.3-.1h-.2q-.1 0-.2.1-.1 0-.1.1-.1 0-.2.1-.2.1-.3.3l-.4.4-.2.4q-.1.2-.2.5-.1.2-.2.5l-.2.6q0 .3-.1.6v1.1q0 .2.1.4 0 .3.1.5l.2.4q0 .2.1.3.1.2.3.3.1.1.3.2h.6q.2-.1.3-.2.1 0 .2-.1t.2-.3l.4-.4q.1-.2.3-.5.1-.2.2-.5.1-.2.2-.5h-1.5q-.5-.1-.5-.5v-.1h.1v-.2h.2q0-.1.1-.1h.1z"/><path fill-rule="evenodd" class="s7" d="M297.8 634.7q.1 0 .1.1.1.5 1.5 7.7v.2l-.1.1v.1l-.1.1h-.1q-.1.1-.2.1l-.1-.1h-.1l-.1-.1q-.1-.1-.1-.2l-.5-2.5h-2.5l-1.2 2.6h-.1v.1l-.1.1h-.1l-.1.1q-.1 0-.2-.1-.1 0-.2-.1l-.1-.1V642.5q.2-.3.4-.9 2.7-5.8 3.2-6.8 0-.1.1-.2h.1q0-.1.1-.1h.4l.1.1v.1zm-.5 1.7-1.4 2.9h2z"/><path class="s7" d="M304.7 643.1H301v-.1h-.2l-.1-.1q0-.1-.1-.1V642.5q0-.2 1-7.6v-.2l.1-.1.1-.1h.1q.1-.1.1 0h.2q.1 0 .1.1.1 0 .1.1v.1q.1 0 .1.1-.1.5-.3 2.1-.6 4.9-.7 5.1H304.8v.1h.1q.1 0 .2.1h.1v.4q0 .1-.1.2l-.1.1h-.1q-.1.1-.2.1z"/><path fill-rule="evenodd" class="s7" d="M309.8 634.7q.1 0 .1.1.1.5 1.4 7.7h.1v.2h-.1v.1q0 .1-.1.1v.1h-.2q0 .1-.1.1-.1-.1-.2-.1h-.1v-.1q-.1-.1-.1-.2l-.5-2.5h-2.5l-1.2 2.6h-.1v.1l-.1.1h-.1q-.1.1-.2.1l-.1-.1q-.1 0-.2-.1l-.1-.1V642.5q.1-.3.4-.9 2.7-5.8 3.2-6.8 0-.1.1-.2h.1q0-.1.1-.1h.4l.1.1v.1zm-.5 1.7-1.4 2.9h1.9z"/><path class="s7" d="m315.8 639.1.6 1.8q.6 1.6.6 1.7V642.9h-.1l-.1.1h-.1l-.1.1-.1-.1h-.2v-.1l-.1-.1q0-.2-.1-.2-.3-.7-1-2.7l-2.1 2.9v.1q-.1 0-.1.1h-.5l-.1-.1-.1-.1v-.4q.1 0 .1-.1l.1-.1q1.1-1.4 2.4-3.3-.2-.4-.3-.7-1.2-3.2-1.2-3.3v-.1l.1-.1v-.1l.1-.1h.5q0 .1.1.1l.1.1 1.2 3.4 2.5-3.4q0-.1.1-.1 0-.1.1-.1h.4l.1.1v.1q.1 0 .1.1V635.1zM325 634.5h.2l.1.1.1.1v.2q-.9 7.2-1 7.8 0 .3-.1.6-.1.2-.2.5-.1.2-.2.5-.1.2-.3.5-.3.4-.7.7-.4.3-.9.4-.5.1-1.1.1-.5-.1-.9-.3l-.4-.2q-.2-.2-.4-.3l-.3-.3q-.1-.2-.3-.4v-.4h.1v-.1l.1-.1h.1l.1-.1q.1 0 .1.1h.1q.1 0 .1.1h.1q.1.3.3.5.3.2.5.3.3.1.5.2.3.1.6.1h.4l.4-.2.4-.2q.1-.2.3-.3.2-.3.3-.6.2-.2.3-.5.1-.3.1-.6.1-.4.1-.7-.2.3-.4.5-.2.1-.4.3-.3.1-.5.2H321.5q-.3 0-.5-.1l-.4-.2q-.2-.1-.3-.3-.2-.2-.3-.4l-.2-.6q-.2-.3-.2-.6l-.2-.6v-.7q0-.6.1-1.4.1-1.1.5-3.2v-.1q0-.1.1-.1 0-.1.1-.1 0-.1.1-.1H320.6v.1h.1l.1.1v.1l.1.1q-.1.2-.1.4v.5q0 .2-.1.4v.4q-.1.3-.1.7-.1.3-.1.6-.1.3-.1.7v1.6q.1.3.1.5.1.3.2.5.4.9 1.1.9h.1q.2 0 .4-.1.1-.1.3-.2.1-.1.2-.3.2-.1.3-.3.1-.2.3-.4l.2-.6q.1-.2.2-.5.1-.2.2-.5l.5-4.3h.1v-.2l.1-.1.1-.1h.2z"/><path class="s6" d="M380.6 650.1c-.1 0-.2-5.1-.2-11.4 0-6.3.1-11.4.2-11.4s.2 5.1.2 11.4c0 6.3-.1 11.4-.2 11.4z"/><path class="s3" d="M279.4 650.1c-.1 0-.2-5.1-.2-11.4 0-6.3.1-11.4.2-11.4s.2 5.1.2 11.4c0 6.3-.1 11.4-.2 11.4z"/><path class="s6" d="M382.8 650.1c-.2 0-.3-5.1-.3-11.4 0-6.3.1-11.4.3-11.4.1 0 .2 5.1.2 11.4 0 6.3-.1 11.4-.2 11.4z"/><path class="s3" d="M277.4 650.1c-.1 0-.2-5.1-.2-11.4 0-6.3.1-11.4.2-11.4s.2 5.1.2 11.4c0 6.3-.1 11.4-.2 11.4zM350.6 631.1v-.1l13.1 10.6.1.1h-.2l-1.7.5-11 2.9h-.1l-10-4.3-2.8-1.2-.8-.3-.2-.1h.1l.1.1.8.3 2.8 1.1c2.5 1.1 6 2.5 10.1 4.2h-.1l11.1-2.9 1.7-.4v.1l-13.1-10.6"/><path class="s3" d="m362.5 639.9.7.7.9-.2-.4.9.5.8-.9-.1-.7.7-.2-.9-.9-.4.9-.5zM349.9 644.1l.5.4.6-.2-.2.6.4.5h-.7l-.4.5-.1-.6-.6-.2.5-.4zM336.1 638.4l.8.1.5-.7.1.8.8.3-.7.4v.8l-.6-.5-.8.2.3-.8zM368.3 631.2l.8.1.5-.6.2.7.7.3-.6.4-.1.8-.6-.5-.7.2.3-.7zM350 630.7l.5.1.3-.4.1.5.5.1-.4.3-.1.5-.3-.3-.5.1.2-.5z"/><path class="s3" d="M369.4 631.8s-4.2-.1-9.4-.3c-5.2-.3-9.4-.5-9.4-.5 0-.1 4.2.1 9.4.3 5.2.2 9.4.4 9.4.5zM374.2 627.4H248.8c-1.7-3.7-2.1-7.2 0-10.4h125.4q.6 1.2.9 2.5.3 1.4.3 2.7 0 1.4-.3 2.7-.3 1.3-.9 2.5z"/><path class="s5" d="M274.7 620h68v3.8h-68z"/><path class="s3" d="M253.6 627.5q-.2-.1-.3-.3l-.3-.3q-.1-.2-.2-.3l-.2-.4q-.5-.8-.8-1.8-.3-.9-.3-1.9-.1-1 0-1.9.1-1 .4-1.9l.2-.4q0-.2.1-.4t.2-.3l.3-.3q-.1.1-.1.3-.1.2-.1.4-.1.2-.1.4l-.2.4q-.2.9-.3 1.8-.1.9 0 1.9.1.9.3 1.8.3.9.7 1.8.1.1.2.3l.2.4q.1.1.1.3l.2.4zM256.3 627.5q-.2-.1-.3-.3l-.3-.3q-.1-.2-.2-.3l-.2-.4q-.5-.8-.8-1.8-.2-.9-.3-1.9-.1-1 0-1.9.1-1 .5-1.9 0-.2.1-.4l.2-.4q0-.2.2-.3.1-.2.2-.3 0 .1-.1.3 0 .2-.1.4 0 .2-.1.4t-.1.4q-.3.9-.4 1.8-.1.9 0 1.9.1.9.4 1.8.2.9.6 1.8.1.1.2.3l.2.4q.1.1.1.3l.2.4z"/><path class="s6" d="M369.1 627.2q.4-1.2.7-2.5.2-1.3.2-2.6t-.2-2.6q-.2-1.2-.6-2.5.6 1.2.9 2.5.3 1.3.3 2.6 0 1.4-.3 2.7-.3 1.3-1 2.4zM366.8 627.2c-.2 0 .4-2.2.3-5 0-2.8-.5-5-.3-5q.4 1.2.6 2.5.2 1.2.2 2.5t-.2 2.5q-.2 1.3-.6 2.5z"/><path d="M89.4 219.4h475.1v339.4H89.4z" style="fill:#363636"/><path class="s9" d="M102.4 232.6h449.2v312.8H102.4z"/><path class="s9" d="M551.6 545.4c0-2.5-.1-122.6-.3-312.8l.3.3-449.2.1.4-.4c-.1 111.8-.1 218-.1 312.8l-.3-.4 449.2.4-449.2.3h-.4V232.2h.4l449.2.1h.3v.3c-.2 190.2-.3 310.3-.3 312.8z"/><path class="s10" d="M75.6 558.4h516.8v13.5H75.6z"/><path class="s11" d="M580.3 558.4c0 .2-91.5.4-204.5.4s-204.5-.2-204.5-.4 91.5-.4 204.5-.4 204.5.2 204.5.4zM487.3 396.5V395q0-1.5-.1-4.2c0-3.7 0-9.1-.1-16 0-13.7-.1-33.3-.1-56.8l.3.3-78.5.1.4-.4c-.1 28.7-.1 55.7-.1 78.5l-.3-.3 56.8.1c6.9.1 12.3.1 16 .1q2.7 0 4.2.1H487.3 485.9l-4.2.1-15.9.1-57 .1h-.3v-.3c0-22.8-.1-49.8-.1-78.5v-.4h.4l78.5.1h.3v.3c0 23.6-.1 43.2-.1 57-.1 6.8-.1 12.2-.1 15.9q0 2.7-.1 4.2V396.5z"/><path class="s11" d="m487.3 396.5.6-.4 1.8-1.2 7-4.4 25.5-15.9-.1.3c0-20.5-.1-47.7-.1-77.4l.4.4h-.3l-77.3-.1h.1l-26.4 14.8-7.2 4-1.9 1.1-.6.3.6-.4 1.9-1.1c1.6-1 4-2.4 7.1-4.2 6.2-3.5 15.2-8.7 26.2-15l.1-.1h.1l77.3-.1h.6v.4c0 29.7 0 56.9-.1 77.4v.1l-.1.1-25.7 15.7-7 4.3-1.9 1-.6.4z"/><path class="s11" d="M522.4 297.5c.1.2-7.7 4.9-17.4 10.6-9.7 5.6-17.6 10.1-17.7 9.9-.1-.2 7.7-4.9 17.3-10.6 9.7-5.6 17.7-10 17.8-9.9zM412.5 393.3c.1.2-.6.8-1.7 1.4-1 .6-1.9.9-2 .7-.1-.2.6-.8 1.7-1.4 1-.6 1.9-.9 2-.7zM420 389c.1.2-.7.8-1.7 1.4-1 .6-2 .9-2.1.7-.1-.1.7-.8 1.7-1.3 1-.6 2-1 2.1-.8zM427.4 384.7c.1.2-.6.8-1.7 1.4-1 .6-1.9.9-2 .8-.1-.2.6-.8 1.7-1.4 1-.6 1.9-1 2-.8zM434.9 380.5c.1.1-.7.8-1.7 1.3-1 .6-2 1-2.1.8-.1-.2.7-.8 1.7-1.4 1-.6 2-.9 2.1-.7zM442.3 376.2c.1.2-.6.8-1.7 1.4-1 .6-1.9.9-2 .7-.1-.2.6-.8 1.7-1.4 1-.6 1.9-.9 2-.7zM444.2 368.6c.2 0 .4 1 .4 2.2-.1 1.2-.2 2.1-.4 2.1s-.4-.9-.4-2.1c0-1.2.2-2.2.4-2.2zM444.3 360.1c.2 0 .3.9.3 2.1 0 1.2-.2 2.2-.4 2.2s-.3-1-.3-2.2c0-1.2.2-2.1.4-2.1zM444.3 351.5c.2 0 .4.9.4 2.1 0 1.2-.2 2.2-.4 2.2s-.4-1-.4-2.2c.1-1.2.2-2.1.4-2.1zM444.4 342.9c.2 0 .4.9.4 2.1-.1 1.2-.2 2.2-.4 2.2s-.4-1-.4-2.2c0-1.2.2-2.1.4-2.1zM444.5 334.3c.2 0 .3 1 .3 2.1 0 1.2-.2 2.2-.4 2.2s-.3-1-.3-2.2c0-1.2.2-2.1.4-2.1zM444.5 325.7c.2 0 .4 1 .4 2.2 0 1.1-.2 2.1-.4 2.1s-.4-1-.4-2.2c.1-1.1.2-2.1.4-2.1zM444.6 317.1c.2 0 .4 1 .4 2.2-.1 1.1-.2 2.1-.4 2.1s-.4-1-.4-2.1c0-1.2.2-2.2.4-2.2zM444.7 308.5c.2 0 .3 1 .3 2.2 0 1.2-.2 2.1-.4 2.1s-.3-.9-.3-2.1c0-1.2.2-2.2.4-2.2zM444.7 299.9c.2 0 .4 1 .4 2.2 0 1.2-.2 2.1-.4 2.1s-.4-.9-.4-2.1c.1-1.2.2-2.2.4-2.2zM518.1 374.9c0-.2.9-.4 2.1-.4 1.2 0 2.2.2 2.2.4s-1 .3-2.2.3c-1.2 0-2.1-.1-2.1-.3zM509.5 374.9c0-.2.9-.4 2.1-.4 1.2 0 2.2.2 2.2.4s-1 .3-2.2.3c-1.2 0-2.1-.1-2.1-.3zM500.9 374.9c0-.2 1-.4 2.1-.4 1.2 0 2.2.2 2.2.4s-1 .3-2.2.3c-1.1 0-2.1-.1-2.1-.3zM492.3 374.9c0-.2 1-.4 2.1-.4 1.2 0 2.2.2 2.2.4s-1 .3-2.2.3c-1.1 0-2.1-.1-2.1-.3zM483.7 374.9c0-.2 1-.4 2.2-.4 1.1 0 2.1.2 2.1.4s-1 .3-2.1.3c-1.2 0-2.2-.1-2.2-.3zM475.1 374.9c0-.2 1-.4 2.2-.4 1.2 0 2.1.2 2.1.4s-.9.3-2.1.3c-1.2 0-2.2-.1-2.2-.3zM466.5 374.9c0-.2 1-.4 2.2-.4 1.2 0 2.1.2 2.1.4s-.9.3-2.1.3c-1.2 0-2.2-.1-2.2-.3zM457.9 374.9c0-.2 1-.4 2.2-.4 1.2 0 2.1.2 2.1.4s-.9.3-2.1.3c-1.2 0-2.2-.1-2.2-.3zM449.4 374.9c0-.2.9-.4 2.1-.4 1.2 0 2.1.2 2.1.4s-.9.3-2.1.3c-1.2 0-2.1-.1-2.1-.3zM444.1 374.9c0-.2.1-.4.3-.5.1-.1.3-.1.5 0 .1.1.2.3.1.5 0 .2-.2.3-.4.3h-.2l-.1-.1q-.1 0-.1-.1t-.1-.1zM531.9 348.7h1.4q.3 0 .5-.1.7-.1 1.3-.4.6-.3 1.1-.7.5-.4 1-.9.4-.5.7-1 .4-.9.6-1.9.2-.9.2-1.9 0-1-.3-1.9-.3-1-.7-1.8-.1-.2-.3-.4l-.4-.4q-.2-.2-.4-.3-.2-.1-.5-.2h-.5q-.3 0-.5.1-.3.1-.5.2-.3.1-.5.3c-1.2.9-1.8 2.6-2.5 4.1q-.2.7-.4 1.3-.2.7-.3 1.4-.1.6-.2 1.3l-.2 1.4h-.7c-.1-5.7-.1-10.7-.1-14.2V327.7q0-.1.1-.3v-.4q.1.2.1.4v.3q.1.2.1.4v.4q0 1.7.1 4.2c.2 3.5.3 8.5.4 14.1h-.7q0-.7.1-1.4t.3-1.4.3-1.4q.2-.6.4-1.3.2-.3.3-.6l.2-.6q.2-.3.3-.6.2-.3.3-.6l.4-.6q.1-.3.3-.6.3-.2.5-.5.2-.2.5-.4l.6-.4.6-.2q.4-.1.7-.1h.7q.3.1.6.3.3.1.6.3.2.2.4.5.2.2.4.5.5 1 .7 2 .3 1 .3 2.1 0 1-.2 2-.3 1.1-.7 2-.4.6-.9 1.1-.4.6-1 1t-1.3.6q-.6.3-1.3.4h-.4q-.2.1-.4.1-.2-.1-.4-.1h-.3q-.5-.1-.5-.2zM493.8 288.6l-.2.2q-.1.1-.1.2l-.2.2q-.1 0-.2.1t-.2.1l-.4.2q-.2 0-.4.1H490.8q-.2-.1-.5-.2-.2-.1-.5-.2l-.4-.4q-.2-.2-.4-.5-.2-.2-.3-.5-.2-.3-.3-.6-.2-.3-.3-.6-.5-1.2-.9-2.7-.2-.8-.4-1.7-.2-.8-.3-1.7-.1-.8-.2-1.7-.1-.8-.2-1.7h.7q.2 1.1.3 2.2v2.3q0 1.1-.2 2.2-.1 1.1-.3 2.2-.2.7-.4 1.3-.3.7-.6 1.2-.4.6-.8 1.1-.5.6-1 1-.3.2-.6.3-.3.2-.7.2-.3.1-.6.1h-.7q-.3-.1-.6-.3-.3-.1-.6-.3-.3-.2-.5-.5-.2-.2-.4-.5c-.5-1.1-.8-2.2-.9-3.4 0-1.2.1-2.3.5-3.5.4-1.1 1-2.1 1.8-3 .8-.8 1.8-1.5 2.9-2q.1-.1.3-.2.2-.1.4-.1.2-.1.3-.1.2-.1.4-.1.1 0 .1-.1h.4c.1.1-.7.2-1.8.8q-.6.3-1.1.7-.6.4-1.1.9l-.8 1q-.4.6-.7 1.2l-.4.8q-.2.5-.3.9-.1.5-.2.9 0 .5-.1.9v1.1l.2 1q.1.5.3 1 .2.5.4.9.1.3.3.5.2.2.4.3.2.2.4.3.3.1.5.2h.6q.2 0 .5-.1.3 0 .5-.1.3-.2.5-.3.5-.4.9-.9t.7-1q.3-.5.5-1.1l.4-1.2c.7-2.9.4-6 .2-8.7h.7q.1.8.1 1.7l.2 1.6q.2.9.3 1.7l.4 1.6q.4 1.5.8 2.8.1.2.2.5t.3.5.3.5.3.5q.3.3.7.5.4.2.8.3h.8q.4 0 .8-.2.1-.1.2-.1.2-.1.3-.2.1-.1.3-.2.1 0 .2-.1zM361.6 376.3v.1l.1.1v.2l.1 1.3q.2 1.7.4 4.8c.4 4.3.9 10.4.9 18q0 3.3-.1 6.7-.2 3.3-.6 6.7-.3 3.3-.9 6.6-.6 3.3-1.5 6.5-.4 1.9-1.1 3.8-.6 1.9-1.3 3.7-.7 1.9-1.5 3.7-.9 1.8-1.8 3.5-1 1.9-2.2 3.7-1.1 1.8-2.4 3.5-1.3 1.7-2.7 3.3-1.4 1.6-2.9 3c-4.1 4.2-8.3 7.9-11.9 12.1q-1.2 1.4-2.4 3t-2.2 3.3q-1 1.6-1.9 3.4-.9 1.7-1.6 3.5c-3.9 9.3-4.9 18.4-5.3 25.9-.3 7.6 0 13.8.2 18q.2 3.1.2 4.9.1.8.1 1.2v.5-.1l-.1-.1V530.8q0-.4-.1-1.2-.1-1.8-.4-4.9-.1-2.2-.3-4.5-.1-2.2-.1-4.5-.1-2.2-.1-4.5 0-2.2.1-4.5c.3-7.6 1.3-16.7 5.1-26.1q.8-1.9 1.7-3.6.9-1.8 1.9-3.5 1.1-1.7 2.2-3.3 1.2-1.6 2.5-3.1c3.6-4.2 7.8-8 11.9-12.1q1.5-1.5 2.8-3 1.4-1.6 2.7-3.3 1.3-1.7 2.4-3.4 1.2-1.8 2.2-3.6.9-1.8 1.7-3.5l1.6-3.6q.7-1.9 1.3-3.7.6-1.9 1.1-3.8.8-3.2 1.4-6.5.6-3.2 1-6.5t.6-6.7q.2-3.3.1-6.6c.1-7.6-.3-13.7-.6-18q-.1-3.1-.2-4.8-.1-.8-.1-1.3v-.4zM345.6 400.7q-.3-.5-.5-.9-.3-.5-.5-1l-.4-1-.4-1c-1-2.4-2.4-5.7-3.8-9.4l-.2-.6.6.1q-.5 1-1.1 2.1-.5 1.1-.9 2.3-.5 1.1-.8 2.2-.4 1.2-.7 2.3c-.7 2.4-.9 3.9-1 3.9v-1q0-.5.1-1 0-.5.1-1t.3-1q.2-1.2.6-2.4.3-1.2.7-2.3.5-1.2 1-2.3.5-1.1 1.1-2.2l.4-.7.3.8q.1.2.2.5c1.4 3.7 2.7 7.1 3.6 9.6q.2.4.4.9t.3 1q.2.5.3 1.1.2.5.3 1z"/><path class="s11" d="M338.3 536.2c-.2 0 .2-33.5 1-74.8.7-41.2 1.4-74.7 1.6-74.7.2 0-.2 33.5-.9 74.8s-1.5 74.7-1.7 74.7z"/><path class="s11" d="M370.1 458.8c0 .2-11.7.4-26.1.4-14.4 0-26.1-.2-26.1-.4s11.7-.3 26.1-.3c14.4 0 26.1.1 26.1.3z"/><path class="s11" d="m364.3 464.6 1-.6q.5-.2.9-.5l1-.4 1-.4c2.5-1.1 5.9-2.6 9.7-4.2v.7l-.4-.1c-4-1.4-7.6-2.6-10.3-3.5l-1-.4q-.6-.2-1.1-.4l-1-.4q-.5-.3-1-.5.5.1 1.1.2.5.1 1.1.3.5.1 1 .3.6.2 1.1.4c2.7.8 6.3 1.9 10.3 3.3l.5.1.9.3-.9.4c-3.8 1.6-7.3 3-9.8 4l-1 .4-1 .4q-.5.1-1 .3-.5.1-1.1.3zM370.3 448.5l-.4.5-.8 1 .6-1.2c.5-.9 1.8-2.9 3.3-5.2 2.1-3 4-5.4 4.2-5.3.1.1-1.4 2.7-3.6 5.7-1.5 2.3-2.9 4.2-3.6 5l-.3-.2q.5-.4.6-.3z"/><path class="s11" d="M379.2 447.5c-.1.1-2.2-1.8-4.7-4.4-2.4-2.6-4.3-4.7-4.1-4.9.1-.1 2.2 1.8 4.7 4.4 2.4 2.5 4.3 4.7 4.1 4.9zM331.7 445.4s.3-.3 1.1-.1q.4.1.7.3.4.2.7.5.2.3.4.7.2.3.2.8.1.5.1 1.1-.1.6-.2 1.1l-.2 1.2q-.2.5-.5 1-.1.4-.3.7-.1.3-.3.6-.3.2-.5.5l-.5.5q-.3.2-.7.4-.3.1-.7.2-.4.1-.8.1t-.8-.1q-.4-.1-.7-.3-.3-.2-.6-.5-.3-.2-.5-.6-.3-.3-.4-.7l-.2-.6q-.1-.4-.1-.7v-.7q0-.4.1-.7l.2-1.2q.2-.5.5-1l.6-1q.4-.5.8-.9.3-.2.7-.4.3-.2.7-.3.4-.1.8-.1h.8c.7.2 1 .5 1 .6-.1 0-.4-.2-1.1-.3q-.3 0-.7.1-.3 0-.7.1-.3.1-.6.3-.3.2-.5.4-.4.4-.7.9-.3.4-.6.9-.2.4-.3.9-.2.6-.3 1.1v1.2q0 .3.1.6l.2.6q.1.3.3.5.1.3.4.5.2.2.5.4.2.1.5.2t.6.1q.3 0 .6-.1l.6-.2q.3-.1.5-.3.3-.2.5-.4.2-.3.4-.5t.3-.5.3-.5q.3-.5.4-1 .2-.5.3-1 .1-.6.2-1.1v-1.1q0-.3-.2-.6-.1-.3-.3-.6-.2-.3-.5-.5t-.6-.3q-.1-.1-.2-.1h-.3q-.1-.1-.3-.1h-.2zM324.4 396.8c-.1.1-1.2-1.1-2.4-2.7s-2-3.1-1.8-3.2c.1-.1 1.2 1.1 2.4 2.8 1.2 1.6 2 3 1.8 3.1z"/><path class="s11" d="M321.3 404.5c-.2-.1.9-3.6 2.5-7.7 1.6-4.2 3-7.6 3.2-7.5.2.1-.9 3.5-2.5 7.7s-3 7.5-3.2 7.5zM406.1 461.7c-.1.2-2-1.6-4.1-4-2-2.3-3.6-4.3-3.5-4.5.2-.1 2 1.7 4.1 4 2.1 2.4 3.7 4.4 3.5 4.5zM404.4 473.6q.1-.4.1-.8.1-.4.2-.9l.2-.8.2-.8c.5-2 1.4-4.8 2.5-7.8 1-3 2.1-5.7 3-7.6q.2-.4.3-.8l.4-.8q.2-.3.4-.7.3-.4.5-.7l-.2.8q-.1.4-.3.8-.1.4-.3.8-.1.4-.3.8c-.8 1.9-1.8 4.6-2.9 7.6-1 3-1.9 5.8-2.6 7.7q-.1.5-.2.9t-.3.8q-.1.4-.3.7l-.4.8zM431.2 458c0 .2-2.6.4-5.8.4-3.3 0-5.9-.2-5.9-.4s2.6-.4 5.9-.4c3.2 0 5.8.2 5.8.4zM432.6 467.6c0 .2-3.1.4-6.8.4-3.8 0-6.8-.2-6.8-.4s3-.3 6.8-.3c3.7 0 6.8.1 6.8.3zM450.9 472.1c-.1.2-2.7-2.6-5.8-6.1-3.1-3.6-5.4-6.5-5.3-6.7.2-.1 2.8 2.7 5.9 6.2 3 3.5 5.4 6.5 5.2 6.6z"/><path class="s11" d="m450.2 457.5-.4.8q-.1.4-.3.7-.2.4-.5.8-.2.3-.4.7c-1.2 2-2.6 4.3-4.1 6.9l-4.1 6.9-.4.8q-.2.3-.4.7-.2.3-.5.7-.2.3-.5.6.1-.4.3-.8.1-.4.3-.8.2-.3.4-.7.2-.4.4-.7c.9-1.9 2.3-4.4 3.9-7.1 1.6-2.7 3.1-5.1 4.2-6.8q.3-.4.5-.7.2-.4.5-.7.2-.3.5-.7l.6-.6zM461.3 453.6c-.1.1-3.5-.5-8.7-.3h-.7l.4-.5c1.2-2 2.6-4.2 4.1-6.6 1.2-1.9 2.8-3.7 2.4-5.5l-.2-.6q-.2-.2-.4-.5-.2-.2-.5-.3-.2-.2-.5-.2-.3-.1-.6-.1t-.6.1q-.2 0-.5.1t-.5.2q-.4.2-.7.5-.4.3-.7.6-.2.3-.5.6-.3.4-.5.8 0 .1-.1.2-.1.2-.2.3-.1.1-.2.3l-.2.2q0-.1.1-.3 0-.1.1-.3 0-.2.1-.3.1-.1.2-.3l.4-.8q.3-.4.6-.7.3-.4.6-.7.3-.3.7-.5.3-.2.6-.3.3-.1.7-.2.3-.1.6-.1t.7.1q.4.1.7.2.4.2.7.5.3.3.5.6.2.4.3.7v.9q0 .4-.1.8 0 .4-.2.8-.1.4-.3.8c-.6.9-1.2 1.8-1.8 2.8l-4.3 6.5-.3-.5h1.6q.8 0 1.6.1.8 0 1.6.1l1.6.2q.3.1.6.1t.6.1l.6.2.6.2zM497.4 442.6c.1 0 .5.4 1.5.8q.5.2 1 .3.5.1 1 .1.6 0 1.1-.1.5-.1 1-.3.7-.3 1.3-.8.6-.5 1-1.2.4-.6.6-1.4.2-.7.1-1.5 0-.5-.2-.9-.1-.4-.4-.8-.2-.4-.5-.7-.4-.3-.7-.5-.4-.3-.9-.5-.4-.1-.9-.2h-1q-.5.1-.9.3l-.3-.7.5-.2q.5-.1 1-.3.4-.2.9-.4.5-.3.9-.5l.8-.6q.4-.3.6-.7.3-.4.4-.8.2-.4.2-.9.1-.4 0-.9-.1-.4-.3-.8l-.4-.6q-.3-.4-.6-.6-.3-.2-.7-.4-.4-.2-.7-.2-.4-.1-.8-.1-.3-.1-.7 0-.4 0-.7.1l-1 .4q-.5.2-1 .5l-.8.8q-.4.3-.7.8c-.7.8-.9 1.4-1 1.3q.1-.2.1-.4l.2-.4q.1-.1.2-.3l.2-.4q.3-.5.7-.9.4-.5.9-.8.5-.4 1-.7.5-.2 1.1-.4l.8-.2h.8q.4 0 .8.1l.8.2q.5.2.9.5t.7.7q.3.3.5.8.3.4.4.9.1.5 0 1 0 .6-.2 1.1-.2.5-.5 1-.3.4-.7.8-.4.3-.9.7-.4.3-.9.5-.5.3-1 .5t-1.1.3l-.4.2-.3-.7q1-.4 2.1-.3 1.2.1 2.1.7.9.5 1.6 1.5.6.9.7 2 .1.9-.2 1.7-.2.9-.6 1.6-.5.8-1.2 1.3-.7.6-1.5.9-.5.2-1.1.3h-1.2q-.5 0-1.1-.2-.5-.1-1.1-.4-.1 0-.2-.1-.2-.1-.3-.2-.1-.1-.2-.1-.2-.1-.3-.2-.3-.3-.3-.4zM519.2 425.1h.1q.1-.1.2-.1t.1-.1h.2q.2 0 .5.1l.4.2q.2.1.4.3.2.1.3.3.1.2.2.3.1.2.1.3.1.2.1.4.1.2.1.3 0 .2-.1.4 0 .2-.1.4 0 .2-.1.4l-.2.4q-.2.4-.5.8t-.6.7l-.7.7-.7.7q-.5.3-.9.7-.5.4-.9.7-.5.4-1 .7-.4.3-.9.7c-1.3.9-2.7 2.1-2.6 3.9q0 .7.3 1.3.2.6.6 1.2.4.5 1 .9t1.2.6q.7.2 1.4.3.8.1 1.5 0t1.4-.4q.7-.2 1.3-.6.3-.2.6-.5l.4-.6.4-.6q.1-.3.2-.7v-.7q0-.3-.1-.7-.1-.3-.3-.6-.1-.3-.4-.6c-1.1-1.5-3-2.2-4.7-2.8q-.7-.2-1.3-.4l-1.2-.6q-.6-.3-1.1-.7-.6-.4-1.1-.9-.2-.2-.4-.5-.2-.2-.4-.5l-.2-.6-.2-.6q-.1-.3-.1-.6v-.6q0-.3.1-.6.1-.2.2-.5.2-.5.5-.9t.6-.7q.4-.4.8-.6.4-.3.9-.5.3-.2.7-.3.3-.1.7-.2.3-.1.7-.1.3-.1.7-.1.2-.1.4-.1h2c0 .1-.8.1-2.4.4q-.3 0-.7.1l-.6.2q-.4.1-.7.2-.3.1-.6.3-.5.2-.8.4-.4.3-.7.6-.3.3-.6.7l-.4.8q-.2.5-.2 1-.1.6.1 1.1.1.5.4 1 .3.4.7.8.4.4 1 .8l1 .6 1.2.6q.6.2 1.2.3c1.7.6 3.8 1.3 5.1 3.1q.3.3.5.7.2.4.3.8.1.4.1.8.1.4 0 .8-.1.5-.2.9-.2.4-.4.7-.3.4-.6.7l-.6.6q-.7.4-1.5.7-.8.3-1.6.4-.8.1-1.6.1-.9-.1-1.6-.4-.4-.1-.8-.3-.3-.2-.7-.4l-.6-.6q-.3-.2-.5-.5-.2-.4-.4-.7-.2-.3-.3-.7-.1-.4-.2-.7-.1-.4-.1-.8v-.7q.1-.4.2-.7.1-.4.3-.7l.4-.6.5-.5.5-.5q.2-.2.5-.4t.5-.3q.5-.4 1-.7.5-.3.9-.6.5-.4.9-.7.5-.4.9-.7.4-.3.7-.6.4-.3.7-.7.3-.3.6-.7.3-.3.6-.7.2-.3.3-.6.1-.3.1-.6 0-.4-.1-.7l-.2-.6q-.1-.2-.3-.4-.1-.1-.3-.2l-.4-.2q-.2-.1-.4-.1H519.2zM533.6 436.6l-.6.2q-.3.1-.6.1l-.6.2h-.7q-1.3.2-2.7.4-.2 0-.4.1h-1.8q-.1-.1-.3-.1-.1-.1-.2-.1l-.2-.2q-.1-.1-.2-.3l-.2-.2v-.8q0-.3.1-.5 0-.2.1-.5l.2-.4q.4-.8.7-1.5.6-1.3 1.2-2.5l.2-.6q.2-.3.3-.6.2-.3.3-.5.2-.3.4-.5 0 .3-.1.6l-.2.6-.2.6-.2.6q-.5 1.2-1.1 2.6-.3.7-.6 1.5-.1.2-.2.3 0 .2-.1.4 0 .2-.1.4v.4c.1.4.4.6.9.6H527.9q.2-.1.4-.1l2.8-.2q.3-.1.6-.1H533q.3 0 .6.1zM535 444.3c-.2 0-.7-4-1.1-9-.4-5-.5-9.1-.3-9.1s.7 4 1.1 9c.3 5 .5 9.1.3 9.1zM504.7 471.4q.1.2.1.4.1.2.1.4v.4q.1.2.1.4h-.4q-.4-3.7-.9-8.6c-.6-5.6-1.3-10.1-1.1-10.1q.2.3.3.7.1.4.2.7l.2.8q0 .3.1.7c.3 1.8.7 4.3 1 7.1l.2 2.2q.1 1.1.2 2.1.1 1.1.1 2.2v2.2h-.4v-.4q0-.2.1-.4v-.4q.1-.2.1-.4zM521.2 452.7c.1.2-2 .9-4.6 1.6-2.5.8-4.7 1.2-4.8 1 0-.2 2-1 4.6-1.7 2.6-.7 4.8-1.1 4.8-.9z"/><path class="s11" d="M511.5 469.6h.3q.2 0 .3.1h.3q.1.1.3.1.4.1.8.1.3 0 .7-.1.4 0 .8-.1l.8-.2 1-.4q.5-.3.9-.7.5-.3.8-.8.4-.4.7-.9l.2-.6.2-.6q.1-.3.1-.7v-.6q0-.4-.1-.7l-.2-.6-.4-.6q-.2-.3-.5-.5t-.7-.3q-.3-.2-.7-.2-.4-.1-.8 0t-.7.2q-.4.2-.7.3-.4.2-.7.4-.4.2-.7.4-.3.2-.6.5l-.5.3v-.6q-.1-.7-.1-1.5-.1-.7-.1-1.5v-1.5q0-.8.1-1.5v-.6q0-.3.1-.6 0-.3.1-.6 0-.2.1-.5c.2 0-.1 3.4.4 8.3l-.5-.3q.3-.2.6-.5.4-.2.7-.4l.8-.4q.3-.2.7-.4.4-.2.9-.2.5-.1 1-.1.5.1.9.3.5.1.9.4l.6.6q.2.3.4.7.2.4.3.8l.2.8q0 .4-.1.8 0 .4-.1.7-.1.4-.2.7-.2.4-.3.7-.4.6-.8 1-.4.5-.9.9t-1 .7q-.6.3-1.2.4l-.8.2q-.4.1-.8.1-.5 0-.9-.1-.4 0-.8-.1-.1 0-.3-.1-.1 0-.3-.1-.1-.1-.2-.1-.2-.1-.3-.2zM491.3 453.4c0 .2-1.4.4-3 .4-1.7 0-3-.2-3-.4s1.3-.4 3-.4c1.6 0 3 .2 3 .4zM163 459.9c-.2 0-.4-31.3-.4-69.9 0-38.5.2-69.8.4-69.8s.4 31.3.4 69.8c0 38.6-.2 69.9-.4 69.9z"/><path class="s11" d="M167.2 321.4c-.2.1-2.3-3.5-4.8-8.1h.7l-.1.1c-2 4.9-3.8 8.8-4 8.7-.2-.1 1.3-4.1 3.3-9l.1-.1.3-.8.4.7c2.4 4.6 4.3 8.4 4.1 8.5zM162.2 303.7c-.1.2-1.2-.6-2.2-2-.9-1.4-1.1-2.7-.9-2.8.2 0 .7 1.1 1.6 2.4.8 1.3 1.7 2.2 1.5 2.4z"/><path class="s11" d="M160 307.7c-.2-.1.8-2.2 1.8-5 1.1-2.7 1.8-4.9 2-4.8.2 0-.2 2.4-1.3 5.1-1.1 2.8-2.3 4.8-2.5 4.7zM153 338.6c-.2-.1.9-1.9 1.3-4.3s-.1-4.4.1-4.5c.1-.1 1 2 .6 4.6-.4 2.6-1.9 4.3-2 4.2z"/><path class="s11" d="M154.4 332.7c0 .1-.2.7-1.1.9-.6.1-1.2 0-1.7-.4s-.8-1-.8-1.6c-.1-.6.2-1.2.6-1.6.5-.4 1.1-.6 1.7-.5.9.1 1.2.6 1.1.7 0 .1-.4-.3-1.1-.2-.4 0-.8.2-1.1.5-.3.3-.5.7-.4 1.1 0 .4.2.8.5 1.1.3.3.7.4 1.1.3.7 0 1.1-.3 1.2-.3zM271.8 450c0 .2-26.8.3-59.8.3s-59.8-.1-59.8-.3c0-.2 26.8-.4 59.8-.4s59.8.2 59.8.4zM273 449.8c-.1.2-2.3-.5-4.9-1.5-2.7-1.1-4.8-2.1-4.7-2.3.1-.2 2.3.5 4.9 1.6 2.7 1 4.8 2 4.7 2.2zM274.3 450.3c.1.2-1.7 1-4 1.7-2.2.8-4.1 1.3-4.2 1.1 0-.2 1.7-1 4-1.8 2.2-.7 4.1-1.2 4.2-1zM157.4 453.8q.3.2.6.5.2.2.4.5.2.4.3.7.2.4.2.7.1.4.2.9v.8l-.2.8-.2.8q-.1.2-.2.5-.1.2-.3.4-.1.2-.3.4-.2.2-.4.3-.3.2-.5.3-.3.1-.6.1t-.6-.1q-.3 0-.6-.2-.4-.3-.7-.7-.4-.4-.6-.9-.2-.5-.3-1-.1-.5-.1-1t.1-.9l.2-.8q.2-.4.5-.7.2-.4.5-.6.3-.2.5-.3.2-.2.5-.3.3-.1.6-.1h.5c.6 0 .8.2.8.3 0 0-.3-.1-.8 0q-.2 0-.5.1-.2 0-.4.1t-.4.3-.4.3q-.3.2-.5.5t-.3.7l-.2.6v.8q0 .4.1.8t.3.8q.1.4.4.8l.6.6q.2.1.4.1.2.1.4.1.1 0 .3-.1l.4-.2.3-.3.3-.3q.1-.1.2-.3l.2-.4q.1-.3.2-.7.1-.3.1-.7.1-.4.1-.7 0-.4-.1-.8l-.2-.6q-.1-.4-.2-.7-.1-.3-.3-.6-.1-.3-.3-.6zM254.7 455.3s.4-.2 1 .3l.2.2q.1.2.2.3.1.2.1.3v.4q0 .2-.1.4 0 .2-.1.4l-.2.4-.3.3c-.8.9-2.4 1.3-3.1 2.4q-.1.2-.2.5v1q.1.2.2.5l.4.4q.2.1.4.3.3.1.5.1.3.1.6.1.2-.1.5-.2.2-.1.4-.3.2-.1.4-.3.1-.3.2-.5.1-.3.1-.5v-.5q-.1-.3-.2-.5t-.3-.4-.3-.4q-.2-.2-.4-.3-.2-.2-.4-.3-.2-.2-.4-.3-.3-.1-.5-.2l-.4-.4q-.2-.2-.3-.4-.2-.2-.3-.5v-.8q.1-.3.2-.5t.2-.3.2-.3q.1-.1.3-.2.1-.1.2-.1.2-.1.3-.2c.7-.2 1-.2 1-.1 0 0-.3.1-.9.4q-.1.1-.2.1l-.2.2-.2.2-.2.2q-.1.2-.1.3-.1.2-.1.3v.7c.3.9 2 1.1 3.1 2.4l.4.6.2.6v.7q0 .4-.1.7-.1.4-.3.7-.2.3-.5.5-.3.3-.7.4-.3.2-.7.2h-.7q-.4-.1-.7-.3-.4-.1-.6-.4-.3-.3-.5-.6t-.3-.6v-.7q0-.4.1-.7l.2-.6q.2-.3.4-.5l.4-.4q.2-.2.5-.3.2-.2.5-.3l.4-.2.4-.2q.2-.2.4-.3.2-.1.3-.3.2-.1.3-.2.1-.2.2-.3.1-.2.1-.3.1-.2.1-.4v-.5q-.1-.1-.1-.2l-.2-.2c-.4-.5-.8-.4-.8-.5z"/><path class="s11" d="M254.4 452.5c-.2 0-.4-1.4-.4-3.3 0-1.8.2-3.3.4-3.3s.3 1.5.3 3.3c0 1.9-.1 3.3-.3 3.3zM286.3 450.1q-.2.1-.5.2-.2 0-.5.1h-1l-2.3.2h-.1l-.1-.1H281.5q0-.1-.1-.2-.1 0-.1-.1v-.4q0-.1.1-.2 0-.1.1-.2 0-.1.1-.2.1 0 .1-.1l1-1q.3-.2.5-.5.2-.2.3-.5.2-.2.3-.5.1-.3.1-.6.1-.3 0-.5l-.2-.4q-.1-.2-.3-.3l-.4-.2h-.7q-.1 0-.3.1-.2.1-.3.1c-.3.2-.5.2-.5.2q-.1-.1.3-.4.2-.2.4-.3.2-.1.4-.1.2-.1.4-.1.2-.1.4 0 .3 0 .6.2t.5.4q.2.3.3.6.1.3.1.7 0 .4-.1.7-.1.4-.3.7l-.4.6q-.2.3-.5.6l-1 1q-.1 0-.1.1h-.1q0 .1-.1.1v.1c0 .1-.2 0-.1.1v-.1h3.4q.3 0 .5.1.3 0 .5.1zM178.9 450v-.5q0-.3-.1-.6v-1q0-2.1-.1-5.5c0-4.6-.1-11-.1-18.4l.3.4H172c.7-.8.2-.2.3-.4v14.7c0 4.4-.1 8.2-.1 11.3l-.2-.3 5 .2h1.5q.2 0 .4.1h-.9q-.2.1-.4.1h-.4l-5.2.1h-.2v-.2c-.1-3.1-.1-6.9-.1-11.3q-.1-3.3-.1-7V424l.4-.4H179.3v.4c0 7.5-.1 14.1-.2 18.7q0 3.3-.1 5.4v1.4q-.1.2-.1.5zM245 450v-.8q0-.9-.1-2.2c0-2 0-4.7-.1-8-.1-6.8-.1-16.2-.1-26.9l.3.4h-6.9c.7-.8.2-.2.4-.4v5.9q0 2.9-.1 5.7v10.4c0 6.4-.1 11.9-.1 15.9l-.2-.2 5.1.1h1.6l.1.1h.1-.8q-.3.1-.5.1h-.4l-5.2.1h-.2v-.2c0-4-.1-9.5-.1-15.9q-.1-4.9-.1-10.4v-11.6c.2-.1-.4.4.4-.4H245.4v.4c0 10.8-.1 20.4-.2 27.1 0 3.3 0 6-.1 8V449.8q-.1.1-.1.2zM195.6 450v-1q0-1-.1-2.7c0-2.5 0-5.9-.1-10.1 0-8.5-.1-20.2-.1-33.4l.3.4h-6.9c.7-.8.2-.2.4-.4v7.5q0 3.7-.1 7.2v13.2c-.1 8-.1 14.7-.1 19.3l-.2-.2q3.2.1 5.1.1H195.5l.1.1H193.9l-5.2.1h-.2v-.1c0-4.6-.1-11.3-.1-19.3 0-4.1-.1-8.5-.1-13.2v-14.7l.4-.4H196v.4c-.1 13.3-.1 25.1-.2 33.7 0 4.2 0 7.5-.1 9.9V449.7q-.1.2-.1.3zM212 449.8v-.4q0-.4-.1-1.1v-4.2c0-3.7-.1-9-.1-15.6-.1-13.1-.1-31.3-.2-51.7l.4.3h-7c.8-.7.2-.2.4-.3V420.9c-.1 12.6-.2 22.7-.2 28.9l-.2-.1q3.3 0 5.2.1H212h-.2l-.1.1H210.3l-5.2.1h-.2v-.2c0-6.2-.1-16.3-.2-28.9v-44.1c.2-.2-.4.3.4-.4h7.3v.3c-.1 20.6-.1 38.9-.2 52.1 0 6.5-.1 11.8-.1 15.5v4.1q-.1.7-.1 1.1V449.8zM228.7 449.8v-2.5q0-2.5-.1-7.2c0-6.2 0-15.2-.1-26.3 0-22.2-.1-53-.1-87.3l.3.3h-6.9c.7-.7.2-.1.4-.3v41.4c-.1 12.9-.1 25-.1 35.8-.1 21.5-.1 37.8-.2 46.1l-.1-.1 5.2.1H228.8h-.4l-1.3.1H221.7v-.1c0-8.3-.1-24.6-.2-46.1v-35.8q0-9.8-.1-20.2v-21.2c.2-.2-.3.4.4-.4h7.3v.4c0 34.4-.1 65.3-.1 87.6-.1 11.1-.1 20-.1 26.2q-.1 4.6-.1 7.1V449.7q0 .1-.1.1zM345.1 269.3l.7.2c.5.2 1.3.4 2.2.8q2.8 1.1 5.3 2.5 2.6 1.4 4.9 3.2 2.3 1.7 4.4 3.8 2.1 2 3.9 4.3 1.5 1.9 2.7 3.9 1.3 2 2.3 4.2 1 2.1 1.7 4.4.7 2.3 1.2 4.6.5 2.8.5 5.7.1 2.9-.3 5.8-.3 2.8-1.1 5.6t-2 5.4q-.7 1.5-1.5 2.9t-1.7 2.7q-.9 1.3-2 2.5-1 1.3-2.2 2.4-.6.6-1.2 1.1-.6.6-1.3 1.1-.6.6-1.3 1l-1.4 1c-1 .6-1.9 1.2-3 1.7-1 .5-2 1-3.1 1.4-8.8 3.5-18.8 3.6-28.8 2.7-5-.5-10.1-1.2-15.3-2q-1.9-.3-3.9-.7-1.9-.3-3.9-.8-1.9-.4-3.8-1-1.9-.5-3.8-1.1-1.9-.6-3.7-1.4-1.9-.8-3.6-1.8-1.7-1-3.4-2.1-1.6-1.2-3.1-2.5-.7-.6-1.4-1.3-.7-.8-1.3-1.5-.6-.8-1.2-1.5-.6-.8-1.1-1.6-.6-.9-1-1.7-.5-.9-.9-1.7-.4-.9-.7-1.8-.4-.9-.7-1.8-.5-1.8-.9-3.6-.4-1.9-.6-3.7-.1-1.9-.1-3.8 0-1.8.2-3.7.1-1.8.5-3.5.4-1.8.9-3.5t1.1-3.4q.7-1.7 1.5-3.3 1.6-2.9 3.6-5.5t4.4-5q2.3-2.3 5-4.3 2.7-1.9 5.6-3.5 2.5-1.3 5.2-2.4 2.6-1.2 5.4-2 2.7-.9 5.5-1.5t5.7-1q2.3-.3 4.7-.4 2.3-.2 4.7-.2 2.4 0 4.7.1 2.4.1 4.8.4 1.7.2 3.5.4t3.5.5q1.8.3 3.5.7 1.8.3 3.5.7c3.9.8 6.8 1.6 8.8 2.2l2.2.6.8.3-.8-.2-2.3-.6c-2-.5-4.9-1.2-8.7-2q-1.8-.4-3.5-.7-1.8-.3-3.5-.6-1.8-.3-3.6-.5-1.7-.2-3.5-.4-2.3-.2-4.7-.3-2.3-.1-4.7-.1-2.3 0-4.7.2-2.3.1-4.7.4-2.8.4-5.6 1-2.7.6-5.5 1.5-2.7.9-5.3 2-2.6 1.1-5.1 2.5-2.9 1.5-5.5 3.5-2.6 1.9-5 4.2-2.3 2.3-4.2 4.9-2 2.6-3.6 5.4-.8 1.6-1.4 3.3-.7 1.6-1.2 3.3-.5 1.7-.8 3.4-.3 1.7-.5 3.5t-.2 3.6q0 1.9.2 3.7.1 1.8.5 3.6t.9 3.6q.3.8.7 1.7.3.9.7 1.7.4.9.8 1.7.5.9 1 1.7.5.8 1.1 1.5.5.8 1.1 1.5.7.7 1.3 1.4l1.4 1.4q1.5 1.3 3.1 2.4 1.6 1.1 3.3 2.1 1.7.9 3.5 1.7 1.8.8 3.6 1.4 1.9.6 3.8 1.1l3.8 1q1.9.4 3.9.8 1.9.4 3.9.6c5.1.8 10.2 1.6 15.1 2 10 1 19.9.9 28.5-2.5q3-1.2 5.8-2.9 2.8-1.8 5.1-4 2.4-2.3 4.3-4.9 1.9-2.7 3.2-5.7 1.2-2.5 2-5.3.8-2.7 1.2-5.5.3-2.8.3-5.7-.1-2.8-.6-5.6-.4-2.3-1.1-4.6-.7-2.2-1.7-4.3-.9-2.2-2.1-4.2-1.3-2-2.7-3.8-1.1-1.4-2.3-2.8-1.2-1.3-2.5-2.5t-2.7-2.3q-1.3-1.1-2.8-2.1-1-.6-1.9-1.2-1-.6-2-1.1-.9-.6-2-1l-2-1c-1-.4-1.7-.6-2.2-.8l-.7-.3z"/><path class="s11" d="M295 317.7q-.1.1-.3.1h-.4q-.2.1-.4.1h-.4c-1 .1-2.4.1-4.2.2l-1.3.1H286.8q-.2-.1-.4-.1t-.3-.1q-.1-.1-.2-.1l-.2-.2q-.1-.1-.1-.2-.1-.1-.1-.2-.1-.2-.1-.3v-.2q-.1-.1-.1-.2l-.1-1.7c-.1-2.4-.3-4.9-.4-7.6-.1-2.7-.3-5.2-.4-7.6q0-.5.1-.9 0-.4.1-.8.1-.5.3-.9.1-.4.3-.8.2-.3.5-.6.2-.3.5-.5.3-.3.6-.5.4-.2.7-.3.5-.2 1.1-.3l1-.2h2.5q.2.1.4.1t.4.1.4.1h-2.6q-.5.1-1 .1-.5.1-1 .3-.5.1-1 .3-.3.1-.6.3-.2.2-.5.4l-.5.5q-.2.2-.3.5-.2.4-.3.8-.2.3-.2.7-.1.4-.1.8-.1.4-.1.8c.1 2.3.3 4.9.4 7.5.2 2.7.3 5.3.4 7.6.1 1.1-.1 2.5.7 2.7q.1 0 .3.1H294.7q.2.1.3.1z"/><path class="s11" d="M292.9 305.4c0 .2-1.7.4-3.9.5-2.1 0-3.9-.1-3.9-.3 0-.2 1.8-.4 3.9-.5 2.2 0 3.9.1 3.9.3zM312.4 302c0 .2-2.6.1-5.9.3-3.2.1-5.9.2-5.9 0s2.6-.7 5.9-.8c3.3-.1 6 .3 5.9.5zM313.6 310.9c0 .2-2.6.5-5.9.4-3.2-.1-5.8-.5-5.8-.7 0-.2 2.6-.1 5.8 0 3.3.1 5.9.1 5.9.3zM345.1 316.3c-.1 0 0-.8-.1-2.3q0-.8-.1-1.6-.1-.7-.2-1.5-.2-.8-.4-1.5-.1-.8-.4-1.6c-.4-1.2-.9-2.7-2.2-3.5q-.2-.1-.5-.2h-.5q-.3 0-.5.1-.3.1-.5.2-.3.2-.5.5l-.4.4q-.2.3-.4.5-.1.3-.3.6c-1.6 3.2-1.8 7.3-1.9 11.6h-.7q.1-1.1.1-2.2.1-1.1 0-2.1v-2.2q-.1-1.1-.2-2.1 0-.5-.1-.9 0-.4-.1-.9-.1-.4-.1-.8-.1-.5-.2-.9l-.2-.8q-.1-.4-.3-.7-.2-.4-.5-.7-.3-.3-.6-.5l-.6-.4q-.4-.1-.7-.1-.4 0-.7.1-.4.1-.7.3-.3.2-.6.5-.3.2-.5.5t-.4.7q-.1.3-.2.7-.1.3-.2.7-.1.4-.2.7 0 .4-.1.8v.8q-.2 1.4-.3 2.9v1.3q-.1.7-.1 1.3 0 .7.1 1.4v1.3h-.6c-.1-4.2-.3-7.6-.4-10.1v-3.8q0 .1.1.2v.5q0 .2.1.3 0 1.1.2 2.7c.1 2.6.3 6 .6 10.2h-.6v-1.3q-.1-.7-.1-1.4v-1.3q0-.7.1-1.4 0-1.4.2-2.9 0-.4.1-.8 0-.4.1-.8 0-.4.1-.8t.2-.7q.1-.5.3-.9.2-.3.5-.7.2-.4.5-.7.4-.3.7-.5l.4-.2q.2-.1.5-.2.2-.1.4-.1h1q.2.1.4.1.3.1.5.2t.4.3l.6.6q.4.4.6.8l.4.8q.2.5.2.9.1.5.2.9t.1.9q.1.4.2.9 0 .4.1.9.1 1.1.1 2.2.1 1.1.1 2.2v2.1l-.2 2.2h-.7c.1-4.3.3-8.6 2.1-11.9q.1-.3.3-.6l.4-.6.5-.5q.3-.2.6-.5.3-.2.6-.3.3-.1.7-.1.3 0 .7.1.3 0 .6.2c1.6 1 1.9 2.7 2.4 3.9q.2.8.4 1.5.1.8.3 1.6.1.8.1 1.6.1.8.1 1.6v.9q0 .2-.1.4V316q0 .1-.1.1v.2zM361.5 315.1s-.3.3-.9.6q-.3.2-.7.3-.3.2-.7.3-.4 0-.7.1-.4 0-.8.1-.6 0-1.1-.1-.6-.1-1.1-.2-.6-.2-1.1-.4-.5-.2-1-.5-1.2-.8-2-2-.8-1.1-1.1-2.5-.4-1.4-.2-2.8t.9-2.6l.6-1 .8-.8q.4-.4.9-.7l1-.6q.3-.1.7-.2.3-.2.7-.3.4 0 .8-.1h.7q.1-.1.3-.1.1 0 .3.1h.2q.2.1.3.1-.5 0-1 .1t-.9.2q-.5.2-1 .3-.4.2-.9.4-.4.3-.9.6-.4.3-.7.6-.4.4-.7.8-.4.4-.6.9-.6 1.1-.7 2.4-.2 1.3.1 2.5.3 1.2 1 2.3.7 1.1 1.8 1.8.4.3.9.5l1 .4q.4.1 1 .2.5.1 1 .1h1q.5-.1.9-.2.5-.1 1-.3.5-.1.9-.3zM365.9 293.9c0 .2-3.5-.1-8.3 1.4l-1.3.4 1-.9q.6-.7 1.3-1.3l1.2-1.4q.6-.7 1.1-1.5.5-.7 1-1.5.4-.7.6-1.4.3-.7.4-1.4.1-.7.1-1.5 0-.7-.1-1.5c-.2-.8-.7-1.5-1.5-1.6q-.2 0-.5.1-.3 0-.5.1l-.6.2q-.2.1-.5.2-.3.2-.7.4-.3.3-.7.5l-.6.6-.6.6c-.5.6-.7 1-.7 1q0-.2.1-.3 0-.2.1-.3 0-.2.1-.3.1-.2.2-.3.3-.3.5-.7.3-.3.7-.6l.6-.6q.4-.2.8-.5.3-.1.5-.2.3-.2.6-.3.3-.1.7-.1.3-.1.6-.1.2 0 .4.1.2 0 .3.1l.4.2.3.3q.1.1.2.3.1.2.2.3l.2.4q0 .2.1.4l.2 1.6q0 .8-.1 1.6l-.4 1.6q-.3.7-.7 1.4-.5.9-1.1 1.6-.5.8-1.1 1.5-.6.8-1.3 1.4-.7.7-1.4 1.3l-.3-.5q.8-.2 1.5-.4.8-.2 1.5-.3l1.6-.2q.8-.1 1.6-.1h1.2q.2 0 .5.1.3 0 .6.1zM529.2 468.3q.1 0 .3-.1.1 0 .3-.1.2 0 .3-.1h.3q.4-.1.9-.3.4-.1.8-.3.3-.2.7-.4.4-.2.7-.5.6-.3 1-.8.4-.4.8-.9.3-.6.5-1.1.2-.6.3-1.2.1-.4 0-.7v-.8l-.2-.6q-.2-.4-.3-.7-.2-.3-.5-.6-.2-.3-.5-.5t-.7-.4q-.3-.1-.7-.2-.4-.1-.8-.1t-.7.1l-.8.4-.6.4-.5-.5q.2-.2.5-.4l.6-.4q.2-.2.5-.4l.6-.4q.3-.1.5-.3l.4-.4q.2-.2.3-.4.2-.2.3-.5.1-.2.1-.4v-.5q0-.2-.2-.4l-.2-.4-.4-.2-.4-.2q-.2-.1-.4-.1h-.4q-.3 0-.6.1-.4.1-.7.2-.3.1-.5.3l-.6.4c-.5.3-.8.5-.8.5q0-.1.7-.7.2-.3.5-.5t.6-.3q.3-.2.7-.3.3-.1.7-.2h.5q.2 0 .5.1.2.1.5.2.2.1.4.3.3.2.4.5.2.2.3.6.1.3 0 .6 0 .3-.1.6t-.3.6q-.2.3-.4.5-.2.3-.5.5-.2.2-.5.4t-.5.4q-.3.1-.6.3-.2.2-.5.4-.2.2-.5.4l-.5-.5q.3-.3.7-.6.5-.2.9-.4.5-.1 1-.1t1 .1l.8.2q.5.2.8.5.4.3.7.6.3.4.5.8.2.3.3.7.2.4.3.8 0 .4.1.8 0 .4-.1.9-.1.6-.4 1.3-.2.6-.6 1.2-.4.6-.9 1-.5.5-1.1.9-.3.2-.7.4-.4.2-.9.4-.4.1-.8.3-.5.1-.9.1-.2.1-.3.1h-.4q-.1.1-.3 0h-.3zM547.6 475.3c0 .2-11.2 2-25.1 4-13.9 1.9-25.2 3.4-25.2 3.2 0-.2 11.2-2 25.1-4 13.9-1.9 25.2-3.4 25.2-3.2zM457.8 482.8c0 .2-11.1 1.5-24.8 2.9-13.8 1.4-24.9 2.4-25 2.1 0-.2 11.1-1.5 24.9-2.9 13.7-1.4 24.9-2.3 24.9-2.1zM460.6 489c0 .2-10.4 1.5-23.3 3-12.9 1.4-23.3 2.5-23.4 2.3 0-.2 10.4-1.6 23.3-3.1 12.9-1.4 23.3-2.4 23.4-2.2zM276.3 553.3h49.3v5.4h-49.3z"/><path fill-rule="evenodd" class="s5" d="M452 558.6H344.9v-62.3zm-90.7-10.8h44.5l-44.5-26.4z"/><path class="s10" d="M355.2 502.3c.2.1-.7 1.8-1.9 3.8-1.3 2-2.4 3.5-2.6 3.4-.2-.1.7-1.8 1.9-3.8 1.3-2 2.4-3.5 2.6-3.4zM371.1 511.4c.1.2-.7 1.8-1.9 3.8-1.3 1.9-2.4 3.4-2.6 3.3-.1-.1.7-1.8 1.9-3.7 1.3-2 2.4-3.5 2.6-3.4zM387 520.6c.1.1-.9 1.7-2.3 3.5s-2.7 3.1-2.9 3c-.2-.1.9-1.7 2.3-3.5s2.7-3.1 2.9-3zM402.6 530.1c.1.1-.9 1.7-2.3 3.5s-2.7 3.1-2.9 3c-.1-.1.9-1.7 2.3-3.5s2.7-3.1 2.9-3zM418.9 539.4c.1.1-.8 1.8-2.1 3.8-1.3 1.9-2.6 3.4-2.7 3.3-.2-.2.7-1.8 2.1-3.8 1.3-1.9 2.5-3.4 2.7-3.3zM435.8 549.3c.2.1-.6 1.7-1.9 3.5-1.2 1.9-2.3 3.3-2.5 3.1-.1-.1.7-1.7 1.9-3.5s2.4-3.2 2.5-3.1zM360.1 505.2c.2.1-.1 1-.8 2-.6 1-1.2 1.7-1.4 1.6-.2-.1.2-1 .8-2 .6-1 1.3-1.7 1.4-1.6zM365.3 508.1c.2.1-.1 1-.8 2-.6 1-1.2 1.7-1.4 1.6-.2-.1.2-1 .8-2 .6-1 1.3-1.7 1.4-1.6zM376.9 514.9c.2.1-.2 1-.8 2-.6 1-1.2 1.7-1.4 1.6-.2-.1.2-1 .8-2 .6-1 1.3-1.7 1.4-1.6zM382.1 517.8c.2.1-.1 1-.8 2-.6 1-1.2 1.7-1.4 1.6-.2-.1.2-1 .8-2 .6-1 1.3-1.7 1.4-1.6zM392.6 524.3c.2.1-.2 1-.8 2-.6 1-1.2 1.7-1.4 1.6-.2-.1.2-1 .8-2 .6-1 1.2-1.7 1.4-1.6zM397.6 527.2c.2.1-.2 1-.8 2-.6 1-1.3 1.7-1.5 1.6-.1-.1.2-1 .8-2 .7-1 1.3-1.7 1.5-1.6zM408.3 533.4c.2.1-.2 1-.8 2-.6 1-1.3 1.7-1.4 1.6-.2-.1.2-1 .8-2 .6-1 1.2-1.7 1.4-1.6zM414.1 536.8c.1.1-.2 1-.8 2-.7 1-1.3 1.7-1.5 1.6-.2-.1.2-1 .8-2 .6-1 1.3-1.7 1.5-1.6zM424.4 542.9c.2.1-.2 1-.8 2-.6 1-1.2 1.7-1.4 1.6-.2-.2.2-1 .8-2 .6-1 1.2-1.8 1.4-1.6zM430.4 546.3c.2.1-.2 1-.8 2-.6 1-1.3 1.7-1.4 1.6-.2-.1.2-1 .8-2 .6-1 1.2-1.7 1.4-1.6zM61 378.2c-4.3 4.6-9.4 9.4-15.8 9.7-3 .1-6-.9-8.5-2.8-2.4-1.9-4-4.6-4.6-7.6-.6-3-.1-6.1 1.4-8.8 1.6-2.6 4-4.7 6.9-5.7 1.4-.5 2.9-.7 4.5-.6 1.5 0 3 .3 4.4.9 1.4.5 2.7 1.3 3.8 2.3 1.2 1 2.1 2.1 2.9 3.5"/><path class="s12" d="M60.4 365.1q.7 1.2 1.2 2.4.4 1.2.8 2.5t.6 2.5q.3 1.3.4 2.7c.2 1.5-.1 3.4-1.5 4-1.4.5-2.8-.6-3.7-1.8q-.5-.6-.9-1.3-.5-.7-.8-1.5-.4-.7-.7-1.4-.2-.8-.5-1.6l-.2-1q-.1-.5-.1-1v-1.1l.2-1q.1-.5.3-1 .3-.4.7-.8.3-.4.8-.7.4-.2.9-.4.6-.1 1.1 0 .5.1.9.4.4.3.7.8.3.4.4.9"/><path class="s10" d="M96.6 310.6c6.8-9.8 15.6-18.6 26.3-23.9 10.7-5.3 23.5-7 34.9-3.2 11.3 3.8 20.9 13.5 23.1 25.3 1.7 9.3.2 23.9 7.2 30.3 14.3 13.2 12.1 38.1 3.7 52.4 0 0-13 15.7 1 30.2 0 0 8.3 5.9 4.2 21.7-6.5 24.8 21.7 38.6 4.7 34.7l-57.1-6.3-6.4-64.6M103.9 433.6q-9.4 4.4-18.6 9.5-9.1 5.1-17.8 10.8-8.8 5.7-17.1 12-8.4 6.3-16.3 13.2c-4.4-4.2-9-8.6-11.8-14.1-2.7-5.5-3.2-12.5.3-17.5 2.3-3.3 6-5.4 7.5-9.1 1.2-3.2.4-6.8.1-10.2-.2-2.9 0-5.9.5-8.8.5-2.8 1.4-5.7 2.7-8.3 1.2-2.7 2.8-5.2 4.6-7.4 1.9-2.3 4-4.3 6.4-6 6.2-4.4 14.4-7.2 17.2-14.3 1.7-4.1 1.1-8.7-.1-13-1.1-4.3-2.7-8.5-3.1-12.9-.3-4.5 1-9.3 4.5-12"/><path class="s13" d="M55.1 372.6q-.5.1-.9.1-.5.1-.9.1h-1q-.4.1-.9.1-1.1 0-2.1.2-1.1.1-2.2.4-1 .2-2.1.6-1 .3-2 .8t-1.8 1.1q-.9.6-1.7 1.4-.8.7-1.4 1.6-.6.9-1.1 1.8-.2.5-.3.9-.2.4-.3.8-.1.5-.2.9-.2.4-.2.9-.1-.1-.1-.3v-.7q0-.4.1-.7 0-.3.1-.7l.2-.6q.1-.4.2-.7.5-1 1.1-2 .6-.9 1.4-1.7.8-.9 1.7-1.5 1-.7 2-1.2t2.1-.8q1-.4 2.1-.6 1.1-.2 2.3-.4 1.1-.1 2.2-.1h1.9q.4.1.9.1.4.1.9.2z"/><path class="s14" d="m285.1 407.3 14.6-9.8 22.8-8.5q.6-.2 1.2-.2t1.2.2q.6.2 1.1.6.4.4.7.9c2.4 4.6-.6 10.6-.6 10.6l2.3 1.8c4.1 3.9-2 10.4-2 10.4 3.6 5.5-3.3 11.6-3.3 11.6.8-.1 2.8.4 1.7 4.9-1.1 4.4-20.5 16.3-20.5 16.3l-27.9-9z"/><path class="s7" d="m310.5 398 7.8-28.3 6.5-.7-6.1 22.5z"/><path class="s14" d="m278.7 428.3 6.9-22.8 24.8-18.5q.5.9.8 2 .3 1.1.3 2.2t-.3 2.2q-.3 1.1-.9 2c-2.6 4.7-6.4 8.5-7.2 9.8-.8 1.3-4.4 8.1-4.4 8.1s3.8 8 .8 18.8"/><path class="s15" d="M299.5 432.1q0-.2.1-.3v-.4q0-.1.1-.3v-.3q.2-.7.3-1.6.2-1 .3-2.2.1-.7.1-1.5.1-.8.1-1.5 0-.8-.1-1.5 0-.8-.1-1.5l-.2-2q-.2-.9-.4-1.9-.3-.9-.6-1.9l-.6-1.8-.1-.2.1-.1q1.4-2.7 3.1-5.8.4-.8.8-1.5.2-.4.5-.8.2-.4.5-.8l2.4-2.9q.6-.7 1.2-1.5l1.2-1.6q.5-.8 1-1.7.6-.8 1-1.7.5-.8.7-1.8.2-1 .2-2t-.3-2q-.2-1-.8-1.8h.6l-2.1 1.6-22.7 16.9.1-.2c-2.1 6.8-3.8 12.5-5.1 16.6q-.9 2.9-1.5 4.6l-.4 1.2v.1l-.1.1v.1l-.1.1.1-.1v-.4l.3-1.2q.5-1.7 1.4-4.6c1.1-4.1 2.8-9.8 4.8-16.6v-.1l.1-.1 22.6-17 2.1-1.6.4-.2.2.3q.5 1 .8 2.1.3 1 .4 2.1 0 1.1-.3 2.2-.2 1.1-.7 2.1-.5.8-1 1.7-.6.8-1.1 1.7l-1.2 1.6q-.6.8-1.3 1.6l-2.4 2.8q-.3.4-.5.7l-.4.8q-.5.8-.9 1.5-1.6 3.1-3.1 5.8v-.3q.3 1 .6 1.9l.6 2q.2 1 .3 2 .2.9.3 2v1.5q.1.7 0 1.5v1.5q-.1.8-.2 1.5v.6q-.1.3-.1.5-.1.3-.1.6-.1.3-.1.5-.1.2-.1.4t-.1.4-.1.4-.1.4q0 .2-.1.3 0 .2-.1.4 0 .1-.1.3 0 .1-.1.3z"/><path class="s15" d="M326.1 401.2q-.2.1-.4.3l-.4.2q-.2.2-.4.3-.2.1-.4.3l-4.7 2.8-6.9 4q-.5.4-1.1.6-.5.3-1.1.5-.6.2-1.2.2-.7.1-1.3.1-.3-.1-.7-.2l-.6-.2-.6-.4q-.3-.2-.5-.5l-.4-.6-.2-.6q-.1-.4-.2-.7v-.7q.1-.7.2-1.3.2-.7.5-1.3.3-.6.6-1.1.4-.6.9-1.1.3-.5.7-.9.4-.5.8-.9.4-.5.8-.9.4-.5.8-.9.7-.7 1.5-1.4.7-.7 1.5-1.3.7-.7 1.5-1.3.8-.6 1.7-1.2.5-.4 1.1-.7l1.2-.8q.5-.3 1.1-.6.6-.4 1.2-.7.2-.1.5-.2l.4-.2q.3-.1.5-.2t.5-.2q-.2.2-.4.3-.3.2-.5.3-.2.1-.4.3l-.4.2q-.6.3-1.2.7-.6.3-1.1.7-.6.4-1.1.8-.6.3-1.1.7-.8.6-1.6 1.3-.8.6-1.5 1.2-.8.7-1.5 1.4l-1.4 1.4q-.4.4-.8.9l-.8.8q-.4.5-.7.9l-.8 1q-.4.4-.7.9-.4.5-.6 1.1-.3.5-.4 1.1-.2.6-.3 1.2v.6q.1.2.2.5l.2.6q.1.2.3.5.2.2.4.3.2.2.5.3.2.2.5.2.2.1.5.2.6 0 1.1-.1.6-.1 1.1-.2.6-.2 1.1-.4l1-.6 7-3.9q2.8-1.6 4.7-2.6l.4-.2q.3-.2.5-.3l.4-.2q.3-.1.5-.1z"/><path class="s16" d="m306.5 446.6-27 94.6c-15.6 40.5-58.6 16.4-58.6 16.4L192.3 538q-.9 4.7-1.9 9.3-1.1 4.6-2.3 9.2-1.1 4.6-2.4 9.2-1.3 4.6-2.7 9.1l32.9 99.1H61.8s15.4-79.8 13.1-100.6c0 0-5.3-31.6-11.6-60.5-6.4-28.9-9.6-65.2-9.6-65.2l33.7-14.2 4.8-2.8 56 3 27.2 7.3s15.5 5.7 34.3 29.7l30 39.2 34.4-73.5z"/><path class="s10" d="M190.6 539.6q-.1-.3-.1-.6v-1.1q.1-.2.1-.5v-2.5c0-1 .1-2.1 0-3.3q0-1.1-.1-2.2 0-1.1-.1-2.1l-.2-2.2q-.1-1.1-.3-2.1-.3-2.7-.9-5.3-.5-2.5-1.2-5.1l-1.6-5q-.9-2.5-2-4.9-.4-1-.9-2t-.9-2q-.5-.9-1-1.9-.6-.9-1.1-1.9c-.6-1-1.2-2-1.7-2.8q-.8-1.3-1.4-2.1-.1-.2-.3-.5-.1-.2-.3-.4-.1-.2-.3-.5l-.2-.4.4.4q.1.2.3.4l.4.4q.1.2.3.4.6.8 1.4 2.1c.6.8 1.2 1.7 1.9 2.8q.5.9 1.1 1.8l1 2q.5.9 1 1.9.5 1 .9 2 1.1 2.4 2.1 4.9.9 2.5 1.6 5.1.7 2.6 1.2 5.2.6 2.6.9 5.3.1 1 .2 2.1.2 1.1.2 2.2.1 1.1.1 2.2.1 1.1.1 2.2c0 1.2-.1 2.3-.1 3.3q-.1 1.5-.2 2.5 0 .3-.1.6v.5q-.1.3-.1.5-.1.3-.1.6z"/><path class="s10" d="M185 478.6c.2.1-1 3.3-2.7 7.1-1.7 3.8-3.3 6.8-3.5 6.7-.1 0 1.1-3.2 2.8-7 .9-1.9 1.7-3.6 2.3-4.8q.1-.3.2-.5.2-.3.3-.5.1-.3.3-.5.1-.3.3-.5zM242.2 530.9q-.3-.3-.5-.6l-.4-.8q-.2-.3-.4-.7-.2-.4-.3-.8-.8-1.9-1.3-3.9-.5-1.9-.7-4-.3-2-.2-4 .1-2.1.4-4.1 0-.4.1-.8l.2-.8q.1-.4.3-.8.1-.4.3-.8c.2 0-1.1 5-.4 11.3.7 6.2 3.1 10.8 2.9 10.8z"/><path class="s14" d="M169.7 382.9c-2.4 26.6-32.4 23.5-32.4 23.5 0-.1 1.5 14 2.2 28.3.1 3.8-.5 7.6-1.8 11.2-1.3 3.5-3.4 6.8-6 9.5-2.6 2.8-5.8 5-9.3 6.5-3.4 1.5-7.2 2.2-11 2.2l9 5.2c-3.5 0-6.9-.6-10.1-1.9-3.3-1.2-6.3-3.1-8.8-5.4-2.6-2.3-4.7-5.1-6.2-8.2-1.6-3.1-2.6-6.5-2.9-9.9L81.2 324.8q-.2-1.7.3-3.4t1.6-3.1q1-1.3 2.5-2.2 1.5-.9 3.2-1.2L119 305c30.9-7.1 45.5 10.1 47.5 25.8 2.3 17.5 4.4 38.9 3.2 52.1z"/><path class="s17" d="M124.2 362.5c-2.5 0-4.4-1-4.4-2.3 0-1.2 1.9-2.3 4.4-2.3 2.4 0 4.4 1.1 4.4 2.3 0 1.3-2 2.3-4.4 2.3zM168.2 364.8c-2.5 0-4.4-1-4.4-2.3 0-1.2 1.9-2.3 4.4-2.3 2.4 0 4.4 1.1 4.4 2.3 0 1.3-2 2.3-4.4 2.3z"/><path class="s10" d="M142 371.4c-.1-.2 2.2-.7 5.8-1.4.9-.2 1.8-.4 1.9-1.1q0-.4-.1-.7 0-.4-.1-.7-.1-.4-.3-.7-.1-.3-.3-.6-1.6-3.3-3.2-6.9c-4.5-9.8-7.8-17.9-7.4-18 .4-.2 4.3 7.6 8.8 17.4q1.6 3.6 3.1 6.9c.4 1 1.1 2.2.7 3.6q-.1.3-.2.5t-.3.4q-.2.2-.4.3-.3.2-.5.3-.2 0-.4.1-.2 0-.4.1-.2 0-.4.1h-.4c-3.6.4-5.9.6-5.9.4zM131.4 374.6c.6 0 .9 3.9 4.5 6.5 3.5 2.5 7.7 1.8 7.7 2.4.1.2-.8.8-2.6 1h-1.7q-.9-.1-1.7-.3l-1.6-.6q-.8-.4-1.5-.9t-1.2-1.1q-.6-.6-1.1-1.3-.4-.7-.7-1.4-.3-.8-.4-1.6c-.3-1.7.1-2.7.3-2.7zM114.6 298.4c7.1-3.8 25.6-4.9 33.3-2.8q2.9.8 5.6 2.1 2.7 1.4 5.1 3.2 2.4 1.8 4.4 4.1 2 2.2 3.6 4.8c3.6 6 5 13 6.4 19.9q.1.4.1.8.1.4.1.7 0 .4-.1.8l-.2.8c-.7 1.4-2.5 1.7-4.1 1.7q-2-.1-4-.8-1.9-.7-3.6-1.8-1.7-1.2-3-2.8-1.3-1.6-2.2-3.5c-1.1-2.6-1.4-5.8-3.4-7.9q-.6-.6-1.3-1.1-.7-.5-1.4-.8-.8-.4-1.6-.6-.8-.2-1.6-.3c-2.3-.4-4.5-.3-6.7-.4-9.4-.7-22.9.5-27.9-7.5"/><path class="s10" d="M111 296.8c9.4 11.5 9.1 29.9-.8 40.9-5.6 6.4-14.4 11.7-14.2 20.1.2 9.4 11.6 15.3 12.5 24.7.9 9.5-9.6 16.7-10.8 26.2-1 7.7 4.2 14.8 9.9 20 5.7 5.2 12.5 9.7 16.3 16.4 4.1 7.5 4 16.8 1.4 24.9-2.6 8.1-7.5 15.3-12.6 22.2q-2.9-.8-6-1.3-3-.6-6-1-3.1-.4-6.1-.6-3.1-.2-6.2-.1.3-4.7.7-9.4c.5 3.5-2.2 7-5.5 8.4-3.3 1.4-7 1.4-10.6 1.1q-4.2-.2-8.3-.7-4.1-.4-8.2-1.1-4-.6-8.1-1.5-4-.8-8-1.8c3.9-4.9 8-9.8 10.2-15.7 2.2-5.8 2.3-12.9-1.4-18-2.9-4-7.9-6.4-10.6-10.6-4.2-6.3-2.1-15 2.4-21.1 4.4-6.1 10.8-10.5 16.3-15.7 5.5-5.1 10.4-11.9 10.2-19.5-.3-9.8-9.1-17.9-9-27.7 0-11.2 11.1-19 14.7-29.6 2.7-7.6 1.5-15.5 6-22.2 3.4-5 9.3-8.7 15.3-9 5.9-.2 11.2-.9 16.5 1.7z"/><path class="s13" d="M181.4 317.8h-.3q-.1.1-.2.1t-.2-.1h-.8q-.3-.1-.6-.1-.3-.1-.6-.1-.3-.1-.5-.1-1.1-.3-2.2-.7-1-.4-2-.9-.9-.5-1.8-1.2-.9-.6-1.7-1.4-.6-.5-1.1-1.1l-1-1.2q-.4-.6-.9-1.2-.4-.7-.7-1.4c-1-1.9-1.9-4.1-2.9-6.3q-.4-.8-.8-1.7-.5-.8-1-1.5-.6-.8-1.2-1.5t-1.3-1.4q-.7-.6-1.6-1.2-.8-.6-1.7-1-.9-.5-1.8-.8-1-.4-2-.6c-5.4-1.5-10.8-.5-15.4 1q-1.5.5-3 1.1l-3 1.2q-1.5.7-2.9 1.4-1.5.7-2.9 1.4c-3.4 1.6-6.1 2.8-8 3.5q-1.5.6-2.3.8-.1 0-.2.1h-.2q-.1 0-.2.1h-.2q.1-.1.2-.1.1-.1.2-.1.1-.1.2-.1t.2-.1q.8-.3 2.2-.8c1.9-.8 4.5-2.1 7.8-3.8q1.5-.7 2.9-1.5 1.5-.7 3-1.3 1.5-.7 3-1.3l3-1.2c4.6-1.5 10.2-2.6 15.8-1.1q1.1.3 2 .7 1 .3 2 .8.9.5 1.8 1.1.8.6 1.6 1.3.7.6 1.4 1.4.6.7 1.1 1.5.6.8 1.1 1.7.4.8.8 1.7c1 2.3 1.9 4.4 2.8 6.4q.9 1.6 2 3 1.1 1.5 2.5 2.6 1.4 1.2 3 2.1 1.7.8 3.4 1.3c2 .5 3.2.5 3.2.6zM79.5 312.6q0-.2.1-.4v-.4q.1-.2.1-.4l.2-.4q.1-.5.4-1l.4-1q.2-.5.5-1 .3-.4.6-.9c1.3-2.1 2.9-3.8 4.9-5.3 2-1.4 4.2-2.4 6.5-3 2.4-.6 4.8-.8 7.2-.4 2.4.3 4.8 1.1 6.9 2.3q.4.2.9.5t.9.6q.5.4.9.7.4.3.8.7l.3.3.3.3q.1.1.2.3l.3.3q-.6-.5-1.2-.9l-1.2-.8-1.2-.8q-.6-.4-1.3-.8c-2.1-1.1-4.3-1.8-6.6-2.1-2.4-.2-4.7-.1-7 .5s-4.4 1.5-6.3 2.9c-1.9 1.3-3.6 3-4.9 5l-.8 1.2q-.3.7-.7 1.3-.3.7-.6 1.3l-.6 1.4z"/><path d="m97.8 577.9 24.5-59.1 82.3 37.7-45.9 106.6L75 632.7z" style="fill:#50a8e8"/><path class="s19" d="M220.5 564.1 175.2 669l-16.5-5.9 45.9-106.6zM134.2 523.2l5.6-11.3 76.9 37.3-3.9 10.1z"/><path class="s7" d="m125.6 520.3 2.2-5.1 87.7 41.3-1.6 4.5z"/><path class="s20" d="M206.6 577.7c.2.1-6.4 16.3-14.8 36.3-8.4 19.9-15.3 36-15.5 35.9-.2 0 6.4-16.3 14.8-36.2 8.4-20 15.3-36.1 15.5-36zM130.8 542.9h.2q.3.2.8.4l3 1.3 11.5 5.1 40.2 18.1.3.1-.1.4c-4.9 11-10.2 23.2-15.8 36.1l-.2.3-.3-.1-.1-.1c-20.6-8.8-39.6-16.9-54.8-23.3l-.3-.2.1-.2c4.7-11.6 8.5-21.1 11.3-27.7 1.3-3.3 2.3-5.8 3.1-7.6q.5-1.3.8-2 0-.1.1-.2v-.1q.1-.1.1-.2t.1-.1c0-.1-.1.2-.3.7q-.3.7-.8 2l-3 7.7c-2.6 6.7-6.3 16.2-10.9 27.7l-.1-.4 54.9 23.2.1.1-.5.2c5.6-12.9 11-25.1 15.8-36.1l.2.4-39.9-18.3-11.4-5.3-3-1.4-.8-.4h-.1l-.1-.1h-.1z"/><path class="s20" d="M172.2 591q-.1-.2-.1-.3-.1-.1-.2-.3 0-.1-.1-.3 0-.1-.1-.3l-1.3-3.3-4.3-11.9.4.2-15.4 5-.3.1-.2-.2-1.3-2.2c-1.6-2.7-3.3-5.3-4.8-7.7l.5.1-18.1 7-5.3 1.9q-.2.1-.5.2l-.4.2q-.3.1-.5.1-.3.1-.5.2.2-.2.4-.3.2-.1.5-.2l.4-.2q.3-.1.5-.2l5.2-2.2 18-7.2.3-.1.1.3 4.9 7.8q.6 1.1 1.3 2.1l-.5-.2 15.5-4.9.3-.1.1.3c1.7 4.9 3.1 9 4.1 12q.7 2 1.1 3.4.1.1.1.3 0 .1.1.3 0 .1.1.3v.3zM157.2 567.5c-.1 0-.1-.3-.3-.7q0-.3-.1-.5-.2-.2-.3-.4-.2-.2-.3-.4-.2-.1-.4-.3-.3-.2-.6-.3-.3-.1-.7-.2h-.7q-.3.1-.7.2c-.5.2-1 .6-1.3 1-.3.5-.5 1-.5 1.6 0 .6.2 1.1.5 1.6.3.4.8.8 1.3 1q.4.1.7.2h.7q.4-.1.7-.2.3-.1.6-.3.2-.2.4-.3.1-.2.3-.4.1-.2.3-.4.1-.2.1-.5c.2-.4.2-.7.3-.7 0 0 .1.3 0 .8q0 .3-.1.5-.1.3-.3.5-.1.3-.3.5l-.4.4q-.3.3-.7.4-.4.2-.8.3-.4.1-.9 0-.4 0-.8-.1c-.7-.3-1.3-.7-1.7-1.3-.4-.6-.6-1.3-.6-2s.2-1.4.6-2c.4-.6 1-1 1.7-1.2q.4-.2.8-.2.5-.1.9 0t.8.3q.4.1.7.4l.4.4q.2.2.3.5.2.2.3.5.1.2.1.5c.1.5 0 .8 0 .8z"/><path class="s12" d="M191.8 550.8c-1.8-.3-13.2 27.9-13.2 27.9l-3.6-5.9-5.8 1.8s8.9-26.9 12.9-28.3c10.1-3.7 15.7 7.2 15.7 7.2z"/><path class="s20" d="m169.9 612.8-.6-.2-.6-.2-.6-.2-.6-.2-6.5-2.5c-5.5-2-13-5-21.3-8.2-8.3-3.3-15.8-6.3-21.3-8.5l-6.4-2.7-.6-.2q-.2-.1-.5-.3-.3-.1-.6-.3-.3-.1-.6-.3.3.1.7.2l.6.2.6.2.6.2 6.5 2.5c5.4 2.1 13 5 21.3 8.3 8.3 3.2 15.8 6.2 21.2 8.4 2.6 1.1 4.8 2 6.4 2.7l.6.2q.3.2.6.3.3.1.5.3.3.1.6.3zM166.5 617.4l-.6-.2-.6-.2-.6-.2-.6-.2-6.5-2.5c-5.4-2.1-13-5-21.3-8.3-8.3-3.2-15.8-6.2-21.2-8.4l-6.4-2.7-.6-.2q-.3-.2-.6-.3-.3-.1-.6-.3-.2-.1-.5-.3l.6.2.6.2.6.2.6.2c1.7.7 3.8 1.5 6.5 2.5 5.5 2.1 13 5 21.3 8.3 8.3 3.2 15.8 6.2 21.2 8.4l6.4 2.7.6.2q.3.1.6.3.3.1.6.3.3.1.5.3zM164.7 623.5l-.6-.2q-.3 0-.6-.1t-.6-.3l-.6-.2-6.5-2.4c-5.5-2.1-13-5-21.3-8.3-8.3-3.3-15.8-6.3-21.3-8.5l-6.4-2.6q-.3-.1-.5-.3l-.6-.2q-.3-.2-.6-.3-.3-.1-.6-.3.4.1.7.2l.6.2.6.2.6.2 6.5 2.4c5.4 2.1 13 5 21.3 8.3 8.3 3.3 15.8 6.3 21.2 8.5l6.4 2.6q.3.2.6.3l.6.2q.3.2.6.3.2.2.5.3z"/><path class="s14" d="m126.4 606.7 12.3 6.2s9.9-4.8 14.8-5.5c4.9-.7 26.1 2 26.1 2s.5 4.3-3.7 5.7c-1.9.5-12.3-.1-12.3-.1-.7.6-1.2 1.3-1.5 2.2-.3.8-.4 1.7-.2 2.6.1.9.5 1.7 1 2.4.6.7 1.3 1.2 2.1 1.6 5.3 2.2 11.5 4.8 12.2 5.2.8.6 8.4-.8 14.1-2 3.4-.7 5.8 3.7 3.2 5.9l-.2.2q-.1.1-.2.1-.1.1-.3.1-.1 0-.2.1c-.1 0 5.1 3-3.7 6.8 0 0-3 6.9-8.4 7.3 0 0-6.5 6.5-10.5 7.5-4 1.1-30-8.8-30-8.8L115.6 633z"/><path fill-rule="evenodd" class="s15" d="M170.3 655.2c-5.8 0-29.1-8.9-29.3-9L115.6 633l10.8-26.4v.1l12.4 6.2c.4-.2 10-4.8 14.7-5.6h.6q.3 0 .6-.1h1.1c7.2 0 23.6 2.1 23.8 2.2 0 0 .5 4.4-3.7 5.7-1.8.6-11.8-.1-12.3-.1-.7.6-1.2 1.3-1.5 2.2-.3.8-.4 1.7-.2 2.6.1.9.5 1.7 1 2.4.6.7 1.3 1.2 2.1 1.6 5.2 2.1 11.5 4.7 12.2 5.2.6.4 5.6-.3 14-2h.2q.1-.1.2-.1h.4q.5 0 1 .2.5.1.9.4.4.3.8.7.3.4.5.8.3.5.4 1 .1.6 0 1.1-.1.6-.4 1-.3.5-.7.9-.1 0-.2.1t-.2.1-.2.1-.2.1l.6.4.4.6q.2.3.3.7.1.3.1.7-.2 2.3-5.2 4.4l-.4 1q-.3.4-.6.9-.2.4-.5.8l-.6.8c-1.4 1.6-3.5 3.6-6.3 3.9-.3.3-6.6 6.4-10.5 7.5H170.7q-.1 0-.2.1h-.2zM115.7 633l25.3 13.1c.2.1 23.5 9 29.3 9H170.6q.1 0 .2-.1h.2c4-1 10.4-7.4 10.4-7.5h.1c2.8-.2 4.9-2.2 6.2-3.8l.6-.8q.3-.4.6-.9.3-.4.5-.9.3-.4.5-.9c3.3-1.4 5-2.9 5.1-4.4q0-.4-.1-.7-.1-.4-.3-.7l-.4-.6-.6-.4-.1-.1H193.8q.1-.1.3-.1.1-.1.2-.1l.2-.2q.4-.3.6-.8.3-.5.4-1 .1-.5 0-1-.1-.6-.3-1-.3-.6-.7-1-.4-.4-.9-.7-.6-.3-1.1-.4-.6-.1-1.2.1c-5.1 1-11.1 2.1-13.3 2.1h-.4q-.1 0-.2-.1h-.2c-.6-.4-4.8-2.2-12.2-5.3-.8-.3-1.5-.9-2.1-1.6-.6-.7-.9-1.5-1.1-2.4-.1-.9 0-1.8.3-2.7.3-.8.8-1.5 1.5-2.1.1 0 10.4.6 12.3 0q.6-.1 1.1-.5.6-.3 1-.7.5-.4.8-1 .3-.5.5-1.1.1-.3.1-.5.1-.3.1-.6.1-.3.1-.6t-.1-.6c-.7-.1-16.6-2.1-23.7-2.1h-1.1q-.3 0-.6.1h-.6c-4.8.7-14.6 5.5-14.7 5.5v.1l-.1-.1-12.3-6.2z"/><path class="s16" d="m72.3 516-21.4 48.7 78 39.6-13.3 32.6-86.9-26.1c-22.9-6.2-31.6-28-27.9-46.4 5.1-25.2 20.5-60.7 27.9-82.6 8.7-25.8 23.2-35.2 23.2-35.2z"/><path class="s10" d="M21 607.9h.2q.1 0 .2.1h.1l1.4.4 5.3 1.6 20 6 67.5 20.6-.4.2 8.4-20.8q2.5-6 4.9-11.8l.1.5c-16.3-8.1-31.3-16-44.5-22.8-13.3-6.8-24.6-12.6-33.4-17h.1q-1.1-.2-2.2-.3h-2.2q-1.1.1-2.2.4-1.1.2-2.1.5-1.1.4-2.1.9t-1.9 1.1q-1 .6-1.9 1.3-.8.7-1.6 1.5-.2.2-.4.3-.1.2-.3.3-.1.2-.3.3l-.2.4-.8.8-.1.1-.1.1v-.1h.1v-.1l.1-.1.7-.8.2-.4q.2-.1.3-.3.2-.1.3-.3l.3-.3q.2-.2.5-.4.2-.2.4-.5.2-.2.4-.3.3-.2.5-.4.6-.6 1.3-1.1.7-.4 1.4-.9.8-.4 1.5-.7.8-.4 1.6-.7 1-.4 2.1-.6 1.1-.2 2.3-.3 1.1-.1 2.2-.1 1.2.1 2.3.3c8.8 4.3 20.2 10 33.5 16.8 13.2 6.8 28.3 14.6 44.6 22.7l.3.1-.1.4q-2.4 5.8-4.9 11.8c-2.9 7.1-5.7 14.1-8.4 20.8l-.2.3-.3-.1L48 616.4l-19.8-6.2-5.4-1.7-1.3-.4q-.1 0-.2-.1h-.1l-.1-.1H21z"/><path class="s10" d="M76 490.1v.2q.1.1.1.2t.1.2v.2q.1.3.2.5 0 .3.1.6t.1.6.1.6q.2 1 .2 2.1.1 1.1.1 2.1v2.2q-.1 1.1-.3 2.1-.2 1.6-.5 3.2-.4 1.5-.8 3.1-.4 1.5-.9 3t-1.1 3c-1.7 4.5-3.9 9.2-6.2 14.3-4.4 10-8.5 19-11.5 25.7-1.5 3.2-2.7 5.8-3.6 7.7l-1 2.1q0 .1-.1.2 0 .1-.1.2 0 .1-.1.2 0 .1-.1.1 0-.1.1-.2v-.2l.1-.1q0-.1.1-.2l.9-2.2c.8-1.9 1.9-4.6 3.3-7.8L66.6 528c2.2-5.1 4.4-9.8 6.1-14.3q.6-1.4 1.1-2.9.6-1.5 1-3t.8-3.1l.6-3q.2-1.1.3-2.2.1-1 .1-2.1v-2.1q-.1-1-.2-2.1c-.1-1-.2-1.8-.3-2.3q-.1-.1-.1-.2V490.1z"/><path class="s3" d="M630.7 567q-.1-.1-.2-.3-.1-.1-.2-.3-.1-.1-.2-.3c-.5-.7-1.2-1.8-2.2-3.2q-1.1-1.5-2.3-2.8-1.2-1.4-2.5-2.6-1.4-1.2-2.8-2.3-1.5-1.1-3-2l-2.2-1.2q-1.1-.5-2.3-.9-1.2-.4-2.4-.7-1.2-.3-2.4-.5-1.4-.2-2.8-.2-1.5 0-2.9.1-1.4.2-2.8.5-1.3.3-2.7.8-1.4.6-2.8 1.3-1.4.8-2.6 1.8-1.2 1-2.2 2.2-1 1.2-1.8 2.5c-2.2 3.8-2.9 8.4-4.2 12.9l-.6 1.6q-.3.9-.6 1.7l-.8 1.6q-.4.8-.9 1.5l-1 1.4-1.2 1.2q-.6.6-1.3 1.2l-1.4 1c-1.8 1.3-3.6 2.5-5.2 3.8l-1.2 1-1.1 1.1q-.5.5-1 1.1-.4.6-.9 1.3-.8 1.1-1.5 2.4l-1.2 2.6-1 2.6q-.4 1.4-.6 2.8-.3 1.2-.4 2.5-.2 1.2-.3 2.4-.1 1.3-.1 2.5 0 1.3.1 2.5.1 1.8.3 3.6.2 1.8.5 3.6t.7 3.6q.4 1.8.8 3.5.6 2.4.9 3.9.1.1.1.3 0 .2.1.3v.4q.1.2.1.3-.1-.1-.1-.3-.1-.2-.1-.3-.1-.2-.1-.4-.1-.1-.1-.3-.4-1.3-1.1-3.8-.5-1.8-.9-3.5-.4-1.8-.7-3.6-.4-1.8-.6-3.6l-.4-3.6q-.1-1.3-.1-2.6 0-1.2.1-2.5t.2-2.5q.2-1.3.4-2.5.3-1.5.7-2.9.4-1.4 1-2.7.5-1.4 1.2-2.7.7-1.2 1.5-2.4.5-.7 1-1.3.4-.6 1-1.2.5-.6 1.1-1.1.6-.6 1.2-1.1c1.7-1.4 3.5-2.5 5.3-3.8q.6-.5 1.3-1 .6-.6 1.2-1.1.6-.6 1.1-1.2.6-.7 1-1.3.5-.8.9-1.5.4-.8.7-1.6.4-.7.7-1.5.3-.8.5-1.7c1.3-4.4 2.1-9 4.3-13q.9-1.4 1.9-2.6 1.1-1.3 2.3-2.3 1.3-1 2.7-1.8 1.4-.8 3-1.4 1.3-.5 2.8-.8 1.4-.3 2.9-.5 1.4-.1 2.9-.1 1.4 0 2.9.2 1.2.2 2.5.6 1.2.3 2.4.7 1.2.4 2.3 1 1.2.6 2.3 1.2 1.5 1 3 2.1 1.4 1.1 2.8 2.4 1.3 1.2 2.5 2.6 1.2 1.4 2.2 2.9c1 1.4 1.7 2.6 2.2 3.3l.5.9v.1q0 .1.1.1v.2q-.1-.2-.2-.3z"/><path class="s3" d="M572.9 583.5c1.2-1.1 1.8-.3 3.5 0q.6.1 1.2.3.5.2 1.1.5.6.3 1.1.6l1 .8q2.1 1.7 3.6 4t2.3 4.9q.9 2.6.9 5.3 0 2.8-.8 5.4c-2.6.1-5.2-.4-7.5-1.6-2.4-1.3-4.3-3.1-5.7-5.4-1.4-2.2-2.1-4.8-2.1-7.4-.1-2.6.6-5.2 2-7.5M623.1 560.7c.6-1.6 1.5-1.1 3.1-1.5q.6-.2 1.2-.2.6-.1 1.3-.1.6 0 1.2.1t1.2.3q2.7.6 5 2 2.4 1.4 4.2 3.4 1.9 2 3.1 4.5 1.2 2.4 1.6 5.1c-2.3 1.3-4.9 1.9-7.5 1.8-2.6-.1-5.2-.9-7.4-2.3-2.2-1.5-4-3.5-5.1-5.8-1.2-2.4-1.7-5-1.5-7.7M561.8 614.5c1.7-2 3.8-3.5 6.1-4.5 2.4-1 4.9-1.5 7.5-1.3 2.5.1 5 .8 7.3 2 2.2 1.2 4.1 3 5.6 5q-1.4 1.3-3 2.3-1.6 1-3.4 1.7-1.7.7-3.6 1.1-1.8.3-3.7.4-1.9-.1-3.8-.5t-3.6-1.1q-1.8-.7-3.4-1.7-1.6-1-3-2.3M566 591.4c-2.6 0-5.1-.5-7.5-1.5-2.3-1.1-4.4-2.6-6-4.6-1.7-1.9-2.9-4.2-3.5-6.7-.7-2.5-.8-5.1-.3-7.6 2.7-.6 5.5-.5 8.2.4 2.6.8 4.9 2.3 6.7 4.4 1.9 2.1 3.1 4.6 3.6 7.3s.3 5.5-.7 8.1M583.6 564.2c-2.4.9-4.9 1.3-7.5 1.1-2.5-.2-5-1-7.2-2.3-2.2-1.3-4.1-3-5.5-5.2-1.5-2.1-2.4-4.5-2.8-7 2.4-1.5 5-2.3 7.8-2.4 2.7-.1 5.5.6 7.9 1.9 2.4 1.4 4.4 3.3 5.8 5.7 1.3 2.4 2 5.1 2 7.9M589.5 555.4c2.4-1 5-1.3 7.6-1.1 2.5.2 5 1 7.2 2.3 2.2 1.2 4.1 3 5.5 5.1 1.5 2.2 2.4 4.6 2.8 7.1-2.4 1.5-5.1 2.3-7.8 2.4-2.8.1-5.5-.6-7.9-1.9-2.4-1.4-4.4-3.4-5.8-5.7-1.4-2.4-2.1-5.1-2-7.9M596.6 550.6c-2.4-.8-4.6-2.2-6.5-4-1.8-1.8-3.2-4-4.1-6.4-.8-2.4-1.2-4.9-.9-7.5.3-2.5 1.1-5 2.4-7.2 2.8.4 5.3 1.5 7.5 3.2 2.2 1.7 3.8 3.9 4.8 6.5s1.3 5.4.8 8.1c-.4 2.7-1.6 5.2-3.4 7.3M614.7 551.5c-.9-2.5-1.2-5-.9-7.6.2-2.5 1-5 2.4-7.2 1.3-2.2 3.1-4 5.3-5.4 2.1-1.4 4.6-2.3 7.1-2.6 1.4 2.4 2.2 5.1 2.2 7.8.1 2.8-.7 5.5-2.1 7.9-1.4 2.3-3.4 4.3-5.8 5.6-2.4 1.4-5.1 2-7.9 1.9"/><path class="s2" d="m541.8 673.7-9.7-60.5 73.9.9-7.3 58.8"/><path class="s21" d="M572.2 601.1c.6-2 1.7-3.9 3.1-5.5 1.4-1.6 3.1-2.8 5.1-3.6 1.9-.8 4.1-1.2 6.2-1.1 2.1.1 4.1.7 6 1.7-.5 4.8-3.1 8.8-6.7 10.6q-1.5.7-3.1 1-1.6.2-3.2.1t-3.1-.7q-1.5-.5-2.9-1.4M606 614.1c.6-2 1.6-3.9 3-5.5 1.5-1.5 3.2-2.8 5.2-3.6 1.9-.8 4-1.2 6.1-1.1 2.1.2 4.2.7 6.1 1.7-.6 4.8-3.1 8.8-6.7 10.6q-1.5.7-3.1 1-1.6.3-3.2.1-1.6-.1-3.1-.6-1.6-.6-2.9-1.5M587.9 584.4c1.6-1.3 3.5-2.3 5.5-2.9 2.1-.5 4.2-.6 6.3-.2 2.1.4 4 1.3 5.7 2.5 1.7 1.3 3.2 2.9 4.1 4.8-3 3.6-7.3 5.6-11.4 5.1q-1.6-.2-3.1-.9-1.4-.6-2.7-1.6-1.3-1-2.2-2.3-1-1.3-1.6-2.8M602.5 601.4c.6 2 .7 4.2.3 6.3-.4 2-1.3 4-2.5 5.7-1.3 1.7-2.9 3.1-4.8 4.1-1.8 1-3.9 1.6-6 1.7-2-4.3-1.9-9.1.3-12.6q.9-1.3 2.1-2.3 1.2-1.1 2.7-1.8 1.4-.7 3-1.1 1.6-.3 3.2-.2M613.7 624.3c4.4 1 7.9 2.8 9.8 6.3q.7 1.4 1.2 2.9.4 1.6.5 3.1.1 1.6-.2 3.2-.2 1.5-.8 3c-4.7 0-9-2.1-11.2-5.5q-.9-1.4-1.3-2.9-.4-1.6-.5-3.2 0-1.6.3-3.2.4-1.6 1.2-3"/><path class="s21" d="M632.3 627.8q-.3-.3-.7-.6-.3-.2-.7-.5-.3-.2-.7-.4l-.8-.4q-.5-.1-1-.3l-1-.2q-.5-.1-1-.1-.5-.1-1-.1-.7 0-1.4.1h-1.3q-.7.1-1.4.1l-1.4.2q-.8.1-1.7.1-.8 0-1.7-.1-.8 0-1.6-.2-.9-.2-1.7-.4-.9-.4-1.7-.9-.9-.6-1.6-1.3-.7-.6-1.2-1.5-.6-.8-1-1.7-.5-.9-.8-1.9-.4-1-.7-2.1-.3-1-.5-2-.3-1.1-.4-2.1c-.6-2.9-1.2-5.9-2.9-8.4-1.6-2.6-4-4.5-6.2-6.4q-.8-.6-1.6-1.3-.9-.7-1.6-1.5-.7-.7-1.4-1.6l-1.4-1.6q-1-1.6-1.7-3.2-.7-1.7-1-3.5-.4-1.8-.5-3.6 0-1.8.3-3.6.1-1.2.4-2.4.3-1.2.8-2.3.5-1.2 1.1-2.2.6-1.1 1.3-2.1.2-.2.4-.5.2-.2.4-.5l.5-.5.4-.4.2-.2q.1-.1.2-.1l.2-.2q.1 0 .1-.1 0 .1-.1.2t-.1.2q-.1 0-.2.1t-.1.2q-.3.2-.5.5-.2.2-.4.5-.2.2-.4.5t-.4.5q-.6 1-1.2 2.1-.5 1-1 2.1-.4 1.1-.7 2.3-.2 1.2-.4 2.3-.2 1.8-.2 3.6.1 1.7.5 3.4t1.1 3.4q.7 1.6 1.6 3.1.7.8 1.3 1.6.7.8 1.5 1.5.7.7 1.5 1.4t1.6 1.3c2.2 1.9 4.7 3.8 6.4 6.5 1.8 2.8 2.4 5.9 3 8.7q.1 1 .3 2.1.2 1 .5 2t.7 2q.3 1 .7 1.9.4.9.9 1.6.5.8 1.2 1.4.7.7 1.4 1.2.8.5 1.7.9.7.2 1.5.4l1.6.2q.8.1 1.7.1.8 0 1.6-.1.7-.1 1.4-.1.7-.1 1.3-.1h2.8q.5 0 1 .1.6 0 1.1.2l1 .2 1 .4.6.2.6.4q.3.1.5.4.3.2.5.4l.1.1q.1.1.2.1 0 .1.1.2l.1.1.1.2z"/><path class="s21" d="M632.3 627.8q-.3-.3-.7-.6-.3-.2-.7-.5-.3-.2-.7-.4l-.8-.4q-.5-.1-1-.3l-1-.2q-.5-.1-1-.1-.5-.1-1-.1-.7 0-1.4.1h-1.3q-.7.1-1.4.1l-1.4.2q-.8.1-1.7.1-.8 0-1.7-.1-.8 0-1.6-.2-.9-.2-1.7-.4-.9-.4-1.7-.9-.9-.6-1.6-1.3-.7-.6-1.2-1.5-.6-.8-1-1.7-.5-.9-.8-1.9-.4-1-.7-2.1-.3-1-.5-2-.3-1.1-.4-2.1c-.6-2.9-1.2-5.9-2.9-8.4-1.6-2.6-4-4.5-6.2-6.4q-.8-.6-1.6-1.3-.9-.7-1.6-1.5-.7-.7-1.4-1.6l-1.4-1.6q-1-1.6-1.7-3.2-.7-1.7-1-3.5-.4-1.8-.5-3.6 0-1.8.3-3.6.1-1.2.4-2.4.3-1.2.8-2.3.5-1.2 1.1-2.2.6-1.1 1.3-2.1.2-.2.4-.5.2-.2.4-.5l.5-.5.4-.4.2-.2q.1-.1.2-.1l.2-.2q.1 0 .1-.1 0 .1-.1.2t-.1.2q-.1 0-.2.1t-.1.2q-.3.2-.5.5-.2.2-.4.5-.2.2-.4.5t-.4.5q-.6 1-1.2 2.1-.5 1-1 2.1-.4 1.1-.7 2.3-.2 1.2-.4 2.3-.2 1.8-.2 3.6.1 1.7.5 3.4t1.1 3.4q.7 1.6 1.6 3.1.7.8 1.3 1.6.7.8 1.5 1.5.7.7 1.5 1.4t1.6 1.3c2.2 1.9 4.7 3.8 6.4 6.5 1.8 2.8 2.4 5.9 3 8.7q.1 1 .3 2.1.2 1 .5 2t.7 2q.3 1 .7 1.9.4.9.9 1.6.5.8 1.2 1.4.7.7 1.4 1.2.8.5 1.7.9.7.2 1.5.4l1.6.2q.8.1 1.7.1.8 0 1.6-.1.7-.1 1.4-.1.7-.1 1.3-.1h2.8q.5 0 1 .1.6 0 1.1.2l1 .2 1 .4.6.2.6.4q.3.1.5.4.3.2.5.4l.1.1q.1.1.2.1 0 .1.1.2l.1.1.1.2zM490.7 633.8c-2.7-.4-5.3-1-7.8-2-2.4-1-4.8-2.3-6.9-3.9-2.2-1.6-4.1-3.4-5.8-5.5-1.7-2.1-3.1-4.4-4.2-6.8 2.9-1.1 6.1-1.5 9.1-1 3.1.4 6 1.5 8.6 3.4 2.5 1.8 4.5 4.2 5.8 7 1.4 2.8 2 5.9 1.8 9M486.7 635.1c2.2 1.4 4.2 3.2 5.9 5.2 1.7 2.1 3 4.4 4 6.8.9 2.5 1.4 5.1 1.5 7.7.1 2.7-.2 5.3-1 7.8-4.4-2.9-8.9-6.3-11.5-11-2.5-4.7-2.8-11.1.8-15M503.7 619.5c5-3.3 12-1.9 16.5 2.1 4.5 3.9 6.8 9.8 8.2 15.6-2.8.4-5.8.2-8.6-.5-2.8-.8-5.4-2.1-7.7-3.9-2.3-1.8-4.2-4-5.6-6.6-1.4-2.5-2.3-5.3-2.6-8.2M503.9 610.1c-2 1.4-4.2 2.6-6.5 3.2-2.4.7-4.8.9-7.2.7-2.5-.3-4.8-1-7-2.1s-4.1-2.6-5.7-4.4c4.3-3.3 9.5-5.6 14.9-5.1 5.3.5 10.5 4.4 11.4 9.7M475.9 655.4c6.1 2.7 10 9 11.1 15.5 1.1 6.5-.2 13.3-2.3 19.5-5.6-3.7-10.5-8.7-12.6-15-2.1-6.4-.9-14.1 4.2-18.4M503 597.2c1.3-1.9 3.1-3.6 5.2-4.8 2.1-1.1 4.4-1.8 6.8-2 2.4-.1 4.8.3 7 1.2 2.2 1 4.1 2.4 5.7 4.2-1 2.3-2.7 4.3-4.8 5.7-2.2 1.4-4.6 2.2-7.2 2.3-2.5 0-5-.6-7.2-1.9-2.2-1.3-4-3.2-5.1-5.5M509.2 582c-2.7.8-5.6 1.1-8.4.7-2.9-.4-5.6-1.3-8.1-2.8-2.4-1.5-4.5-3.5-6.1-5.9-1.6-2.3-2.7-5-3.2-7.8q1.5-.2 3-.3 1.6-.1 3.1-.1l3 .2q1.6.1 3.1.3 1.5.3 3 .7 1.4.5 2.8 1.2 1.4.6 2.6 1.5 1.3.9 2.4 2 1 .9 1.7 2.2.7 1.2 1.1 2.5.4 1.4.4 2.8t-.4 2.8zM520.9 578.1c-1.9-1.6-3.4-3.5-4.4-5.7-1.1-2.3-1.6-4.7-1.6-7.1-.1-2.4.5-4.9 1.5-7.1 1-2.2 2.6-4.1 4.4-5.7q1.4 1.7 2.6 3.5 1.1 1.8 2 3.8.9 1.9 1.6 4 .7 2 1.1 4.1.2.8.3 1.6.1.8 0 1.6 0 .8-.1 1.6t-.3 1.6q-.2.8-.6 1.5-.4.7-1 1.2-.6.6-1.3 1-.8.3-1.6.5"/><path class="s21" d="M541.2 615.2v-.4q0-.5.1-1.3c0-1 .1-2.6.2-4.6q.1-2.2-.1-4.3-.1-2.1-.4-4.3-.4-2.1-1-4.1-.5-2.1-1.3-4.1-.5-1.4-1.2-2.7l-1.6-2.4q-.9-1.2-1.8-2.3-1-1.1-2.1-2.1-1.3-1.1-2.7-2-1.5-.8-3-1.4-1.6-.6-3.3-.9-1.6-.3-3.3-.2-.9 0-1.8.1t-1.8.3q-.8.3-1.7.6-.8.3-1.6.7-.9.5-1.6 1-.8.6-1.5 1.2l-1.2 1.4q-.6.7-1.1 1.5c-2.7 4.4-3.3 10-3.1 15.5.2 5.5 1 10.9.4 16.2q-.1 1-.3 1.9-.2 1-.4 1.9-.3 1-.6 1.9-.3.9-.7 1.8-.4.9-.9 1.7-.5.8-1.1 1.6-.5.7-1.2 1.4t-1.4 1.3q-.7.5-1.5 1-.7.4-1.5.8l-1.6.8q-.9.3-1.7.6l-1.6.6q-.7.3-1.5.6-.7.3-1.4.7-.8.4-1.5.8-1.2.8-2.4 1.7-1.1 1-2.1 2-1 1.1-1.8 2.3-.8 1.2-1.5 2.5-.6 1.1-1 2.3-.4 1.1-.7 2.3-.3 1.2-.4 2.4-.2 1.2-.2 2.4 0 .9.1 1.8l.2 1.8.4 1.8q.2.9.5 1.8.3.7.6 1.5l.6 1.4.8 1.4q.4.7.8 1.3l-.1-.1-.1-.1q0-.1-.1-.1c-.1-.2-.4-.5-.7-1l-.6-1-.6-1q-.2-.6-.5-1.1-.2-.5-.4-1.1l-.6-1.8-.4-1.8-.2-1.8q-.1-1-.1-1.9 0-1.3.1-2.5t.4-2.4q.3-1.3.7-2.4.4-1.2 1-2.3.6-1.4 1.5-2.6.9-1.3 1.9-2.4 1-1.1 2.1-2.1 1.2-.9 2.5-1.7c3.6-2.5 8.4-3.1 12.1-6 3.8-2.9 5.7-7.9 6.3-13 .6-5.1-.2-10.5-.4-16.1-.2-5.6.4-11.3 3.2-15.9q.5-.8 1.2-1.6.6-.8 1.3-1.5.7-.6 1.5-1.2t1.7-1.1q.8-.4 1.7-.7.9-.4 1.8-.6 1-.2 1.9-.3.9-.2 1.9-.2 1.7 0 3.4.3 1.8.3 3.4.9 1.6.6 3.1 1.5t2.8 2.1q1.1 1 2.1 2.1 1 1.2 1.9 2.4.9 1.2 1.6 2.5.7 1.4 1.2 2.8.5 1.1.9 2.3l.6 2.4q.3 1.2.5 2.4t.4 2.5q.1.9.1 1.8.1.9.1 1.9v3.7c-.1 2-.3 3.6-.4 4.7q-.1.7-.1 1.2v.1l-.1.1v.2z"/><path class="s21" d="M541.2 615.2v-.4q0-.5.1-1.3c0-1 .1-2.6.2-4.6q.1-2.2-.1-4.3-.1-2.1-.4-4.3-.4-2.1-1-4.1-.5-2.1-1.3-4.1-.5-1.4-1.2-2.7l-1.6-2.4q-.9-1.2-1.8-2.3-1-1.1-2.1-2.1-1.3-1.1-2.7-2-1.5-.8-3-1.4-1.6-.6-3.3-.9-1.6-.3-3.3-.2-.9 0-1.8.1t-1.8.3q-.8.3-1.7.6-.8.3-1.6.7-.9.5-1.6 1-.8.6-1.5 1.2l-1.2 1.4q-.6.7-1.1 1.5c-2.7 4.4-3.3 10-3.1 15.5.2 5.5 1 10.9.4 16.2q-.1 1-.3 1.9-.2 1-.4 1.9-.3 1-.6 1.9-.3.9-.7 1.8-.4.9-.9 1.7-.5.8-1.1 1.6-.5.7-1.2 1.4t-1.4 1.3q-.7.5-1.5 1-.7.4-1.5.8l-1.6.8q-.9.3-1.7.6l-1.6.6q-.7.3-1.5.6-.7.3-1.4.7-.8.4-1.5.8-1.2.8-2.4 1.7-1.1 1-2.1 2-1 1.1-1.8 2.3-.8 1.2-1.5 2.5-.6 1.1-1 2.3-.4 1.1-.7 2.3-.3 1.2-.4 2.4-.2 1.2-.2 2.4 0 .9.1 1.8l.2 1.8.4 1.8q.2.9.5 1.8.3.7.6 1.5l.6 1.4.8 1.4q.4.7.8 1.3l-.1-.1-.1-.1q0-.1-.1-.1c-.1-.2-.4-.5-.7-1l-.6-1-.6-1q-.2-.6-.5-1.1-.2-.5-.4-1.1l-.6-1.8-.4-1.8-.2-1.8q-.1-1-.1-1.9 0-1.3.1-2.5t.4-2.4q.3-1.3.7-2.4.4-1.2 1-2.3.6-1.4 1.5-2.6.9-1.3 1.9-2.4 1-1.1 2.1-2.1 1.2-.9 2.5-1.7c3.6-2.5 8.4-3.1 12.1-6 3.8-2.9 5.7-7.9 6.3-13 .6-5.1-.2-10.5-.4-16.1-.2-5.6.4-11.3 3.2-15.9q.5-.8 1.2-1.6.6-.8 1.3-1.5.7-.6 1.5-1.2t1.7-1.1q.8-.4 1.7-.7.9-.4 1.8-.6 1-.2 1.9-.3.9-.2 1.9-.2 1.7 0 3.4.3 1.8.3 3.4.9 1.6.6 3.1 1.5t2.8 2.1q1.1 1 2.1 2.1 1 1.2 1.9 2.4.9 1.2 1.6 2.5.7 1.4 1.2 2.8.5 1.1.9 2.3l.6 2.4q.3 1.2.5 2.4t.4 2.5q.1.9.1 1.8.1.9.1 1.9v3.7c-.1 2-.3 3.6-.4 4.7q-.1.7-.1 1.2v.1l-.1.1v.2z" style="opacity:.4"/><path class="s21" d="M648.7 602q.3-.7.5-1.3.2-.7.3-1.4.1-.7.2-1.3.1-.7.1-1.4 0-.8-.1-1.6 0-.9-.2-1.6-.2-.8-.5-1.6t-.6-1.5q-.8-1.5-1.9-2.7-1.2-1.3-2.6-2.2-1.4-.9-3-1.5-1.6-.5-3.3-.7h-1.3q-.7 0-1.4.1-.6.1-1.3.2-.6.2-1.3.3c-3.6 1-7.2 3.1-11.5 3.9q-.8.2-1.6.3-.9.1-1.7 0-.8 0-1.7-.1-.8-.1-1.6-.4-.9-.2-1.6-.7-.8-.4-1.5-.9-.7-.6-1.3-1.3-.6-.6-1-1.4c-2.6-4-3.4-9-6.5-12.7q-.5-.7-1.2-1.2-.7-.6-1.4-1.1-.8-.5-1.6-.9l-1.6-.6q-.8-.3-1.7-.5-.8-.1-1.7-.2-.8-.1-1.7-.1-.9 0-1.7.1-1.6.2-3.2.6-1.6.5-3 1.3-1.5.7-2.8 1.7-1.3 1.1-2.4 2.3-.9 1.1-1.8 2.3l-1.6 2.6q-.7 1.3-1.2 2.7-.6 1.4-1 2.8-.4 1.3-.6 2.5-.3 1.3-.4 2.6-.2 1.3-.2 2.6-.1 1.3 0 2.6.1 1.9.3 3.8.1 1.9.4 3.8.2 1.9.5 3.8.3 1.8.7 3.7.4 2.6.7 4.1.1.6.1 1.1.1 0 .1.1v.2h-.1V612.9q-.1-.4-.3-1.1l-.8-4-.8-3.8-.6-3.8q-.3-1.8-.5-3.7-.2-1.9-.3-3.9-.1-1.3 0-2.6 0-1.3.1-2.7.2-1.3.5-2.6.2-1.3.6-2.6.4-1.5.9-2.9.6-1.4 1.3-2.8l1.6-2.6q.9-1.2 1.9-2.4l1.2-1.2q.6-.6 1.2-1.1l1.4-1 1.4-.8q1.5-.9 3.3-1.4 1.7-.5 3.4-.7 1.8-.2 3.6 0 1.7.2 3.4.7.9.3 1.8.7.8.4 1.6.9t1.5 1.2q.7.6 1.3 1.3c3.3 3.9 4 9 6.5 12.8q.4.7 1 1.3.5.6 1.1 1.1.7.6 1.4 1t1.5.6q.8.2 1.6.3.7.2 1.5.2t1.6-.1q.8 0 1.6-.2c4.1-.8 7.7-2.8 11.4-3.8q.7-.2 1.4-.3.7-.2 1.4-.2.7-.1 1.4-.1h1.4l1.2.2q.7.1 1.3.3.6.1 1.2.4.6.2 1.2.5 1 .5 1.9 1.1.9.7 1.7 1.4.8.8 1.4 1.7.7.9 1.2 1.9l.6 1.6q.3.8.5 1.6l.2 1.6q.1.8 0 1.7v1q-.1.5-.2 1.1l-.2 1-.4 1q0 .1-.1.3-.1.2-.1.3l-.2.4q-.1.1-.2.3z"/><path class="s21" d="M605 573.9c.6-2 1.7-3.9 3.1-5.5 1.4-1.5 3.1-2.8 5.1-3.6 1.9-.8 4.1-1.2 6.2-1.1 2.1.2 4.1.7 6 1.8-.5 4.7-3.1 8.7-6.7 10.5q-1.6.7-3.3 1-1.7.3-3.4.2-1.7-.1-3.4-.6-1.6-.5-3.1-1.4M620.3 586.8c2.1-.5 4.2-.6 6.3-.2 2.1.3 4.1 1.2 5.8 2.4 1.7 1.3 3.1 2.9 4.1 4.8 1 1.8 1.6 3.9 1.7 6-4.3 2-9.1 1.9-12.6-.2q-1.4-1-2.5-2.3-1.1-1.3-1.9-2.8-.8-1.5-1.3-3.2-.4-1.7-.4-3.4M643.2 583.9c.4-2.1 1.2-4.1 2.4-5.8 1.3-1.7 2.9-3.1 4.7-4.2 1.9-1 3.9-1.6 6.1-1.7 2.1-.1 4.2.3 6.1 1.1 0 4.7-2.1 9-5.5 11.2q-1.5.9-3.1 1.4-1.7.4-3.4.5-1.7.1-3.4-.3-1.7-.3-3.3-1M585.1 566.8c-3.5-3.1-5.9-8.4-5.2-12.5.7-4 3.8-7.6 8.1-9.5 1.6 1.5 2.7 3.3 3.4 5.3.8 2 1.1 4.1.9 6.2-.2 2.1-.9 4.1-2 5.9-1.1 1.9-2.6 3.4-4.3 4.6M490.3 549.4v-.1l.1-.1v-.1q.2-.4.5-.9c.5-.8 1.2-2 2.2-3.4q1-1.5 2.2-2.9 1.2-1.4 2.5-2.6 1.4-1.3 2.8-2.4 1.5-1.1 3-2.1 1.1-.6 2.3-1.2 1.1-.5 2.3-1 1.2-.4 2.4-.7 1.3-.4 2.5-.6 1.5-.2 2.9-.2 1.5 0 3 .1 1.4.2 2.8.5 1.5.3 2.8.8 1.6.6 3 1.4 1.4.8 2.7 1.8 1.2 1.1 2.3 2.3 1.1 1.2 1.9 2.6c2.3 4 3 8.6 4.3 13.1q.2.8.5 1.6t.7 1.6q.3.7.7 1.5.4.7.9 1.5.4.6 1 1.3.5.6 1.1 1.2.6.6 1.2 1.1.7.5 1.3 1c1.8 1.3 3.7 2.4 5.3 3.8q.6.5 1.2 1.1.6.5 1.1 1.1.6.6 1.1 1.2.5.6.9 1.3.8 1.2 1.5 2.5.7 1.2 1.3 2.6.5 1.3.9 2.7.4 1.4.7 2.9.2 1.2.4 2.5.2 1.2.2 2.5.1 1.3.1 2.5 0 1.3-.1 2.6l-.4 3.6q-.2 1.8-.6 3.6-.3 1.8-.7 3.6-.4 1.7-.9 3.5-.7 2.5-1 3.8-.1.2-.1.4-.1.1-.1.3-.1.1-.2.3 0 .2-.1.3 0-.1.1-.3v-.4q.1-.1.1-.3 0-.2.1-.3.3-1.4.9-3.9.5-1.7.8-3.5.4-1.8.7-3.6.3-1.8.5-3.6t.3-3.6q.1-1.2.1-2.5 0-1.2-.1-2.5l-.2-2.4q-.2-1.3-.5-2.5-.2-1.4-.6-2.7-.4-1.4-1-2.7-.5-1.3-1.2-2.6-.7-1.2-1.5-2.4-.4-.7-.9-1.2l-1-1.2q-.5-.6-1.1-1.1l-1.2-1c-1.6-1.3-3.4-2.5-5.2-3.8l-1.4-1q-.7-.6-1.3-1.2-.6-.6-1.1-1.2-.6-.7-1.1-1.4-.5-.7-.9-1.5l-.8-1.6-.6-1.6q-.3-.9-.6-1.7c-1.3-4.5-2-9.1-4.2-12.9q-.8-1.3-1.8-2.5t-2.2-2.2q-1.2-1-2.6-1.8-1.3-.7-2.8-1.3-1.3-.5-2.7-.8-1.4-.3-2.8-.5-1.4-.1-2.9-.1-1.4 0-2.8.2-1.2.2-2.4.5t-2.4.7q-1.2.4-2.3.9l-2.2 1.2q-1.5.9-3 2-1.4 1.1-2.7 2.3-1.4 1.2-2.6 2.6-1.2 1.3-2.3 2.8c-1 1.4-1.7 2.5-2.2 3.2q-.1.2-.2.3-.1.2-.2.3-.1.2-.2.3-.1.1-.2.3z"/><path class="s21" d="M547.8 565.5c1.3 2.3 2 4.9 1.9 7.5 0 2.6-.7 5.2-2.1 7.5-1.4 2.2-3.3 4-5.7 5.3-2.3 1.2-4.9 1.8-7.5 1.6q-.8-2.6-.8-5.3.1-2.8.9-5.4.8-2.6 2.3-4.9 1.5-2.2 3.6-4 .5-.4 1-.7.5-.4 1.1-.7l1.2-.4q.5-.3 1.2-.4c1.6-.3 2.2-1.1 3.4.1M497.7 542.5c.2 2.6-.3 5.2-1.5 7.6-1.1 2.3-2.9 4.3-5.1 5.8-2.2 1.4-4.8 2.2-7.4 2.3-2.6.1-5.2-.5-7.5-1.7q.4-2.7 1.6-5.2 1.2-2.4 3.1-4.5 1.8-2 4.2-3.4 2.3-1.4 5-2 .6-.2 1.2-.3.6-.1 1.2-.1.7 0 1.3.1.6 0 1.2.2c1.6.4 2.5 0 3.1 1.5M560.5 597.7q-1.5 1.3-3.1 2.3-1.6 1-3.4 1.7-1.7.7-3.6 1.1-1.9.4-3.8.5-1.9-.1-3.7-.4-1.9-.4-3.6-1.1-1.8-.7-3.4-1.7-1.6-1-3-2.2c1.5-2.1 3.4-3.9 5.7-5.1 2.2-1.2 4.7-1.9 7.2-2 2.6-.2 5.1.3 7.5 1.3 2.3 1 4.4 2.5 6.1 4.5M554.7 573.3c-1-2.6-1.2-5.4-.7-8.1.5-2.7 1.7-5.2 3.6-7.3 1.8-2 4.1-3.6 6.8-4.4 2.6-.9 5.4-1 8.1-.4.5 2.5.4 5.1-.3 7.6-.6 2.5-1.8 4.8-3.4 6.8-1.7 1.9-3.8 3.5-6.1 4.5-2.3 1.1-4.9 1.6-7.5 1.5M537.1 546c0-2.8.7-5.5 2.1-7.9 1.3-2.3 3.3-4.3 5.7-5.7 2.4-1.3 5.2-2 7.9-1.9 2.8.1 5.5.9 7.8 2.4-.4 2.5-1.3 4.9-2.7 7-1.5 2.2-3.4 3.9-5.6 5.2-2.2 1.3-4.7 2.1-7.2 2.3-2.6.2-5.1-.1-7.5-1.1M532.1 537.8c.1 2.8-.6 5.5-2 7.9-1.4 2.4-3.4 4.3-5.8 5.7-2.4 1.3-5.1 2-7.9 1.9-2.7-.1-5.4-.9-7.7-2.4.3-2.5 1.3-4.9 2.7-7 1.4-2.2 3.3-3.9 5.5-5.2 2.2-1.3 4.7-2.1 7.3-2.3 2.5-.2 5.1.2 7.5 1.1M524 532.7c-1.8-2.1-3-4.6-3.4-7.3-.5-2.7-.2-5.5.8-8.1 1-2.6 2.6-4.8 4.8-6.5 2.2-1.7 4.7-2.8 7.5-3.2 1.3 2.2 2.1 4.7 2.4 7.2.3 2.6-.1 5.1-.9 7.6-.9 2.4-2.3 4.5-4.1 6.3-1.9 1.8-4.1 3.2-6.5 4M506.2 534.1c-2.8 0-5.5-.6-7.9-1.9-2.4-1.4-4.4-3.3-5.8-5.7-1.4-2.4-2.1-5.1-2.1-7.9 0-2.7.8-5.4 2.2-7.8 2.5.4 5 1.2 7.1 2.6 2.2 1.4 4 3.3 5.3 5.5 1.4 2.1 2.2 4.6 2.5 7.1.2 2.6-.1 5.2-1 7.6"/><path class="s2" d="m611.1 666.7-4.7 7h-69.5l-5.7-7z"/><path class="s21" d="M609.6 666.6c0 .3-17.1.4-38.2.4-21 0-38.1-.1-38.1-.4 0-.2 17.1-.4 38.1-.4 21.1 0 38.2.2 38.2.4zM601.7 640.3q.1 0-.4.5-.1.2-.3.4l-.4.4q-.1.2-.3.4-.2.1-.4.3-.7.7-1.4 1.3-.8.6-1.5 1.1l-1.6 1q-.9.5-1.7.9-1.3.6-2.6 1.1-1.3.5-2.7.9-1.4.3-2.8.5-1.3.2-2.8.3h-1.6q-.9 0-1.7-.1-.8 0-1.7-.1-.8-.2-1.6-.3-.9-.3-1.7-.5-.9-.2-1.7-.5-.9-.3-1.7-.6-.8-.3-1.7-.7c-4.4-1.9-8.5-4.1-12.5-5.3q-1.3-.5-2.6-.8-1.4-.3-2.7-.4-1.4-.2-2.8-.1-1.3 0-2.7.2-.9.2-1.8.5-.9.2-1.7.6-.9.4-1.6.9-.8.5-1.5 1.1c-1.3 1.2-1.8 2-1.9 2q0-.1.1-.2v-.2q.1 0 .1-.1.1-.1.1-.2.2-.2.3-.4l.4-.4q.1-.2.3-.4.2-.1.4-.3.7-.7 1.5-1.2.7-.6 1.6-1 .8-.4 1.8-.7.9-.3 1.8-.5 1.4-.3 2.8-.4 1.4 0 2.8.1t2.8.4q1.4.3 2.7.8c4.1 1.2 8.2 3.4 12.7 5.3l1.6.6q.8.4 1.6.6.8.3 1.7.5.8.3 1.7.5.8.2 1.6.3l1.6.2q.8.1 1.6.1h1.6q1.4-.1 2.8-.3 1.3-.1 2.7-.5 1.3-.3 2.6-.7 1.3-.5 2.5-1.1c5.8-2.7 8.2-6 8.3-5.8z"/><path class="s21" d="M602.4 634.8q.1.1-.4.6-.2.2-.4.3l-.4.4q-.2.2-.4.3l-.4.4q-.7.6-1.5 1.1-.7.6-1.5 1.1-.8.5-1.7.9-.8.5-1.7.9l-2.6 1q-1.4.4-2.7.8-1.4.3-2.8.5t-2.8.3h-1.7q-.8 0-1.7-.1-.8 0-1.6-.1-.9-.1-1.7-.3-.8-.2-1.7-.4-.9-.2-1.7-.4-.9-.3-1.8-.5l-1.6-.6c-4.6-1.7-8.8-3.6-12.9-4.7q-1.3-.4-2.6-.7-1.4-.3-2.8-.4-1.3-.1-2.7-.1-1.4 0-2.8.2-.9.1-1.8.3l-1.8.6q-.8.3-1.6.8-.9.4-1.6.9c-1.5 1-2.1 1.8-2.2 1.7l.5-.5q.1-.2.3-.4l.4-.4q.2-.1.4-.3.2-.2.4-.3.7-.6 1.6-1.1.8-.5 1.7-.8.9-.4 1.8-.7l1.8-.4q1.4-.2 2.9-.2 1.4-.1 2.8 0t2.8.4q1.4.2 2.7.7c4.1 1.1 8.4 3 12.9 4.6q.9.3 1.7.6.8.3 1.7.5.8.3 1.7.5.8.2 1.7.3.8.2 1.6.3l1.6.2h1.6q.8.1 1.7 0 1.3 0 2.7-.2 1.4-.2 2.7-.5 1.4-.3 2.7-.7 1.3-.4 2.6-1c5.8-2.5 8.5-5.5 8.6-5.4z"/><path class="s10" d="M637.5 673.9c0 .2-141 .4-315 .4-173.9 0-314.9-.2-314.9-.4s141-.4 314.9-.4c174 0 315 .2 315 .4z"/></svg>