<svg xmlns="http://www.w3.org/2000/svg" width="886.978" height="829" viewBox="0 0 886.978 829">
  <g id="Group_3462" data-name="Group 3462" transform="translate(-1146.021 -153)">
    <g id="Background" transform="translate(1204.276 153.276)" opacity="0.9">
      <circle id="Ellipse_24" data-name="Ellipse 24" cx="414.5" cy="414.5" r="414.5" transform="translate(-0.277 -0.276)" fill="#f5f8fe"/>
    </g>
    <g id="Background-2" data-name="Background" transform="translate(1274.897 223.898)">
      <circle id="Ellipse_24-2" data-name="Ellipse 24" cx="343.5" cy="343.5" r="343.5" transform="translate(0.102 0.102)" fill="none" stroke="#cbcbd9" stroke-width="1"/>
    </g>
    <g id="Group_2170" data-name="Group 2170" transform="translate(1275 264.016)">
      <g id="Group_2139" data-name="Group 2139" transform="translate(0)">
        <g id="Group_2138" data-name="Group 2138">
          <g id="Group_2137" data-name="Group 2137">
            <g id="Group_2136" data-name="Group 2136">
              <g id="Group_2135" data-name="Group 2135">
                <path id="Path_415" data-name="Path 415" d="M458.338,321.952c25.948-11.627,36.809-40.329,41-67.192.7-4.483,2.084-9.087.711-13.4s-5.809-7.927-10.156-6.812c-3.606.926-5.782,4.5-8.241,7.329a26.522,26.522,0,0,1-12.353,7.987c-3.118.931-6.8,1.161-9.305-.918-3.439-2.854-2.879-8.248-2.006-12.675q2.442-12.374,4.882-24.746c.873-4.425,1.75-8.947,1.174-13.416s-2.876-8.956-6.865-10.941-9.667-.549-11.384,3.618c-.715,1.735-.7,3.678-1.178,5.494s-1.72,3.688-3.565,3.867c-1.867.183-3.4-1.412-4.477-2.962-3.721-5.346-5.724-11.7-7.531-17.988s-3.5-12.69-6.721-18.361-8.221-10.634-14.5-12.2-13.786,1.057-16.579,6.981c-2.8,5.94-.364,12.973,2.637,18.787a100.655,100.655,0,0,0,16.847,23.56c1.208,1.258,2.517,2.619,2.739,4.361.4,3.139-2.961,5.538-6.062,5.953-3.513.47-7.031-.558-10.564-.81s-7.565.558-9.5,3.574c-2.679,4.183.2,9.653,3.337,13.473a86.283,86.283,0,0,0,22.314,19.26c3.032,1.814,6.263,3.515,8.454,6.306s3.018,7.078.835,9.895-6.452,3.043-9.745,1.758-6-3.722-9.015-5.57c-5.652-3.461-13.595-4.541-18.5-.023-3.223,2.971-4.368,7.745-3.858,12.116s2.461,8.424,4.628,12.233c7.575,13.312,18.31,24.914,31.5,32.508s26.026,11.416,41.045,8.961" transform="translate(-381.046 -148.183)" fill="#b8c3d9"/>
              </g>
            </g>
          </g>
        </g>
      </g>
      <g id="Group_3278" data-name="Group 3278" transform="translate(2.044 2.57)">
        <g id="Group_2145" data-name="Group 2145" transform="translate(15.711)">
          <g id="Group_2144" data-name="Group 2144" transform="translate(0)">
            <g id="Group_2143" data-name="Group 2143">
              <g id="Group_2142" data-name="Group 2142">
                <g id="Group_2141" data-name="Group 2141">
                  <g id="Group_2140" data-name="Group 2140">
                    <path id="Path_416" data-name="Path 416" d="M474.4,303.432a404.12,404.12,0,0,0-7.6-45.755q-1.32-6.022-2.609-11.891c-.865-3.9-1.724-7.77-2.8-11.5a201.981,201.981,0,0,0-7.4-21.092c-2.676-6.595-5.457-12.755-8.1-18.5s-5.231-11.039-7.785-15.771a160.11,160.11,0,0,0-13.7-21.41c-1.808-2.392-3.272-4.2-4.282-5.415l-1.155-1.372a3.276,3.276,0,0,0-.416-.449,3.194,3.194,0,0,0,.349.5L420,152.207c.966,1.247,2.388,3.087,4.155,5.506a169.213,169.213,0,0,1,13.439,21.5c2.514,4.736,5.052,10.04,7.676,15.782s5.366,11.912,8.017,18.5a204.076,204.076,0,0,1,7.319,21.023c1.062,3.714,1.909,7.548,2.773,11.459s1.725,7.873,2.6,11.886a414.124,414.124,0,0,1,7.656,45.653" transform="translate(-418.558 -150.28)" fill="#a5a5c6"/>
                  </g>
                </g>
              </g>
            </g>
          </g>
        </g>
        <g id="Group_2151" data-name="Group 2151" transform="translate(58.303 36.413)">
          <g id="Group_2150" data-name="Group 2150" transform="translate(0)">
            <g id="Group_2149" data-name="Group 2149" transform="translate(0)">
              <g id="Group_2148" data-name="Group 2148">
                <g id="Group_2147" data-name="Group 2147">
                  <g id="Group_2146" data-name="Group 2146">
                    <path id="Path_417" data-name="Path 417" d="M416.495,227.5a9.192,9.192,0,0,0,.793-1.807c.466-1.181,1.085-2.909,1.817-5.057,1.469-4.292,3.294-10.288,5.282-16.907s3.894-12.577,5.423-16.835c.759-2.131,1.39-3.85,1.843-5.033a9.019,9.019,0,0,0,.614-1.876,8.957,8.957,0,0,0-.911,1.751c-.544,1.146-1.263,2.838-2.093,4.951-1.677,4.22-3.679,10.171-5.669,16.8-1.944,6.537-3.7,12.45-5.046,16.969-.62,2.038-1.144,3.754-1.564,5.132A8.935,8.935,0,0,0,416.495,227.5Z" transform="translate(-416.485 -179.98)" fill="#a5a5c6"/>
                  </g>
                </g>
              </g>
            </g>
          </g>
        </g>
        <g id="Group_2157" data-name="Group 2157" transform="translate(3.374 62.399)">
          <g id="Group_2156" data-name="Group 2156" transform="translate(0)">
            <g id="Group_2155" data-name="Group 2155">
              <g id="Group_2154" data-name="Group 2154">
                <g id="Group_2153" data-name="Group 2153">
                  <g id="Group_2152" data-name="Group 2152">
                    <path id="Path_418" data-name="Path 418" d="M429.355,201.189a12.469,12.469,0,0,0,2.22.706c1.437.409,3.52.989,6.069,1.79,5.11,1.558,12.094,3.959,19.683,6.944s14.337,6.007,19.156,8.323c2.419,1.141,4.351,2.117,5.691,2.784a12.319,12.319,0,0,0,2.12.97,12.525,12.525,0,0,0-1.966-1.258c-1.3-.756-3.192-1.816-5.584-3.029-4.767-2.459-11.5-5.562-19.112-8.573a204.444,204.444,0,0,0-19.822-6.731c-2.579-.729-4.691-1.226-6.157-1.536A12.449,12.449,0,0,0,429.355,201.189Z" transform="translate(-429.354 -201.177)" fill="#a5a5c6"/>
                  </g>
                </g>
              </g>
            </g>
          </g>
        </g>
        <g id="Group_2163" data-name="Group 2163" transform="translate(71.047 84.682)">
          <g id="Group_2162" data-name="Group 2162" transform="translate(0)">
            <g id="Group_2161" data-name="Group 2161">
              <g id="Group_2160" data-name="Group 2160">
                <g id="Group_2159" data-name="Group 2159">
                  <g id="Group_2158" data-name="Group 2158">
                    <path id="Path_419" data-name="Path 419" d="M384.247,286.641a2.947,2.947,0,0,0,.523-.62l1.367-1.875c1.181-1.634,2.826-4.042,4.821-7.044,3.994-6,9.25-14.467,14.924-23.885s10.846-17.924,14.709-24l4.6-7.186c.5-.785.9-1.431,1.239-1.962a3.015,3.015,0,0,0,.386-.717,2.985,2.985,0,0,0-.523.622c-.37.506-.82,1.124-1.367,1.873-1.181,1.634-2.827,4.042-4.822,7.044-3.994,6-9.25,14.467-14.925,23.888s-10.845,17.92-14.707,24c-1.889,2.95-3.443,5.38-4.6,7.182-.5.785-.9,1.433-1.241,1.964A2.955,2.955,0,0,0,384.247,286.641Z" transform="translate(-384.244 -219.352)" fill="#a5a5c6"/>
                  </g>
                </g>
              </g>
            </g>
          </g>
        </g>
        <g id="Group_2169" data-name="Group 2169" transform="translate(0 113.124)">
          <g id="Group_2168" data-name="Group 2168" transform="translate(0)">
            <g id="Group_2167" data-name="Group 2167" transform="translate(0)">
              <g id="Group_2166" data-name="Group 2166">
                <g id="Group_2165" data-name="Group 2165">
                  <g id="Group_2164" data-name="Group 2164">
                    <path id="Path_420" data-name="Path 420" d="M418.966,242.556a3.178,3.178,0,0,0,.693.452l2.058,1.156c1.9,1.047,4.476,2.458,7.6,4.174,6.422,3.526,15.234,8.5,24.964,14s18.6,10.4,25.1,13.8c3.248,1.7,5.888,3.045,7.734,3.939l2.13,1.016a2.979,2.979,0,0,0,.769.3,3.172,3.172,0,0,0-.693-.455l-2.058-1.154c-1.905-1.047-4.475-2.457-7.6-4.174-6.422-3.525-15.235-8.5-24.968-14.006s-18.6-10.4-25.093-13.8c-3.248-1.7-5.888-3.045-7.735-3.939-.853-.407-1.556-.744-2.13-1.016A3,3,0,0,0,418.966,242.556Z" transform="translate(-418.966 -242.552)" fill="#a5a5c6"/>
                  </g>
                </g>
              </g>
            </g>
          </g>
        </g>
      </g>
    </g>
    <g id="Group_2694" data-name="Group 2694" transform="translate(1534.906 105.799)">
      <g id="Group_2659" data-name="Group 2659" transform="translate(145.029 214.025)">
        <g id="Group_2658" data-name="Group 2658">
          <path id="Path_548" data-name="Path 548" d="M137.13,400.043c-.3,0-.543-45.411-.543-101.417,0-56.024.243-101.427.543-101.427s.54,45.4.54,101.427C137.67,354.632,137.427,400.043,137.13,400.043Z" transform="translate(-136.587 -197.199)" fill="#c8d1e3"/>
        </g>
      </g>
      <g id="Group_2661" data-name="Group 2661" transform="translate(139.699 202.48)">
        <g id="Group_2660" data-name="Group 2660">
          <path id="Path_549" data-name="Path 549" d="M145.963,204.953c-.268.127-3.338-5.124-6.889-11.776l.969-.062-.106.247c-2.977,7.09-5.614,12.742-5.891,12.626s1.914-5.953,4.893-13.044l.106-.249.441-1.05.526.987C143.577,199.336,146.229,204.826,145.963,204.953Z" transform="translate(-134.023 -191.645)" fill="#c8d1e3"/>
        </g>
      </g>
      <g id="Group_2663" data-name="Group 2663" transform="translate(139.798 183.124)">
        <g id="Group_2662" data-name="Group 2662">
          <path id="Path_550" data-name="Path 550" d="M138.72,189.288c-.177.224-1.85-.867-3.17-2.891s-1.667-3.987-1.389-4.06c.3-.094,1.056,1.6,2.293,3.465S138.923,189.053,138.72,189.288Z" transform="translate(-134.07 -182.333)" fill="#c8d1e3"/>
        </g>
      </g>
      <g id="Group_2665" data-name="Group 2665" transform="translate(141.225 181.6)">
        <g id="Group_2664" data-name="Group 2664">
          <path id="Path_551" data-name="Path 551" d="M134.793,195.922c-.274-.139,1.071-3.295,2.584-7.23s2.648-7.171,2.945-7.09c.281.073-.389,3.49-1.935,7.481S135.048,196.057,134.793,195.922Z" transform="translate(-134.757 -181.6)" fill="#c8d1e3"/>
        </g>
      </g>
      <g id="Group_2671" data-name="Group 2671" transform="translate(129.934 401.921)">
        <g id="Group_2670" data-name="Group 2670">
          <path id="Path_554" data-name="Path 554" d="M302.868,288.131c0,.3-38.853.543-86.768.543-47.932,0-86.774-.243-86.774-.543s38.842-.54,86.774-.54C264.015,287.591,302.868,287.832,302.868,288.131Z" transform="translate(-129.325 -287.591)" fill="#c8d1e3"/>
        </g>
      </g>
      <g id="Group_2673" data-name="Group 2673" transform="translate(291.361 396.658)">
        <g id="Group_2672" data-name="Group 2672">
          <path id="Path_555" data-name="Path 555" d="M220.878,290.655c-.112.279-3.311-.74-7.146-2.272s-6.858-3-6.745-3.278,3.309.74,7.146,2.272S220.989,290.378,220.878,290.655Z" transform="translate(-206.984 -285.059)" fill="#c8d1e3"/>
        </g>
      </g>
      <g id="Group_2675" data-name="Group 2675" transform="translate(295.309 402.828)">
        <g id="Group_2674" data-name="Group 2674">
          <path id="Path_556" data-name="Path 556" d="M220.728,288.089c.1.283-2.472,1.44-5.741,2.588s-6,1.848-6.1,1.565,2.472-1.441,5.743-2.588S220.63,287.808,220.728,288.089Z" transform="translate(-208.883 -288.027)" fill="#c8d1e3"/>
        </g>
      </g>
      <g id="Group_2677" data-name="Group 2677" transform="translate(131.788 407.969)">
        <g id="Group_2676" data-name="Group 2676">
          <path id="Path_557" data-name="Path 557" d="M135.854,290.508c.033-.1,1.571.921,2.237,3.6a7.774,7.774,0,0,1-.345,4.71A5.3,5.3,0,0,1,136,301.167a2.945,2.945,0,0,1-3.28.127,6.154,6.154,0,0,1-2.5-5.274,5.487,5.487,0,0,1,1.925-4.349,4.308,4.308,0,0,1,3.043-.983c.769.077,1.12.347,1.1.4-.029.087-.42-.033-1.1.023a4.288,4.288,0,0,0-2.542,1.145,4.839,4.839,0,0,0-1.424,3.756,5.352,5.352,0,0,0,2.06,4.355,1.879,1.879,0,0,0,2.12-.069,4.456,4.456,0,0,0,1.434-1.869,7.436,7.436,0,0,0,.511-4.172C136.933,291.794,135.694,290.622,135.854,290.508Z" transform="translate(-130.217 -290.501)" fill="#c8d1e3"/>
        </g>
      </g>
      <g id="Group_2681" data-name="Group 2681" transform="translate(277.688 396.604)">
        <g id="Group_2680" data-name="Group 2680">
          <path id="Path_559" data-name="Path 559" d="M200.949,294.62c-.3,0-.543-2.145-.543-4.793s.243-4.793.543-4.793.54,2.147.54,4.793S201.246,294.62,200.949,294.62Z" transform="translate(-200.406 -285.033)" fill="#c8d1e3"/>
        </g>
      </g>
      <g id="Group_2685" data-name="Group 2685" transform="translate(158.009 364.228)">
        <g id="Group_2684" data-name="Group 2684">
          <path id="Path_561" data-name="Path 561" d="M153.507,307.691a28.391,28.391,0,0,1-.137-2.981c-.037-2.035-.089-4.71-.15-7.968C153.114,290,153,280.662,152.979,270l.528.53c-3.241,0-6.618.006-10.082.01,1.077-1.081.3-.293.538-.532v1.428l0,1.428q0,1.425,0,2.823-.006,2.8-.01,5.492c-.017,3.577-.029,7-.044,10.223-.06,6.346-.112,11.892-.154,16.291l-.328-.331,7.336.183a26.813,26.813,0,0,1,2.748.148,18.869,18.869,0,0,1-2.551.148c-1.917.048-4.434.108-7.533.183l-.328.008,0-.339c-.042-4.4-.094-9.944-.152-16.291-.015-3.222-.029-6.646-.044-10.223q-.006-2.691-.01-5.492,0-1.4,0-2.823v-2.856c.243-.243-.543.532.545-.549,3.463,0,6.841.008,10.082.01l.53,0V270c-.025,10.888-.135,20.4-.241,27.112-.062,3.209-.112,5.841-.15,7.845A20.02,20.02,0,0,1,153.507,307.691Z" transform="translate(-142.831 -269.458)" fill="#c8d1e3"/>
        </g>
      </g>
      <g id="Group_2687" data-name="Group 2687" transform="translate(253.999 346.973)">
        <g id="Group_2686" data-name="Group 2686">
          <path id="Path_562" data-name="Path 562" d="M199.686,316.656a8.038,8.038,0,0,1-.071-1.152c-.019-.836-.044-1.887-.073-3.18-.037-2.869-.089-6.806-.154-11.649-.108-9.857-.218-23.506-.237-38.977l.534.534-10.082.006c1.075-1.081.3-.289.538-.526v1.068l0,1.083v2.149q0,2.142,0,4.245c0,2.8-.008,5.546-.012,8.223-.019,5.346-.035,10.423-.052,15.141-.075,9.331-.137,17.23-.183,23.034l-.289-.287,7.375.16,1.989.069a4.187,4.187,0,0,1,.721.058,22.006,22.006,0,0,1-2.542.127l-7.544.162-.285,0,0-.293c-.046-5.8-.11-13.7-.185-23.034-.015-4.719-.033-9.795-.05-15.141-.006-2.677-.01-5.423-.015-8.223q0-2.1,0-4.245v-4.3c.243-.245-.545.526.545-.555l10.082.006h.536l0,.534c-.017,15.7-.129,29.526-.235,39.356-.064,4.8-.118,8.689-.156,11.526-.029,1.245-.054,2.257-.073,3.062A4.828,4.828,0,0,1,199.686,316.656Z" transform="translate(-189.01 -261.157)" fill="#c8d1e3"/>
        </g>
      </g>
      <g id="Group_2689" data-name="Group 2689" transform="translate(182.272 333.451)">
        <g id="Group_2688" data-name="Group 2688">
          <path id="Path_563" data-name="Path 563" d="M165.18,323.662a11.753,11.753,0,0,1-.073-1.426c-.019-1-.042-2.32-.073-3.964-.037-3.527-.091-8.454-.158-14.534-.058-12.341-.141-29.347-.233-48.545l.536.536c-3.228,0-6.629,0-10.082,0,1.075-1.081.3-.287.536-.522v5.484l0,5.4c-.006,3.563-.01,7.051-.015,10.445-.021,6.778-.039,13.183-.058,19.084-.083,11.69-.154,21.363-.2,28.035l-.262-.262q4.727.1,7.419.148l1.964.062a4.4,4.4,0,0,1,.7.052,2.551,2.551,0,0,1-.609.052l-1.9.062-7.573.148-.26.006,0-.268c-.048-6.673-.118-16.345-.2-28.035-.019-5.9-.037-12.306-.058-19.084,0-3.395-.008-6.883-.015-10.445q0-2.672,0-5.4v-5.484c.243-.247-.545.522.545-.559,3.453,0,6.853,0,10.082,0h.538l0,.536c-.091,19.352-.175,36.493-.233,48.93-.067,6.028-.121,10.911-.158,14.409-.031,1.594-.054,2.871-.073,3.846A8.008,8.008,0,0,1,165.18,323.662Z" transform="translate(-154.504 -254.652)" fill="#c8d1e3"/>
        </g>
      </g>
      <g id="Group_2691" data-name="Group 2691" transform="translate(206.027 295.615)">
        <g id="Group_2690" data-name="Group 2690">
          <path id="Path_564" data-name="Path 564" d="M176.609,343.088a3.748,3.748,0,0,1-.037-.574c-.008-.424-.021-.956-.035-1.615-.019-1.482-.044-3.538-.075-6.151-.039-5.392-.094-13.075-.162-22.583-.058-19.105-.139-45.529-.229-75.173l.538.538c-3.209,0-6.627,0-10.08,0,1.071-1.081.3-.281.536-.513v4.392l0,4.384q0,4.359,0,8.629c-.006,5.687-.012,11.239-.019,16.625-.023,10.765-.046,20.864-.064,30.053-.1,18.27-.183,32.893-.233,41.985l-.218-.218c3.178.052,5.662.094,7.429.125l1.96.05a5.512,5.512,0,0,1,.694.044,3.191,3.191,0,0,1-.617.044c-.491.013-1.12.029-1.91.052l-7.556.125-.22,0v-.222c-.05-9.092-.131-23.716-.233-41.985-.021-9.19-.042-19.288-.067-30.053,0-5.386-.01-10.938-.017-16.625q0-4.265,0-8.629,0-2.183,0-4.384V237.02c.243-.249-.547.513.547-.57l10.08,0h.54v.54c-.091,29.8-.173,56.361-.231,75.566-.067,9.454-.121,17.093-.16,22.456-.031,2.561-.056,4.575-.075,6.028-.015.632-.027,1.139-.037,1.544A2.271,2.271,0,0,1,176.609,343.088Z" transform="translate(-165.931 -236.45)" fill="#c8d1e3"/>
        </g>
      </g>
      <g id="Group_2693" data-name="Group 2693" transform="translate(230.359 222.61)">
        <g id="Group_2692" data-name="Group 2692">
          <path id="Path_565" data-name="Path 565" d="M188.315,380.972s-.025-.335-.037-.952c-.01-.659-.023-1.561-.039-2.719-.017-2.428-.044-5.92-.077-10.4-.037-9.053-.094-22.082-.162-38.216-.056-32.28-.137-76.965-.224-126.814l.54.54H178.238c1.064-1.079.3-.264.532-.488v7.78q0,3.9,0,7.758,0,7.717,0,15.249c-.008,10.038-.015,19.808-.021,29.243-.029,18.864-.054,36.389-.079,52.044-.125,31.2-.218,54.908-.268,66.977l-.166-.168c3.357.044,5.851.077,7.558.1l1.883.039a5.431,5.431,0,0,1,.644.031,3.786,3.786,0,0,1-.586.031l-1.844.039-7.656.1-.166,0,0-.17c-.048-12.069-.143-35.774-.268-66.977-.023-15.654-.05-33.18-.077-52.044-.006-9.435-.015-19.2-.021-29.243q0-7.527-.006-15.249V205.79l0-1.962v-1.906c.247-.258-.549.491.551-.592h10.618v.54c-.089,50-.168,94.831-.227,127.213-.069,16.081-.123,29.068-.162,38.09-.033,4.428-.058,7.878-.077,10.275l-.037,2.65A7.315,7.315,0,0,1,188.315,380.972Z" transform="translate(-177.637 -201.329)" fill="#c8d1e3"/>
        </g>
      </g>
    </g>
    <g id="Group_2126" data-name="Group 2126" transform="translate(1300.385 299.57)">
      <path id="Path_371" data-name="Path 371" d="M514.09,254.766a52.891,52.891,0,0,1-2.632,15.141c-.065,1.713,11.929,2.932,16.177-.96,1.933-2.3,2.56-10.091,2.279-12.46-.414-3.471-2.687-12.395-2.687-12.395-.611.024-3.34-1.5-5.779-1.406a12.88,12.88,0,0,0-5.664,1.867s-7.911,6.878-7.828,9.767c.094,3.264-2.088,7.655-.9,8.055C509.014,263.03,513.051,259.785,514.09,254.766Z" transform="translate(-338.098 10.3)" fill="#b77b74"/>
      <path id="Path_372" data-name="Path 372" d="M475.492,191.637l30.779,1.637a12.315,12.315,0,0,0,10.36,1.474,24.347,24.347,0,0,0,9.27-5.4c5.106-4.416,9.527-11.1,7.573-17.559-.8-2.633-2.609-4.988-2.758-7.736-.179-3.361,2.135-6.259,3.988-9.068s3.331-6.564,1.534-9.409c-1.474-2.333-4.689-3.178-5.984-5.616-1.342-2.526-.079-5.586,1.081-8.2,2.067-4.663,3.779-10.179,1.422-14.7-1.445-2.775-4.182-4.626-6.928-6.125a56.276,56.276,0,0,0-9.878-4.222,11.9,11.9,0,0,1-4.573-2.13c-1.867-1.7-2.3-4.427-3.54-6.624-3.327-5.9-11.428-6.749-18.174-6.125-2.337.215-4.765.512-6.977-.273-3.451-1.227-5.409-3.753-8.892-4.886a10.439,10.439,0,0,0-11.034,3.058c-2.64,3.121-3.063,7.266-7.536,8.048-7.067,1.233-11.522,4.038-11.368,11.28.268,12.805-3.525,8.9-3.37,16.984.084,4.415,1.2,22.205,18.736,22.029,0,0-12.2,8.7-4.639,28.343Z" transform="translate(-378.918 -86.176)" fill="#633938"/>
      <path id="Path_373" data-name="Path 373" d="M457.571,543.233c1.9-186.98,29.533-268.927,29.533-268.927,32.031,119.432,23.489,269.626,23.489,269.626,9.078,1.492,16.843-1.214,16.132-1.339,45.85-217.938,21.78-308.168,21.78-308.168-36.86-15.854-122.8.942-122.8.942s-20.493,83.614,16.011,307.226A32.981,32.981,0,0,0,457.571,543.233Z" transform="translate(-391.565 1.012)" fill="#b77b74"/>
      <path id="Path_374" data-name="Path 374" d="M554.592,338.02c3.794-64.2-5.771-103.594-5.771-103.594-36.86-15.854-122.8.942-122.8.942s-9.889,31.341-5.391,102.652C420.627,338.02,483.541,349.86,554.592,338.02Z" transform="translate(-391.882 1.012)"/>
      <path id="Path_375" data-name="Path 375" d="M568.331,239.015c-1.743-5.73-10.571-37.2-10.571-37.2s-7.7,30.562,1.576,87.7c0,0-60.78,15.765-122.8.942,0,0,8.053-29.851,6.884-57.581,0,0-19.027-.435-35.069-4.052-1.49-.336-6.22-12.8-5.94-17.508.406-6.836,34.865-60.243,44.231-64.528,11.317-5.177,25.779-9.256,58.305-8.456,17.417.428,44.825,2.572,54.865,9.975,19.491,18.313,34.466,78.808,34.632,86.733.189,8.952-2.914,73.43-2.914,73.43l-11.443.461S572.148,251.564,568.331,239.015Z" transform="translate(-402.397 -54.083)" fill="#207bbd"/>
      <path id="Path_376" data-name="Path 376" d="M463.988,190.439l12.965-42.178-1.038-25.87H455.732l-.215,25.8Z" transform="translate(-369.651 -63.852)" fill="#b77b74"/>
      <path id="Path_766" data-name="Path 766" d="M79.675,53.914,80.594,71.8,69.314,55.9Z" transform="translate(26.867 11.884)"/>
      <path id="Path_377" data-name="Path 377" d="M463.316,101.8s7.192,10.977,25.506,16.087c4.712-7.785,9.563-3.449,8.123,2.649a11.735,11.735,0,0,1-6.058,8.073s-8.418,20.936-22.336,20.936c-18.427,0-22.966-34.508-22.966-34.508C452.945,112.451,463.316,101.8,463.316,101.8Z" transform="translate(-375.774 -76.543)" fill="#b77b74"/>
      <path id="Path_378" data-name="Path 378" d="M457.925,113.743s-1.941,5.1-2.662,6.839c.556,1.266,3.15,1.885,3.15,1.885" transform="translate(-369.807 -69.183)" fill="none" stroke="#000" stroke-width="0.5"/>
      <path id="Path_379" data-name="Path 379" d="M461.388,120.812h-7a3.592,3.592,0,0,0,7,0Z" transform="translate(-370.346 -64.825)" fill="#fff"/>
      <path id="Path_382" data-name="Path 382" d="M500.969,424.194a22.882,22.882,0,0,1-15.862-4.511c-3.231,8.468-1.482,19.467-1.482,19.467l2.67.007,2.986-5.443,4.521,5.449c15.241.01,33,2.075,34.789-1.667S510.962,425.981,500.969,424.194Z" transform="translate(-365.809 119.411)" fill="#1f161e"/>
      <path id="Path_383" data-name="Path 383" d="M434.113,424.223a22.945,22.945,0,0,0,15.919-4.587c3.233,8.469,1.544,19.543,1.544,19.543l-2.672.006-2.986-5.443-4.521,5.449c-15.24.01-29.26,2.369-31.081-1.374S424.122,426.01,434.113,424.223Z" transform="translate(-383.966 119.382)" fill="#1f161e"/>
      <path id="Path_384" data-name="Path 384" d="M460.288,273.554c-.986,0,.936-43.65,0-97.589" transform="translate(-366.889 -30.827)" fill="none" stroke="#468fc4" stroke-width="1"/>
      <path id="Path_385" data-name="Path 385" d="M460.757,180.573l15.55-28,15.551-4.676-18.136-9.5Z" transform="translate(-366.42 -53.986)" fill="#468fc4"/>
      <path id="Path_386" data-name="Path 386" d="M470.795,180.6,456.461,154.75l-11.986-5.88,17.848-10.516Z" transform="translate(-376.458 -54.011)" fill="#468fc4"/>
      <g id="Group_2124" data-name="Group 2124" transform="translate(73.768 124.282)">
        <rect id="Rectangle_221" data-name="Rectangle 221" width="42.154" height="55.691" transform="translate(0 5.795) rotate(-2.094)" fill="#7c5345"/>
        <path id="Path_387" data-name="Path 387" d="M448.033,168.858l3.457-4.255,42.126-1.54,2.035,55.654-3.457,4.255-2.035-55.654Z" transform="translate(-448.033 -163.062)" fill="#ffeadc"/>
      </g>
      <g id="Group_2125" data-name="Group 2125" transform="translate(61.064 132.256)">
        <rect id="Rectangle_222" data-name="Rectangle 222" width="42.154" height="55.691" transform="translate(0 5.795) rotate(-2.094)" fill="#3b5b82"/>
        <path id="Path_388" data-name="Path 388" d="M440.173,173.791l3.457-4.255L485.756,168l2.034,55.654-3.457,4.255L482.3,172.251Z" transform="translate(-440.173 -167.996)" fill="#ffeadc"/>
      </g>
      <path id="Path_389" data-name="Path 389" d="M463.462,190.529a52.875,52.875,0,0,0,15.288-1.56c1.712.057,2.085,12.106-2.1,16.069-2.433,1.767-10.245,1.846-12.589,1.4-3.432-.656-12.175-3.551-12.175-3.551.15-1.345,1.266-11.381,1.266-11.381s7.416-7.408,10.292-7.122c3.249.322,7.783-1.547,8.1-.33C472.062,186.048,468.541,189.845,463.462,190.529Z" transform="translate(-371.887 -26.099)" fill="#b77b74"/>
      <path id="Path_390" data-name="Path 390" d="M433.236,207.2l38.982-2.013,1.417-12.754L418.914,179.9" transform="translate(-392.215 -28.403)" fill="#207bbd" stroke="#000" stroke-width="1"/>
      <ellipse id="Ellipse_148" data-name="Ellipse 148" cx="5.297" cy="2.754" rx="5.297" ry="2.754" transform="translate(98.578 46.168)" fill="#d18a8b"/>
      <ellipse id="Ellipse_149" data-name="Ellipse 149" cx="5.297" cy="2.754" rx="5.297" ry="2.754" transform="translate(69.578 46.168)" fill="#d18a8b"/>
    </g>
    <g id="Group_2121" data-name="Group 2121" transform="translate(1471.637 299.57)">
      <path id="Path_348" data-name="Path 348" d="M390.9,222.687a40.31,40.31,0,0,1-14.192,7.694c-1.51.983,4.2,10.486,10.111,11.774,3.147.265,10.326-3.17,12.186-4.846,2.729-2.455,8.36-9.139,8.36-9.139s1.506-8.042-5.034-10.087c0,0-12.332-2.75-14.761-.929-2.745,2.056-7.835,2.842-7.457,4.107C380.734,223.333,385.962,224.833,390.9,222.687Z" transform="translate(-376.46 -9.448)" fill="#ffc6bb"/>
      <path id="Path_349" data-name="Path 349" d="M285.777,120.871s-6.555-10.7-3.7-23.7,34.379-11.04,50.376,2.67a10.973,10.973,0,0,1,9.29,10.68c.609,9.961-5.074,27.748-16.059,32.731Z" transform="translate(-157.008 -88.421)"/>
      <path id="Path_350" data-name="Path 350" d="M248.457,255.769a9.538,9.538,0,0,1-.98-2.724l3.719.836Z" transform="translate(-11.649 13.061)" fill="#ffc6bb"/>
      <path id="Path_351" data-name="Path 351" d="M235.209,250.708h40.046v16.54h-4.914V255.622H235.209v11.626H230.3v-16.54Z" transform="translate(-7.935 11.62)"/>
      <path id="Path_352" data-name="Path 352" d="M342.027,420.238c4.458-1.076,14.659.989,14.659.989a59.143,59.143,0,0,1,1.868,16.622s-34.01,2.951-37.082-.724c-1.932-2.312,7.712-5.7,17.3-9.31C343.856,425.9,342.027,420.238,342.027,420.238Z" transform="translate(-233.112 119.305)" fill="#1f161e"/>
      <path id="Path_763" data-name="Path 763" d="M342.873,420.238c4.846-1.076,15.125.971,15.125.971a77.27,77.27,0,0,1,2.842,16.641s-32.922,1-36.261-2.672c-2.1-2.312,4.333-3.756,14.754-7.362C344.861,425.9,342.873,420.238,342.873,420.238Z" transform="translate(-141.956 119.304)" fill="#1f161e"/>
      <path id="Path_354" data-name="Path 354" d="M301.826,540.549c4.586-185.089,21.409-242.006,21.409-242.006C325.818,410.318,367.7,540.549,367.7,540.549c9.067,1.49,24.017,0,24.017,0-15.288-202.039-6.065-300.356-6.065-300.356-36.813-15.835-118.173,0-118.173,0s-12.5,72.13,0,296.146C267.478,536.339,293.652,542.427,301.826,540.549Z" transform="translate(-171.738 0.8)" fill="#207bbd"/>
      <path id="Path_355" data-name="Path 355" d="M472.082,229.739c-2.381-15.085-38.95-76.231-49.35-82.6-10.622-6.508-34.209-6.7-51.532-8.331-17.065-1.608-49.166,3.608-57.295,7.266-10.951,4.927-24.324,56.883-34.49,81.532-3.283,5.168-26.71,27.014-45.587,38.015l7.854,10.648s45.823-15.895,58.1-26.92c2.7-2.423,10.31-23.786,13.416-31.555-2.366,35.277-6.681,80.746-6.681,80.746,61.942,14.8,118.173,0,118.173,0-1.93-51.023-2.556-100.67-2.556-100.67s20.986,30.979,22.452,38.845c2.2,11.824,8.174,70.5,8.174,70.5l12.86,1.03C470.541,288.979,473.36,237.83,472.082,229.739Z" transform="translate(-210.779 -57.545)" fill="#69d2c9"/>
      <path id="Path_356" data-name="Path 356" d="M314.872,148.9l-.965-26.1H293.75l-.215,25.648,8.665,27.237Z" transform="translate(-149.776 -67.226)" fill="#ffc6bb"/>
      <path id="Path_357" data-name="Path 357" d="M285.4,165.734l11.018-13.525,14.805-.651L298.07,138.951,285.4,165.734" transform="translate(-132.974 -57.272)" fill="#a1dbd8"/>
      <path id="Path_762" data-name="Path 762" d="M135.572,52.255l.51,18.727-6.866-17.055Z" transform="translate(29.018 10.737)"/>
      <path id="Path_358" data-name="Path 358" d="M322.977,165.907l-11.141-16.021-10.461-1.164,12.938-10.051Z" transform="translate(-170.553 -57.445)" fill="#a1dbd8"/>
      <path id="Path_359" data-name="Path 359" d="M287.233,116.131s2.892,34.291,20.5,34.291c18.1,0,20.488-21.791,20.488-21.791s3.545-.811,5.328-6.812c1.411-4.746-1.781-7.938-4.314-3.346a2.861,2.861,0,0,1-2.4-.842,66.189,66.189,0,0,0-1.715-9.713c-1.172-4.1-19.294-5.91-36.818-1.945C288.3,105.973,286.635,109.4,287.233,116.131Z" transform="translate(-158.4 -78.963)" fill="#ffc6bb"/>
      <path id="Path_360" data-name="Path 360" d="M307.06,114.334s-2.89,6.194-2.89,8.073c1.177,1.272,4.141.045,4.141.045" transform="translate(-160.405 -72.446)" fill="none" stroke="#1f161e" stroke-width="0.5"/>
      <path id="Path_366" data-name="Path 366" d="M339.368,184.765" transform="translate(-248.358 -29.03)" fill="#ff5252"/>
      <path id="Path_367" data-name="Path 367" d="M312.29,122.345s-4.174,3.333-9.9,0" transform="translate(-161.504 -67.508)" fill="none" stroke="#1f161e" stroke-width="0.5"/>
      <path id="Path_368" data-name="Path 368" d="M238.944,249.082c1.641-2.436,7.51-6.2,7.51-6.2l12.86,1.03a103.043,103.043,0,0,1,3.015,11.541c.381,2.746-.094,4.455-1.5,7.73-7.03,3.763-18.287,1.823-19.556-1.143,2.252-4.76,1.507-6.5,1.507-6.5H236.07A57.464,57.464,0,0,1,238.944,249.082Z" transform="translate(-4.469 6.794)" fill="#ffc6bb"/>
      <rect id="Rectangle_220" data-name="Rectangle 220" width="101.115" height="64.05" rx="6" transform="translate(194.283 277.706)" fill="#d6d6d6"/>
      <ellipse id="Ellipse_146" data-name="Ellipse 146" cx="5.297" cy="2.754" rx="5.297" ry="2.754" transform="translate(154.428 42.621)" fill="#fa9e9f"/>
      <ellipse id="Ellipse_147" data-name="Ellipse 147" cx="5.297" cy="2.754" rx="5.297" ry="2.754" transform="translate(126.649 42.621)" fill="#fa9e9f"/>
      <path id="Path_765" data-name="Path 765" d="M84.383,132.884l-2.03,27.246L93.424,126.6Z" transform="translate(18.056 27.419)"/>
    </g>
    <g id="Group_3279" data-name="Group 3279" transform="translate(1732.097 700.5)">
      <g id="Group_1836" data-name="Group 1836" transform="translate(0 0)">
        <g id="Group_1835" data-name="Group 1835">
          <path id="Path_1944" data-name="Path 1944" d="M414.741,150.339l.967,19.318-11.8,15.317a19.339,19.339,0,0,1,10.83-34.635Z" transform="translate(-396.372 -150.339)" fill="#e0e7f5"/>
          <path id="Path_1945" data-name="Path 1945" d="M441.41,170.814A19.338,19.338,0,0,1,410.295,187.1l11.8-15.317-.967-19.317a19.327,19.327,0,0,1,20.285,18.35Z" transform="translate(-398.725 -150.694)" fill="#ebebeb"/>
          <path id="Path_1946" data-name="Path 1946" d="M441.41,170.814A19.338,19.338,0,0,1,410.295,187.1l11.8-15.317-.967-19.317a19.327,19.327,0,0,1,20.285,18.35Z" transform="translate(-398.725 -150.694)" fill="#c8d1e3"/>
        </g>
      </g>
    </g>
    <g id="Group_3280" data-name="Group 3280" transform="translate(814.947 446.753)">
      <rect id="Rectangle_207" data-name="Rectangle 207" width="110.243" height="10.537" transform="translate(346.322 91.616)" fill="#e0e0e0"/>
      <g id="Group_2040" data-name="Group 2040" transform="translate(331.449 78.247)">
        <g id="Group_2038" data-name="Group 2038">
          <rect id="Rectangle_208" data-name="Rectangle 208" width="139.989" height="119.166" rx="7" fill="#fff" stroke="#000e39" stroke-linecap="round" stroke-linejoin="round" stroke-width="0.75"/>
        </g>
        <path id="Path_176" data-name="Path 176" d="M369.218,128.867l27.6-28.17h23.6" transform="translate(-299.003 -58.961)" fill="none" stroke="#000e39" stroke-linecap="round" stroke-linejoin="round" stroke-width="0.75"/>
        <line id="Line_255" data-name="Line 255" x2="23.595" transform="translate(97.819 47.312)" fill="none" stroke="#000e39" stroke-linecap="round" stroke-linejoin="round" stroke-width="0.75"/>
        <line id="Line_256" data-name="Line 256" x2="23.595" transform="translate(97.819 52.683)" fill="none" stroke="#000e39" stroke-linecap="round" stroke-linejoin="round" stroke-width="0.75"/>
        <g id="Group_2039" data-name="Group 2039" transform="translate(34.965 34.941)">
          <path id="Path_177" data-name="Path 177" d="M385.464,132.247H420.67a35.206,35.206,0,1,1-35.477-35.205Z" transform="translate(-350.257 -97.042)" fill="#b8c3d9"/>
        </g>
        <rect id="Rectangle_228" data-name="Rectangle 228" width="90.259" height="9.501" transform="translate(24.865 13.266)" fill="#f5f8fe"/>
      </g>
    </g>
    <g id="Group_3276" data-name="Group 3276" transform="translate(1496.212 339.087)">
      <rect id="Rectangle_174" data-name="Rectangle 174" width="51.385" height="63.922" rx="6" transform="translate(0 0)" fill="none" stroke="#a6a5c7" stroke-width="1"/>
      <rect id="Rectangle_175" data-name="Rectangle 175" width="8.578" height="43.344" transform="translate(33.832 10.289)" fill="#b8c3d9"/>
      <rect id="Rectangle_176" data-name="Rectangle 176" width="8.578" height="14.524" transform="translate(21.398 39.124)" fill="#b8c3d9"/>
      <rect id="Rectangle_177" data-name="Rectangle 177" width="8.578" height="26.74" transform="translate(8.974 26.893)" fill="#b8c3d9"/>
    </g>
  </g>
</svg>
