<svg version="1.2" xmlns="http://www.w3.org/2000/svg" width="887" height="829"><style>.s0{fill:#f5f8fe}.s2{fill:#b8c3d9}.s3{fill:#a5a5c6}.s4{fill:#c8d1e3}.s5{fill:#b77b74}.s7{fill:#000}.s8{fill:#207bbd}.s11{fill:#1f161e}.s13{fill:#468fc4}.s15{fill:#ffeadc}.s18{fill:#d18a8b}.s19{fill:#ffc6bb}.s21{fill:#a1dbd8}.s22{fill:none;stroke:#1f161e;stroke-width:.5}.s25{fill:#fa9e9f}.s30{fill:none;stroke:#000e39;stroke-linecap:round;stroke-linejoin:round;stroke-width:.8}</style><path class="s0" d="M472.5 829C243.3 829 58 643.7 58 414.5S243.3 0 472.5 0 887 185.3 887 414.5 701.7 829 472.5 829z" style="opacity:.9"/><path d="M472.5 758C282.5 758 129 604.5 129 414.5S282.5 71 472.5 71C662.4 71 816 224.5 816 414.5S662.4 758 472.5 758z" style="fill:none;stroke:#cbcbd9"/><path class="s2" d="M165.2 275.8c-13.2-7.6-23.9-19.2-31.5-32.5-2.1-3.8-4.1-7.8-4.6-12.2-.5-4.4.6-9.2 3.9-12.1 4.9-4.5 12.8-3.5 18.5 0 3 1.8 5.7 4.3 9 5.6 3.3 1.3 7.5 1 9.7-1.8 2.2-2.8 1.4-7.1-.8-9.9-2.2-2.8-5.4-4.5-8.5-6.3q-3.2-1.9-6.2-4.1-3-2.1-5.8-4.6-2.8-2.4-5.4-5-2.5-2.7-4.9-5.6c-3.1-3.8-6-9.2-3.3-13.4 1.9-3 5.9-3.9 9.5-3.6 3.5.3 7 1.3 10.5.8 3.1-.4 6.5-2.8 6.1-5.9-.2-1.8-1.5-3.1-2.7-4.4q-2.6-2.6-4.9-5.4-2.3-2.8-4.4-5.8-2.1-2.9-4-6t-3.6-6.4c-3-5.8-5.4-12.8-2.6-18.8 2.8-5.9 10.3-8.5 16.6-6.9 6.2 1.5 11.2 6.5 14.5 12.2 3.2 5.6 4.9 12 6.7 18.3 1.8 6.3 3.8 12.7 7.5 18 1.1 1.6 2.6 3.2 4.5 3 1.8-.2 3.1-2.1 3.6-3.9.4-1.8.4-3.7 1.1-5.5 1.7-4.1 7.4-5.6 11.4-3.6 4 2 6.3 6.5 6.9 10.9.6 4.5-.3 9-1.2 13.5q-2.4 12.3-4.9 24.7c-.9 4.4-1.4 9.8 2 12.7 2.5 2.1 6.2 1.8 9.3.9q1.8-.5 3.5-1.3t3.3-1.8q1.5-1 3-2.3 1.4-1.2 2.6-2.6c2.4-2.8 4.6-6.4 8.2-7.3 4.4-1.1 8.8 2.5 10.2 6.8 1.4 4.3 0 8.9-.7 13.4-4.2 26.9-15.1 55.6-41 67.2-15 2.4-27.9-1.4-41.1-9z"/><path class="s3" d="M201.8 266.8q-.6-5.7-1.4-11.5-.8-5.7-1.8-11.4-.9-5.7-2.1-11.4-1.1-5.7-2.3-11.3-1.4-6.1-2.6-11.9c-.9-3.9-1.8-7.8-2.8-11.5q-.8-2.7-1.6-5.3-.9-2.7-1.8-5.3-.9-2.6-1.9-5.2l-2-5.2c-2.7-6.6-5.4-12.8-8.1-18.5-2.6-5.7-5.1-11-7.6-15.8q-1.5-2.8-3.1-5.5-1.6-2.8-3.2-5.5-1.7-2.7-3.5-5.3-1.8-2.6-3.7-5.2c-1.7-2.4-3.2-4.2-4.1-5.5l-1.1-1.4-.1-.1q-.1-.1-.1-.2-.1 0-.1-.1t-.1-.1q.1 0 .1.1.1 0 .1.1l.1.1.1.1 1.2 1.4c1 1.2 2.5 3 4.3 5.4q1.9 2.6 3.7 5.2 1.8 2.6 3.6 5.3 1.7 2.6 3.3 5.4 1.6 2.7 3.1 5.5c2.5 4.8 5.1 10.1 7.8 15.8 2.6 5.7 5.4 11.9 8.1 18.5l2 5.2 2 5.2q.9 2.7 1.7 5.3.9 2.7 1.7 5.4c1 3.7 1.9 7.6 2.8 11.5q1.3 5.9 2.6 11.9 1.3 5.6 2.4 11.3 1.1 5.7 2 11.5 1 5.7 1.8 11.4.8 5.8 1.4 11.5"/><path class="s3" d="M189.4 197q.1-.2.1-.5l.2-.4q0-.3.1-.5.7-2.1 1.6-5.1c1.3-4.5 3.1-10.5 5-17 2-6.6 4-12.6 5.7-16.8.8-2.1 1.6-3.8 2.1-4.9q.1-.3.2-.5l.2-.4q.1-.3.2-.5.2-.2.3-.4 0 .2-.1.5-.1.2-.1.5l-.2.4q-.1.3-.2.5c-.5 1.2-1.1 2.9-1.8 5-1.6 4.3-3.5 10.2-5.5 16.8-2 6.7-3.8 12.7-5.3 17-.7 2.1-1.3 3.8-1.8 5q0 .2-.1.5l-.2.4q-.1.3-.2.5t-.3.4q.1-.2.1-.5z"/><path class="s3" d="M135 176.1h.6q.2.1.5.1l.6.2c1.5.3 3.6.8 6.2 1.5q2.5.7 5 1.5l5 1.6q2.4.9 4.9 1.8 2.4.9 4.9 1.9c7.6 3 14.3 6.1 19.1 8.5 2.4 1.2 4.3 2.3 5.6 3.1q.2.1.5.2.2.2.5.3.2.2.5.4.2.1.4.3-.2-.1-.5-.2t-.5-.2q-.3-.1-.6-.3-.2-.1-.5-.3c-1.3-.6-3.3-1.6-5.7-2.7-4.8-2.4-11.5-5.4-19.1-8.4-7.6-2.9-14.6-5.3-19.7-6.9-2.6-.8-4.6-1.4-6.1-1.8q-.3-.1-.5-.1l-.6-.2-.6-.2q-.2-.1-.5-.2.3 0 .6.1zM202.2 265.4v-.2q.1-.1.1-.2l.2-.2q.5-.8 1.2-1.9c1.2-1.8 2.7-4.3 4.6-7.2 3.9-6.1 9-14.6 14.7-24 5.7-9.4 10.9-17.9 14.9-23.9 2-3 3.7-5.4 4.9-7q.8-1.2 1.3-1.9.1-.1.1-.2.1-.1.2-.1 0-.1.1-.2l.1-.1v.2q-.1 0-.1.1-.1.1-.1.2-.1.1-.1.2-.5.8-1.3 1.9l-4.6 7.2c-3.8 6.1-9 14.6-14.7 24-5.7 9.5-10.9 17.9-14.9 23.9-2 3-3.7 5.4-4.8 7.1l-1.4 1.8q-.1.1-.1.2-.1.1-.1.2-.1 0-.2.1t-.1.2q0-.1.1-.2zM131.2 226.8h.2q.1.1.2.1.1.1.2.1.8.4 2.1 1c1.9.9 4.5 2.3 7.8 4 6.5 3.4 15.3 8.3 25.1 13.8 9.7 5.5 18.5 10.4 24.9 14 3.1 1.7 5.7 3.1 7.6 4.1l2.1 1.2q.1 0 .2.1.1 0 .1.1.1.1.2.1l.2.2q-.1-.1-.2-.1t-.2-.1-.2-.1h-.2l-2.1-1.1c-1.9-.9-4.5-2.2-7.8-3.9-6.5-3.4-15.3-8.3-25.1-13.8-9.7-5.5-18.5-10.5-24.9-14-3.1-1.7-5.7-3.1-7.6-4.2l-2.1-1.1q-.1-.1-.2-.1l-.1-.1-.2-.2q-.1 0-.2-.1.1 0 .2.1z"/><path class="s4" d="M534.5 369.7c-.3 0-.6-45.4-.6-101.4 0-56.1.3-101.5.6-101.5s.5 45.4.5 101.5c0 56-.2 101.4-.5 101.4z"/><path class="s4" d="M540.5 168.6c-.2.1-3.3-5.1-6.9-11.8l1-.1-.1.3c-3 7.1-5.6 12.7-5.9 12.6-.3-.1 1.9-5.9 4.9-13l.1-.3.4-1 .6 1c3.5 6.7 6.2 12.2 5.9 12.3zM533.3 142.9c-.1.2-1.8-.9-3.1-2.9-1.4-2-1.7-4-1.4-4.1.3-.1 1 1.6 2.3 3.5 1.2 1.9 2.4 3.2 2.2 3.5z"/><path class="s4" d="M530.1 148.7c-.2-.1 1.1-3.3 2.6-7.2 1.5-3.9 2.7-7.2 3-7.1.3.1-.4 3.5-2 7.5-1.5 4-3.3 7-3.6 6.8zM692.4 355.3c0 .3-38.9.5-86.8.5s-86.8-.2-86.8-.5 38.9-.6 86.8-.6 86.8.3 86.8.6zM694.1 355.1c-.1.2-3.3-.8-7.1-2.3-3.8-1.6-6.9-3-6.8-3.3.2-.3 3.4.7 7.2 2.3 3.8 1.5 6.9 3 6.7 3.3zM696 355.7c.1.3-2.4 1.4-5.7 2.6-3.3 1.1-6 1.8-6.1 1.5-.1-.2 2.5-1.4 5.7-2.5 3.3-1.2 6-1.9 6.1-1.6zM526.3 360.8c0-.1 1.6.9 2.2 3.6q.2.6.2 1.2.1.6 0 1.2 0 .6-.1 1.1l-.4 1.2q-.1.3-.3.7l-.4.6q-.2.3-.5.5-.2.3-.5.5-.4.3-.8.4-.4.2-.9.2-.4 0-.8-.1-.5-.1-.8-.3-.6-.5-1.1-1.1-.5-.6-.8-1.3-.4-.7-.5-1.4-.2-.8-.1-1.5 0-.6.1-1.2t.3-1.2q.3-.6.7-1.1.3-.5.8-.9.3-.2.7-.4.3-.2.7-.3.4-.2.8-.2.4-.1.8 0c.8 0 1.2.3 1.1.4 0 0-.4-.1-1.1 0q-.3 0-.7.1l-.6.2-.6.4-.6.4q-.4.4-.7.8-.2.5-.4.9-.2.5-.3 1-.1.6 0 1.1 0 .6.1 1.2t.4 1.2q.3.6.7 1.1.3.4.8.8.3.2.6.3h.5q.3 0 .6-.1.2-.1.5-.2l.4-.4q.2-.2.4-.5.2-.2.3-.5.2-.2.3-.5.2-.5.3-1 .2-.5.2-1.1.1-.5.1-1t-.1-1.1c-.4-2.4-1.6-3.6-1.5-3.7z"/><path class="s4" d="M667.1 359c-.3 0-.5-2.2-.5-4.8 0-2.7.2-4.8.5-4.8s.6 2.2.6 4.8c0 2.6-.3 4.8-.6 4.8zM557.6 355.3q-.1-.4-.1-.8v-.7q-.1-.4-.1-.8v-.7q0-3.1-.1-8c-.1-6.7-.2-16.1-.3-26.7l.6.5h-10.1l.5-.5V339c-.1 6.3-.1 11.9-.2 16.3l-.3-.4 7.3.2h.7q.4 0 .7.1h.7q.3 0 .7.1h-.7q-.3.1-.6.1H555q-2.9.1-7.5.2h-.3v-.3c-.1-4.4-.1-10-.2-16.3V317.6c.2-.3-.6.5.5-.6h10.6v.6c0 10.9-.1 20.4-.2 27.1q-.1 4.8-.2 7.8v1.4q0 .3-.1.7v.7zM653.6 355.3q-.1-.2-.1-.3V354.1q0-1.2-.1-3.2c0-2.8-.1-6.8-.1-11.6-.1-9.9-.3-23.5-.3-39l.6.5-10.1.1c1.1-1.1.3-.3.5-.6v31.9c-.1 9.4-.2 17.3-.2 23.1l-.3-.3 7.4.1 1.9.1H653.4q.1.1.2.1h-.7q-.3.1-.6.1H651l-7.5.2h-.3v-.3c-.1-5.8-.1-13.7-.2-23.1v-15.1q-.1-4-.1-8.2v-8.6c.3-.2-.5.5.6-.5h10.6v.5c0 15.7-.1 29.5-.2 39.4-.1 4.8-.1 8.7-.2 11.5q0 1.9-.1 3.1v1zM581.8 355.3v-1.5q-.1-1.5-.1-3.9c-.1-3.6-.1-8.5-.2-14.6 0-12.3-.1-29.3-.2-48.5l.5.5h-10.1c1.1-1.1.3-.3.6-.5v21.3c0 6.8-.1 13.2-.1 19.1-.1 11.7-.1 21.4-.2 28.1l-.2-.3q4.7.1 7.4.1l1.9.1H581.7l.1.1H581.2l-1.9.1-7.5.1h-.3v-.2c-.1-6.7-.1-16.4-.2-28.1 0-5.9 0-12.3-.1-19.1v-21.3c.3-.2-.5.5.6-.6h10.6v.6c-.1 19.3-.2 36.5-.2 48.9-.1 6-.2 10.9-.2 14.4q-.1 2.4-.1 3.9V354.9q0 .2-.1.4zM605.6 355.1v-.6q-.1-.7-.1-1.6 0-2.3-.1-6.2c0-5.4-.1-13.1-.1-22.6-.1-19.1-.2-45.5-.2-75.1l.5.5h-10.1l.5-.5v64.1c-.1 18.2-.2 32.9-.3 41.9l-.2-.2q4.8.1 7.4.2H605.6q-.1.1-.2.1h-2.3l-7.6.2h-.2v-.3c-.1-9-.1-23.7-.2-41.9-.1-9.2-.1-19.3-.1-30.1v-34c.2-.3-.6.5.5-.6h10.6v.6c0 29.8-.1 56.3-.2 75.5-.1 9.5-.1 17.1-.1 22.5q-.1 3.8-.1 6 0 .9-.1 1.5V355.1zM629.9 355.1v-1q0-1-.1-2.7V341c-.1-9.1-.1-22.1-.2-38.2 0-32.3-.1-77-.2-126.8l.5.5h-10.1c1.1-1.1.3-.3.6-.5v60c-.1 18.9-.1 36.4-.1 52.1-.1 31.2-.2 54.9-.3 67l-.2-.2c3.4 0 5.9.1 7.6.1H629.8l.1.1H627.5l-7.7.1h-.1v-.1c-.1-12.1-.2-35.8-.3-67 0-15.7 0-33.2-.1-52.1v-60l.6-.6h10.6v.5c-.1 50-.2 94.9-.3 127.3 0 16-.1 29-.1 38.1 0 4.4-.1 7.8-.1 10.2V354.6q0 .1-.1.2v.3z"/><path class="s5" d="M323.3 419.2c-1.2-.4 1-4.7.9-8-.1-2.9 7.4-9.5 7.8-9.8q.7-.4 1.4-.7.7-.3 1.4-.5.7-.3 1.4-.4.8-.2 1.5-.2c2.5-.1 5.2 1.4 5.8 1.4 0 0 2.3 8.9 2.7 12.4.3 2.3-.4 10.1-2.3 12.4-4.2 3.9-16.2 2.7-16.2 1q.6-1.9 1.1-3.7.5-1.9.8-3.8.3-1.9.5-3.8t.3-3.9c-1.1 5.1-5.1 8.3-7.1 7.6z"/><path d="M230 236.8c-7.5-19.6 4.7-28.3 4.7-28.3-17.6.1-18.7-17.6-18.8-22.1-.1-8 3.7-4.1 3.4-16.9-.2-7.3 4.3-10.1 11.4-11.3 4.4-.8 4.9-5 7.5-8.1q1-1.1 2.3-1.9 1.3-.8 2.8-1.2 1.4-.5 3-.4 1.5 0 2.9.5c3.5 1.1 5.5 3.6 8.9 4.9 2.2.7 4.7.4 7 .2 6.8-.6 14.9.3 18.2 6.2 1.2 2.2 1.7 4.9 3.5 6.6q.5.4 1.1.7.5.3 1.1.6.6.3 1.2.5t1.2.3q1.3.4 2.5.9 1.3.5 2.5 1 1.3.5 2.5 1.1l2.4 1.2c2.7 1.5 5.5 3.4 6.9 6.2 2.4 4.5.6 10-1.4 14.7-1.2 2.6-2.4 5.6-1.1 8.2 1.3 2.4 4.5 3.2 6 5.6 1.8 2.8.3 6.6-1.6 9.4-1.8 2.8-4.1 5.7-3.9 9 .1 2.8 1.9 5.1 2.7 7.8 2 6.4-2.4 13.1-7.6 17.5q-.9 1-2 1.8T297 253l-2.4 1.2q-1.2.5-2.5.9t-2.7.5q-1.3.2-2.7 0-1.3-.2-2.6-.7-1.2-.5-2.4-1.2l-30.8-1.7z" style="fill:#633938"/><path class="s5" d="M216.4 691.4q-2 .1-4 .1-2-.1-4-.4-2-.4-3.9-.9c-36.5-223.6-16-307.3-16-307.3s85.9-16.7 122.8-.9c0 0 24.1 90.2-21.8 308.2.7.1-7 2.8-16.1 1.3 0 0 8.5-150.2-23.5-269.6 0 0-27.6 81.9-29.5 268.9q-2 .4-4 .6z"/><path class="s7" d="M183.1 485.6c-4.5-71.3 5.4-102.7 5.4-102.7s85.9-16.7 122.8-.9c0 0 9.6 39.4 5.8 103.6-71.1 11.8-134 0-134 0z"/><path class="s8" d="M320.3 331.5c-1.7-5.7-10.6-37.2-10.6-37.2s-7.7 30.6 1.6 87.7c0 0-60.8 15.8-122.8.9 0 0 8.1-29.8 6.9-57.5 0 0-19-.5-35.1-4.1-1.5-.3-6.2-12.8-5.9-17.5.4-6.8 34.8-60.2 44.2-64.5 11.3-5.2 25.8-9.3 58.3-8.5 17.4.4 44.8 2.6 54.9 10 19.5 18.3 34.4 78.8 34.6 86.7.2 9-2.9 73.5-2.9 73.5l-11.4.4s-8-57.3-11.8-69.9z"/><path class="s5" d="m240.2 230.9.2-25.8h20.2l1.1 25.9-13 42.2z"/><path class="s7" d="m260.9 212.4.9 17.9-11.3-15.9z"/><path class="s5" d="M241.9 171.8s7.2 11 25.5 16.1c4.7-7.8 9.6-3.4 8.1 2.7q-.2 1.2-.8 2.4-.5 1.2-1.3 2.3-.8 1-1.8 1.9-1 .8-2.1 1.4c-.8.4-8.4 21-22.4 21-18.4 0-22.9-34.5-22.9-34.5 7.3-2.6 17.7-13.3 17.7-13.3z"/><path d="M243 199.9s-2.6-.7-3.2-1.9c.7-1.8 2.7-6.9 2.7-6.9" style="fill:none;stroke:#000;stroke-width:.5"/><path d="M244.1 204.6c-.6.5-1.4.7-2.2.7-.8 0-1.6-.2-2.2-.7-.7-.5-1.1-1.3-1.3-2h7c-.2.7-.6 1.5-1.3 2z" style="fill:#fff"/><path class="s11" d="M317.1 703.5c-1.7 3.7-19.5 1.7-34.7 1.6l-4.6-5.4-3 5.4h-2.6s-1.8-11 1.5-19.4q1.7 1.2 3.5 2.2 1.9.9 4 1.5 2 .6 4.1.8 2.1.2 4.2 0c10 1.8 29.4 9.5 27.6 13.3zM204.5 690.2q2.1.2 4.2 0 2.2-.2 4.2-.8 2-.6 3.9-1.6 1.9-.9 3.6-2.2c3.3 8.5 1.6 19.5 1.6 19.5h-2.7l-3-5.4-4.5 5.4c-15.2.1-29.3 2.4-31.1-1.3-1.8-3.8 13.8-11.8 23.8-13.6z"/><path d="M247.8 389.3c-1 0 .9-43.7 0-97.6" style="fill:none;stroke:#468fc4"/><path class="s13" d="m261.7 231 18.1 9.5-15.5 4.7-15.6 28zM248.7 273.2l-14.3-25.9-12-5.9 17.8-10.5z"/><path d="m228.1 276.6 42.2-1.5 2 55.7-42.1 1.5z" style="fill:#7c5345"/><path class="s15" d="m228.1 276.6 3.5-4.2 42.1-1.5 2.1 55.6-3.5 4.3-2-55.7z"/><path d="m215.4 284.6 42.2-1.5 2 55.6-42.1 1.6z" style="fill:#3b5b82"/><path class="s15" d="m215.4 284.6 3.5-4.2 42.1-1.6 2 55.7-3.4 4.2-2-55.6z"/><path class="s5" d="M245.9 311q2 .1 3.9 0 1.9 0 3.8-.2 2-.2 3.9-.6 1.9-.3 3.7-.8c1.7.1 2.1 12.1-2.1 16.1-2.4 1.8-10.2 1.9-12.6 1.4-3.4-.6-12.1-3.5-12.1-3.5.1-1.4 1.2-11.4 1.2-11.4s7.4-7.4 10.3-7.1c3.3.3 7.8-1.6 8.1-.4.5 2-3 5.8-8.1 6.5z"/><path d="m181.1 298.1 54.7 12.5-1.4 12.8-39 2" style="fill:#207bbd;stroke:#000"/><path class="s18" d="M258.2 198.2c-2.9 0-5.3-1.2-5.3-2.7 0-1.5 2.4-2.8 5.3-2.8 3 0 5.3 1.3 5.3 2.8 0 1.5-2.3 2.7-5.3 2.7zM229.2 198.2c-2.9 0-5.3-1.2-5.3-2.7 0-1.5 2.4-2.8 5.3-2.8 3 0 5.3 1.3 5.3 2.8 0 1.5-2.3 2.7-5.3 2.7z"/><path class="s19" d="M329.3 358.4c-.4-1.3 4.7-2.1 7.4-4.1 2.5-1.8 14.8.9 14.8.9 6.5 2.1 5 10.1 5 10.1s-5.6 6.7-8.3 9.1c-1.9 1.7-9.1 5.1-12.2 4.9-5.9-1.3-11.6-10.8-10.1-11.8q1.9-.6 3.8-1.4 1.9-.8 3.6-1.7 1.8-1 3.5-2.1 1.7-1.2 3.3-2.5c-5 2.2-10.2.7-10.8-1.4z"/><path class="s7" d="M454.4 179s-6.6-10.7-3.7-23.7c2.8-13 34.4-11 50.4 2.7q1.9.3 3.6 1.2 1.7 1 3 2.4 1.2 1.5 1.9 3.3.7 1.8.8 3.8c.6 9.9-5.1 27.7-16.1 32.7z"/><path class="s19" d="M562.4 415.4q-.1-.3-.3-.7-.1-.3-.3-.6-.1-.4-.2-.7-.1-.4-.2-.7l3.8.8z"/><path class="s7" d="M552.9 408.9h40v16.5H588v-11.6h-35.1v11.6H548v-16.5z"/><path class="s11" d="M434.5 686.1c4.5-1.1 14.7 1 14.7 1q.5 2 .9 4.1.4 2.1.6 4.1.2 2.1.3 4.2.1 2.1.1 4.2c-.1 1.4-34.1 3-37.1-.7-2-2.3 7.7-5.7 17.3-9.3 5.1-1.9 3.2-7.6 3.2-7.6zM526.5 686.1c4.9-1.1 15.2 1 15.2 1q.5 2 1 4.1.5 2 .8 4.1.4 2.1.6 4.2.3 2.1.4 4.2c.1 1.4-32.9 1-36.3-2.6-2.1-2.4 4.4-3.8 14.8-7.4 5.5-1.9 3.5-7.6 3.5-7.6z"/><path class="s8" d="M421.4 683.7c-12.5-224 0-296.1 0-296.1s81.3-15.9 118.1 0c0 0-9.2 98.3 6.1 300.3 0 0-15 1.5-24 0 0 0-41.9-130.2-44.5-242 0 0-16.8 56.9-21.4 242-8.2 1.9-34.3-4.2-34.3-4.2z"/><path d="m580.5 397.3-12.9-1.1s-6-58.6-8.2-70.5c-1.4-7.8-22.4-38.8-22.4-38.8s.6 49.6 2.5 100.7c0 0-56.2 14.8-118.1 0 0 0 4.3-45.5 6.6-80.8-3.1 7.8-10.7 29.2-13.4 31.6-12.3 11-58.1 26.9-58.1 26.9l-7.8-10.7c18.8-11 42.3-32.8 45.6-38 10.1-24.6 23.5-76.6 34.4-81.5 8.2-3.7 40.3-8.9 57.3-7.3 17.4 1.7 40.9 1.9 51.6 8.4 10.4 6.3 46.9 67.5 49.3 82.6 1.3 8.1-1.5 59.2-6.4 78.5z" style="fill:#69d2c9"/><path class="s19" d="m478 255-8.6-27.2.2-25.7h20.1l1 26.1z"/><path class="s21" d="m490.7 228.2 13.2 12.7-14.8.6L478 255z"/><path class="s7" d="m490.2 209.6.5 18.7-6.8-17.1z"/><path class="s21" d="m478 255-11.1-16-10.5-1.2 13-10z"/><path class="s19" d="M455.5 173.6c17.5-4 35.7-2.2 36.8 1.9l.6 2.4q.3 1.2.5 2.4.2 1.3.4 2.5.1 1.2.3 2.4.2.3.5.5.2.1.6.2l.6.2h.7c2.5-4.6 5.7-1.4 4.3 3.3-1.8 6-5.4 6.8-5.4 6.8S493 218 474.9 218c-17.6 0-20.5-34.3-20.5-34.3-.5-6.7 1.1-10.1 1.1-10.1z"/><path class="s22" d="M473.5 196.6s-2.9 1.2-4.1-.1c0-1.8 2.9-8 2.9-8M476.4 201.4s-4.2 3.3-9.9 0"/><path class="s19" d="M560.1 402.4c1.6-2.4 7.5-6.2 7.5-6.2l12.9 1.1.8 2.8q.5 1.5.8 2.9.4 1.4.7 2.9.4 1.5.7 2.9c.4 2.8-.1 4.5-1.5 7.7-7.1 3.8-18.3 1.9-19.6-1.1 2.3-4.8 1.5-6.5 1.5-6.5h-6.7q.3-.8.7-1.6.3-.9.7-1.7.3-.8.7-1.6l.8-1.6z"/><path d="M519.9 430.3c0-3.3 2.7-6 6-6H615c3.3 0 6 2.7 6 6v52c0 3.3-2.7 6-6 6h-89.1c-3.3 0-6-2.7-6-6z" style="fill:#d6d6d6"/><path class="s25" d="M485.3 194.7c-2.9 0-5.3-1.2-5.3-2.8 0-1.5 2.4-2.7 5.3-2.7 3 0 5.3 1.2 5.3 2.7 0 1.6-2.3 2.8-5.3 2.8zM457.6 194.7c-3 0-5.3-1.2-5.3-2.8 0-1.5 2.3-2.7 5.3-2.7 2.9 0 5.3 1.2 5.3 2.7 0 1.6-2.4 2.8-5.3 2.8z"/><path class="s7" d="M437.1 300.6 426 334.1l2.1-27.2z"/><path d="m604.4 547.5 1 19.3-11.8 15.3c-3.1-2.4-5.4-5.7-6.6-9.5-1.2-3.7-1.2-7.8 0-11.6 1.1-3.7 3.4-7.1 6.6-9.5 3.1-2.4 6.9-3.8 10.8-4z" style="fill:#e0e7f5"/><path d="M628.8 567.6c.1 3.7-.7 7.4-2.6 10.6a18.8 18.8 0 0 1-7.8 7.5c-3.3 1.7-7 2.5-10.6 2.2-3.7-.4-7.2-1.7-10.2-4l11.8-15.3-.9-19.3c2.5-.2 5.1.2 7.4 1.1 2.4.8 4.6 2.1 6.5 3.8 1.9 1.7 3.4 3.8 4.5 6.1s1.7 4.8 1.9 7.3z" style="fill:#ebebeb"/><path class="s4" d="M628.8 567.6c.1 3.7-.7 7.4-2.6 10.6a18.8 18.8 0 0 1-7.8 7.5c-3.3 1.7-7 2.5-10.6 2.2-3.7-.4-7.2-1.7-10.2-4l11.8-15.3-.9-19.3c2.5-.2 5.1.2 7.4 1.1 2.4.8 4.6 2.1 6.5 3.8 1.9 1.7 3.4 3.8 4.5 6.1s1.7 4.8 1.9 7.3z"/><path d="M15.2 385.4h110.3v10.5H15.2z" style="fill:#e0e0e0"/><path d="M.4 379c0-3.9 3.1-7 7-7h126c3.8 0 7 3.1 7 7v105.2c0 3.8-3.2 7-7 7H7.4c-3.9 0-7-3.2-7-7z" style="fill:#fff;stroke:#000e39;stroke-linecap:round;stroke-linejoin:round;stroke-width:.8"/><path class="s30" d="m70.6 441.9 27.6-28.2h23.6M98.2 419.3h23.6M98.2 424.7h23.6"/><path class="s2" d="M70.5 442.1h35.3c0 14.3-8.6 27.1-21.7 32.5-13.1 5.5-28.3 2.5-38.4-7.5-10-10-13.1-25.1-7.8-38.2 5.4-13.2 18.2-21.8 32.4-22z"/><path class="s0" d="M25.2 385.3h90.3v9.5H25.2z"/><path d="M350.2 192.1c0-3.3 2.7-6 6-6h39.4c3.3 0 6 2.7 6 6V244c0 3.3-2.7 6-6 6h-39.4c-3.3 0-6-2.7-6-6z" style="fill:none;stroke:#a6a5c7"/><path class="s2" d="M384 196.4h8.6v43.3H384zM371.6 225.2h8.6v14.5h-8.6zM359.2 213h8.5v26.7h-8.5z"/></svg>