<svg width="30" height="30" viewBox="0 0 30 30" fill="none" xmlns="http://www.w3.org/2000/svg">
<rect width="30" height="30" fill="url(#paint0_radial)"/>
<path d="M11.8687 15.1027C11.8687 13.4822 13.1819 12.1682 14.8024 12.1682C16.4229 12.1682 17.7369 13.4822 17.7369 15.1027C17.7369 16.7232 16.4229 18.0371 14.8024 18.0371C13.1819 18.0371 11.8687 16.7232 11.8687 15.1027V15.1027ZM10.2824 15.1027C10.2824 17.5991 12.306 19.6227 14.8024 19.6227C17.2988 19.6227 19.3225 17.5991 19.3225 15.1027C19.3225 12.6063 17.2988 10.5826 14.8024 10.5826C12.306 10.5826 10.2824 12.6061 10.2824 15.1027H10.2824ZM18.4452 10.4034C18.4451 10.6123 18.5069 10.8166 18.6229 10.9904C18.7389 11.1641 18.9039 11.2996 19.0968 11.3796C19.2898 11.4596 19.5022 11.4806 19.7071 11.4399C19.9121 11.3993 20.1003 11.2987 20.2481 11.1511C20.3959 11.0034 20.4966 10.8152 20.5374 10.6103C20.5783 10.4054 20.5574 10.193 20.4775 10C20.3977 9.80695 20.2623 9.64192 20.0887 9.52578C19.915 9.40964 19.7108 9.34761 19.5019 9.34753H19.5015C19.2214 9.34766 18.9529 9.45893 18.7548 9.65691C18.5568 9.85489 18.4454 10.1234 18.4452 10.4034V10.4034ZM11.2461 22.2679C10.3879 22.2288 9.92144 22.0859 9.61145 21.9651C9.20047 21.8051 8.90724 21.6145 8.59893 21.3067C8.29063 20.9988 8.09979 20.7058 7.94049 20.2949C7.81965 19.985 7.6767 19.5184 7.63768 18.6602C7.59501 17.7323 7.58649 17.4536 7.58649 15.1028C7.58649 12.7521 7.59571 12.4742 7.63768 11.5455C7.67677 10.6873 7.82078 10.2216 7.94049 9.91082C8.10049 9.49985 8.29105 9.20661 8.59893 8.89831C8.90681 8.59 9.19977 8.39916 9.61145 8.23987C9.9213 8.11903 10.3879 7.97607 11.2461 7.93706C12.174 7.89438 12.4527 7.88586 14.8024 7.88586C17.1521 7.88586 17.4311 7.89495 18.3597 7.9372C19.218 7.97628 19.6837 8.1203 19.9944 8.24001C20.4054 8.3993 20.6986 8.59057 21.0069 8.89845C21.3152 9.20633 21.5054 9.49999 21.6654 9.91097C21.7862 10.2208 21.9292 10.6874 21.9682 11.5457C22.0109 12.4743 22.0194 12.7522 22.0194 15.103C22.0194 17.4537 22.0109 17.7317 21.9682 18.6603C21.9291 19.5185 21.7854 19.985 21.6654 20.295C21.5054 20.706 21.3148 20.9992 21.0069 21.3068C20.6991 21.6144 20.4054 21.8052 19.9944 21.9652C19.6846 22.0861 19.218 22.229 18.3597 22.2681C17.4319 22.3107 17.1531 22.3192 14.8024 22.3192C12.4517 22.3192 12.1737 22.3107 11.2461 22.2681V22.2679ZM11.1732 6.35336C10.2362 6.39603 9.59581 6.54462 9.0366 6.76222C8.45781 6.98694 7.96718 7.28841 7.47726 7.77756C6.98734 8.2667 6.68664 8.7574 6.46193 9.33689C6.24433 9.89646 6.09574 10.5364 6.05306 11.4735C6.00969 12.4121 5.99976 12.7122 5.99976 15.1027C5.99976 17.4932 6.00969 17.7933 6.05306 18.7319C6.09574 19.669 6.24433 20.3089 6.46193 20.8685C6.68664 21.4473 6.98741 21.9389 7.47726 22.4278C7.96711 22.9168 8.4571 23.2178 9.0366 23.4432C9.59687 23.6608 10.2362 23.8094 11.1732 23.852C12.1123 23.8947 12.4119 23.9053 14.8024 23.9053C17.1929 23.9053 17.493 23.8954 18.4316 23.852C19.3687 23.8094 20.0086 23.6608 20.5682 23.4432C21.147 23.2178 21.6376 22.917 22.1275 22.4278C22.6175 21.9387 22.9175 21.4473 23.1429 20.8685C23.3605 20.3089 23.5098 19.6689 23.5517 18.7319C23.5944 17.7926 23.6044 17.4932 23.6044 15.1027C23.6044 12.7122 23.5944 12.4121 23.5517 11.4735C23.5091 10.5364 23.3605 9.89611 23.1429 9.33689C22.9175 8.7581 22.6167 8.26748 22.1275 7.77756C21.6384 7.28764 21.147 6.98694 20.5689 6.76222C20.0086 6.54462 19.3687 6.39533 18.4323 6.35336C17.4936 6.31047 17.1936 6.30005 14.8035 6.30005C12.4133 6.30005 12.1127 6.30998 11.1736 6.35336" fill="white"/>
<defs>
<radialGradient id="paint0_radial" cx="0" cy="0" r="1" gradientUnits="userSpaceOnUse" gradientTransform="translate(1.94157 29.3428) scale(38.0889)">
<stop offset="0.09" stop-color="#FA8F21"/>
<stop offset="0.78" stop-color="#EB2482"/>
</radialGradient>
</defs>
</svg>
