<svg width="30" height="30" viewBox="0 0 30 30" fill="none" xmlns="http://www.w3.org/2000/svg">
<rect width="30" height="30" fill="#157EE7"/>
<path d="M7.28931 9.36369C7.28931 8.8692 7.46297 8.46124 7.81027 8.13984C8.15758 7.81842 8.60909 7.65771 9.16478 7.65771C9.71056 7.65771 10.1521 7.81594 10.4895 8.13242C10.8368 8.45878 11.0105 8.88403 11.0105 9.4082C11.0105 9.8829 10.8418 10.2785 10.5044 10.595C10.1571 10.9213 9.70063 11.0845 9.13501 11.0845H9.12012C8.57435 11.0845 8.13278 10.9213 7.79539 10.595C7.45799 10.2686 7.28931 9.85817 7.28931 9.36369ZM7.48281 22.344V12.4345H10.7872V22.344H7.48281ZM12.618 22.344H15.9224V16.8107C15.9224 16.4645 15.9621 16.1975 16.0415 16.0096C16.1804 15.6733 16.3913 15.389 16.6741 15.1566C16.9569 14.9242 17.3117 14.808 17.7384 14.808C18.8498 14.808 19.4055 15.5547 19.4055 17.048V22.344H22.7099V16.6623C22.7099 15.1986 22.3626 14.0885 21.6679 13.3319C20.9733 12.5754 20.0554 12.1971 18.9143 12.1971C17.6342 12.1971 16.6369 12.746 15.9224 13.8437V13.8734H15.9075L15.9224 13.8437V12.4345H12.618C12.6379 12.7509 12.6478 13.7349 12.6478 15.3865C12.6478 17.0381 12.6379 19.3572 12.618 22.344Z" fill="white"/>
</svg>
