<svg version="1.2" xmlns="http://www.w3.org/2000/svg" width="804" height="690"><style>.s1{fill:#fff}.s2{fill:none;stroke:#000}.s6{fill:#c8d1e3}.s7{fill:#ffe181}.s8{fill:#73e5e2}.s10{fill:#69d2c9}.s12{fill:none;stroke:#fff;stroke-linecap:round;stroke-linejoin:round;stroke-width:.4}.s13{fill:#d6d6d6}.s15{fill:#207bbd}.s16{fill:#1f161e}.s17{fill:#f8cdba}.s18{fill:#fa9e9f}.s19{fill:none;stroke:#1f161e;stroke-linecap:round}.s21{fill:#969696}.s22{fill:#202a31}</style><path d="M410.1 677.3c-187.3 0-338.7-151.4-338.7-338.7C71.4 151.4 222.8 0 410.1 0c187.3 0 338.6 151.4 338.6 338.6 0 187.3-151.3 338.7-338.6 338.7z" style="fill:#f5f8fe"/><path class="s1" d="M390.4 191H598v321.6H390.4z"/><path class="s2" d="M348.8 387.3h212.9M348.8 408.3h212.9M348.8 429.3h212.9M348.8 450.4h212.9"/><path d="M494.2 339.1c-30 0-54.3-24.3-54.3-54.3 0-30.1 24.3-54.4 54.3-54.4 30 0 54.3 24.3 54.3 54.4 0 30-24.3 54.3-54.3 54.3z" style="fill:#f2f2f2"/><path d="M561.7 305.4h85.8v79.7h-85.8z" style="opacity:.7;fill:#50b89d"/><text style="transform:matrix(1,0,0,1,583.676,354.816)"><tspan x="0" y="0" style="font-size:20px;fill:#fff;font-family:&quot;Proxima  Nova&quot;;white-space:pre">&lt; / &gt;
</tspan></text><path class="s2" d="M31.6 32.9h463.5v304.9H31.6zM31.6 49.1h463.5"/><path class="s2" d="M65.3 76.2h139.3v139.3H65.3zM231.3 88.5h213M231.3 109.5h213M231.3 130.6h213M231.3 151.6h213"/><path class="s6" d="M172.9 178.7H97l38-65.7zM41.6 45.1c-2.1 0-3.9-1.7-3.9-3.9s1.8-4 3.9-4c2.2 0 4 1.8 4 4s-1.8 3.9-4 3.9zM55.2 45.1c-2.2 0-3.9-1.7-3.9-3.9s1.7-4 3.9-4 4 1.8 4 4-1.8 3.9-4 3.9zM68.8 45.1c-2.2 0-3.9-1.7-3.9-3.9s1.7-4 3.9-4 4 1.8 4 4-1.8 3.9-4 3.9z"/><path class="s7" d="M235.5 269.9h13.4l-13.2 11.6z"/><path class="s7" d="M222.6 247.2c0-11.4 9.2-20.7 20.7-20.7h60.2c11.5 0 20.7 9.3 20.7 20.7v3.3c0 11.4-9.2 20.7-20.7 20.7h-60.2c-11.5 0-20.7-9.3-20.7-20.7z"/><path class="s1" d="M259.8 252.8c-2.2 0-3.9-1.8-3.9-4 0-2.1 1.7-3.9 3.9-3.9s4 1.8 4 3.9c0 2.2-1.8 4-4 4zM273.4 252.8c-2.2 0-3.9-1.8-3.9-4 0-2.1 1.7-3.9 3.9-3.9s3.9 1.8 3.9 3.9c0 2.2-1.7 4-3.9 4zM287 252.8c-2.2 0-4-1.8-4-4 0-2.1 1.8-3.9 4-3.9s3.9 1.8 3.9 3.9c0 2.2-1.7 4-3.9 4z"/><path class="s8" d="m651.9 150-13.1-11.6h13.4z"/><path class="s8" d="M665.1 119.1c0 11.4-9.3 20.7-20.7 20.7h-60.3c-11.4 0-20.7-9.3-20.7-20.7v-3.4c0-11.4 9.3-20.6 20.7-20.6h60.3c11.4 0 20.7 9.2 20.7 20.6z"/><path class="s1" d="M627.8 121.4c-2.2 0-3.9-1.8-3.9-4s1.7-3.9 3.9-3.9 4 1.7 4 3.9-1.8 4-4 4zM614.2 121.4c-2.1 0-3.9-1.8-3.9-4s1.8-3.9 3.9-3.9c2.2 0 4 1.7 4 3.9s-1.8 4-4 4zM600.7 121.4c-2.2 0-4-1.8-4-4s1.8-3.9 4-3.9c2.1 0 3.9 1.7 3.9 3.9s-1.8 4-3.9 4z"/><path class="s6" d="M644.9 41.2c-2.2 0-3.9-1.8-3.9-4 0-2.1 1.7-3.9 3.9-3.9s3.9 1.8 3.9 3.9c0 2.2-1.7 4-3.9 4zM653.2 57.4c-2.2 0-3.9-1.8-3.9-4 0-2.1 1.7-3.9 3.9-3.9s4 1.8 4 3.9c0 2.2-1.8 4-4 4zM562.5 219.5c-3.3 0-6.1-2.8-6.1-6.1 0-3.4 2.8-6.2 6.1-6.2 3.4 0 6.2 2.8 6.2 6.2 0 3.3-2.8 6.1-6.2 6.1zM598.5 240.5c-3.4 0-6.2-2.7-6.2-6.1 0-3.4 2.8-6.2 6.2-6.2 3.4 0 6.1 2.8 6.1 6.2 0 3.4-2.7 6.1-6.1 6.1z"/><path d="M46.5 247.5c-3.4 0-6.2-2.7-6.2-6.1 0-3.4 2.8-6.1 6.2-6.1 3.4 0 6.1 2.7 6.1 6.1 0 3.4-2.7 6.1-6.1 6.1z" style="fill:#f98b67"/><path class="s10" d="M558.2 521.5c-12.9-5.8-30.6-17.7-30.6-20.8 0-2.1 12.6-2.7 16-2.7 5.5 0 10.1 1.7 14.7 3.8 1.3.6 6.3 4.1 6.3 4.1l5.2 6.2 4.8 5.9 2.1 2.7v.9s-12.8 0-18.5-.1z"/><path d="M574.1 521.6c-18-13.9-54.7-89.3-45.3-117.2 20 10.2 42 45.4 52.4 75.1l.4 1.4q.2.8.3 1.5.2.7.4 1.5.1.7.2 1.5l4.2 19.2 1.1 17z" style="fill:#1b75bc"/><path class="s8" d="M586.3 521.6c-6-5-8-19.5-8-25-.1-10.1 1.4-17.6 10.1-28.8s6.4-29.7 17.9-42.2c11.6-12.5 19.2-16 32.9-16s18 22.2 17.9 27.8c-.1 22.5-14.3 25.7-23 36.4-6.2 7.8-6.7 14.2-8.6 17.8-10.2 19.7-18.5 27.1-24.7 30"/><path class="s12" d="M589.7 519.9c.2-38.4 40.6-96.1 49.3-104.7"/><path class="s12" d="M591.9 502.5c-4.5-4.9-8.6-18.7-8-22.3M580.4 518.2c-6.4-11.2-36.5-66-47.7-106.4"/><path class="s13" d="M600.9 521.6h18.8L604 580.3h-42.2l-15.5-58.7h54.6z"/><path class="s12" d="M533.8 501.9c9.2.6 20.7 1 28.9 6.6"/><path d="M721.8 290.9s-15 169-13.8 171.9c1.2 2.9 64.1 75.9 64.1 75.9s-6.4 10.6-10.8 13.8c-3.8-1.2-89.6-66.8-94.9-98.2-5.3-31.3 10.8-162.5 13.1-173z" style="fill:#145c90"/><path class="s15" d="m782 305.1-64.2 262h-21.7L718 293.8z"/><path class="s10" d="M736.4 155.1c8.8 0 55.1 1.5 63.4 17.8 8.4 16.3.5 91.5-4.7 94.5-2.8 1.5-3.5 0-4.3 3.2-.9 3.2-8.8 34.5-8.8 34.5-5.1.2-78.6-10.9-102.5-23.9.1-3.6 1.3-12.9 1.3-13.7-3.2 1.3-7 1.6-8.1 0-9.3-14.1 4.6-87.7 14.6-102.5 4.2-6.3 34.8-9.8 49.1-9.9z"/><path class="s16" d="M791.6 267.8s-4.2 16-5.5 21.2c1.6-6.5-17.1-19.6-19.3-19.6 1.6 0 23-1.3 24.8-1.6z"/><path class="s17" d="M747.8 163.7c0 2.9-22.5 2.9-22.5 0v-28.9h22.5z"/><path class="s16" d="M747.8 134.8v14.5c0-2.7-11.1-7.7-12.9-7.7 0 0 10.1-6.8 12.9-6.8z"/><path class="s17" d="M731.8 143.8c-12.1 0-21.9-9.8-21.9-22 0-12.1 9.8-21.9 21.9-21.9 12.1 0 21.9 9.8 21.9 21.9 0 12.2-9.8 22-21.9 22z"/><path class="s16" d="M744.5 97.4c10.8 3 12.6 8.2 12.6 12.4 0 4.2-2.9 7.7-5.9 10.4-9.2-6.6-20.5-6.4-24.8-7.5-4.4-1.1-7.6-4.6-9.5-6.1-2.5 1.5-5.4 4.9-6.8 12.2-2.1-1.1-4-5.4-4-12.9 0-9 7.1-16.1 18.3-16.1 11.9 0 12.9 5.6 20.1 7.6z"/><path class="s18" d="M711.3 128.4c-2.1 0-3.8-.9-3.8-2s1.7-2 3.8-2c2.2 0 3.9.9 3.9 2s-1.7 2-3.9 2zM735.5 128.4c-2.1 0-3.9-.9-3.9-2s1.8-2 3.9-2c2.1 0 3.8.9 3.8 2s-1.7 2-3.8 2z"/><path class="s19" d="M720.7 122.2c-.7 1-4.4 5.3-.5 7.1M727.9 134.3c1.2 0 3-1.4 3.9-2.7"/><path class="s17" d="M752.1 129.4c-2.8 0-5.1-2.2-5.1-5s2.3-5.1 5.1-5.1 5 2.3 5 5.1-2.2 5-5 5z"/><path class="s19" d="M767.3 198.2c-.4 4.9-1.9 28.8-1.3 31.9-7.4 2.6-74.7 34.5-86.3 38M689.2 190.7c-1.6 5.4-6.8 30-3.1 41.4"/><path class="s19" d="M706.3 256.9c3.5 2.5 37.1 17.4 83.6 11.8"/><path class="s17" d="M689.6 244.6q-.5.4-1.2.4-.7.1-1.3-.1-.6-.2-1.1-.7-.5-.4-.7-1.1c-1.2-2.3 4.4-12.1 8.6-14.3 4.1-2.2 11.5 3.7 9.2 3.3-3.9-.6-12.3 11.8-13.5 12.5z"/><path class="s16" d="M771.4 539.8c1.2.9 11.8 8.1 11.9 12.6.1 4.6-9.9 19.6-11.9 20-2 .5-3.5-1.2-3.5-4.3 0-3 3.8-8.3 3.3-10.7-.5-2.4-5.4-6.7-7.9-6.8M715.7 567.1c0 2.1 1.2 15.2-1.2 16.4-2.4 1.2-29.1 2-30.3.7-1.2-1.2-2-3.7-.9-4.4 1.1-.8 11.4-2.8 12.8-3.8 1.4-1 3.3-6.1 2.6-8.9"/><path class="s13" d="M22.8 469.9h169.4v86H22.8z"/><path d="M318.3 458c-1.1 6.2-1.6 76-2 80.4-1.8 2.8-23.3-.9-25.3-2.5-2.1-1.7-14.6-101.9-15.3-106.2" style="fill:#65b7b0"/><path class="s10" d="M231.9 349.3c48.6 0 113.4 106.7 113.4 109.5 0 2.8-8.1 9.9-12.2 14-5.3 0-73-56.2-101.6-56.2-13 0-93 72.5-140.6 72.5-47.5 0-65.6-84.6-56.9-80.3 19.5 9.6 179.1-59.5 197.9-59.5z"/><path class="s16" d="M43.1 450.9c-10.8-21.8-13.7-44.4-9.1-42.1 6.7 3.3 30-2.7 58.5-12-10.4 5.7-22.3 11.2-31.8 13.4-22.4 5.1-19.6 36.5-17.6 40.7z"/><path class="s15" d="M81.7 261.8c7.5.2 46.5-.9 57.2 9.2 7.9 7.6 32.5 72.5 36.3 95.4-16.5 8.4-136 65.6-172.9 40.4-.8-19.5 3-97.2 27.1-137.9 8.9-5.9 45.1-7.3 52.3-7.1z"/><path class="s17" d="M96.9 267.7c0 6.1-22.8 6.1-22.8 0v-24.5h22.8z"/><path class="s16" d="m74.1 245.5 1.5-4.2s10.8 4.4 10.7 7.4c-4.7-.2-12.2 6.6-12.2 9.3z"/><path class="s16" d="M59.2 243.2q-.2-.9-.3-1.8-.2-.9-.3-1.8-.1-.9-.1-1.8-.1-.9-.1-1.8c0-18.1 14.1-32.7 31.6-32.7 17.4 0 31.5 14.6 31.5 32.7v1.8l-.2 1.8-.2 1.8-.4 1.8z"/><path class="s17" d="M112.9 221.2h1.3c2.3 6.3 1.9 13.2-1.1 19.2-3.1 6-8.5 10.4-15 12.1-6.5 1.8-13.4.8-19.1-2.8-5.6-3.6-9.6-9.4-10.8-16l.2.1c2-.7 6.3-6.9 7.4-6.9 1.1 0 10.9-.1 26.2-11.3 2.7 1.9 6.6 5 10.4 5.6h.5z"/><path class="s16" d="M72.9 207.4c-5.2 0-9.3-4.2-9.3-9.3 0-5.2 4.1-9.3 9.3-9.3 5.1 0 9.3 4.1 9.3 9.3 0 5.1-4.2 9.3-9.3 9.3z"/><path class="s19" d="M77 234.3c-1-.1-1.9-.5-2.6-1.3-.7-.7-1.1-1.6-1.1-2.7 0-1 .4-1.9 1.1-2.7.7-.7 1.6-1.1 2.6-1.2M106.8 226.9c1.2 1.6 4.1 4.3 0 7.1M94.4 236.1c0 1.1.5 3.8 3 4.6"/><path class="s18" d="M86.8 236.3c-2 0-3.6-.8-3.6-1.8 0-1.1 1.6-1.9 3.6-1.9s3.6.8 3.6 1.9c0 1-1.6 1.8-3.6 1.8zM113.6 236.3c-2 0-3.6-.8-3.6-1.8 0-1.1 1.6-1.9 3.6-1.9s3.6.8 3.6 1.9c0 1-1.6 1.8-3.6 1.8z"/><path class="s17" d="m138 329.5 24.4-6.3c2.3 4 13.7 43.1 13.7 43.1l-37.6 15.9c.5-7.5 2-41.4-.5-52.7z"/><path class="s19" d="M52.7 323.4c0 2.9-2.5 14.1-4 19.4M138 329.5c-.6-4.6-4-30.7-9.8-44.5"/><path class="s17" d="m138 329.5 24.4-6.3c2.3 4 13.7 43.1 13.7 43.1l-37.6 15.9c.5-7.5 2-41.4-.5-52.7z"/><path class="s16" d="M343.5 460.1c.6 1.7 4.3 5.4 6 6.2 1.7.8 11.5-.7 12.2 1.6.6 2.3-14.9 12.8-17.5 12.7-2.6-.1-9.8-9-10.4-9.9M309.9 535.8c-.8 1.7-.7 7 0 8.7.6 1.7 8.7 7.4 7.6 9.6-1.1 2.1-19.6-1.2-21.4-3-1.8-1.9-.8-13.3-.6-14.3"/><path class="s21" d="M266.4 368.8h-82.5l19.6-52.1h82.6z"/><path class="s21" d="M115.2 366.8h82.5v2h-82.5z"/><path class="s17" d="M48.7 342.8c-1.6 5.9-9.3 31.3-6.1 35.7 3.1 4.4 81.7-5.5 102.7-12.1 5.3-1.7 9.3-6.3 11.7-6.9 1.5-.3 3-.2 4.5.1 1.5.3 3 .8 4.3 1.7 1.3.8 2.4 1.8 3.3 3 .9 1.3 1.6 2.7 2 4.1-8.4 4.1-129.5 66-168.8 38.4-7.4-5.3 5.6-70.1 6.2-73.4 6.6.8 40.2 9.4 40.2 9.4z"/><path class="s19" d="M139.2 368c2.3-.6 4.4-1.1 6.1-1.6 5.3-1.8 9.3-6.4 11.7-7 1.5-.2 3-.2 4.6.1 1.5.3 2.9.9 4.2 1.7 1.3.8 2.4 1.9 3.3 3.1.9 1.2 1.6 2.6 2 4.1"/><g style="opacity:.1"><path class="s22" d="M195.3 605.9c-2.9 0-5.3-2.4-5.3-5.3s2.4-5.2 5.3-5.2 5.2 2.3 5.2 5.2c0 2.9-2.3 5.3-5.2 5.3zM195.3 662c-2.9 0-5.3-2.4-5.3-5.3s2.4-5.3 5.3-5.3 5.2 2.4 5.2 5.3-2.3 5.3-5.2 5.3zM195.3 633.9c-2.9 0-5.3-2.3-5.3-5.2 0-2.9 2.4-5.3 5.3-5.3s5.2 2.4 5.2 5.3-2.3 5.2-5.2 5.2zM195.3 690c-2.9 0-5.3-2.4-5.3-5.3s2.4-5.2 5.3-5.2 5.2 2.3 5.2 5.2c0 2.9-2.3 5.3-5.2 5.3zM223.3 605.9c-2.9 0-5.3-2.4-5.3-5.3s2.4-5.2 5.3-5.2 5.3 2.3 5.3 5.2c0 2.9-2.4 5.3-5.3 5.3zM223.3 662c-2.9 0-5.3-2.4-5.3-5.3s2.4-5.3 5.3-5.3 5.3 2.4 5.3 5.3-2.4 5.3-5.3 5.3zM223.3 633.9c-2.9 0-5.3-2.3-5.3-5.2 0-2.9 2.4-5.3 5.3-5.3s5.3 2.4 5.3 5.3-2.4 5.2-5.3 5.2zM223.3 690c-2.9 0-5.3-2.4-5.3-5.3s2.4-5.2 5.3-5.2 5.3 2.3 5.3 5.2c0 2.9-2.4 5.3-5.3 5.3zM251.3 605.9c-2.9 0-5.2-2.4-5.2-5.3s2.3-5.2 5.2-5.2c2.9 0 5.3 2.3 5.3 5.2 0 2.9-2.4 5.3-5.3 5.3zM251.3 662c-2.9 0-5.2-2.4-5.2-5.3s2.3-5.3 5.2-5.3c2.9 0 5.3 2.4 5.3 5.3s-2.4 5.3-5.3 5.3zM251.3 633.9c-2.9 0-5.2-2.3-5.2-5.2 0-2.9 2.3-5.3 5.2-5.3 2.9 0 5.3 2.4 5.3 5.3s-2.4 5.2-5.3 5.2zM251.3 690c-2.9 0-5.2-2.4-5.2-5.3s2.3-5.2 5.2-5.2c2.9 0 5.3 2.3 5.3 5.2 0 2.9-2.4 5.3-5.3 5.3zM279.4 605.9c-2.9 0-5.3-2.4-5.3-5.3s2.4-5.2 5.3-5.2 5.2 2.3 5.2 5.2c0 2.9-2.3 5.3-5.2 5.3zM279.4 662c-2.9 0-5.3-2.4-5.3-5.3s2.4-5.3 5.3-5.3 5.2 2.4 5.2 5.3-2.3 5.3-5.2 5.3zM279.4 633.9c-2.9 0-5.3-2.3-5.3-5.2 0-2.9 2.4-5.3 5.3-5.3s5.2 2.4 5.2 5.3-2.3 5.2-5.2 5.2zM279.4 690c-2.9 0-5.3-2.4-5.3-5.3s2.4-5.2 5.3-5.2 5.2 2.3 5.2 5.2c0 2.9-2.3 5.3-5.2 5.3zM307.4 605.9c-2.9 0-5.2-2.4-5.2-5.3s2.3-5.2 5.2-5.2c2.9 0 5.3 2.3 5.3 5.2 0 2.9-2.4 5.3-5.3 5.3zM307.4 662c-2.9 0-5.2-2.4-5.2-5.3s2.3-5.3 5.2-5.3c2.9 0 5.3 2.4 5.3 5.3s-2.4 5.3-5.3 5.3zM307.4 633.9c-2.9 0-5.2-2.3-5.2-5.2 0-2.9 2.3-5.3 5.2-5.3 2.9 0 5.3 2.4 5.3 5.3s-2.4 5.2-5.3 5.2zM307.4 690c-2.9 0-5.2-2.4-5.2-5.3s2.3-5.2 5.2-5.2c2.9 0 5.3 2.3 5.3 5.2 0 2.9-2.4 5.3-5.3 5.3zM335.5 605.9c-3 0-5.3-2.4-5.3-5.3s2.3-5.2 5.3-5.2c2.9 0 5.2 2.3 5.2 5.2 0 2.9-2.3 5.3-5.2 5.3zM391.5 605.9c-2.9 0-5.2-2.4-5.2-5.3s2.3-5.2 5.2-5.2c2.9 0 5.3 2.3 5.3 5.2 0 2.9-2.4 5.3-5.3 5.3zM447.6 605.9c-2.9 0-5.2-2.4-5.2-5.3s2.3-5.2 5.2-5.2c2.9 0 5.3 2.3 5.3 5.2 0 2.9-2.4 5.3-5.3 5.3zM503.7 605.9c-2.9 0-5.3-2.4-5.3-5.3s2.4-5.2 5.3-5.2 5.2 2.3 5.2 5.2c0 2.9-2.3 5.3-5.2 5.3zM335.5 662c-3 0-5.3-2.4-5.3-5.3s2.3-5.3 5.3-5.3c2.9 0 5.2 2.4 5.2 5.3s-2.3 5.3-5.2 5.3zM391.5 662c-2.9 0-5.2-2.4-5.2-5.3s2.3-5.3 5.2-5.3c2.9 0 5.3 2.4 5.3 5.3s-2.4 5.3-5.3 5.3zM447.6 662c-2.9 0-5.2-2.4-5.2-5.3s2.3-5.3 5.2-5.3c2.9 0 5.3 2.4 5.3 5.3s-2.4 5.3-5.3 5.3zM503.7 662c-2.9 0-5.3-2.4-5.3-5.3s2.4-5.3 5.3-5.3 5.2 2.4 5.2 5.3-2.3 5.3-5.2 5.3zM335.5 633.9c-3 0-5.3-2.3-5.3-5.2 0-2.9 2.3-5.3 5.3-5.3 2.9 0 5.2 2.4 5.2 5.3s-2.3 5.2-5.2 5.2zM391.5 633.9c-2.9 0-5.2-2.3-5.2-5.2 0-2.9 2.3-5.3 5.2-5.3 2.9 0 5.3 2.4 5.3 5.3s-2.4 5.2-5.3 5.2zM447.6 633.9c-2.9 0-5.2-2.3-5.2-5.2 0-2.9 2.3-5.3 5.2-5.3 2.9 0 5.3 2.4 5.3 5.3s-2.4 5.2-5.3 5.2zM503.7 633.9c-2.9 0-5.3-2.3-5.3-5.2 0-2.9 2.4-5.3 5.3-5.3s5.2 2.4 5.2 5.3-2.3 5.2-5.2 5.2zM335.5 690c-3 0-5.3-2.4-5.3-5.3s2.3-5.2 5.3-5.2c2.9 0 5.2 2.3 5.2 5.2 0 2.9-2.3 5.3-5.2 5.3zM391.5 690c-2.9 0-5.2-2.4-5.2-5.3s2.3-5.2 5.2-5.2c2.9 0 5.3 2.3 5.3 5.2 0 2.9-2.4 5.3-5.3 5.3zM447.6 690c-2.9 0-5.2-2.4-5.2-5.3s2.3-5.2 5.2-5.2c2.9 0 5.3 2.3 5.3 5.2 0 2.9-2.4 5.3-5.3 5.3zM503.7 690c-2.9 0-5.3-2.4-5.3-5.3s2.4-5.2 5.3-5.2 5.2 2.3 5.2 5.2c0 2.9-2.3 5.3-5.2 5.3zM363.5 605.9c-2.9 0-5.3-2.4-5.3-5.3s2.4-5.2 5.3-5.2 5.3 2.3 5.3 5.2c0 2.9-2.4 5.3-5.3 5.3zM419.6 605.9c-2.9 0-5.3-2.4-5.3-5.3s2.4-5.2 5.3-5.2 5.2 2.3 5.2 5.2c0 2.9-2.3 5.3-5.2 5.3zM475.6 605.9c-2.9 0-5.2-2.4-5.2-5.3s2.3-5.2 5.2-5.2c3 0 5.3 2.3 5.3 5.2 0 2.9-2.3 5.3-5.3 5.3zM531.7 605.9c-2.9 0-5.2-2.4-5.2-5.3s2.3-5.2 5.2-5.2c2.9 0 5.3 2.3 5.3 5.2 0 2.9-2.4 5.3-5.3 5.3zM363.5 662c-2.9 0-5.3-2.4-5.3-5.3s2.4-5.3 5.3-5.3 5.3 2.4 5.3 5.3-2.4 5.3-5.3 5.3zM419.6 662c-2.9 0-5.3-2.4-5.3-5.3s2.4-5.3 5.3-5.3 5.2 2.4 5.2 5.3-2.3 5.3-5.2 5.3zM475.6 662c-2.9 0-5.2-2.4-5.2-5.3s2.3-5.3 5.2-5.3c3 0 5.3 2.4 5.3 5.3s-2.3 5.3-5.3 5.3zM531.7 662c-2.9 0-5.2-2.4-5.2-5.3s2.3-5.3 5.2-5.3c2.9 0 5.3 2.4 5.3 5.3s-2.4 5.3-5.3 5.3zM363.5 633.9c-2.9 0-5.3-2.3-5.3-5.2 0-2.9 2.4-5.3 5.3-5.3s5.3 2.4 5.3 5.3-2.4 5.2-5.3 5.2zM419.6 633.9c-2.9 0-5.3-2.3-5.3-5.2 0-2.9 2.4-5.3 5.3-5.3s5.2 2.4 5.2 5.3-2.3 5.2-5.2 5.2zM475.6 633.9c-2.9 0-5.2-2.3-5.2-5.2 0-2.9 2.3-5.3 5.2-5.3 3 0 5.3 2.4 5.3 5.3s-2.3 5.2-5.3 5.2zM531.7 633.9c-2.9 0-5.2-2.3-5.2-5.2 0-2.9 2.3-5.3 5.2-5.3 2.9 0 5.3 2.4 5.3 5.3s-2.4 5.2-5.3 5.2zM363.5 690c-2.9 0-5.3-2.4-5.3-5.3s2.4-5.2 5.3-5.2 5.3 2.3 5.3 5.2c0 2.9-2.4 5.3-5.3 5.3zM419.6 690c-2.9 0-5.3-2.4-5.3-5.3s2.4-5.2 5.3-5.2 5.2 2.3 5.2 5.2c0 2.9-2.3 5.3-5.2 5.3zM475.6 690c-2.9 0-5.2-2.4-5.2-5.3s2.3-5.2 5.2-5.2c3 0 5.3 2.3 5.3 5.2 0 2.9-2.3 5.3-5.3 5.3zM531.7 690c-2.9 0-5.2-2.4-5.2-5.3s2.3-5.2 5.2-5.2c2.9 0 5.3 2.3 5.3 5.2 0 2.9-2.4 5.3-5.3 5.3z"/></g></svg>