<svg version="1.2" xmlns="http://www.w3.org/2000/svg" width="915" height="915"><style>.s2{fill:#e0e7f5}.s3{fill:#b8c3d9}.s5{fill:#207bbd}.s6{fill:#1f161e}.s8{fill:#f8cdba}.s9{fill:none;stroke:#1f161e;stroke-linecap:round}.s10{fill:#fa9e9f}.s11{fill:#d6d6d6}.s12{fill:none;stroke:#a5a5c6;stroke-linecap:round;stroke-width:3}.s13{fill:#c8d1e3}.s14{fill:#51bfb6}.s15{fill:#fff}.s16{fill:#77b5e2}.s17{fill:#a5a5c6}.s19{fill:#ebebeb}.s20{fill:#e0e0e0}.s21{fill:#f5f5f5}</style><g style="opacity:.9"><path d="M457.5 915C204.5 915 0 710.5 0 457.5S204.5 0 457.5 0 915 204.5 915 457.5 710.5 915 457.5 915z" style="fill:#f5f8fe"/></g><path d="M457.5 837C247.6 837 78 667.4 78 457.5S247.6 78 457.5 78 837 247.6 837 457.5 667.4 837 457.5 837z" style="fill:none;stroke:#cbcbd9"/><path class="s2" d="M25.7 704q-.2-4.2-.2-8.5c0-135.3 145.3-245 324.6-245s324.7 109.7 324.7 245q0 4.3-.2 8.5z"/><path class="s3" d="m199 704-.2-6c0-95.6 108.6-173 242.5-173s242.4 77.4 242.4 173q0 3-.2 6z"/><path d="M595.6 583c-1.4 7.6-2 93-2.5 98.3-2.2 3.4-28.5-1.1-30.9-3.1-2.5-2.1-17.8-124.5-18.7-129.8" style="fill:#145c90"/><path class="s5" d="M490 450.2c59.3 0 138.6 130.4 138.6 133.8 0 3.5-10 12.2-14.9 17.1-6.5 0-89.3-68.6-124.3-68.6-15.8 0-113.6 88.5-171.7 88.5-58.1 0-80.2-103.4-69.6-98.2C272 534.7 467 450.2 490 450.2z"/><path class="s6" d="M259.2 574.4c-13.2-26.6-16.7-54.3-11.1-51.6 8.2 4.1 36.7-3.3 71.5-14.6-12.8 6.9-27.2 13.8-38.8 16.4-27.4 6.2-24 44.6-21.6 49.8z"/><path d="M306.4 343.2c9.1.3 56.8-1.1 69.9 11.3 9.7 9.2 39.8 88.6 44.4 116.5-20.2 10.3-166.2 80.2-211.4 49.5-1-23.9 3.7-118.8 33.2-168.6 10.8-7.2 55.1-8.9 63.9-8.7z" style="fill:#69d2c9"/><path class="s8" d="M324.9 350.4c0 7.5-27.8 7.5-27.8 0v-29.9h27.8z"/><path class="s6" d="m297.1 323.3 1.9-5.1s13.1 5.4 13 9c-5.7-.3-14.9 8-14.9 11.4z"/><path class="s6" d="m278.9 320.5-.4-2.2q-.2-1.1-.3-2.2l-.2-2.2v-2.2c0-22.1 17.2-40 38.5-40s38.6 17.9 38.6 40q0 1.1-.1 2.2l-.2 2.2q-.1 1.1-.3 2.2l-.4 2.2z"/><path class="s8" d="M344.5 293.6q.3.1.5.1.3 0 .6-.1h.6c2.8 7.7 2.3 16.2-1.5 23.5-3.7 7.3-10.4 12.6-18.3 14.8-7.9 2.2-16.3.9-23.2-3.5-7-4.3-11.8-11.4-13.2-19.4l.2.1c2.4-.9 7.7-8.5 9-8.5 1.3 0 13.3-.2 32-13.9 3.3 2.5 8 6.2 12.7 6.9h.6z"/><path class="s6" d="M295.6 276.7c-6.3 0-11.4-5.1-11.4-11.4 0-6.3 5.1-11.3 11.4-11.3 6.3 0 11.4 5 11.4 11.3 0 6.3-5.1 11.4-11.4 11.4z"/><path class="s9" d="M300.7 309.6c-1.2-.1-2.4-.6-3.3-1.5-.8-.9-1.3-2.1-1.3-3.3 0-1.2.5-2.4 1.3-3.3.9-.9 2.1-1.4 3.3-1.5M337.1 300.6c1.4 1.9 5 5.1 0 8.6M321.9 311.8c0 1.4.6 4.7 3.6 5.6"/><path class="s10" d="M312.6 312.1c-2.4 0-4.4-1-4.4-2.3 0-1.3 2-2.3 4.4-2.3 2.5 0 4.4 1 4.4 2.3 0 1.3-1.9 2.3-4.4 2.3zM345.4 312.1c-2.4 0-4.4-1-4.4-2.3 0-1.3 2-2.3 4.4-2.3 2.5 0 4.4 1 4.4 2.3 0 1.3-1.9 2.3-4.4 2.3z"/><path class="s8" d="m375.3 426 29.7-7.7c2.9 4.9 16.8 52.7 16.8 52.7l-45.9 19.3c.6-9 2.4-50.4-.6-64.3z"/><path class="s9" d="M270.9 418.5c0 3.6-3 17.3-4.8 23.7M375.3 426c-.8-5.7-5-37.6-12.1-54.4"/><path class="s8" d="m375.3 426 29.7-7.7c2.9 4.9 16.8 52.7 16.8 52.7l-45.9 19.3c.6-9 2.4-50.4-.6-64.3z"/><path class="s6" d="M626.4 585.6c.7 2 5.3 6.6 7.3 7.6 2.1.9 14-.9 14.9 1.9.8 2.8-18.2 15.7-21.4 15.6-3.1-.2-12-11.1-12.7-12.1M585.3 678.1c-.9 2-.8 8.5 0 10.6.7 2.1 10.6 9.1 9.3 11.7-1.3 2.6-24-1.4-26.2-3.6-2.1-2.3-.9-16.3-.7-17.5"/><path class="s11" d="M532.2 474H431.3l24-63.7h100.9z"/><path class="s11" d="M347.3 471.6h100.8v2.4H347.3z"/><path class="s8" d="M266.1 442.2c-1.9 7.3-11.4 38.3-7.5 43.6 3.9 5.4 99.8-6.7 125.5-14.7 6.6-2.2 11.4-7.8 14.3-8.5 1.9-.3 3.8-.3 5.6.1 1.8.3 3.6 1 5.2 2 1.5 1 2.9 2.3 4 3.8 1.2 1.5 2 3.2 2.5 5-10.2 5-158.4 80.6-206.4 46.9-9-6.4 6.9-85.7 7.6-89.7 8.1 1 49.2 11.5 49.2 11.5z"/><path class="s9" d="M376.6 473.1c2.9-.7 5.4-1.4 7.5-2 6.6-2.2 11.4-7.8 14.3-8.5 1.9-.3 3.8-.3 5.6.1 1.8.3 3.6 1 5.2 2 1.5 1 2.9 2.3 4 3.8 1.2 1.5 2 3.2 2.5 5"/><path class="s3" d="M141.6 707.7q-.1-.7-.2-1.5t-.2-1.5q0-.8-.1-1.6v-1.5c0-16.3 10.6-29.5 23.6-29.5 13.1 0 23.7 13.2 23.7 29.5q0 .8-.1 1.5 0 .8-.1 1.6 0 .7-.1 1.5t-.2 1.5z"/><path class="s2" d="M263 574.6c13.5 6.1 15 28.8 12.5 33.9-3.9 8.1-18.1 19.8-21.9 27.9-1.6 3.4-15.5 39.6-28.4 35.4-11.5-3.8-17.8-20.4-11.3-32 9.6-17.1 13.4-39.9 16.8-46 4.5-8 19.2-25.1 32.3-19.2z"/><path class="s12" d="M220.4 706.3c0-8.2 5-74.5 28.8-101.6M240.7 617.2l-5.1-19.7"/><path class="s13" d="M172.7 406.1c24.2 0 32.4 16.4 32.4 27.9 0 23.8-5.1 18.5-5.1 43.1 0 26.5 33.9 60 33.9 105.7 0 62.6-54.6 71.7-61.2 71.7-34.4 0-47.2-37.9-47.2-60.8 0-27.3 23.9-56.4 23.9-82.7 0-19.2-6.2-26.6-6.2-56.4 0-29.9 17.3-48.5 29.5-48.5z"/><path class="s12" d="M170.9 706.4V445.5M170.9 614.8l40.4-41.4M169.9 498.5l-13.1-13M170.9 463.6l18.1-18.2"/><path class="s13" d="M165.2 707.7c0-5.6 10.1-25 27.4-25 16.9 0 20.8 6.2 34.8 6.2 10.5 0 9.8-4.2 19.6-4.2 20.1 0 27.9 16 27.9 23z"/><path class="s14" d="m222.4 256.7-9.3 2.9-4.3-10-8.9 1.6-5.8-9 3.4-2.2 4.3 6.7 9.4-1.6 4.1 9.6 6.2-1.9z"/><path class="s13" d="M300.9 179.4c-3.4 4.8-2.3 8.7-1.5 19.3q.1 1-.2 2.1-.3 1-.9 1.8-.7.8-1.6 1.4-.9.5-1.9.7l-6.4 1q-1.1.2-2.1 0t-1.9-.8q-.9-.6-1.5-1.5-.6-.8-.9-1.8l-2.5-10.3q-.3-1.2-.8-2.2-.4-1.1-1.1-2-.6-1-1.4-1.8-.8-.8-1.7-1.5c-14.1-9.9-9.1-32.1 7.8-34.8 16.9-2.8 28.7 16.6 18.6 30.4z"/><path fill-rule="evenodd" class="s15" d="M284 194c-1.1-9.1-2.6-18.7-3.1-21.5-9.7.6-6-9.6-1.6-5.5q.5.5.9 1 .3.5.6 1.1.3.6.5 1.2t.3 1.3q1.2-.1 2.4-.4 1.2-.2 2.3-.5 1.2-.4 2.3-.8 1.2-.5 2.2-1c-.1-2.3-.4-4 .3-5.4.9-2.2 3.7-2.8 4.8-.7q.2.3.2.7l.2.6q0 .4-.1.7 0 .4-.1.7c-.7 1.8-2.6 3-4.3 3.9.5 7.3 1.2 14.6 2.1 21.7l-.9.2c-.9-7.1-1.6-14.3-2.1-21.4q-1.1.5-2.2.9-1.1.5-2.2.8-1.2.3-2.3.5-1.2.3-2.4.4c.7 3.5 2.1 12.8 3.2 21.4zm-7.8-23.6c.9.9 2.3 1.3 4.4 1.2q-.1-.5-.3-1.1-.1-.5-.4-1-.2-.5-.6-1-.3-.4-.7-.8c-2.4-2.2-3.8 1.1-2.4 2.7zm15.6-6.6c-.5 1.3-.3 2.8-.2 4.6 1.4-.8 3-1.8 3.5-3.2.4-1 0-2.5-1-2.7-.1-.1-1.9.5-2.3 1.3z"/><path class="s2" d="M298.6 187.8c0 2.8.5 6.2.8 10.9q.1 1-.2 2.1-.3 1-.9 1.8-.7.8-1.6 1.4-.9.5-1.9.7l-6.4 1q-1.1.2-2.1 0t-1.9-.8q-.9-.6-1.5-1.5-.6-.8-.9-1.8l-2.5-10.3q-.1-.2-.1-.3z"/><path class="s16" d="m538.6 250.7-5.8-13.6-14.5-3q-.5-.1-1-.5-.4-.4-.5-1-.2-.6 0-1.1.2-.6.6-1l11.2-9.7-1.6-14.7q-.1-.6.1-1.1.3-.5.8-.8.5-.3 1-.3.6 0 1.1.3l12.7 7.6 13.5-6.1q.5-.3 1.1-.2.6.1 1 .5.5.3.7.9.2.5 0 1.1l-3.3 14.4 10 11q.3.4.5 1 .1.5-.1 1.1-.3.5-.7.9-.5.3-1.1.4l-14.7 1.2-7.3 12.9q-.3.5-.8.8-.6.3-1.1.2-.6 0-1.1-.3-.5-.4-.7-.9z"/><path class="s6" d="m632.8 278.8-3.6 14.4-16.4-2.2-4.9 12.8-16.2.5-.1-6.1 12-.4 5.2-13.5 15.8 2.1 2.4-9.5z"/><path class="s5" d="m141.6 375-84.3-15.7q-.6-.1-1.1-.5-.6-.3-.9-.8-.4-.5-.5-1.1-.1-.6 0-1.2L65.4 299q.1-.6.4-1.2.3-.5.9-.8.5-.4 1.1-.5.6-.1 1.2 0l84.3 15.7q.6.1 1.1.4.5.4.9.9.3.5.4 1.1.2.6 0 1.2l-10.5 56.7q-.1.6-.5 1.1-.3.5-.8.9-.5.3-1.1.5-.6.1-1.2 0z"/><path class="s5" d="m101.4 310.2-25.6-4.8q-.6-.1-1.1-.5-.6-.3-.9-.8-.4-.5-.5-1.1-.1-.6 0-1.2l1.6-8.7q.1-.6.5-1.1.3-.5.8-.9.5-.3 1.1-.4.6-.2 1.2-.1l25.7 4.8q.6.1 1.1.5.5.3.9.8.3.5.5 1.1.1.6 0 1.2l-1.6 8.7q-.1.6-.5 1.1-.3.5-.8.9-.5.3-1.1.5-.6.1-1.3 0z"/><path class="s16" d="M145.4 372.8q-.2.6-.5 1-.4.5-.9.8-.5.3-1 .4-.6.1-1.2 0L57 359.2q-.6-.1-1.1-.4-.5-.3-.8-.7-.4-.5-.5-1.1-.2-.5-.1-1.1l4.4-50.8q.1-.7.4-1.3.3-.5.8-.9.6-.4 1.2-.6.6-.1 1.3 0l94.2 17.5q.7.2 1.2.5.5.4.9 1 .3.5.4 1.2.1.6-.1 1.2z"/><path class="s14" d="m513.1 150.9-14.4 4-3.1-17.5 4.7-.9 2.2 12.4 9.4-2.6zM424.6 248l-14.4 3.9-3.1-17.4 4.7-.9 2.2 12.3 9.4-2.5z"/><path class="s13" d="m231.7 164.6-90.5 32.3q-1.1.4-2.2.4-1.1-.1-2.1-.6t-1.8-1.3q-.7-.8-1.1-1.9l-16.7-46.8q-.4-1.1-.3-2.2 0-1.1.5-2.1t1.3-1.8q.8-.7 1.9-1.1l90.5-32.3q1.1-.4 2.2-.3 1.1 0 2.1.5t1.8 1.3q.7.9 1.1 1.9l16.7 46.9q.4 1 .3 2.1 0 1.1-.5 2.2-.5 1-1.3 1.7-.8.8-1.9 1.1z"/><path class="s15" d="M171.7 152.6c2.4 6.8.5 14.5-4.9 19.3-5.3 4.9-13.1 6-19.7 2.9-6.5-3.1-10.6-9.8-10.2-17.1.3-7.2 5-13.5 11.9-16 2.2-.8 4.5-1.1 6.9-1 2.4.1 4.7.7 6.8 1.7 2.1 1 4 2.4 5.6 4.2 1.6 1.7 2.8 3.8 3.6 6z"/><path class="s13" d="M157.4 150.1c.7 2 .1 4.2-1.5 5.7-1.5 1.4-3.8 1.8-5.8.8-1.9-.9-3.1-2.9-3-5 .1-2.1 1.5-4 3.5-4.7q1-.4 2.1-.3 1 0 2 .5.9.4 1.6 1.2.7.8 1.1 1.8zM155 160.1l.6-.2q1.5-.6 3.1-.5 1.6.1 3.1.8 1.5.7 2.6 1.9 1 1.2 1.6 2.7l-15.9 5.7q-.6-1.5-.5-3.1.1-1.7.8-3.1.7-1.5 1.9-2.6t2.7-1.6z"/><path class="s15" d="M173.9 142.8c-.5 0-1-.2-1.4-.5-.4-.4-.7-.9-.8-1.4-.1-.5 0-1.1.3-1.5.2-.5.7-.9 1.2-1l39.6-14.2c.5-.2 1.1-.1 1.7.1.5.3.9.8 1.1 1.3.2.6.2 1.2 0 1.8-.3.5-.7.9-1.3 1.1l-39.6 14.2h-.2q-.1 0-.2.1h-.4zM184.6 152.7c-.5 0-1-.2-1.5-.6-.4-.3-.6-.8-.7-1.3-.1-.6 0-1.1.2-1.6.3-.4.7-.8 1.3-1l30.9-11c.5-.2 1.2-.2 1.7.1.5.3 1 .7 1.2 1.3.2.6.1 1.2-.1 1.7-.3.6-.7 1-1.3 1.2l-30.9 11q-.1.1-.2.1h-.2q-.1 0-.2.1h-.2z"/><path class="s13" d="m629.1 477.5-16.6-41.6q-.3-.7-.3-1.5t.3-1.6q.3-.7.9-1.3.6-.6 1.4-.9l59.6-23.7q.8-.3 1.6-.3t1.5.3q.8.3 1.3.9.6.6.9 1.3l16.6 41.6q.3.8.3 1.6t-.4 1.5q-.3.8-.9 1.4-.5.5-1.3.8l-59.6 23.8q-.8.3-1.6.3t-1.6-.3q-.7-.4-1.3-.9-.5-.6-.8-1.4z"/><path class="s17" d="m685.3 453.5-14.9-37.4q-.1-.2-.1-.4 0-.3.1-.5t.3-.4l.4-.2q.2-.1.4-.1.3 0 .5.1t.3.3.3.3l14.9 37.4q.1.2.1.5 0 .2-.1.4t-.3.4q-.1.1-.4.2-.2.1-.4.1t-.5-.1q-.2-.1-.3-.2-.2-.2-.3-.4zM678.2 448.6 666 417.9q-.1-.2-.1-.5 0-.2.1-.4t.3-.4q.1-.2.3-.2.3-.1.5-.1t.4.1q.3.1.4.2.2.2.3.4l12.2 30.7q.1.2.1.4 0 .3-.1.5t-.3.4q-.1.1-.4.2-.2.1-.4.1t-.5-.1q-.2-.1-.3-.3-.2-.1-.3-.3zM676.5 457l-14.9-37.4q-.1-.2-.1-.4t.1-.5q.1-.2.2-.3.2-.2.4-.3.2-.1.5-.1.2 0 .4.1t.4.3q.2.2.2.4l14.9 37.3q.1.3.1.5t-.1.4q-.1.3-.2.4-.2.2-.4.3h-.9q-.2-.1-.4-.3-.2-.2-.2-.4zM668.6 450.2l-11.5-28.8q-.1-.2-.1-.4 0-.3.1-.5t.3-.4l.4-.2q.2-.1.4-.1.3 0 .5.1t.4.3q.1.1.2.3l11.5 28.9q.1.2.1.4 0 .3-.1.5t-.3.4q-.1.1-.4.2-.2.1-.4.1t-.4-.1q-.3-.1-.4-.3-.2-.1-.3-.4zM685 412.3q0 .1-.1.2 0 .1-.1.2t-.2.1l-5.6 2.3h-.4l-.2-.2-.1-.1-.3-.8v-.4q0-.1.1-.2.1 0 .2-.1l5.6-2.2q.1-.1.2-.1.2 0 .2.1.1 0 .2.1t.1.2l.3.7q.1.1.1.2zM686.2 415.5v.2q0 .1-.1.2t-.2.1l-5.6 2.3h-.4l-.2-.2q-.1 0-.1-.1l-.3-.8v-.4q0-.1.1-.2.1 0 .2-.1l5.6-2.2q.1-.1.2-.1.1.1.2.1t.2.1q.1.1.1.2l.3.7v.2zM687.5 418.8v.2q0 .1-.1.1l-.2.2-5.6 2.2h-.4q-.1-.1-.2-.1-.1-.1-.1-.2l-.3-.8q-.1-.1-.1-.2t.1-.2q0-.1.1-.1.1-.1.2-.1l5.6-2.3h.4q.1.1.2.1 0 .1.1.2l.3.8v.2zM688.8 422v.2q-.1.1-.1.2-.1 0-.2.1l-5.7 2.2q-.1.1-.2.1t-.2-.1q-.1 0-.1-.1-.1-.1-.1-.2l-.3-.7q-.1-.1-.1-.2t.1-.2.1-.2q0-.1.1-.1l5.7-2.3h.4l.2.2.1.1.3.8v.2zM690.1 425.2v.2l-.2.2-.1.1-5.7 2.2q-.1.1-.2.1t-.2-.1q-.1 0-.1-.1l-.2-.2-.3-.7v-.4q.1-.1.1-.2.1-.1.2-.1l5.7-2.3h.4q.1.1.1.2.1 0 .1.1l.3.8q.1.1.1.2zM691.4 428.4q0 .1-.1.2 0 .1-.1.2 0 .1-.1.1l-5.7 2.3h-.2q-.1 0-.2-.1-.1 0-.2-.1 0-.1-.1-.1l-.3-.8v-.4q.1-.1.1-.2.1-.1.2-.1l5.7-2.2q.1-.1.2-.1t.2.1q.1 0 .1.1.1.1.1.2l.3.7q.1.1.1.2zM692.7 431.6q0 .1-.1.2 0 .1-.1.2t-.2.1l-5.6 2.3h-.4l-.2-.2q-.1 0-.1-.1l-.3-.8v-.4q0-.1.1-.2.1 0 .2-.1l5.6-2.2q.1-.1.2-.1.2 0 .2.1.1 0 .2.1t.1.2l.3.7q.1.1.1.2zM693.9 434.9v.2q0 .1-.1.1-.1.1-.2.1l-5.6 2.3h-.4q-.1-.1-.2-.1-.1-.1-.1-.2l-.3-.8v-.2q-.1-.1 0-.2 0-.1.1-.1l.2-.2 5.6-2.2h.4q.1 0 .2.1t.1.2l.3.8v.2zM695.2 438.1v.2q0 .1-.1.1l-.2.2-5.7 2.2q0 .1-.2 0h-.2l-.1-.1q-.1-.1-.1-.2l-.3-.7q-.1-.1-.1-.2 0-.2.1-.2 0-.1.1-.2l.1-.1 5.7-2.3h.4q.1.1.2.1 0 .1.1.2l.3.8v.2zM696.5 441.3v.2q-.1.1-.1.2-.1 0-.2.1l-5.7 2.2q-.1.1-.2.1t-.2-.1q-.1 0-.1-.1-.1-.1-.1-.2l-.3-.7q-.1-.1-.1-.2t.1-.2.1-.2q0-.1.1-.1l5.7-2.3h.4l.2.2.1.1.3.8v.2zM697.8 444.5v.2l-.2.2q0 .1-.1.1l-5.7 2.3h-.2q-.1 0-.2-.1-.1 0-.2-.1 0-.1-.1-.2l-.3-.7v-.4q.1-.1.1-.2.1-.1.2-.1l5.7-2.3h.2q.1 0 .2.1.1 0 .1.1.1.1.1.2l.3.7q.1.1.1.2zM699.1 447.7q0 .1-.1.2 0 .1-.1.2 0 .1-.1.1l-5.7 2.3h-.4l-.2-.2-.1-.1-.3-.8v-.4q.1-.1.1-.2.1 0 .2-.1l5.7-2.2q.1-.1.2-.1t.2.1q.1 0 .1.1.1.1.1.2l.3.7q.1.1.1.2z"/><path class="s11" d="M714.9 444q.2-.1.3-.2h.4q.2.1.3.2l4 2.5q.2.1.3.3.1.1.1.3.1.2 0 .4 0 .2-.1.3l-23.8 33.8v.1h-.1v.1h-.1l-6.3 4.8q-.2.2-.5.2t-.6-.2q-.2-.2-.3-.5-.1-.2 0-.5l2.4-7.4v-.2h.1v-.1l23.7-33.7.2-.2z"/><path class="s17" d="m696.4 481.7-6.2 4.6-1.6-1.1 2.3-7 1.4.8q.7.3 1.4.8.7.4 1.4.9.7.4 1.3 1z"/><path class="s5" d="M397.2 120.9c3.4 2.7 9.3 11.4 16.9 17.6 4.4 3.6 7.8 2.7 13.5 3.3 26.8 3.3 19.5 8.8 22.7 9.3-.9 2.1-9.2 19.8-10.8 23.4-1.4 3.3-3.9 4.8-7.5 4.3-5.6-.8-11.2-1.3-16.6-2.5-14-3-21.8-10-31.8-18.5q-.9-.7-1.6-1.7-.6-1-.9-2.1-.2-1.1-.1-2.3.1-1.1.7-2.2c6.4-14.8 14.8-27.3 15.5-28.6z"/><path class="s16" d="M453.2 172.4c-.1 5.9.3 7-2.2 6.2q-.5-.2-1.1-.5-.5-.2-1.1-.4-.5-.3-1.1-.6-.5-.2-1.1-.5c-1-.5-1-1.2-.2-2 1.2-1.2 2.4-2.4 3.6-3.5q-.3-.9-.3-1.8t.3-1.8q.3-.8.9-1.5.6-.7 1.4-1.2c.4-.2.1.3 3.8-8.3-12.3-1.5-21-2.5-36.1-4.3q-1.5-.2-2.9-.6-1.4-.4-2.8-1-1.3-.6-2.6-1.4-1.3-.7-2.4-1.7l-32.2-27q-.6-.4-.9-.9-.3-.6-.4-1.2 0-.6.2-1.2t.6-1.1q.3-.3.7-.6.4-.2.8-.3.4-.2.9-.2t.9.2c3.4.4 37.1 4.6 40.5 5q1.7.1 3.3.6 1.6.4 3.1 1 1.5.7 2.9 1.6 1.4.8 2.7 1.9 15.8 13.3 31.7 26.5c1.4 1.2 1.8 2.3 1.3 3.7q-.2.5-.5.9-.4.5-.9.7-.5.3-1.1.3-.6 0-1.1-.2c-1.3-.2-1.9.2-2.4 1.4-2.1 5.6-3.5 6.8-3 8.9.4 1.5-1.5 4.3-3.2 4.9z"/><path class="s2" d="m495.7 335.4-39.8-35.5c-2.5-2.3-1.5-7 2.1-9l31.7-18q.7-.4 1.4-.6.8-.2 1.5-.2.8.1 1.6.3.7.3 1.3.8l39.7 35.5c2.6 2.3 1.5 7-2 9l-31.7 18q-.7.4-1.4.6-.8.2-1.6.2-.8-.1-1.5-.3-.7-.3-1.3-.8z"/><path class="s15" d="m493.8 307.2-3.3-27.2q0-.5.1-.8.1-.4.3-.8.2-.3.6-.6.3-.2.7-.3.3-.2.7-.1.4 0 .7.2.3.2.5.5t.2.7l3.1 25 30.1 7.3q.4.1.7.4.2.2.4.6.1.3.1.7 0 .3-.2.7-.1.4-.4.7-.2.3-.6.5-.3.2-.7.3h-.8z"/><path d="m54.1 208.7 4.2 8.1 9.2-.3 4 9.4 9.8-3.3 4.9 10.4 9.4-1.9 6.4 9.3-3.5 2.4-4.8-7-9.9 2.1-4.7-10-10 3.4-4.4-10.4-9 .3-3.8-7.6-5.9 1.5-1.1-4.2z" style="fill:#a3a1fb"/><path class="s14" d="m565.9 355.5 8.4 3.5 6.8-6.4 9.2 4.5 5.1-8.9 10.6 4.6 5.8-7.7 11 2.8-1.1 4.2-8.2-2.1-6.1 8.1-10.2-4.5-5.2 9.1-10.2-4.9-6.6 6.1-7.8-3.1-3.5 4.9-3.5-2.4z"/><path fill-rule="evenodd" class="s17" d="m81.1 439.4 6.5 11.2c6 10.5 4.4 24.3-3.9 32.3-11 3.2-23.9-2.4-29.9-12.8l-6.5-11.2 12.6-17.3zm-18.9 6.4-9.7 13.4 6.2 10.7 13.1-7.6 9.6 16.8c5.8-6.2 7-16.1 3.5-24.4l-13.1 7.6z"/><path class="s19" d="M516.7 626.8c8 12.5-1.6 23.3-1.6 23.3l-113 .6h-.2q-.1 0-.2-.1-.1 0-.2-.1-.1 0-.2-.1c-12.4-13 .5-22.9.5-22.9z"/><path class="s20" d="M490.1 637.8c0 .1-14 .2-31.4.2-17.3 0-31.4-.1-31.4-.2s14-.2 31.4-.2 31.4.1 31.4.2zM472.6 641.9c0 .1-6.7.2-14.8.2-8.2 0-14.8-.1-14.8-.2s6.6-.2 14.8-.2c8.1 0 14.8.1 14.8.2zM501.7 649.7c-.1 0 .2-1.3.6-3.4q.3-2 .5-4.1.1-2 .1-4.1 0-2.1-.2-4.1-.2-2.1-.6-4.1c-.4-2.1-.7-3.4-.6-3.4q0 .1.1.2 0 .1.1.2v.2q.1.1.1.2.3.9.6 2.5.5 2 .7 4.1.3 2.1.3 4.2t-.2 4.2q-.2 2-.6 4.1c-.2 1-.4 1.9-.6 2.4q0 .2-.1.3v.2q-.1.1-.1.2-.1.1-.1.2zM510.1 626.6l.2.2q0 .1.1.2 0 .1.1.3.1.1.1.2.1.1.1.2.1.1.2.3 0 .1.1.2t.1.3c.2.4.4.8.6 1.4q.2.4.3.9.2.4.3.9l.2 1q.2.4.3.9.2 1.2.3 2.4l.2 2.4q0 1.2-.1 2.4-.1 1.1-.4 2.3l-.2 1q-.1.5-.2.9-.1.5-.3 1-.1.4-.3.9c-.1.5-.4 1-.5 1.4q-.1.1-.1.2-.1.2-.2.3 0 .1-.1.3-.1.1-.1.2-.1.1-.1.2-.1.1-.1.2l-.2.2q0 .1-.1.2c-.1 0 .5-1.2 1.2-3.3q.2-.5.3-.9l.2-1q.1-.4.2-.9t.2-.9q.2-1.2.3-2.4.1-1.2.1-2.3 0-1.2-.1-2.4t-.4-2.3q0-.5-.1-1-.2-.4-.3-.9-.1-.5-.2-.9-.2-.5-.3-.9c-.7-2.1-1.4-3.3-1.3-3.4zM419.7 649.9l-.2-.2q-.1-.1-.1-.2l-.2-.2q0-.1-.1-.2 0-.1-.1-.2t-.1-.2q-.1-.2-.2-.3 0-.1-.1-.2-.1-.2-.2-.3 0-.2-.1-.4-.1-.1-.2-.3 0-.2-.1-.3-.2-.5-.3-.9-.2-.4-.3-.9-.2-.4-.3-.9-.1-.4-.2-.9-.2-1.1-.3-2.3-.1-1.1-.1-2.2 0-1.2.1-2.3.2-1.2.4-2.3.1-.4.3-.9.1-.4.2-.9.2-.4.4-.9.1-.4.3-.8.1-.2.2-.3.1-.2.1-.4.1-.1.2-.3.1-.1.2-.3 0-.1.1-.2.1-.2.1-.3l.2-.2q0-.1.1-.2t.1-.2l.2-.2q0-.1.1-.2l.2-.2c0 .1-.7 1.2-1.5 3.1q-.1.4-.3.9-.1.4-.3.8-.1.5-.2.9-.2.5-.3.9-.2 1.1-.3 2.2-.2 1.1-.2 2.3 0 1.1.1 2.2t.3 2.2q.1.5.2.9.1.5.2.9.2.5.3.9.2.4.3.9c.7 1.9 1.4 3 1.4 3.1zM407.5 652.6l-.2-.2-.2-.2q0-.1-.1-.2t-.1-.2q-.1-.2-.2-.3-.1-.1-.1-.3l-.2-.2q0-.2-.1-.3c-.2-.4-.5-.9-.7-1.5q-.2-.4-.4-.9t-.3-1-.3-1-.3-1q-.3-1.3-.4-2.6-.2-1.3-.2-2.5 0-1.3.1-2.6t.3-2.6l.2-1q.1-.5.3-1 .1-.5.3-1 .1-.5.3-1c.2-.6.4-1 .6-1.5q.1-.1.1-.3l.2-.2q0-.2.1-.3.1-.1.2-.3 0-.1.1-.2 0-.1.1-.2l.2-.2q0-.1.1-.3c.1.1-.6 1.4-1.4 3.6q-.2.5-.3 1-.1.5-.3 1l-.2 1-.2 1q-.2 1.3-.3 2.5-.1 1.3-.1 2.6.1 1.2.2 2.5.2 1.2.4 2.5.1.5.3 1l.2 1 .4 1q.1.4.3.9c.9 2.2 1.6 3.5 1.6 3.5z"/><path class="s19" d="M510.9 684.5v21.6h-41.8v-21.6z"/><path class="s20" d="M376.7 690.6c.6-1.6 1.5-3 2.6-4.2 1.2-1.2 2.6-2.1 4.1-2.8 1.5-.6 3.2-1 4.9-1l124.6-.4v2.3h-29.6c-1.4 0-2.8.3-4.1.8-1.3.6-2.5 1.4-3.5 2.4s-1.8 2.1-2.4 3.5c-.5 1.3-.8 2.7-.8 4.1 0 1.4.3 2.8.8 4.1.6 1.3 1.4 2.5 2.4 3.5s2.2 1.8 3.5 2.4c1.3.5 2.7.8 4.1.8h29.6v1.6H388.3c-1.6 0-3.1-.3-4.6-.9-1.4-.5-2.8-1.4-3.9-2.5-1.2-1-2.1-2.3-2.8-3.7-.6-1.4-1-3-1.1-4.5q-.1-.3-.1-.6c0-1.7.3-3.3.9-4.9z"/><path class="s20" d="M510.9 695.6c0 .1-8.6.2-19.2.2s-19.2-.1-19.2-.2 8.6-.2 19.2-.2c10.7 0 19.2.1 19.2.2zM510.3 700.5c0 .1-8.1.2-18.1.2-10.1 0-18.2-.1-18.2-.2 0-.2 8.1-.3 18.2-.3 10 0 18.1.1 18.1.3zM510.9 704.9c0 .1-7.3.2-16.3.2s-16.3-.1-16.3-.2 7.3-.2 16.3-.2 16.3.1 16.3.2zM510.9 691.2c0 .1-8.4.2-18.8.2s-18.8-.1-18.8-.2 8.4-.2 18.8-.2 18.8.1 18.8.2zM510.3 686.8c0 .2-7.5.3-16.7.3-9.3 0-16.8-.1-16.8-.3 0-.1 7.5-.2 16.8-.2 9.2 0 16.7.1 16.7.2z"/><path class="s21" d="m390.9 683-.7.7q-.3.4-.7.8l-.6.8-.6.8q-1.4 2.1-2.2 4.5-.7 2.3-.7 4.8.1 2.5.9 4.9.7 2.3 2.2 4.3.3.5.6.9l.7.7q.3.4.7.8l.7.7q-.1 0-.2-.1l-.2-.2q-.2-.1-.3-.1l-.2-.2-.5-.5-.6-.6q-.2-.3-.5-.6-.2-.3-.5-.6c-1-1.3-1.8-2.8-2.3-4.4-.6-1.6-.9-3.3-.9-5 0-1.7.2-3.4.7-5 .5-1.6 1.3-3.1 2.3-4.5q.2-.3.5-.6.2-.3.5-.6l.5-.5.5-.5q.1-.1.3-.2l.2-.2.2-.2q.1-.1.2-.1z"/><path class="s21" d="M386.7 682.5q-.3.4-.7.8l-.7.7-.6.8q-.3.4-.6.9-1.4 2-2.2 4.4-.7 2.4-.7 4.9.1 2.4.8 4.8.8 2.4 2.3 4.4l.6.8q.4.4.7.8.3.4.7.7.3.4.7.8l-.2-.2q-.1 0-.3-.1l-.2-.2-.2-.2q-.3-.2-.6-.5-.2-.3-.5-.6-.3-.2-.5-.5t-.5-.6c-1-1.4-1.8-2.9-2.4-4.5-.5-1.6-.8-3.2-.8-4.9 0-1.7.2-3.4.7-5 .5-1.6 1.3-3.2 2.3-4.5q.2-.3.5-.6.2-.3.5-.6.2-.3.5-.6.3-.2.5-.5l.2-.2q.1-.1.3-.2.1-.1.2-.1l.2-.2zM471.4 683q-.4.3-.7.7-.4.4-.7.8-.3.4-.7.8l-.6.8q-1.4 2.1-2.1 4.5-.7 2.3-.7 4.8t.8 4.9q.8 2.3 2.2 4.3.4.5.7.9.3.4.7.7l.6.8q.4.4.8.7-.2 0-.3-.1l-.2-.2q-.1-.1-.2-.1l-.2-.2q-.3-.3-.6-.5-.3-.3-.5-.6-.3-.3-.5-.6-.3-.3-.5-.6c-1-1.3-1.9-2.8-2.4-4.4-.6-1.6-.8-3.3-.9-5 0-1.7.3-3.4.8-5s1.3-3.1 2.3-4.5l.4-.6q.3-.3.5-.6.3-.2.5-.5.3-.3.6-.5l.2-.2.2-.2.2-.2q.2-.1.3-.1z"/><path class="s21" d="M467.2 682.5q-.4.4-.7.8-.4.3-.7.7-.3.4-.7.8-.3.4-.6.9-1.4 2-2.1 4.4-.8 2.4-.7 4.9 0 2.4.8 4.8t2.2 4.4q.3.4.7.8l.6.8.7.7.8.8q-.2-.1-.3-.2-.1 0-.2-.1l-.2-.2-.2-.2q-.3-.2-.6-.5t-.5-.6q-.3-.2-.5-.5-.3-.3-.5-.6c-1.1-1.4-1.9-2.9-2.4-4.5-.6-1.6-.9-3.2-.9-4.9 0-1.7.3-3.4.8-5s1.3-3.2 2.3-4.5l.4-.6q.3-.3.5-.6.3-.3.5-.6.3-.2.6-.5l.2-.2.2-.2q.1-.1.2-.1.1-.1.3-.2zM405.1 699.4v.8q-.1.4-.1.8-.1.4-.3.8-.1.4-.3.7-.2.4-.5.6-.4.3-.7.5l-.8.2q-.4 0-.8-.1t-.8-.3q-.3-.2-.6-.5t-.5-.7q-.2-.4-.3-.8-.2-.3-.3-.7-.1-.4-.1-.9-.1-.4-.1-.8-.1-.8-.2-1.7 0-.9-.1-1.7v-3.5q-.1-.6 0-1.1 0-.6.1-1.1.1-.6.3-1.1l.4-1c.8-1.3 2.5-2.2 3.6-1.7q.3 0 .6.1.2.2.4.3.3.2.4.5.2.2.3.5.1.3.1.5.1.3.1.6.1.3.1.6v.5q0 4.4.1 8.8v.9zM453.5 696c0 .1-9 .2-20.1.2-11.1 0-20.1-.1-20.1-.2s9-.2 20.1-.2c11.1 0 20.1.1 20.1.2zM396.8 682.1l-.3-20.5h11.2l.4 20.5z"/><path class="s20" d="M407 665.3q-.6 0-1.3.1-.6.1-1.3.1h-5.2q-.6 0-1.2-.1-.7-.1-1.3-.1.6-.1 1.3-.2.6 0 1.3-.1h5.1q.7.1 1.3.1.7.1 1.3.2zM407 668.4q-.6.1-1.3.2-.6 0-1.3.1h-5.2q-.6-.1-1.2-.1-.7-.1-1.3-.2.6-.1 1.3-.1.6-.1 1.3-.1h5.1q.7 0 1.3.1.7 0 1.3.1zM407 671.6q-.6.1-1.3.1-.6.1-1.3.1H399.3q-.7 0-1.3-.1-.7 0-1.3-.1.6-.1 1.3-.2h1.3q.6-.1 1.2-.1.7 0 1.3.1.7-.1 1.3-.1.7 0 1.3.1h1.3q.7.1 1.3.2zM407 674.8q-.6 0-1.3.1-.6.1-1.3.1h-5.2q-.6 0-1.2-.1-.7-.1-1.3-.1.6-.1 1.3-.2.6 0 1.3-.1h5.1q.7.1 1.3.1.7.1 1.3.2zM407 677.9q-.6.1-1.3.2h-1.3q-.6.1-1.3.1-.6 0-1.3-.1-.6.1-1.3.1-.6 0-1.2-.1H398q-.7-.1-1.3-.2.6-.1 1.3-.1.6-.1 1.2-.1h5.2q.7 0 1.3.1.7 0 1.3.1z"/><path class="s19" d="M395.9 661.1h123.7c1.5 6.8 1.3 14.2 0 22.1H396.5v-1.5h7.5q.7 0 1.4-.3.6-.2 1.1-.7.5-.5.8-1.2.2-.6.2-1.3v-12.3q0-.7-.2-1.3-.3-.7-.8-1.2t-1.1-.8q-.7-.2-1.4-.2h-8.1z"/><path class="s21" d="M514.9 683.5c-.1 0-.2-5.1-.2-11.4 0-6.2.1-11.3.2-11.3.2 0 .3 5.1.3 11.3 0 6.3-.1 11.4-.3 11.4z"/><path class="s20" d="M413.8 683.5c-.2 0-.3-5.1-.3-11.4 0-6.2.1-11.3.3-11.3.1 0 .2 5.1.2 11.3 0 6.3-.1 11.4-.2 11.4z"/><path class="s21" d="M517.1 683.5c-.1 0-.2-5.1-.2-11.4 0-6.2.1-11.3.2-11.3s.2 5.1.2 11.3c0 6.3-.1 11.4-.2 11.4z"/><path class="s20" d="M411.7 683.5c-.1 0-.2-5.1-.2-11.4 0-6.2.1-11.3.2-11.3.2 0 .3 5.1.3 11.3 0 6.3-.1 11.4-.3 11.4zM485 664.5h-.1L498 675l.1.1-.1.1-1.8.4-11 2.9-10-4.2-2.9-1.2-.7-.4-.2-.1h-.1.1l.2.1.8.3 2.8 1.2c2.4 1 5.9 2.5 10 4.2l11-2.9 1.7-.5v.1l-13-10.5h-.1v-.1"/><path class="s20" d="m496.8 673.4.7.7 1-.2-.4.8.5.9-1-.1-.7.7-.1-1-.9-.4.8-.4zM484.3 677.5l.5.5.6-.2-.2.6.3.5h-.6l-.4.5-.2-.7-.6-.2.6-.3zM470.4 671.9h.8l.5-.6.2.8.7.2-.6.4-.1.8-.6-.5-.7.2.3-.7zM502.7 664.7h.8l.4-.6.2.8.8.3-.7.4v.7l-.6-.5-.8.3.3-.8zM484.3 664.2h.5l.3-.4.1.5.5.2-.4.2v.5l-.4-.3-.5.2.2-.5z"/><path class="s20" d="M503.8 665.2c0 .1-4.3-.1-9.5-.3-5.2-.2-9.4-.4-9.4-.5 0 0 4.2.1 9.4.3 5.3.3 9.5.5 9.5.5zM508.5 660.9H383.1c-1.6-3.7-2-7.3 0-10.5h125.4q.6 1.3.9 2.6.3 1.3.3 2.7 0 1.3-.3 2.6-.3 1.4-.9 2.6z"/><path class="s19" d="M409.1 653.4H477v3.8h-67.9z"/><path class="s20" d="M387.9 660.9q-.1-.1-.3-.2-.1-.2-.2-.3-.2-.2-.3-.4-.1-.1-.2-.3-.4-.9-.7-1.8-.3-1-.4-1.9-.1-1 0-2 .2-1 .5-1.9 0-.2.1-.4.1-.1.2-.3l.2-.4q.1-.1.2-.3 0 .2-.1.4 0 .2-.1.4 0 .2-.1.3 0 .2-.1.4-.3.9-.3 1.9-.1.9 0 1.8 0 1 .3 1.9.2.9.6 1.7l.2.4q.1.1.2.3l.2.4q.1.2.1.3zM390.7 660.9q-.2-.1-.3-.2l-.3-.3-.2-.4q-.1-.1-.2-.3-.5-.9-.8-1.8-.3-1-.4-1.9-.1-1 .1-2 .1-1 .4-1.9.1-.2.1-.4.1-.1.2-.3l.2-.4.3-.3q-.1.2-.1.4-.1.2-.1.4-.1.2-.2.3 0 .2-.1.4-.2.9-.3 1.9-.1.9 0 1.8.1 1 .3 1.9.2.9.6 1.7l.2.4q.1.1.2.3l.2.4q.1.2.2.3z"/><path class="s21" d="M503.4 660.7q.5-1.2.7-2.5.2-1.3.2-2.6t-.2-2.6q-.2-1.3-.6-2.5.6 1.2 1 2.5.3 1.3.3 2.6t-.4 2.6q-.3 1.3-1 2.5zM501.1 660.7c-.1-.1.4-2.3.4-5 0-2.8-.5-5-.4-5q.4 1.2.6 2.4.2 1.3.2 2.6 0 1.2-.2 2.5t-.6 2.5z"/></svg>