<svg version="1.2" xmlns="http://www.w3.org/2000/svg" width="915" height="915"><style>.s3{fill:#69d2c9}.s4{fill:#207bbd}.s5{fill:#c8d1e3}.s7{fill:#fff}.s8{fill:#fcfcfc}</style><g style="opacity:.9"><path d="M457.5 915C204.5 915 0 710.5 0 457.5S204.5 0 457.5 0 915 204.5 915 457.5 710.5 915 457.5 915z" style="fill:#f5f8fe"/></g><path d="M457.5 837C247.6 837 78 667.4 78 457.5S247.6 78 457.5 78 837 247.6 837 457.5 667.4 837 457.5 837z" style="fill:none;stroke:#cbcbd9"/><path d="M472.2 723h-5.6v-.9q2.7.1 5.5.1h.1zm5.7-.1v-.8l5.6-.2v.8q-2.8.2-5.6.2zm-17-.1q-2.8-.2-5.6-.3l.1-.9q2.8.2 5.6.3zm28.2-.3-.1-.8q2.8-.2 5.6-.5l.1.9-5.6.4zm-39.5-.4-5.6-.6.1-.8q2.8.3 5.6.5zm50.7-.5-.1-.9 5.6-.6.1.8q-2.8.4-5.6.7zm-61.9-.7q-2.8-.3-5.6-.8l.1-.8 5.6.8zm73.1-.8-.1-.9q2.7-.4 5.5-.9l.2.9q-2.8.4-5.6.9zm-84.3-.9q-2.7-.5-5.5-1l.1-.9q2.8.6 5.6 1.1zm95.4-1.1-.2-.8q2.8-.6 5.5-1.2l.2.8q-2.8.6-5.5 1.2zM416.1 717c-1.9-.4-3.7-.9-5.5-1.3l.2-.8q2.7.6 5.5 1.2zm117.5-1.3-.2-.8 5.4-1.4.2.8-5.4 1.4zm-128.5-1.3q-2.7-.8-5.4-1.5l.2-.8q2.7.7 5.4 1.5zm139.4-1.6-.2-.8q2.7-.8 5.3-1.7l.3.8q-2.7.9-5.4 1.7zm-150.2-1.6q-2.7-.8-5.4-1.7l.3-.8q2.6.9 5.3 1.7zm161-1.8-.3-.8q2.7-.9 5.3-1.9l.3.8c-1.7.6-3.5 1.3-5.3 1.9zm-171.7-1.8q-2.7-1-5.3-2l.3-.8q2.6 1 5.3 2zm182.3-2.1-.3-.8q2.6-1 5.2-2.1l.3.8q-2.6 1.1-5.2 2.1zm-192.9-2q-2.6-1.1-5.2-2.3l.4-.7 5.2 2.2zm203.2-2.3-.3-.8q2.5-1.1 5.1-2.3l.3.8q-2.5 1.2-5.1 2.3zm-213.6-2.3q-2.6-1.2-5.1-2.4l.4-.8q2.5 1.3 5.1 2.5zm223.8-2.5-.4-.8q2.5-1.2 5-2.5l.4.7-5 2.6zm-234-2.6-5-2.6.4-.8q2.5 1.4 5 2.7zm243.9-2.7-.4-.7q2.5-1.4 4.9-2.8l.4.8q-2.4 1.4-4.9 2.7zm-253.8-2.8q-2.5-1.4-4.9-2.8l.5-.8q2.4 1.5 4.8 2.9zm263.6-2.8-.4-.8q2.4-1.4 4.7-2.9l.5.7-4.8 3zm-273.2-3.1c-1.6-1-3.2-2-4.8-3.1l.5-.7q2.4 1.6 4.7 3.1zm282.8-3-.5-.7q2.4-1.6 4.6-3.2l.5.7-4.6 3.2zm-292.2-3.3q-2.3-1.6-4.6-3.3l.5-.7q2.3 1.7 4.6 3.3zm301.4-3.2-.5-.7q2.2-1.6 4.5-3.3l.5.6q-2.2 1.8-4.5 3.4zm-310.5-3.5L310 666l.5-.7q2.2 1.8 4.4 3.5zm319.5-3.4-.6-.7q2.2-1.8 4.4-3.5l.5.6q-2.1 1.8-4.3 3.6zm-328.3-3.7q-2.1-1.8-4.3-3.7l.6-.6q2.1 1.8 4.3 3.6zm336.8-3.5-.5-.7q2.1-1.8 4.2-3.7l.5.6q-2 1.9-4.2 3.8zm-345.3-3.9Q295 653 293 651l.6-.6q2 2 4.1 3.9zm353.6-3.8-.6-.6q2.1-1.9 4.1-3.9l.6.6q-2 2-4.1 3.9zm-361.8-4q-2-2-3.9-4.1l.6-.6c1.3 1.4 2.6 2.7 3.9 4.1zm369.8-3.9-.6-.6q1.9-2.1 3.9-4.1l.6.5q-1.9 2.1-3.9 4.2zm-377.6-4.3-3.8-4.2.7-.5q1.8 2 3.7 4.1zm385.3-4-.7-.6q1.9-2.1 3.7-4.3l.7.6q-1.8 2.1-3.7 4.3zm-392.7-4.4-3.6-4.4.7-.5q1.7 2.2 3.5 4.3zm400-4.2-.7-.5q1.8-2.2 3.5-4.5l.7.5q-1.8 2.3-3.5 4.5zm-407-4.6q-1.8-2.2-3.4-4.5l.7-.5q1.6 2.3 3.3 4.5zm414-4.4-.7-.5q1.6-2.3 3.3-4.6l.7.5q-1.7 2.3-3.3 4.6zm-420.6-4.7q-1.7-2.3-3.2-4.6l.7-.5q1.5 2.3 3.2 4.6zm427-4.5-.7-.5q1.6-2.3 3.1-4.7l.7.5q-1.5 2.3-3.1 4.7zm-433.3-4.8-3-4.8.7-.4q1.5 2.4 3 4.7zm439.4-4.7-.7-.4q1.5-2.4 2.9-4.9l.7.4q-1.4 2.5-2.9 4.9zM248 593.7q-1.5-2.5-2.8-4.9l.7-.4q1.4 2.4 2.8 4.9zm450.9-4.9-.7-.4q1.4-2.5 2.7-5l.7.4q-1.3 2.5-2.7 5zm-456.3-5-2.6-5 .8-.4q1.2 2.5 2.5 5zm461.6-5-.7-.4q1.2-2.5 2.4-5.1l.8.4q-1.2 2.5-2.5 5.1zm-466.6-5.1q-1.2-2.5-2.3-5.1l.8-.3q1.1 2.5 2.3 5.1zm471.4-5.3-.8-.3q1.2-2.6 2.2-5.2l.8.3-2.2 5.2zm-475.9-5q-1.1-2.6-2.1-5.2l.7-.4q1.1 2.6 2.1 5.2zm480.3-5.3-.8-.3q1.1-2.7 2-5.3l.8.3q-1 2.6-2 5.3zM229 552.9q-.9-2.6-1.8-5.3l.8-.3 1.8 5.4zm488.3-5.6-.8-.2q.9-2.7 1.7-5.4l.9.2q-.9 2.8-1.8 5.4zm-491.9-5.1q-.9-2.7-1.6-5.4l.8-.3 1.6 5.4zm495.3-5.6-.8-.2q.8-2.7 1.5-5.5l.8.3q-.7 2.7-1.5 5.4zm-498.5-5.2q-.7-2.8-1.4-5.5l.9-.2q.6 2.7 1.4 5.5zm501.3-5.7-.8-.2q.7-2.8 1.3-5.5l.8.2q-.6 2.7-1.3 5.5zm-504-5.3q-.6-2.8-1.2-5.5l.9-.2q.5 2.8 1.1 5.5zm506.5-5.7-.8-.2q.5-2.8 1-5.5l.8.1-1 5.6zm-508.7-5.4q-.5-2.8-.9-5.5l.8-.2 1 5.6zm510.6-5.8-.9-.1q.5-2.8.8-5.6l.9.1c-.3 1.8-.5 3.7-.8 5.6zm-512.4-5.4-.6-5.6.8-.1q.3 2.8.7 5.6zm513.8-5.8-.9-.1.6-5.6.8.1q-.2 2.8-.5 5.6zm-515-5.4q-.3-2.8-.5-5.6l.9-.1.4 5.6zm516-5.8-.9-.1q.2-2.8.3-5.6h.9q-.1 2.8-.3 5.7zm-516.7-5.4q-.2-2.9-.2-5.7h.8l.2 5.6zm517.2-5.8-.8-.1v-6.1h.9v.5q0 2.8-.1 5.7zm-516.6-5.4h-.8v-5.7h.9q-.1 2.7-.1 5.4zm515.8-6.3-.2-5.6.8-.1q.1 2.9.2 5.7zm-515.5-4.9-.9-.1q.2-2.8.3-5.6h.9q-.2 2.8-.3 5.7zm515-6.4-.4-5.6.8-.1q.3 2.8.5 5.7zM215.1 442l-.8-.1q.2-2.8.5-5.6l.9.1-.6 5.6zm513.4-6.3q-.3-2.8-.7-5.6l.8-.1q.4 2.8.7 5.6zm-512.1-4.9-.9-.1.8-5.6.9.1-.8 5.6zm510.6-6.3q-.4-2.8-.9-5.5l.9-.2q.4 2.8.9 5.6zm-509-4.9-.8-.1 1-5.6.8.2q-.5 2.8-1 5.5zm507-6.2q-.5-2.7-1.1-5.5l.8-.2q.6 2.8 1.1 5.5zm-504.8-4.8-.8-.2q.6-2.7 1.3-5.5l.8.2q-.7 2.8-1.3 5.5zm502.4-6.1q-.7-2.8-1.4-5.5l.8-.2c.5 1.8 1 3.6 1.4 5.5zm-499.7-4.8-.8-.2q.7-2.8 1.5-5.5l.8.3q-.8 2.7-1.5 5.4zm496.8-6.1-1.6-5.4.8-.2q.8 2.6 1.6 5.4zM226 386.9l-.8-.3 1.8-5.4.8.3-1.8 5.4zm490.3-6.1q-.9-2.6-1.9-5.3l.8-.3q1 2.7 1.9 5.4zm-486.6-4.7-.8-.3q.9-2.6 2-5.3l.8.3q-1.1 2.6-2 5.3zm482.8-5.9q-1.1-2.6-2.1-5.2l.7-.3q1.1 2.6 2.1 5.2zm-478.7-4.6-.7-.4q1-2.6 2.2-5.2l.8.4q-1.2 2.6-2.3 5.2zm474.4-5.8q-1.1-2.5-2.3-5.1l.8-.3q1.2 2.5 2.3 5.1zm-469.8-4.6-.8-.4 2.4-5.1.8.4q-1.2 2.5-2.4 5.1zm465-5.6q-1.2-2.5-2.5-5l.8-.4q1.3 2.5 2.5 5.1zM243.3 345l-.7-.4 2.6-5 .8.4q-1.4 2.5-2.7 5zm454.9-5.4q-1.3-2.4-2.8-4.9l.8-.4q1.4 2.5 2.8 4.9zm-449.5-4.5-.8-.4q1.5-2.5 2.9-4.9l.8.5q-1.5 2.4-2.9 4.8zm443.8-5.2q-1.4-2.4-3-4.8l.8-.4q1.5 2.4 2.9 4.8zm-437.9-4.5-.8-.4q1.6-2.4 3.1-4.8l.7.5q-1.5 2.4-3 4.7zm431.9-5-3.2-4.6.7-.5c1.1 1.5 2.2 3.1 3.2 4.6zm-425.7-4.3-.7-.5q1.6-2.3 3.3-4.6l.7.5q-1.7 2.3-3.3 4.6zm419.2-4.9q-1.6-2.2-3.3-4.5l.6-.5q1.8 2.3 3.4 4.5zM267.5 307l-.7-.5q1.7-2.2 3.5-4.5l.6.6-3.4 4.4zm405.7-4.7q-1.8-2.2-3.6-4.3l.6-.6q1.9 2.2 3.6 4.4zm-398.6-4.1-.7-.6q1.9-2.1 3.7-4.2l.6.5q-1.8 2.1-3.6 4.3zm391.4-4.5-3.8-4.2.7-.6q1.8 2.1 3.7 4.2zm-384-3.9-.6-.6q1.9-2.1 3.9-4.1l.6.6q-2 2-3.9 4.1zm376.4-4.4q-1.9-2-3.9-4l.6-.6q2 2 3.9 4.1zm-368.6-3.8-.6-.6q2-2 4.1-4l.5.6-4 4zm360.7-4.2q-2.1-1.9-4.1-3.8l.5-.7q2.1 2 4.1 3.9zM298 273.8l-.5-.7q2-1.9 4.2-3.7l.5.6-4.2 3.8zm344.3-4q-2.2-1.8-4.3-3.7l.5-.6q2.2 1.8 4.3 3.7zm-335.8-3.5-.5-.6q2.1-1.8 4.4-3.6l.5.6-4.4 3.6zm327.2-3.8-4.4-3.4.5-.7q2.2 1.7 4.4 3.5zm-318.4-3.3-.5-.7q2.3-1.7 4.5-3.4l.5.7q-2.2 1.7-4.5 3.4zm309.5-3.6q-2.3-1.6-4.6-3.3l.5-.7q2.3 1.7 4.6 3.3zm-300.4-3-.5-.7q2.3-1.7 4.6-3.2l.5.7q-2.3 1.5-4.6 3.2zm291.2-3.4q-2.4-1.6-4.8-3.1l.5-.7q2.4 1.5 4.7 3.1zm-281.8-2.9-.5-.7 4.8-3 .4.7q-2.3 1.5-4.7 3zm272.3-3.2q-2.4-1.4-4.8-2.9l.4-.7q2.5 1.4 4.9 2.9zm-262.8-2.7-.4-.7q2.4-1.4 4.9-2.8l.4.8c-1.6.9-3.3 1.8-4.9 2.7zm253-2.9q-2.5-1.4-5-2.7l.4-.8q2.5 1.3 5 2.7zm-243.1-2.4-.4-.8q2.5-1.3 5-2.5l.4.7q-2.6 1.3-5 2.6zm233.1-2.8q-2.5-1.2-5.1-2.4l.4-.8 5.1 2.4zm-223.1-2.2-.4-.7q2.6-1.2 5.1-2.4l.4.8q-2.6 1.1-5.1 2.3zm212.9-2.5q-2.6-1.2-5.2-2.2l.3-.8 5.2 2.2zm-202.6-2-.3-.8q2.5-1 5.2-2.1l.3.8q-2.6 1-5.2 2.1zm192.2-2.3q-2.6-1-5.3-2l.3-.8q2.7 1 5.3 2zm-181.8-1.8-.2-.8q2.6-.9 5.3-1.8l.2.8q-2.6.9-5.3 1.8zm171.2-2.1q-2.7-.9-5.4-1.7l.2-.8q2.7.8 5.4 1.7zm-160.4-1.5-.3-.8 5.4-1.6.3.8q-2.8.8-5.4 1.6zm149.7-1.8q-2.7-.8-5.4-1.5l.2-.8q2.7.7 5.4 1.5zm-138.9-1.4-.2-.8q2.7-.7 5.5-1.4l.2.8q-2.8.7-5.5 1.4zm128-1.5q-2.7-.7-5.4-1.3l.1-.8q2.8.6 5.5 1.2zm-117.1-1.1-.2-.8 5.6-1.2.1.9q-2.7.5-5.5 1.1zm106.2-1.3-5.6-1 .2-.8q2.8.5 5.5 1zm-95.1-.9-.1-.8 5.6-1 .1.9q-2.8.4-5.6.9zm84-1q-2.8-.4-5.5-.8l.1-.8q2.8.3 5.6.7zm-72.9-.6-.1-.9q2.7-.4 5.6-.7l.1.9q-2.9.3-5.6.7zm61.7-.8q-2.8-.3-5.6-.5l.1-.9 5.6.6zm-50.6-.5v-.9l5.6-.4.1.9q-2.9.1-5.7.4zm39.4-.5q-2.8-.2-5.6-.3v-.8q2.8.1 5.6.3zm-28.1-.3v-.8q2.8-.2 5.6-.2v.8l-5.6.2zm16.9-.2q-2.6-.1-5.3-.1h-.3v-.8h.3q2.7 0 5.3.1z" style="fill:#2b2b2b"/><path class="s3" d="M297.5 400.1c-64.7 0-117-52.3-117-116.9 0-64.7 52.3-117 117-117s117 52.3 117 117c0 64.6-52.3 116.9-117 116.9zM619.3 700c-52.4 0-94.7-42.3-94.7-94.7 0-52.3 42.3-94.6 94.7-94.6 52.3 0 94.6 42.3 94.6 94.6 0 52.4-42.3 94.7-94.6 94.7z"/><path class="s4" d="M360.3 742.3c-61.9 0-112-50-112-111.9 0-61.9 50.1-112 112-112s112 50.1 112 112-50.1 111.9-112 111.9zM613.2 344.6c-49 0-88.6-39.6-88.6-88.6 0-49 39.6-88.6 88.6-88.6 49 0 88.5 39.6 88.5 88.6 0 49-39.5 88.6-88.5 88.6z"/><path class="s5" d="M190.4 575.9c-48.6 0-87.9-39.3-87.9-87.9 0-48.6 39.3-87.9 87.9-87.9 48.6 0 87.9 39.3 87.9 87.9 0 48.6-39.3 87.9-87.9 87.9zM730.5 507.1c-46.2 0-83.6-37.3-83.6-83.5s37.4-83.6 83.6-83.6c46.2 0 83.5 37.4 83.5 83.6 0 46.2-37.3 83.5-83.5 83.5z"/><path d="M480.6 517.9c-52 0-94.1-42-94.1-94 0-52.1 42.1-94.1 94.1-94.1 52.1 0 94.1 42 94.1 94.1 0 52-42 94-94.1 94z" style="fill:#145c90"/><path class="s7" d="M325.5 346.4q.1.4 0 .8t-.4.7q-.2.4-.6.6-.4.2-.8.2l-31.7 4.9h-.9q-.4-.1-.7-.4-.3-.2-.6-.6-.2-.3-.3-.7l-.4-2.9q-.1-.5 0-.9.2-.4.4-.7.3-.3.6-.5.4-.2.8-.3l31.8-4.8q.4-.1.8 0t.7.3q.4.3.6.6.2.4.3.8zM323.6 356.9v.8q-.1.4-.3.7-.2.3-.5.5t-.6.3l-25.6 3.9q-.4.1-.8-.1-.3-.1-.6-.3-.3-.3-.4-.6-.2-.4-.2-.7l-.5-2.9q-.1-.4 0-.8 0-.4.2-.7.2-.3.5-.5t.7-.3l25.6-3.9q.4-.1.7.1.4.1.7.3.3.3.4.6.2.4.2.7zM316.6 363c.3 1.8-.2 3.6-1.3 5.1-1 1.5-2.7 2.4-4.5 2.7-1.8.3-3.6-.2-5.1-1.2-1.5-1.1-2.4-2.7-2.7-4.5"/><path fill-rule="evenodd" class="s7" d="m325.7 335.9-38.9 5.9c-2.5.4-4.8-1.7-5.2-4.8q-.1-.5-.1-.9v-1q.1-.4.2-.9.1-.4.3-.9c-2.4-9.3-9.8-16.6-15.2-21.9l-1.4-1.4q-.7-.6-1.4-1.4-.6-.7-1.3-1.4l-1.2-1.4c-2.4-2.9-4.3-6-5.9-9.4-1.7-3.3-2.9-6.8-3.7-10.4-.8-3.6-1.2-7.3-1.2-11 0-3.6.5-7.3 1.4-10.9q.5-2.2 1.2-4.3.7-2.1 1.7-4.2.9-2 2-4 1.2-1.9 2.5-3.7 1.2-1.8 2.7-3.5 1.5-1.7 3.1-3.2 1.6-1.6 3.3-2.9 1.8-1.4 3.7-2.6 3.9-2.4 8.2-4 4.3-1.6 8.8-2.3 4.5-.7 9.1-.5 4.6.3 9 1.5 2.2.5 4.2 1.3 2.1.8 4.1 1.8 2 1 3.9 2.1 1.9 1.2 3.7 2.5 1.8 1.4 3.4 2.9 1.7 1.5 3.1 3.2 1.5 1.7 2.9 3.5 1.3 1.8 2.5 3.7 1.2 2 2.2 4.1 1 2.2 1.8 4.4.7 2.2 1.3 4.4.6 2.3.9 4.6.3 1.5.4 3l.2 3v2.9l-.2 3q-.1 1.1-.3 2.2-.1 1.1-.3 2.2-.2 1-.5 2.1t-.6 2.1l.2.1-1 2.6q-.3.9-.7 1.9-.4.9-.8 1.7l-.8 1.8q-.4.8-.9 1.7-.4.8-.9 1.7c-3.5 6.5-8.3 15.4-8 24.9q.4.4.7.8.3.5.5 1 .3.5.4 1 .1.6.2 1.1c.6 3.8-1.2 5.9-3.3 6.2zm-39.1 1.1 37.7-5.8v-.4l-.1-.1v-.5q0-.1-.1-.2v-.2q-.1-.1-.1-.2l-1.4-.3-.2-1.9c-.8-11.4 4.6-21.4 8.5-28.8q.5-.8.9-1.5l.8-1.6.8-1.6q.3-.8.7-1.6v-.1q.3-.9.7-1.8 1.5-4.5 2.1-9.2.5-4.7 0-9.5-.5-4.7-2-9.2-1.5-4.5-3.9-8.6-1-1.7-2.2-3.3-1.2-1.7-2.6-3.2-1.3-1.5-2.8-2.8-1.5-1.4-3.1-2.6-1.5-1.2-3.2-2.3-1.7-1-3.5-1.9-1.8-.9-3.6-1.6-1.9-.7-3.8-1.2-4-1-8.1-1.2-4-.3-8.1.4-4 .6-7.9 2-3.8 1.4-7.3 3.6-1.6 1.1-3.2 2.3-1.6 1.2-3 2.6-1.5 1.3-2.8 2.8-1.3 1.5-2.4 3.2-1.2 1.6-2.2 3.4-1 1.7-1.8 3.5-.9 1.9-1.5 3.8-.7 1.9-1.2 3.8c-.7 3.3-1.1 6.6-1.2 9.9 0 3.3.4 6.6 1.1 9.9.8 3.2 1.9 6.3 3.3 9.3 1.5 3 3.2 5.8 5.3 8.4l.1.1q.6.7 1.1 1.3.6.7 1.2 1.3l1.3 1.3q.6.6 1.3 1.2c6 6 14.3 14.1 16.7 25.3l.3 1.2-.8.9v.2q-.1.1-.1.3v.4q.1.1.1.2v.2q.1.1.1.2t.1.2z"/><path class="s7" d="M287.5 217.4q-.5.1-1 0-.4-.1-.8-.4-.4-.3-.7-.7-.2-.4-.3-.9l-2.9-19.4c-.1-.6 0-1.2.4-1.7.4-.6.9-.9 1.6-1 .6-.1 1.3.1 1.8.4.5.4.8 1 .9 1.6l3 19.4q.1.4-.1.9-.1.5-.4.9-.2.4-.7.6-.4.2-.8.3zM371.1 262.3l-19.4 2.9c-.6.1-1.2 0-1.8-.4-.5-.4-.8-1-.9-1.6-.1-.6.1-1.3.4-1.8.4-.5 1-.8 1.6-.9l19.4-3c.6-.1 1.2.1 1.7.5s.9.9 1 1.5c.1.7-.1 1.3-.5 1.8-.3.5-.9.9-1.5 1zM240.4 282.2l-19.3 3c-.7.1-1.3-.1-1.8-.5s-.9-.9-1-1.6c-.1-.6.1-1.2.5-1.8.3-.5.9-.8 1.5-.9l19.4-3c.6-.1 1.3.1 1.8.5s.8.9.9 1.6c.1.6 0 1.2-.4 1.7-.4.6-1 .9-1.6 1zM328.4 222.5q-.7.1-1.3-.2-.7-.3-1.1-.8-.4-.6-.4-1.3 0-.7.4-1.3l10.3-16.7c.3-.5.8-.9 1.5-1.1.6-.1 1.2 0 1.8.3.5.4.9.9 1.1 1.5.1.6 0 1.3-.3 1.8l-10.3 16.7q-.1.2-.3.4-.2.2-.4.3-.2.2-.5.3-.2.1-.5.1zM249.4 234.6h-.5q-.3 0-.5-.1-.3-.1-.5-.2-.3-.1-.5-.3l-14.7-12.8c-.5-.5-.8-1.1-.9-1.7 0-.6.2-1.3.6-1.8.4-.4 1-.7 1.7-.8.6 0 1.3.2 1.7.6l14.8 12.9q.5.4.7 1.1.2.7 0 1.3-.2.7-.7 1.2-.5.5-1.2.6z"/><path fill-rule="evenodd" class="s7" d="M616.7 313.1h-.1l-.1-.1h-.2l-33.9-7h-.2q-.1-.1-.3-.1-.1-.1-.2-.1l-.2-.2c-5.7-4.8-9.9-11.2-12.1-18.4-2.2-7.2-2.2-14.8-.1-22 2.2-7.2 6.3-13.6 12.1-18.5 5.7-4.8 12.7-7.9 20.2-8.8l5.2-25.7q-1.1-.4-2-1.3-1-.8-1.6-1.9-.5-1.2-.7-2.4-.2-1.2.1-2.5l.2-1.3q.3-1.4 1.1-2.6.8-1.1 2-1.9 1.2-.8 2.6-1.1 1.4-.3 2.9 0l21.3 4.4q1.4.3 2.6 1.1 1.2.8 2 2 .7 1.2 1 2.6.3 1.4 0 2.8l-.3 1.3q-.2 1.2-.9 2.3-.6 1.1-1.6 1.9-.9.8-2.1 1.2-1.2.4-2.4.4h-.1l-5.3 25.6c6.5 3.8 11.7 9.4 15.1 16.1 3.3 6.8 4.6 14.3 3.7 21.7-.8 7.5-3.9 14.5-8.7 20.3-4.8 5.7-11.3 9.9-18.4 12.1h-.5q0 .1-.1.1zm-33-10.8 32.9 6.7c6.5-2 12.2-5.9 16.5-11.2 4.3-5.3 6.9-11.8 7.5-18.5.6-6.8-.8-13.6-4-19.6-3.2-6-8.1-10.9-14.1-14.1q-.3-.1-.5-.4-.3-.2-.4-.5l-.2-.6v-.6l6-28.9q.1-.4.3-.7.2-.3.5-.6.4-.2.8-.2.3-.1.7 0l.6.1q.6.1 1.3 0 .6-.1 1.2-.5.5-.4.9-.9.3-.5.5-1.2l.2-1.3q.2-.6 0-1.2-.1-.7-.4-1.2-.4-.6-.9-.9-.6-.4-1.2-.5l-21.3-4.4q-.7-.1-1.3 0-.7.1-1.2.5-.5.3-.9.9-.4.5-.5 1.1l-.3 1.3q-.1.7 0 1.3.1.6.5 1.2.4.5.9.9.5.3 1.2.5l.5.1q.4.1.8.3.3.2.5.6.2.3.3.7.1.4 0 .7l-6 28.9q0 .3-.2.6-.1.3-.4.5-.2.2-.5.3-.3.2-.6.2c-6.8.6-13.3 3.1-18.6 7.3-5.3 4.3-9.3 10-11.4 16.4-2.1 6.5-2.2 13.5-.4 20 1.8 6.6 5.5 12.4 10.7 16.9z"/><path class="s8" d="M651.6 231.4c-.4 1.8-1.8 3.1-3.5 3.5-1.8.3-3.6-.4-4.6-1.9-1-1.6-1-3.5 0-5s2.8-2.2 4.6-1.9q.9.2 1.6.7.8.5 1.2 1.2.5.8.7 1.7.2.8 0 1.7zM662.8 222.5c-.3 1.3-1.3 2.4-2.6 2.6-1.4.3-2.7-.3-3.4-1.4-.8-1.2-.8-2.6 0-3.7.7-1.1 2.1-1.7 3.4-1.4q.7.1 1.2.5t.9.9q.4.6.5 1.2.1.7 0 1.3z"/><path class="s7" d="M576.8 272.8s37.6 15.7 58.1-3l.8-.8s4.7 27.3-22.9 33.6l-28.4-6.1s-10.6-11.8-7.6-23.7z"/><path fill-rule="evenodd" class="s7" d="M496.7 495.9H496.1q-.1 0-.1-.1l-28.9-6.4q-.7-.1-1.2-.5-.6-.4-.9-.9-.4-.6-.5-1.3-.1-.6 0-1.3l27.7-125.1q.1-.7.5-1.2.4-.6 1-.9.6-.4 1.2-.5.7-.1 1.3 0l28.9 6.4q.7.2 1.2.5.6.4.9 1 .4.6.5 1.2.1.7 0 1.4L500 493.3q-.1.5-.4 1-.3.5-.8.9-.4.3-1 .5-.5.2-1.1.2zm-1.2-135.4h-.2q-.1 0-.2.1 0 .1-.1.1 0 .1-.1.2L467.3 486l-.1.1q0 .1.1.1v.2l.1.1q0 .1.1.1l.1.1h.1l28.9 6.4H496.9q0-.1.1-.1l.1-.1.1-.1v-.2l27.7-125.1q.1-.1 0-.2v-.2q-.1-.1-.2-.1-.1-.1-.2-.1l-28.9-6.4h-.1z"/><path class="s7" d="m490.1 374.3.6-3.1 15.4 3.4-.7 3.1zM487 389.1l.7-3.1 10.9 2.4-.7 3.1zM483.5 403.8l.7-3.1 15.4 3.4-.7 3.1zM480.5 418.6l.7-3.1 10.9 2.4-.7 3.1zM477 433.2l.7-3.1 15.4 3.4-.7 3.1zM474 448l.7-3.1 10.9 2.4-.7 3.1zM470.5 462.6l.7-3.1 15.4 3.4-.7 3.1zM467.5 477.4l.7-3.1 10.9 2.4-.7 3.1z"/><path fill-rule="evenodd" class="s7" d="M472.6 387.3H472.3l-20.8-4.6q-.1 0-.3-.1-.2-.1-.3-.3l-.2-.2-.2-.4v-.1q-.1-.1-.1-.3v-.3q.1-.1.1-.3.1-.1.2-.3l11.3-16.6.3-.3q.1-.1.3-.2.2-.1.4-.1t.4.1l6.3 1.3.4.2q.1.1.3.2l.2.4.2.4 3.2 19.8v.6q-.1.2-.1.3-.1.1-.2.3h-.1l-.2.2q-.1.1-.3.2-.1 0-.2.1h-.3zm-18.5-6.9 16.8 3.7-2.8-16.9-4.3-1z"/><path fill-rule="evenodd" class="s7" d="M469.4 367.4h-.1v-.1h-.2l-6.2-1.4q-.4 0-.6-.3-.3-.2-.4-.5-.1-.3-.1-.7 0-.3.2-.6l3.8-5.5c.2-.4.5-.8.9-.9.5-.2.9-.3 1.4-.2.4.1.8.4 1.1.7.3.4.5.8.5 1.3l1.1 6.5q.1.3 0 .6t-.3.6q-.2.2-.5.3-.3.2-.6.2zm-3.9-3.8 2.2.5-.5-2.9zM455.1 466.7H454.8l-20.9-4.6q-.2-.1-.5-.3-.2-.1-.4-.4-.1-.2-.2-.5 0-.2.1-.5l17.4-78.9q.1-.2.2-.5l.4-.4q.3-.1.5-.2.3 0 .6.1l20.9 4.6q.2 0 .5.2l.4.4q.1.2.2.5 0 .3-.1.6l-17.4 78.8q-.1.2-.2.5-.1.2-.3.3-.2.2-.4.2-.2.1-.5.1zm-19.2-7.1 18.1 4 16.9-76.1-18.1-4zM443.4 483.7q-.4 0-.8-.1h-.9q-.4-.1-.8-.1l-.8-.2q-1.2-.2-2.3-.6-1.1-.5-2-1.1-1-.7-1.8-1.5-.9-.8-1.5-1.8c-2.7-4.4-1.5-9.7-1.4-9.9l.6-2.6q0-.3.2-.6.2-.2.4-.3.2-.2.5-.2.3-.1.6 0l20.8 4.6q.3.1.5.2.3.2.4.4.2.3.2.5.1.3 0 .6l-.7 3.1q-.3 1.2-.8 2.3-.5 1.1-1.1 2.2-.7 1-1.6 1.8-.8.9-1.8 1.6-.7.4-1.4.7-.7.4-1.4.6-.8.2-1.6.3-.7.1-1.5.1zm-9.3-16-.3 1.3c0 .1-1 4.5 1.1 7.8q.5.8 1.1 1.4.7.6 1.4 1.1.8.5 1.6.8.8.3 1.7.4.9.3 1.8.3.9.1 1.8 0t1.8-.4q.9-.3 1.7-.8.7-.5 1.4-1.2.6-.7 1.1-1.5.6-.7.9-1.6.4-.8.6-1.7v-.1l.4-1.7z"/><path fill-rule="evenodd" class="s7" d="M448.1 465.2h-.1l-.1-.1h-.1l-7.1-1.5q-.3-.1-.5-.3-.2-.1-.4-.4-.1-.2-.2-.5v-.5l17.5-78.8q0-.3.2-.5l.4-.4q.2-.1.5-.2h.6l7 1.6q.3.1.5.2l.4.4q.1.2.2.5v.6L449.4 464q0 .3-.1.5l-.3.3q-.2.2-.5.3-.2.1-.4.1zm-5.4-4.1 4.3 1 16.8-76.1-4.3-.9z"/><path fill-rule="evenodd" class="s7" d="M453.9 472.1H453.6l-20.9-4.7q-.2 0-.5-.2-.2-.1-.3-.4-.2-.2-.2-.5-.1-.3 0-.5l1.2-5.4q0-.3.2-.5.1-.3.4-.4.2-.2.5-.2.3-.1.5 0l20.9 4.6q.3.1.5.2.3.2.4.4.2.3.2.6.1.2 0 .5l-1.2 5.4q0 .2-.2.4-.1.2-.3.4l-.4.2q-.2.1-.5.1zm-19.2-7.1 18.2 4 .5-2.6-18.1-4zM680.9 418.5l-17.9-7.7c-.4-.2-.8-.6-1-1-.2-.4-.3-.9-.2-1.3.1-.5.4-.9.7-1.2.4-.3.9-.5 1.3-.5 3.6-.2 42.3-14.4 65.8-23.3q.2-.1.3-.1h.8q.1 0 .3.1l68.7 23.4q.6.2 1 .8.4.5.4 1.1 0 .6-.3 1.2-.3.5-.9.8l-30.2 13.1v33.4q0 1.4-.6 2.7-.5 1.3-1.5 2.3-1 1-2.3 1.5-1.3.5-2.7.5h-57.9q-1.4 0-2.7-.5-1.3-.5-2.2-1.5-1-1-1.6-2.3-.5-1.3-.5-2.7v-31.5l-12.7-5.5v7.5q.9.6 1.6 1.5.7.9.9 2 .3 1.1.1 2.2-.1 1.1-.7 2l2 14.5q.1.5-.1.9-.1.4-.4.8-.3.3-.7.5-.4.2-.8.2h-9.7q-.4 0-.8-.2t-.7-.6q-.3-.3-.4-.7-.1-.5-.1-.9l2.4-14c-.6-.7-1-1.6-1.1-2.5-.1-1 0-1.9.3-2.8.3-.9.9-1.7 1.6-2.3.7-.6 1.6-1.1 2.5-1.3zm3.6 29.8-1.8-13v-.5q0-.2.1-.4l.2-.4q.1-.2.2-.3c.4-.5.5-1.2.2-1.7-.3-.6-.8-.9-1.5-.9-.6.1-1.1.5-1.3 1.1-.2.6 0 1.2.5 1.6q.2.2.3.4.2.2.3.5.1.2.1.5v.5l-2.1 12.6zm81-22.6-33.3 14.4q-.2.1-.4.1-.2.1-.4.1t-.4-.1-.4-.1l-28.9-12.5v29.7q0 .6.3 1.1.2.6.6 1 .4.4 1 .6.5.3 1.1.3h57.9q.6 0 1.1-.3.5-.2 1-.6.4-.4.6-1 .2-.5.2-1.1zm-82.3-10.6 40.1-5.3c.8-2 4-3.4 8.1-3.4 4.8 0 8.4 1.9 8.4 4.4 0 2.5-3.6 4.4-8.4 4.4q-.8.1-1.6 0-.9-.1-1.7-.3-.8-.2-1.6-.5-.7-.3-1.5-.7l-34.5 4.6 40.9 17.7 61.9-26.8-63-21.5c-9.7 3.6-45.4 17.1-60.3 21.7zm48.2-1.9c3.9 0 6.3-1.4 6.3-2.4 0-.9-2.4-2.3-6.3-2.3-3.8 0-6.3 1.4-6.3 2.3 0 1 2.5 2.4 6.3 2.4zM563.7 580l122.2.6c.5 0 1 .2 1.4.5.4.3.6.7.7 1.2.1.5.1 1-.1 1.5-.3.4-.6.8-1.1 1l-31.4 14 2.4 33.9q.1.3.1.5v.6q-.1.2-.2.5-.1.2-.3.5-.2.2-.5.4t-.6.3q-.3.1-.7.1-.3 0-.6-.2h-.2l-25.5-9.7-23.4 27.7-.4.4q-.1.1-.4.2l-.4.2h-.7q-.2 0-.5-.1-.2-.1-.5-.2l-.4-.4q-.2-.2-.3-.4l-40.5-69.8v-.2q-.1 0-.1-.1v-.1l-.1-.1v-.4q-.1 0-.1-.1V582q0-.1.1-.1v-.4q.1 0 .1-.1v-.1q0-.1.1-.1v-.1l.1-.1v-.1h.1v-.1l.1-.1.1-.1.1-.1.1-.1q.1 0 .1-.1h.1l.1-.1h.1l.1-.1h.2l.1-.1h.5zm86.6 49-10.2-16.1-5.9 7-1.9 2.2zm-59.9-44.4 62.4 10.6 22.9-10.2zm-1.8 4.2 52.3 18.4q.1.1.2.1h.1v.1h.2q0 .1.1.1l.1.1.2.2.1.1.2.2 10.6 16.7-1.8-25.4zm-20.1-2.5 35.9 62 32.1-38zM418.5 558.1c1.1.4 2.2 1.1 3.1 2 .9.9 1.6 2 2 3.1.5 1.2.8 2.4.8 3.7v109.9c2.8 1.4 5.1 3.7 6.5 6.5 1.3 2.9 1.7 6.2 1 9.3-.8 3-2.5 5.8-5 7.8s-5.6 3-8.7 3H302.5c-3.1 0-6.1-1-8.5-2.8-2.5-1.9-4.3-4.5-5.1-7.4-.8-3-.7-6.1.5-9 1.1-2.8 3.1-5.2 5.7-6.8V566.9c0-2.6 1-5 2.8-6.8 1.8-1.9 4.2-2.9 6.8-2.9 2.6 0 5 1 6.8 2.9 1.8 1.8 2.8 4.2 2.8 6.8v6.4c1.5-1.2 3.3-2.1 5.2-2.6 1.9-.5 3.8-.6 5.8-.3 1.9.3 3.8.9 5.5 1.9 1.6 1 3.1 2.4 4.2 4 1.8-2.5 4.3-4.3 7.1-5.3 2.9-.9 5.9-1 8.8-.2 2.9.9 5.5 2.6 7.3 4.9 1.9 2.4 3 5.2 3.2 8.2h20.3c.1-2.6 1-5.2 2.5-7.4 1.5-2.1 3.6-3.9 6.1-5 2.4-1.1 5.1-1.5 7.7-1.1 2.6.3 5.1 1.3 7.2 2.9v-6.4c0-1.3.3-2.5.8-3.7.4-1.1 1.1-2.2 2-3.1.9-.9 2-1.6 3.1-2 1.2-.5 2.4-.8 3.7-.8 1.3 0 2.5.3 3.7.8zm-7.6 117.2h7.8V566.9c0-1-.4-2-1.1-2.8-.8-.7-1.8-1.1-2.8-1.1-1 0-2 .4-2.8 1.1-.7.8-1.1 1.8-1.1 2.8zm-18.1-98.7c-1.1.5-2 1.1-2.9 2-.8.8-1.5 1.8-1.9 2.9-.5 1-.7 2.2-.7 3.4 0 3.6 2.2 6.9 5.5 8.3 3.4 1.4 7.2.6 9.8-2 2.6-2.5 3.3-6.4 1.9-9.7-1.3-3.4-4.6-5.6-8.2-5.6-1.2 0-2.4.3-3.5.7zm-49.4 0c-1.1.5-2.1 1.1-2.9 2-.8.8-1.5 1.8-2 2.9-.4 1-.6 2.2-.6 3.4 0 3.6 2.1 6.9 5.5 8.3 3.3 1.4 7.2.6 9.8-2 2.5-2.5 3.3-6.4 1.9-9.7-1.4-3.4-4.6-5.6-8.3-5.6-1.1 0-2.3.3-3.4.7zm-12.6 20.8c-1.7 1-3.6 1.7-5.5 2-2 .3-3.9.1-5.8-.4s-3.7-1.4-5.2-2.6v19h41.5c.2-3.2 1.5-6.2 3.6-8.6 2-2.4 4.8-4.1 8-4.8 3.1-.6 6.3-.3 9.2 1.1 2.9 1.3 5.3 3.6 6.7 6.4 1-1.9 2.4-3.5 4.1-4.8 1.7-1.3 3.7-2.2 5.8-2.7 2.1-.4 4.2-.4 6.3.1 2.1.5 4 1.4 5.7 2.7v-8.4c-2 1.6-4.4 2.6-7 3-2.5.3-5.1 0-7.5-1-2.4-1-4.5-2.5-6-4.6-1.6-2-2.6-4.5-2.9-7h-20.5c-.3 2.9-1.6 5.6-3.5 7.8-2 2.2-4.5 3.7-7.3 4.5-2.9.7-5.9.6-8.6-.4-2.8-1-5.1-2.8-6.9-5.2-1.1 1.6-2.6 2.9-4.2 3.9zm34.4 67.4c-1.7-.6-3.3-1.6-4.6-2.8-1.3-1.2-2.4-2.7-3.2-4.3-.9-1.6-1.4-3.3-1.5-5.1h-18.1c-.3 2.6-1.2 5.1-2.7 7.2-1.6 2.1-3.7 3.8-6.1 4.8-2.4 1-5 1.4-7.6 1.1-2.6-.4-5.1-1.4-7.1-3v12.6h90.9v-22.7H385c-.2 1.8-.7 3.5-1.5 5.1-.8 1.6-1.9 3.1-3.2 4.3-1.4 1.2-2.9 2.2-4.6 2.8-1.7.7-3.5 1-5.3 1-1.8 0-3.6-.3-5.2-1zm-3.1-10.2c.5 1.1 1.2 2.1 2 2.9.8.8 1.8 1.5 2.9 2 1.1.4 2.2.6 3.4.6 3.7 0 6.9-2.1 8.3-5.5 1.4-3.3.6-7.2-1.9-9.8-2.6-2.5-6.5-3.3-9.8-1.9-3.4 1.4-5.5 4.7-5.5 8.3 0 1.1.2 2.3.6 3.4zm43.1-4.8v-21.9c-1.7 1.3-3.6 2.2-5.7 2.7s-4.2.5-6.3.1c-2.1-.5-4.1-1.4-5.8-2.7-1.7-1.3-3.1-2.9-4.1-4.8-1.4 2.7-3.7 4.9-6.5 6.3-2.8 1.4-5.9 1.8-9 1.2-3-.5-5.8-2-8-4.3-2.1-2.2-3.5-5.1-3.9-8.2h-41.6v21.4c2-1.6 4.5-2.6 7.1-2.9 2.6-.4 5.2 0 7.6 1 2.4 1.1 4.5 2.7 6.1 4.8 1.5 2.2 2.4 4.7 2.7 7.3h18.1c.3-3.7 2-7 4.7-9.5 2.7-2.4 6.2-3.7 9.8-3.7 3.7 0 7.2 1.3 9.9 3.7 2.6 2.5 4.3 5.8 4.7 9.5zm-43.1-30c.5 1.1 1.1 2.1 1.9 2.9.9.8 1.9 1.5 3 1.9 1 .5 2.2.7 3.4.7 3.6 0 6.9-2.2 8.3-5.5 1.4-3.4.6-7.2-2-9.8-2.5-2.6-6.4-3.3-9.7-1.9-3.4 1.4-5.6 4.6-5.6 8.3 0 1.1.3 2.3.7 3.4zm37.5 4.8c1.1-.4 2.1-1.1 3-1.9.8-.8 1.4-1.8 1.9-2.9.5-1.1.7-2.3.7-3.4 0-3.7-2.2-6.9-5.5-8.3-3.4-1.4-7.2-.6-9.8 1.9-2.6 2.6-3.3 6.4-2 9.8 1.4 3.3 4.7 5.5 8.3 5.5 1.2 0 2.4-.2 3.4-.7zm-84.7-43.1c-1.4 3.3-.6 7.2 2 9.7 2.5 2.6 6.4 3.4 9.7 2 3.4-1.4 5.6-4.7 5.6-8.3 0-1.2-.3-2.4-.7-3.4-.5-1.1-1.1-2.1-2-2.9-.8-.9-1.8-1.5-2.9-2-1.1-.4-2.2-.7-3.4-.7-3.6 0-6.9 2.2-8.3 5.6zm4.9 61.4c-1.1.4-2.1 1.1-2.9 1.9-.9.9-1.5 1.9-2 2.9-.4 1.1-.7 2.3-.7 3.5 0 3.6 2.2 6.9 5.6 8.3 3.3 1.3 7.2.6 9.7-2 2.6-2.6 3.4-6.4 2-9.8-1.4-3.3-4.7-5.5-8.3-5.5-1.2 0-2.3.2-3.4.7zm-19 32.5h.4q.2-.1.4-.1h7V566.9c0-1-.4-2-1.2-2.8-.7-.7-1.7-1.1-2.7-1.1-1.1 0-2.1.4-2.8 1.1-.7.8-1.1 1.8-1.1 2.8zm125.1 10.8c-.4-1.1-1.1-2-1.8-2.8-.8-.7-1.7-1.4-2.8-1.8-1-.4-2.1-.6-3.2-.6H302.4c-2.2 0-4.4.9-5.9 2.4-1.6 1.6-2.5 3.7-2.5 6 0 2.2.9 4.3 2.5 5.9 1.5 1.6 3.7 2.5 5.9 2.5h115.7c1.1 0 2.2-.3 3.2-.7 1.1-.4 2-1 2.8-1.8.7-.8 1.4-1.7 1.8-2.7.4-1 .6-2.1.6-3.2s-.2-2.2-.6-3.2zM160.7 429.4H215c7.4 0 13.4 5.8 13.4 12.9v.4q1.2.8 2.2 1.8.9 1 1.6 2.2.7 1.3 1.1 2.6.3 1.4.3 2.8v82.7c0 6.5-6 11.8-13.4 11.8h-59.5c-7.4 0-13.5-5.7-13.5-12.9v-91.4c0-7.1 6.1-12.9 13.5-12.9zm-9.2 104.3c0 4.8 4.1 8.6 9.2 8.6h59.5c5 0 9.1-3.4 9.1-7.5v-82.7q0-1-.3-2-.3-.9-.9-1.7-.5-.9-1.2-1.5-.8-.7-1.7-1.1l-.4-.4-.4-.4q-.1-.3-.2-.5-.1-.3-.1-.6v-1.6c0-4.7-4.1-8.6-9.1-8.6h-54.3c-5.1 0-9.2 3.9-9.2 8.6z"/><path fill-rule="evenodd" class="s7" d="M157.8 441c.8-3.2 4.8-4 5.2-4q.1 0 .1-.1h53.3q.1 0 .2.1h.1c3.4.7 5 2.4 5.7 3.8 1.7 3.2.2 6.8.1 7.2q-.2.2-.4.5l-.4.4q-.3.2-.6.3-.3.1-.6.1h-21v36q0 .7-.3 1.2-.4.5-1 .8-.6.3-1.2.2-.6-.2-1.1-.6l-9.4-8.5-8.9 8.5q-.5.4-1.1.5-.6.2-1.2-.1-.6-.2-1-.8-.3-.5-.3-1.2v-36h-10.6q-.2 0-.4-.1-.2 0-.3-.1-.2 0-.4-.1-.1-.1-.3-.2c-1.3-1.1-5.1-4.3-4.2-7.8zm5.4.4q-.3 0-.5.1t-.4.3q-.2.1-.3.3s-.1.9 2.2 2.9h11.9q.5 0 .8.1.4.2.7.5.3.3.5.7.2.4.2.8v33.2l6.7-6.4q.3-.3.7-.5.4-.1.8-.1t.8.1q.4.1.7.4l7.2 6.6v-33.3q0-.4.2-.8.1-.4.4-.7.3-.3.7-.5.4-.1.9-.2h21.4q.2-.6.1-1.3-.2-.6-.6-1.2-.4-.5-1-.8-.6-.3-1.3-.4h-52.4l-.4.2z"/><path fill-rule="evenodd" class="s7" d="M180 463.1q-.2-.2-.3-.5-.1-.3 0-.6t.4-.5q.2-.1.5-.2l3-.4 1.3-2.7q.1-.3.4-.4.2-.2.5-.2.4 0 .6.2.3.1.4.4l1.3 2.7 3 .4q.3.1.5.2.3.2.4.5.1.3 0 .6t-.3.5l-2.1 2.1.5 3q0 .3-.1.6t-.4.4q-.2.2-.5.2-.3.1-.6-.1l-2.6-1.4-2.7 1.4q-.3.2-.6.1-.3 0-.5-.2-.3-.1-.4-.4-.1-.3-.1-.6l.5-3zm3.1 0 1 1 .2.2q0 .1.1.2v.5l-.2 1.4 1.2-.7h.2q.2-.1.3-.1.1 0 .3.1h.2l1.2.7-.2-1.4v-.5q.1-.1.1-.2l.2-.2 1-1-1.4-.2q-.1 0-.2-.1-.2 0-.3-.1-.1-.1-.1-.2l-.2-.2-.6-1.2-.6 1.2q-.1.1-.1.2l-.2.2q-.1.1-.3.1-.1.1-.2.1z"/></svg>