<svg xmlns="http://www.w3.org/2000/svg" width="915" height="915" viewBox="0 0 915 915">
  <g id="Group_3466" data-name="Group 3466" transform="translate(-966 -54.5)">
    <g id="Group_3465" data-name="Group 3465" transform="translate(-140.001 -55.529)">
      <g id="Background" transform="translate(1106 110.029)" opacity="0.9">
        <circle id="Ellipse_24" data-name="Ellipse 24" cx="457.5" cy="457.5" r="457.5" transform="translate(0.001)" fill="#f5f8fe"/>
      </g>
      <g id="Background-2" data-name="Background" transform="translate(1184.46 188.489)">
        <circle id="Ellipse_24-2" data-name="Ellipse 24" cx="379.5" cy="379.5" r="379.5" transform="translate(-0.46 -0.459)" fill="none" stroke="#cbcbd9" stroke-width="1"/>
      </g>
      <g id="Group_3381" data-name="Group 3381" transform="translate(777.429 238.998)">
        <g id="Group_3334" data-name="Group 3334" transform="translate(541.926 76.546)">
          <path id="Path_2651" data-name="Path 2651" d="M854.863,630.347h-.121c-1.849,0-3.707-.019-5.522-.059l.018-.848c1.81.038,3.662.058,5.5.058h.121Zm5.646-.062-.02-.848c1.878-.042,3.765-.1,5.61-.184l.036.848C864.286,630.181,862.392,630.243,860.509,630.285Zm-16.931-.174c-1.875-.08-3.771-.181-5.636-.3l.054-.846c1.858.119,3.748.22,5.618.3Zm28.194-.314-.055-.846c1.856-.12,3.744-.264,5.609-.426l.073.845C875.528,629.533,873.635,629.676,871.772,629.8Zm-39.458-.408c-1.86-.159-3.75-.342-5.617-.544l.091-.843c1.861.2,3.744.384,5.6.543Zm50.7-.569-.092-.843c1.86-.2,3.739-.427,5.585-.669l.11.842C886.77,628.392,884.884,628.617,883.018,628.82Zm-61.927-.641c-1.861-.242-3.741-.507-5.589-.788l.128-.839c1.842.281,3.717.544,5.57.785Zm73.119-.823-.129-.839c1.839-.282,3.707-.589,5.551-.912l.147.835C897.929,626.766,896.056,627.073,894.21,627.356Zm-84.279-.875c-1.837-.321-3.7-.669-5.549-1.032l.163-.833c1.84.363,3.7.709,5.531,1.03Zm95.4-1.076-.165-.832c1.836-.365,3.689-.753,5.506-1.154l.183.828C909.029,624.65,907.17,625.04,905.329,625.405ZM798.857,624.3c-1.846-.406-3.7-.836-5.5-1.275l.2-.823c1.8.438,3.641.865,5.48,1.269Zm117.494-1.328-.2-.824c1.83-.447,3.663-.917,5.451-1.4l.219.82C920.026,622.048,918.186,622.519,916.351,622.969Zm-128.462-1.34c-1.824-.487-3.653-1-5.437-1.515l.236-.815c1.779.517,3.6,1.025,5.42,1.51Zm139.366-1.579-.238-.814c1.815-.53,3.627-1.08,5.384-1.634l.255.809C930.893,618.967,929.076,619.518,927.255,620.049Zm-150.206-1.57c-1.8-.565-3.608-1.156-5.387-1.759l.273-.8c1.773.6,3.578,1.19,5.368,1.753Zm160.972-1.825-.273-.8c1.779-.6,3.565-1.233,5.306-1.868l.291.8C941.6,615.418,939.805,616.048,938.02,616.655Zm-171.7-1.809c-1.781-.648-3.564-1.319-5.3-1.994l.308-.79c1.73.673,3.508,1.341,5.283,1.987Zm182.309-2.055-.308-.79c1.738-.677,3.488-1.382,5.2-2.091l.326.783C952.125,611.4,950.371,612.111,948.627,612.791Zm-192.864-2.049c-1.735-.719-3.486-1.467-5.206-2.225l.342-.777c1.713.755,3.459,1.5,5.188,2.217Zm203.252-2.264-.343-.775c1.7-.749,3.417-1.529,5.106-2.318l.359.769C962.443,606.945,960.719,607.728,959.015,608.478ZM745.4,606.18c-1.7-.794-3.419-1.619-5.1-2.449l.376-.761c1.676.829,3.386,1.65,5.083,2.442Zm223.806-2.463-.376-.76c1.676-.829,3.359-1.684,5-2.54l.393.752C972.579,602.028,970.891,602.886,969.21,603.717ZM735.26,601.17c-1.659-.866-3.336-1.764-4.986-2.67l.408-.743c1.645.9,3.317,1.8,4.97,2.661Zm243.931-2.659-.408-.744c1.639-.9,3.283-1.828,4.889-2.757l.424.735C982.485,596.677,980.835,597.607,979.191,598.512Zm-253.842-2.789c-1.635-.947-3.271-1.917-4.862-2.886l.441-.724c1.585.964,3.216,1.932,4.846,2.875Zm263.592-2.849-.441-.726c1.588-.965,3.191-1.964,4.766-2.968l.456.716C992.142,590.9,990.533,591.9,988.94,592.873Zm-273.252-3.026c-1.573-1-3.165-2.046-4.73-3.093l.472-.705c1.561,1.045,3.147,2.082,4.715,3.083Zm282.752-3.034-.472-.705c1.561-1.045,3.12-2.112,4.635-3.174l.487.694C1001.569,584.693,1000.005,585.766,998.44,586.814ZM706.3,583.561c-1.55-1.088-3.094-2.2-4.589-3.3l.5-.683c1.49,1.095,3.029,2.2,4.574,3.284Zm301.372-3.217-.5-.684c1.5-1.1,3.007-2.233,4.494-3.373l.517.672C1010.688,578.1,1009.171,579.242,1007.67,580.344Zm-310.478-3.472c-1.485-1.142-2.979-2.316-4.441-3.491l.532-.66c1.457,1.17,2.946,2.341,4.426,3.479Zm319.422-3.395-.531-.661c1.464-1.176,2.926-2.376,4.345-3.566l.545.65C1019.549,571.094,1018.083,572.3,1016.613,573.477Zm-328.225-3.682c-1.435-1.206-2.876-2.443-4.284-3.679l.56-.637c1.4,1.231,2.84,2.465,4.269,3.667Zm336.866-3.568-.559-.638c1.409-1.236,2.817-2.5,4.187-3.753l.573.626C1028.081,563.721,1026.667,564.987,1025.254,566.227ZM679.9,562.347c-1.389-1.275-2.775-2.573-4.118-3.861l.587-.613c1.339,1.284,2.721,2.578,4.105,3.848Zm353.673-3.741-.587-.612c1.352-1.294,2.705-2.616,4.023-3.932l.6.6C1036.289,555.983,1034.931,557.309,1033.575,558.607ZM671.75,554.539c-1.329-1.33-2.657-2.687-3.946-4.035l.613-.586c1.285,1.342,2.608,2.7,3.933,4.021Zm369.809-3.908-.612-.587c1.287-1.342,2.581-2.722,3.849-4.1l.625.575C1044.149,547.9,1042.85,549.285,1041.559,550.631Zm-377.613-4.244c-1.275-1.391-2.542-2.8-3.766-4.2l.638-.56c1.22,1.391,2.483,2.8,3.754,4.187Zm385.247-4.074-.638-.56c1.24-1.412,2.475-2.847,3.669-4.269l.649.547C1051.677,539.457,1050.438,540.9,1049.194,542.313Zm-392.688-4.4c-1.2-1.429-2.4-2.895-3.58-4.357l.661-.532c1.172,1.459,2.373,2.919,3.568,4.344Zm399.957-4.238-.661-.532c1.162-1.444,2.333-2.933,3.48-4.424l.673.517C1058.8,530.728,1057.628,532.222,1056.463,533.67Zm-407.021-4.553c-1.143-1.488-2.282-3-3.386-4.507l.684-.5c1.1,1.5,2.236,3.01,3.375,4.492Zm413.909-4.4-.684-.5c1.111-1.51,2.216-3.05,3.286-4.574l.694.488C1065.574,521.658,1064.464,523.2,1063.351,524.717Zm-420.583-4.686c-1.079-1.539-2.152-3.1-3.186-4.649l.705-.471c1.031,1.54,2.1,3.1,3.176,4.633Zm427.078-4.56-.705-.473c1.04-1.552,2.078-3.138,3.086-4.714l.714.457C1071.93,512.321,1070.888,513.912,1069.845,515.471Zm-433.348-4.8c-1.008-1.579-2.011-3.187-2.98-4.782l.725-.44c.966,1.588,1.965,3.191,2.971,4.764Zm439.435-4.723-.725-.44c.969-1.592,1.937-3.222,2.877-4.845l.735.425C1077.875,502.714,1076.9,504.349,1075.932,505.945Zm-445.29-4.9c-.943-1.629-1.874-3.279-2.768-4.9l.743-.408c.891,1.62,1.819,3.264,2.759,4.888ZM1081.6,496.16l-.743-.408c.9-1.638,1.8-3.31,2.663-4.969l.752.393C1083.4,492.841,1082.5,494.518,1081.6,496.16Zm-456.385-4.983c-.866-1.658-1.724-3.347-2.55-5.018l.76-.376c.823,1.666,1.679,3.348,2.542,5Zm461.621-5.045-.76-.376c.824-1.667,1.646-3.377,2.443-5.082l.769.359C1088.487,482.744,1087.661,484.459,1086.835,486.132Zm-466.61-5.042c-.794-1.7-1.577-3.422-2.328-5.123l.776-.342c.747,1.7,1.528,3.412,2.32,5.1Zm471.4-5.209-.776-.342c.758-1.721,1.5-3.465,2.219-5.188l.784.325C1093.135,472.4,1092.386,474.154,1091.626,475.881ZM615.682,470.8c-.717-1.727-1.424-3.483-2.1-5.216l.79-.309c.674,1.728,1.379,3.478,2.094,5.2Zm480.283-5.375-.791-.307c.681-1.752,1.351-3.53,1.989-5.283l.8.291C1097.32,461.882,1096.649,463.665,1095.965,465.423ZM611.588,460.3c-.644-1.765-1.275-3.556-1.876-5.324l.8-.273c.6,1.761,1.228,3.547,1.87,5.306Zm488.252-5.519-.8-.273c.6-1.771,1.192-3.577,1.755-5.367l.81.254C1101.036,451.191,1100.443,453,1099.84,454.781Zm-491.888-5.167c-.564-1.787-1.116-3.6-1.64-5.4l.815-.238c.523,1.791,1.072,3.6,1.636,5.383Zm495.285-5.62-.814-.237c.522-1.793,1.03-3.616,1.512-5.419l.82.219C1104.271,440.365,1103.76,442.194,1103.237,443.993Zm-498.448-5.216c-.487-1.815-.958-3.654-1.4-5.468l.824-.2c.442,1.808.912,3.641,1.4,5.449Zm501.362-5.689-.824-.2c.441-1.808.869-3.652,1.272-5.48l.829.182C1107.023,429.424,1106.593,431.275,1106.151,433.089Zm-504.045-5.276c-.406-1.834-.8-3.691-1.16-5.525l.832-.165c.363,1.827.752,3.68,1.157,5.506Zm506.478-5.749-.833-.164c.362-1.831.708-3.69,1.03-5.531l.836.147C1109.295,418.361,1108.947,420.228,1108.584,422.064Zm-508.678-5.323c-.326-1.85-.635-3.723-.917-5.569l.839-.129c.282,1.84.59,3.708.914,5.552Zm510.624-5.8-.839-.128c.283-1.855.547-3.729.788-5.57l.841.111C1111.08,407.2,1110.814,409.085,1110.53,410.945Zm-512.336-5.361c-.245-1.865-.471-3.75-.674-5.6l.843-.092c.2,1.847.428,3.726.672,5.586Zm513.795-5.832-.843-.091c.2-1.846.383-3.73.544-5.6l.845.074C1112.373,396.01,1112.189,397.9,1111.989,399.751Zm-515.02-5.388c-.162-1.863-.306-3.756-.429-5.628l.847-.056c.122,1.866.265,3.753.427,5.61Zm515.993-5.858-.847-.054c.12-1.876.222-3.766.3-5.619l.848.037C1113.183,384.728,1113.081,386.623,1112.961,388.506ZM596.231,383.1c-.082-1.873-.144-3.767-.186-5.628l.848-.019c.041,1.855.1,3.743.185,5.61Zm517.213-5.87-.848-.017c.04-1.869.06-3.762.06-5.627v-.468l.848,0v.469C1113.5,373.457,1113.484,375.355,1113.445,377.229Zm-516.616-5.4h-.848v-.242c0-1.8.019-3.62.056-5.4l.848.017c-.037,1.776-.056,3.587-.056,5.384Zm515.757-6.335c-.043-1.861-.107-3.752-.191-5.623l.848-.038c.084,1.878.148,3.775.191,5.642Zm-515.526-4.914-.848-.035c.078-1.864.177-3.76.3-5.637l.847.054C597.237,356.83,597.137,358.72,597.059,360.578Zm515.024-6.327c-.124-1.867-.27-3.754-.434-5.609l.845-.075c.164,1.862.311,3.755.435,5.628Zm-514.31-4.9-.845-.072c.159-1.858.341-3.749.541-5.619l.844.091C598.113,345.613,597.931,347.5,597.773,349.35Zm513.321-6.307c-.205-1.859-.432-3.738-.677-5.585l.841-.111c.245,1.854.474,3.739.679,5.6Zm-512.121-4.88-.842-.109c.241-1.856.505-3.737.786-5.589l.839.128C599.477,334.438,599.214,336.312,598.974,338.163Zm510.647-6.273c-.285-1.846-.594-3.714-.92-5.55l.835-.148c.327,1.843.637,3.716.923,5.569Zm-508.96-4.851-.835-.145c.32-1.84.666-3.707,1.029-5.549l.832.163C601.325,323.345,600.979,325.205,600.661,327.039Zm507-6.227c-.362-1.82-.754-3.672-1.161-5.506l.828-.183c.409,1.84.8,3.7,1.166,5.523ZM602.833,316l-.829-.182c.4-1.832.83-3.682,1.271-5.5l.825.2C603.661,312.33,603.234,314.174,602.833,316Zm502.382-6.171c-.446-1.815-.917-3.648-1.4-5.449l.818-.22c.486,1.8.96,3.645,1.408,5.467Zm-499.728-4.763-.82-.219c.481-1.809.99-3.638,1.511-5.438l.815.236C606.475,301.439,605.968,303.263,605.488,305.066Zm496.8-6.1c-.524-1.789-1.076-3.6-1.64-5.381l.808-.256c.567,1.787,1.12,3.6,1.646,5.4Zm-493.671-4.7-.81-.254c.563-1.791,1.154-3.6,1.757-5.387l.8.271C609.769,290.669,609.181,292.475,608.62,294.26Zm490.273-6.02c-.6-1.767-1.235-3.552-1.876-5.3l.8-.292c.643,1.759,1.276,3.549,1.882,5.322Zm-486.654-4.678-.8-.289c.637-1.754,1.307-3.538,1.991-5.3l.791.307C613.541,280.036,612.874,281.814,612.239,283.562Zm482.786-5.889c-.678-1.732-1.384-3.48-2.1-5.2l.783-.326c.718,1.721,1.425,3.476,2.105,5.214Zm-478.7-4.631-.784-.325c.713-1.722,1.461-3.474,2.222-5.206l.777.341C617.779,269.579,617.034,271.324,616.323,273.042Zm474.392-5.715c-.751-1.7-1.533-3.416-2.325-5.1l.768-.359c.794,1.693,1.579,3.416,2.333,5.119Zm-469.85-4.613-.769-.359c.793-1.7,1.618-3.419,2.447-5.1l.76.375C622.477,259.307,621.656,261.018,620.864,262.714Zm465.089-5.543c-.825-1.664-1.682-3.347-2.546-5l.752-.393c.867,1.658,1.727,3.345,2.555,5.016Zm-460.1-4.57-.752-.393c.868-1.666,1.765-3.343,2.668-4.987l.744.408C627.613,249.269,626.718,250.941,625.853,252.6Zm454.9-5.371c-.895-1.624-1.824-3.268-2.764-4.886l.734-.426c.942,1.624,1.875,3.274,2.773,4.9Zm-449.473-4.51-.734-.425c.939-1.624,1.909-3.261,2.882-4.863l.725.44C633.181,239.47,632.215,241.1,631.279,242.72Zm443.839-5.2c-.966-1.587-1.967-3.189-2.974-4.763l.715-.457c1.01,1.579,2.015,3.186,2.985,4.779Zm-437.988-4.43-.715-.456c1-1.576,2.045-3.168,3.09-4.732l.705.472C639.168,229.931,638.131,231.517,637.13,233.089Zm431.935-5.029c-1.036-1.545-2.106-3.1-3.18-4.63l.694-.488c1.077,1.533,2.151,3.1,3.19,4.645Zm-425.672-4.334-.695-.487c1.063-1.517,2.171-3.062,3.292-4.592l.685.5C645.556,220.673,644.452,222.214,643.393,223.726Zm419.21-4.857c-1.1-1.5-2.24-3.009-3.379-4.49l.672-.517c1.144,1.485,2.285,3,3.39,4.5Zm-412.548-4.222-.672-.517c1.136-1.479,2.31-2.974,3.488-4.442l.662.532C652.358,211.682,651.188,213.172,650.055,214.646Zm405.692-4.683c-1.165-1.448-2.367-2.908-3.572-4.34l.649-.547c1.209,1.436,2.415,2.9,3.584,4.355Zm-398.643-4.1-.65-.545c1.209-1.441,2.446-2.883,3.677-4.285l.638.56C659.542,203,658.309,204.432,657.1,205.868Zm391.405-4.506c-1.241-1.41-2.505-2.817-3.759-4.183l.625-.574c1.258,1.37,2.526,2.782,3.771,4.2Zm-383.984-3.955-.626-.573c1.26-1.375,2.558-2.762,3.858-4.12l.613.586C667.075,194.655,665.78,196.036,664.525,197.407Zm376.376-4.328c-1.287-1.342-2.611-2.693-3.938-4.017l.6-.6c1.33,1.329,2.66,2.686,3.95,4.031Zm-368.6-3.8-.6-.6c1.324-1.325,2.68-2.653,4.032-3.948l.587.612C674.975,186.634,673.623,187.958,672.3,189.278Zm360.637-4.147c-1.338-1.279-2.72-2.573-4.109-3.844l.573-.626c1.394,1.275,2.78,2.573,4.123,3.857ZM680.425,181.5l-.574-.626c1.377-1.263,2.789-2.531,4.2-3.769l.56.638C683.205,178.972,681.8,180.237,680.425,181.5Zm344.214-3.965c-1.4-1.225-2.835-2.458-4.272-3.662l.545-.651c1.442,1.209,2.884,2.446,4.287,3.676Zm-335.767-3.456-.546-.65c1.42-1.193,2.885-2.4,4.356-3.582l.532.661C691.748,171.684,690.287,172.885,688.873,174.075Zm327.141-3.775c-1.457-1.169-2.947-2.338-4.429-3.475l.516-.673c1.488,1.141,2.983,2.313,4.444,3.487Zm-318.382-3.27-.517-.672c1.491-1.148,3.007-2.287,4.506-3.388l.5.683C700.629,164.75,699.118,165.887,697.632,167.03Zm309.449-3.583c-1.5-1.1-3.038-2.2-4.577-3.281l.487-.694c1.543,1.08,3.089,2.188,4.592,3.29Zm-300.4-3.072-.487-.695c1.53-1.074,3.093-2.147,4.647-3.189l.472.7C709.768,158.234,708.21,159.3,706.685,160.374Zm291.169-3.389c-1.556-1.039-3.143-2.076-4.718-3.079l.457-.715c1.579,1.006,3.171,2.046,4.733,3.089Zm-281.839-2.867-.457-.715c1.585-1.012,3.193-2.015,4.779-2.983l.441.724C719.2,152.109,717.595,153.11,716.015,154.119Zm272.337-3.186c-1.589-.965-3.22-1.931-4.849-2.871l.424-.735c1.634.943,3.271,1.912,4.866,2.88ZM725.6,148.28l-.425-.735c1.6-.93,3.253-1.861,4.9-2.771l.409.744C728.848,146.423,727.2,147.352,725.6,148.28ZM978.591,145.3c-1.646-.9-3.318-1.8-4.972-2.656l.391-.752c1.66.863,3.338,1.759,4.988,2.665Zm-243.156-2.432-.393-.752c1.656-.866,3.344-1.725,5.016-2.554l.377.761C738.769,141.145,737.087,142,735.435,142.864Zm233.154-2.771c-1.677-.827-3.388-1.646-5.085-2.437l.358-.77c1.7.793,3.42,1.616,5.1,2.446Zm-223.1-2.208-.36-.768c1.685-.789,3.407-1.573,5.12-2.331l.343.775C748.885,136.318,747.168,137.1,745.489,137.885Zm212.875-2.554c-1.721-.757-3.468-1.5-5.19-2.213l.324-.784c1.728.714,3.48,1.46,5.207,2.219Zm-202.62-1.979-.326-.783c1.718-.715,3.473-1.423,5.215-2.1l.308.79C759.206,131.934,757.458,132.64,755.745,133.353Zm192.191-2.332c-1.729-.67-3.507-1.337-5.285-1.982l.289-.8c1.784.647,3.568,1.316,5.3,1.989ZM766.2,129.267l-.291-.8c1.763-.645,3.554-1.277,5.322-1.88l.274.8C769.748,128,767.962,128.625,766.2,129.267Zm171.118-2.094c-1.782-.6-3.588-1.189-5.37-1.748l.254-.809c1.787.56,3.6,1.15,5.388,1.754ZM776.855,125.64l-.256-.809c1.782-.564,3.6-1.117,5.4-1.644l.238.814C780.442,124.526,778.631,125.077,776.855,125.64ZM926.566,123.8c-1.793-.519-3.617-1.024-5.422-1.5l.219-.82c1.811.481,3.641.989,5.439,1.509Zm-138.912-1.322-.22-.82c1.812-.487,3.652-.96,5.467-1.4l.2.824C791.294,121.525,789.461,122,787.655,122.482Zm128.036-1.568c-1.808-.438-3.652-.863-5.481-1.265l.181-.828c1.836.4,3.686.829,5.5,1.269ZM798.581,119.8l-.184-.829c1.812-.4,3.671-.794,5.523-1.163l.166.831C802.24,119.01,800.387,119.4,798.581,119.8Zm106.12-1.3c-1.818-.358-3.679-.7-5.532-1.024l.146-.836c1.858.323,3.726.669,5.55,1.027Zm-95.086-.9-.147-.836c1.84-.324,3.714-.634,5.569-.92l.129.839C813.317,116.972,811.449,117.281,809.615,117.6Zm84-1.025c-1.852-.28-3.727-.541-5.571-.78l.108-.842c1.851.238,3.731.5,5.589.783Zm-72.882-.688-.111-.842c1.842-.242,3.727-.469,5.6-.675l.092.843C824.449,115.423,822.57,115.65,820.735,115.892Zm61.723-.75c-1.841-.2-3.725-.378-5.6-.538l.072-.845c1.882.16,3.771.342,5.619.54Zm-50.539-.476-.075-.845c1.862-.163,3.756-.309,5.628-.432l.056.846C835.661,114.358,833.774,114.5,831.918,114.666Zm39.328-.476c-1.87-.119-3.76-.217-5.618-.294l.035-.848c1.864.077,3.76.176,5.637.3Zm-28.1-.264-.038-.848c1.873-.083,3.766-.147,5.627-.189l.02.848C846.9,113.78,845.012,113.843,843.146,113.926Zm16.861-.2c-1.742-.035-3.514-.053-5.264-.053h-.362v-.849h.362c1.756,0,3.533.019,5.281.054Z" transform="translate(-595.98 -112.821)" fill="#2b2b2b"/>
        </g>
        <g id="Group_3335" data-name="Group 3335" transform="translate(509.078 37.218)">
          <circle id="Ellipse_158" data-name="Ellipse 158" cx="116.974" cy="116.974" r="116.974" transform="translate(0)" fill="#69d2c9"/>
        </g>
        <g id="Group_3336" data-name="Group 3336" transform="translate(853.19 381.729)">
          <circle id="Ellipse_159" data-name="Ellipse 159" cx="94.632" cy="94.632" r="94.632" transform="translate(0 0)" fill="#69d2c9"/>
        </g>
        <g id="Group_3337" data-name="Group 3337" transform="translate(576.92 389.446)">
          <circle id="Ellipse_160" data-name="Ellipse 160" cx="111.962" cy="111.962" r="111.962" transform="translate(0 0)" fill="#207bbd"/>
        </g>
        <g id="Group_3338" data-name="Group 3338" transform="translate(853.19 38.481)">
          <circle id="Ellipse_161" data-name="Ellipse 161" cx="88.564" cy="88.564" r="88.564" transform="translate(0)" fill="#207bbd"/>
        </g>
        <g id="Group_3339" data-name="Group 3339" transform="translate(431.103 271.168)">
          <circle id="Ellipse_162" data-name="Ellipse 162" cx="87.896" cy="87.896" r="87.896" transform="translate(0 0)" fill="#c8d1e3"/>
        </g>
        <g id="Group_3340" data-name="Group 3340" transform="translate(975.484 211.073)">
          <circle id="Ellipse_163" data-name="Ellipse 163" cx="83.544" cy="83.544" r="83.544" transform="translate(0 0)" fill="#c8d1e3"/>
        </g>
        <g id="Group_3341" data-name="Group 3341" transform="translate(715.111 200.794)">
          <circle id="Ellipse_164" data-name="Ellipse 164" cx="94.088" cy="94.088" r="94.088" transform="translate(0 0)" fill="#145c90"/>
        </g>
        <g id="Group_3351" data-name="Group 3351" transform="translate(546.861 64.301)">
          <g id="Group_3342" data-name="Group 3342" transform="translate(70.779 148.477)">
            <path id="Path_2652" data-name="Path 2652" d="M733.117,298.611a2.1,2.1,0,0,1-1.815,2.354L699.558,305.8a2.1,2.1,0,0,1-2.434-1.706l-.444-2.909a2.1,2.1,0,0,1,1.816-2.354L730.24,294a2.1,2.1,0,0,1,2.434,1.706Z" transform="translate(-696.657 -293.97)" fill="#fff"/>
          </g>
          <g id="Group_3343" data-name="Group 3343" transform="translate(75.794 158.981)">
            <path id="Path_2653" data-name="Path 2653" d="M732.807,312.633a1.913,1.913,0,0,1-1.4,2.291l-25.585,3.9a1.914,1.914,0,0,1-2.021-1.769l-.444-2.91a1.914,1.914,0,0,1,1.4-2.291l25.585-3.9a1.913,1.913,0,0,1,2.021,1.769Z" transform="translate(-703.326 -307.939)" fill="#fff"/>
          </g>
          <g id="Group_3344" data-name="Group 3344" transform="translate(84.704 169.705)">
            <path id="Path_2654" data-name="Path 2654" d="M728.785,322.2a6.884,6.884,0,0,1-13.611,2.074" transform="translate(-715.174 -322.198)" fill="#fff"/>
          </g>
          <g id="Group_3345" data-name="Group 3345" transform="translate(32.423 35.606)">
            <path id="Path_2655" data-name="Path 2655" d="M720.665,250.889l-38.9,5.928c-2.479.378-4.789-1.746-5.261-4.836a6.579,6.579,0,0,1,.435-3.626c-2.416-9.328-9.793-16.605-15.226-21.963a62.168,62.168,0,0,1-5.3-5.629A48.258,48.258,0,0,1,647,179.1a46.889,46.889,0,0,1,7.4-16.219,45.4,45.4,0,0,1,12.813-12.145,44.536,44.536,0,0,1,35.146-5.357,45.4,45.4,0,0,1,15.849,7.776,46.9,46.9,0,0,1,11.893,13.28,47.846,47.846,0,0,1,6.284,17.5,48.4,48.4,0,0,1,.341,11.876,47.548,47.548,0,0,1-1.64,8.64l.169.039-1.008,2.585c-.226.643-.467,1.283-.716,1.9a60.336,60.336,0,0,1-3.384,6.911c-3.517,6.547-8.28,15.41-8.027,24.921a6.37,6.37,0,0,1,1.812,3.938C724.508,248.559,722.708,250.577,720.665,250.889Zm-39.145,1.082,37.685-5.744a4.12,4.12,0,0,0-.05-.746,4.32,4.32,0,0,0-.226-.912l-1.423-.222-.141-1.912c-.844-11.389,4.571-21.466,8.525-28.824a57.329,57.329,0,0,0,3.119-6.329l.026-.067c.232-.575.456-1.17.666-1.769l.01-.029a43.461,43.461,0,0,0-3.754-36.495A42.055,42.055,0,0,0,715.283,157a40.6,40.6,0,0,0-14.169-6.956,39.711,39.711,0,0,0-31.33,4.775,40.6,40.6,0,0,0-11.454,10.861,42.082,42.082,0,0,0-6.638,14.557,43.428,43.428,0,0,0,8.488,37.493l.045.057a58.919,58.919,0,0,0,4.885,5.163c6.035,5.953,14.3,14.105,16.767,25.262l.259,1.173-.767.9a1.669,1.669,0,0,0-.085.964A2.061,2.061,0,0,0,681.521,251.971Z" transform="translate(-645.655 -143.886)" fill="#fff"/>
          </g>
          <g id="Group_3346" data-name="Group 3346" transform="translate(63.44)">
            <path id="Path_2656" data-name="Path 2656" d="M692.627,120.691a2.415,2.415,0,0,1-2.751-2.022l-2.949-19.351a2.414,2.414,0,0,1,4.773-.727l2.949,19.35A2.413,2.413,0,0,1,692.627,120.691Z" transform="translate(-686.899 -96.54)" fill="#fff"/>
          </g>
          <g id="Group_3347" data-name="Group 3347" transform="translate(130.676 64.216)">
            <path id="Path_2657" data-name="Path 2657" d="M798.431,186.73l-19.35,2.949a2.414,2.414,0,1,1-.727-4.773l19.35-2.95a2.415,2.415,0,0,1,.727,4.774Z" transform="translate(-776.303 -181.928)" fill="#fff"/>
          </g>
          <g id="Group_3348" data-name="Group 3348" transform="translate(0 84.133)">
            <path id="Path_2658" data-name="Path 2658" d="M624.67,213.213l-19.35,2.95a2.414,2.414,0,1,1-.727-4.773l19.349-2.95a2.414,2.414,0,0,1,.728,4.773Z" transform="translate(-602.542 -208.412)" fill="#fff"/>
          </g>
          <g id="Group_3349" data-name="Group 3349" transform="translate(107.342 7.792)">
            <path id="Path_2659" data-name="Path 2659" d="M748.052,128.358a2.414,2.414,0,0,1-2.417-3.654l10.28-16.657a2.414,2.414,0,0,1,4.109,2.536l-10.28,16.657A2.407,2.407,0,0,1,748.052,128.358Z" transform="translate(-745.275 -106.901)" fill="#fff"/>
          </g>
          <g id="Group_3350" data-name="Group 3350" transform="translate(13.55 23.654)">
            <path id="Path_2660" data-name="Path 2660" d="M638.114,145.631a2.407,2.407,0,0,1-1.948-.563l-14.775-12.838a2.414,2.414,0,1,1,3.167-3.644l14.775,12.837a2.414,2.414,0,0,1-1.218,4.208Z" transform="translate(-620.56 -127.993)" fill="#fff"/>
          </g>
        </g>
        <g id="Group_3357" data-name="Group 3357" transform="translate(896.321 68.097)">
          <g id="Group_3355" data-name="Group 3355">
            <g id="Group_3352" data-name="Group 3352">
              <path id="Path_2661" data-name="Path 2661" d="M1116.164,217.574a1.983,1.983,0,0,1-.4-.041l-33.886-6.977a1.983,1.983,0,0,1-.872-.421,38.49,38.49,0,0,1,20.021-67.716l5.282-25.652a7.239,7.239,0,0,1-4.284-8.124l.265-1.285a7.228,7.228,0,0,1,8.536-5.622l21.332,4.391a7.234,7.234,0,0,1,5.621,8.536l-.264,1.286a7.24,7.24,0,0,1-7.077,5.77h-.068l-5.281,25.652a38.49,38.49,0,0,1-8.355,70.118A2,2,0,0,1,1116.164,217.574Zm-32.991-10.793,32.893,6.772a34.53,34.53,0,0,0,5.86-63.411,1.98,1.98,0,0,1-1.009-2.146l5.946-28.88a1.98,1.98,0,0,1,2.338-1.54l.574.118a3.271,3.271,0,0,0,3.86-2.542l.265-1.286a3.272,3.272,0,0,0-2.542-3.859l-21.332-4.391a3.268,3.268,0,0,0-3.859,2.542l-.265,1.285a3.271,3.271,0,0,0,2.542,3.86l.575.118a1.98,1.98,0,0,1,1.54,2.339l-5.947,28.88a1.979,1.979,0,0,1-1.775,1.573,34.529,34.529,0,0,0-19.664,60.568Z" transform="translate(-1067.221 -101.587)" fill="#fff"/>
            </g>
            <g id="Group_3353" data-name="Group 3353" transform="translate(74.988 28.961)">
              <path id="Path_2662" data-name="Path 2662" d="M1175.784,145.47a4.471,4.471,0,1,1-3.477-5.281A4.47,4.47,0,0,1,1175.784,145.47Z" transform="translate(-1166.933 -140.097)" fill="#fcfcfc"/>
            </g>
            <g id="Group_3354" data-name="Group 3354" transform="translate(88.46 21.443)">
              <path id="Path_2663" data-name="Path 2663" d="M1191.431,134.1a3.326,3.326,0,1,1-2.587-3.929A3.326,3.326,0,0,1,1191.431,134.1Z" transform="translate(-1184.846 -130.1)" fill="#fcfcfc"/>
            </g>
          </g>
          <g id="Group_3356" data-name="Group 3356" transform="translate(8.514 71.907)">
            <path id="Path_2664" data-name="Path 2664" d="M1079.066,201.019s37.568,15.687,58.128-3.033q.421-.382.831-.784s4.666,27.286-22.905,33.579l-28.418-6.009S1076.1,212.9,1079.066,201.019Z" transform="translate(-1078.542 -197.202)" fill="#fff"/>
          </g>
        </g>
        <g id="Group_3373" data-name="Group 3373" transform="translate(759.317 228.192)">
          <g id="Group_3358" data-name="Group 3358" transform="translate(33.674 0.474)">
            <path id="Path_2665" data-name="Path 2665" d="M962.1,453.382a3.411,3.411,0,0,1-.741-.082l-28.866-6.389a3.4,3.4,0,0,1-2.585-4.055l27.685-125.092a3.4,3.4,0,0,1,4.057-2.585l28.866,6.388a3.4,3.4,0,0,1,2.585,4.055L965.411,450.715a3.406,3.406,0,0,1-3.314,2.667Zm-1.189-135.456a.573.573,0,0,0-.558.449L932.665,443.467a.572.572,0,0,0,.077.431.566.566,0,0,0,.36.251l28.866,6.389h0a.574.574,0,0,0,.431-.076.567.567,0,0,0,.251-.359L990.335,325.01a.574.574,0,0,0-.435-.682l-28.867-6.389A.542.542,0,0,0,960.908,317.925Z" transform="translate(-929.823 -315.097)" fill="#fff"/>
          </g>
          <g id="Group_3359" data-name="Group 3359" transform="translate(59.309 14.074)">
            <rect id="Rectangle_1481" data-name="Rectangle 1481" width="3.165" height="15.742" transform="translate(0 3.09) rotate(-77.521)" fill="#fff"/>
          </g>
          <g id="Group_3360" data-name="Group 3360" transform="translate(56.286 28.852)">
            <rect id="Rectangle_1482" data-name="Rectangle 1482" width="3.162" height="11.178" transform="translate(0 3.088) rotate(-77.517)" fill="#fff"/>
          </g>
          <g id="Group_3361" data-name="Group 3361" transform="translate(52.78 43.576)">
            <rect id="Rectangle_1483" data-name="Rectangle 1483" width="3.165" height="15.742" transform="translate(0 3.09) rotate(-77.52)" fill="#fff"/>
          </g>
          <g id="Group_3362" data-name="Group 3362" transform="translate(49.756 58.355)">
            <rect id="Rectangle_1484" data-name="Rectangle 1484" width="3.163" height="11.178" transform="matrix(0.216, -0.976, 0.976, 0.216, 0, 3.088)" fill="#fff"/>
          </g>
          <g id="Group_3363" data-name="Group 3363" transform="translate(46.282 72.935)">
            <rect id="Rectangle_1485" data-name="Rectangle 1485" width="3.164" height="15.741" transform="translate(0 3.09) rotate(-77.521)" fill="#fff"/>
          </g>
          <g id="Group_3364" data-name="Group 3364" transform="translate(43.259 87.713)">
            <rect id="Rectangle_1486" data-name="Rectangle 1486" width="3.163" height="11.178" transform="matrix(0.216, -0.976, 0.976, 0.216, 0, 3.088)" fill="#fff"/>
          </g>
          <g id="Group_3365" data-name="Group 3365" transform="translate(39.771 102.357)">
            <rect id="Rectangle_1487" data-name="Rectangle 1487" width="3.164" height="15.741" transform="translate(0 3.09) rotate(-77.523)" fill="#fff"/>
          </g>
          <g id="Group_3366" data-name="Group 3366" transform="translate(36.747 117.135)">
            <rect id="Rectangle_1488" data-name="Rectangle 1488" width="3.163" height="11.178" transform="translate(0 3.089) rotate(-77.52)" fill="#fff"/>
          </g>
          <g id="Group_3367" data-name="Group 3367" transform="translate(19.665 6.064)">
            <path id="Path_2666" data-name="Path 2666" d="M933.347,346.618a1.454,1.454,0,0,1-.305-.033L912.331,342a1.416,1.416,0,0,1-1.048-.975l-.028-.092a1.414,1.414,0,0,1,.186-1.2l11.311-16.585a1.421,1.421,0,0,1,1.474-.584l6.232,1.38a1.415,1.415,0,0,1,1.09,1.152l3.256,19.809a1.412,1.412,0,0,1-.338,1.167l-.063.071A1.414,1.414,0,0,1,933.347,346.618ZM914.9,339.674l16.786,3.716L928.913,326.5l-4.363-.966Z" transform="translate(-911.196 -322.53)" fill="#fff"/>
          </g>
          <g id="Group_3368" data-name="Group 3368" transform="translate(31.035)">
            <path id="Path_2667" data-name="Path 2667" d="M933.96,324.664a1.4,1.4,0,0,1-.305-.033l-6.231-1.379a1.414,1.414,0,0,1-.863-2.177l3.741-5.486a2.113,2.113,0,0,1,3.977.881l1.076,6.553a1.413,1.413,0,0,1-1.4,1.642Zm-3.887-3.722,2.152.477-.481-2.928Z" transform="translate(-926.315 -314.467)" fill="#fff"/>
          </g>
          <g id="Group_3369" data-name="Group 3369" transform="translate(2.079 23.262)">
            <path id="Path_2668" data-name="Path 2668" d="M910.106,431.694a1.436,1.436,0,0,1-.307-.033L888.92,427.04a1.413,1.413,0,0,1-1.075-1.686l17.45-78.847a1.415,1.415,0,0,1,1.686-1.075l20.88,4.622a1.414,1.414,0,0,1,1.075,1.686l-17.451,78.846A1.414,1.414,0,0,1,910.106,431.694Zm-19.194-7.11,18.118,4.009,16.839-76.084L907.751,348.5Z" transform="translate(-887.811 -345.398)" fill="#fff"/>
          </g>
          <g id="Group_3370" data-name="Group 3370" transform="translate(0 107.483)">
            <path id="Path_2669" data-name="Path 2669" d="M897.689,476.413a15.275,15.275,0,0,1-3.294-.38,11.392,11.392,0,0,1-7.61-5c-2.72-4.384-1.449-9.7-1.394-9.92l.579-2.62a1.415,1.415,0,0,1,1.686-1.075l20.88,4.621a1.414,1.414,0,0,1,1.075,1.686l-.7,3.163a13.467,13.467,0,0,1-5.317,7.853A10.7,10.7,0,0,1,897.689,476.413Zm-9.263-15.925-.281,1.272c-.018.074-1.042,4.444,1.054,7.8a8.686,8.686,0,0,0,5.808,3.71,9.046,9.046,0,0,0,7.057-.906,10.616,10.616,0,0,0,4.083-6.07l0-.011.4-1.787Z" transform="translate(-885.047 -457.387)" fill="#fff"/>
          </g>
          <g id="Group_3371" data-name="Group 3371" transform="translate(8.86 24.836)">
            <path id="Path_2670" data-name="Path 2670" d="M905.293,430.65a1.39,1.39,0,0,1-.307-.034l-7.05-1.56a1.415,1.415,0,0,1-1.075-1.686L914.295,348.6a1.417,1.417,0,0,1,1.686-1.075l7.05,1.56a1.414,1.414,0,0,1,1.075,1.687l-17.434,78.771A1.414,1.414,0,0,1,905.293,430.65Zm-5.365-4.049,4.289.948,16.822-76.009-4.289-.949Z" transform="translate(-896.828 -347.491)" fill="#fff"/>
          </g>
          <g id="Group_3372" data-name="Group 3372" transform="translate(0.89 102.108)">
            <path id="Path_2671" data-name="Path 2671" d="M908.524,463.064a1.447,1.447,0,0,1-.305-.033l-20.88-4.621a1.416,1.416,0,0,1-1.075-1.687l1.19-5.373a1.415,1.415,0,0,1,1.686-1.075l20.88,4.621a1.415,1.415,0,0,1,1.075,1.686l-1.19,5.374a1.414,1.414,0,0,1-1.381,1.108Zm-19.194-7.11,18.119,4.01.578-2.613-18.119-4.009Z" transform="translate(-886.23 -450.241)" fill="#fff"/>
          </g>
        </g>
        <g id="Group_3374" data-name="Group 3374" transform="translate(990.356 254.387)">
          <path id="Path_2672" data-name="Path 2672" d="M1211.364,393.07a5.634,5.634,0,0,0-3.311,8.915l-2.352,13.93a2.053,2.053,0,0,0,2.024,2.395h9.631a2.052,2.052,0,0,0,2.034-2.335l-2-14.521a5.616,5.616,0,0,0-1.916-7.679v-7.535l12.688,5.5v31.5a7.05,7.05,0,0,0,7.042,7.042h57.9a7.049,7.049,0,0,0,7.042-7.042V389.818l30.224-13.113a2.053,2.053,0,0,0-.153-3.826l-68.746-23.47a2.045,2.045,0,0,0-1.391.023c-23.538,8.912-62.191,23.121-65.781,23.337a2.053,2.053,0,0,0-.8,3.936l17.867,7.751Zm-1.209,21.134,2.116-12.534a2.052,2.052,0,0,0-.709-1.917,1.53,1.53,0,1,1,2.13-.17,2.047,2.047,0,0,0-.486,1.629L1215,414.2Zm85.883,9.041a2.938,2.938,0,0,1-2.936,2.936h-57.9a2.939,2.939,0,0,1-2.936-2.936V393.524l28.852,12.517a2.051,2.051,0,0,0,1.635,0l33.288-14.442Zm-95.493-47.958c14.863-4.636,50.553-18.068,60.3-21.754l63.025,21.518-61.933,26.87-40.9-17.744,34.532-4.557a12.457,12.457,0,0,0,6.365,1.5c4.761,0,8.352-1.9,8.352-4.408s-3.591-4.409-8.352-4.409c-4.107,0-7.336,1.412-8.148,3.412L1213.714,381Zm55.087,1.422c0-.96,2.454-2.355,6.3-2.355s6.3,1.4,6.3,2.355-2.454,2.355-6.3,2.355S1255.633,377.67,1255.633,376.709Z" transform="translate(-1192.26 -349.298)" fill="#fff"/>
        </g>
        <g id="Group_3375" data-name="Group 3375" transform="translate(890.114 451.004)">
          <path id="Path_2673" data-name="Path 2673" d="M1061.158,610.741c-.01,0-.02,0-.031,0-.044,0-.086.009-.129.012a2.394,2.394,0,0,0-.29.033l-.021.007c-.021,0-.039.013-.059.017-.039.01-.077.021-.116.034a2.148,2.148,0,0,0-.534.238c-.009.005-.017.013-.026.019a2.263,2.263,0,0,0-.442.391c-.013.015-.031.023-.044.04a.254.254,0,0,0-.016.028c-.022.026-.043.049-.062.076-.007.009-.012.02-.018.029a2.224,2.224,0,0,0-.191.318c-.007.014-.01.028-.016.044a.3.3,0,0,0-.016.041c-.015.034-.027.068-.04.1a1.922,1.922,0,0,0-.071.2l0,.01c-.005.023-.005.047-.011.069a2.2,2.2,0,0,0-.055.291c0,.014,0,.029,0,.041,0,.036,0,.073,0,.109a2.3,2.3,0,0,0,.008.305c0,.021.01.041.013.062s.01.058.017.086.013.071.022.107.019.1.034.143c0,.007.007.015.01.023a2.253,2.253,0,0,0,.145.344.244.244,0,0,0,.017.026.071.071,0,0,0,.008.014.267.267,0,0,0,.013.033l40.482,69.848a2.194,2.194,0,0,0,1.708,1.087,1.864,1.864,0,0,0,.193.008,2.2,2.2,0,0,0,1.679-.781l23.388-27.737,25.547,9.7.129.049a2.2,2.2,0,0,0,2.485-.675,2.184,2.184,0,0,0,.361-2.064l-2.408-33.91,31.408-14.007a2.2,2.2,0,0,0-.884-4.2l-122.175-.614Zm68.553,42.165,1.906-2.26,5.876-6.969,10.25,16.074Zm43.416-37.208-22.893,10.211-62.344-10.638Zm-24.677,14.365,1.809,25.461-10.667-16.729c-.04-.061-.091-.109-.136-.166a2.141,2.141,0,0,0-.15-.184c-.047-.047-.1-.088-.147-.131s-.077-.064-.12-.095-.087-.069-.134-.1a2.138,2.138,0,0,0-.273-.135c-.053-.025-.1-.058-.156-.079l0,0-52.316-18.472Zm-14.44,10.928-32.035,37.991L1066.049,617Z" transform="translate(-1058.968 -610.741)" fill="#fff"/>
        </g>
        <g id="Group_3376" data-name="Group 3376" transform="translate(616.956 428.356)">
          <path id="Path_2674" data-name="Path 2674" d="M822.163,580.626a9.586,9.586,0,0,0-9.576,9.575v6.441a14.59,14.59,0,0,0-23.547,10.594H768.774A14.6,14.6,0,0,0,742.4,599.56a14.562,14.562,0,0,0-20.759-2.922V590.2a9.575,9.575,0,1,0-19.149,0V700.673a14.053,14.053,0,0,0,7.326,26.054H825.532a14.057,14.057,0,0,0,6.2-26.675V590.2A9.586,9.586,0,0,0,822.163,580.626Zm-3.908,59.008V590.2a3.907,3.907,0,1,1,7.815,0V698.618c-.18-.007-.357-.028-.537-.028h-7.278Zm-14.633-40.419a8.963,8.963,0,1,1-8.961,8.964A8.975,8.975,0,0,1,803.622,599.214Zm-49.43,0a8.963,8.963,0,1,1-8.963,8.964A8.975,8.975,0,0,1,754.192,599.214ZM742.4,616.8a14.6,14.6,0,0,0,26.29-6.728h20.443a14.594,14.594,0,0,0,23.459,9.647V628.1a14.589,14.589,0,0,0-21.884,4.688,14.613,14.613,0,0,0-27.5,5.907H721.637V619.717A14.563,14.563,0,0,0,742.4,616.8Zm35.39,72.3a14.65,14.65,0,0,0,14.557-13.216h20.244V698.59h-90.95V686a14.6,14.6,0,0,0,23.521-10.123h18.069A14.647,14.647,0,0,0,777.786,689.093Zm-8.963-14.633a8.962,8.962,0,1,1,8.963,8.965A8.974,8.974,0,0,1,768.823,674.46Zm23.52-1.418a14.627,14.627,0,0,0-29.116,0H745.158a14.6,14.6,0,0,0-23.521-10.121v-21.4h41.654a14.615,14.615,0,0,0,27.413,4.957,14.588,14.588,0,0,0,21.884,4.689v21.873Zm-23.52-33.409a8.962,8.962,0,1,1,8.963,8.961A8.972,8.972,0,0,1,768.823,639.634Zm34.8,8.961a8.961,8.961,0,1,1,8.965-8.961A8.972,8.972,0,0,1,803.622,648.6ZM730.6,599.214a8.974,8.974,0,0,1,8.963,8.957v.01a8.964,8.964,0,1,1-8.963-8.967Zm0,66.283a8.964,8.964,0,1,1-8.964,8.963A8.974,8.974,0,0,1,730.6,665.5Zm-22.444-75.3a3.907,3.907,0,1,1,7.815,0v17.935c0,.016,0,.028,0,.042s0,.027,0,.041v66.2c0,.015,0,.028,0,.042s0,.027,0,.041V698.59h-6.156a14.214,14.214,0,0,0-1.659.107ZM833.931,712.658a8.411,8.411,0,0,1-8.4,8.4H709.814a8.4,8.4,0,0,1,0-16.8H825.532A8.411,8.411,0,0,1,833.931,712.658Z" transform="translate(-695.748 -580.626)" fill="#fff"/>
        </g>
        <g id="Group_3380" data-name="Group 3380" transform="translate(475.789 300.448)">
          <g id="Group_3377" data-name="Group 3377">
            <path id="Path_2675" data-name="Path 2675" d="M508.037,423.456v91.41c0,7.119,6.048,12.91,13.481,12.91h59.457c7.432,0,13.48-5.331,13.48-11.885v-82.7a11.372,11.372,0,0,0-5.192-9.371v-.359c0-7.118-6.046-12.91-13.48-12.91H521.518C514.085,410.546,508.037,416.337,508.037,423.456Zm4.311,0c0-4.741,4.114-8.6,9.17-8.6h54.265c5.055,0,9.169,3.857,9.169,8.6v1.559a2.154,2.154,0,0,0,1.11,1.885,7.329,7.329,0,0,1,4.082,6.286v82.7c0,4.177-4.114,7.575-9.17,7.575H521.518c-5.056,0-9.17-3.857-9.17-8.6Z" transform="translate(-508.037 -410.546)" fill="#fff"/>
          </g>
          <g id="Group_3378" data-name="Group 3378" transform="translate(10.441 7.511)">
            <path id="Path_2676" data-name="Path 2676" d="M526.272,432.376a2.159,2.159,0,0,0,1.37.491H538.23v36.065a2.156,2.156,0,0,0,3.644,1.56l8.924-8.521,9.369,8.554a2.156,2.156,0,0,0,3.609-1.593V432.867h20.964a2.154,2.154,0,0,0,1.981-1.306c.171-.4,1.612-3.962-.066-7.155-.719-1.368-2.3-3.141-5.737-3.831a2.223,2.223,0,0,0-.423-.042H527.643a2.168,2.168,0,0,0-.375.034c-.445.078-4.372.86-5.2,4.017C521.13,428.141,525,431.327,526.272,432.376Zm1.591-7.532h52.4a2.967,2.967,0,0,1,2.825,3.711H561.62a2.156,2.156,0,0,0-2.155,2.156v33.335l-7.247-6.616a2.156,2.156,0,0,0-2.94.032l-6.737,6.431V430.712a2.156,2.156,0,0,0-2.155-2.156H528.437c-2.244-1.982-2.2-2.868-2.2-2.874A3.05,3.05,0,0,1,527.864,424.844Z" transform="translate(-521.921 -420.533)" fill="#fff"/>
          </g>
          <g id="Group_3379" data-name="Group 3379" transform="translate(32.458 28.173)">
            <path id="Path_2677" data-name="Path 2677" d="M553.665,455.652l-.508,2.95a1.078,1.078,0,0,0,1.564,1.137l2.651-1.393,2.65,1.393a1.078,1.078,0,0,0,1.564-1.137l-.506-2.95,2.143-2.089a1.077,1.077,0,0,0-.6-1.838l-2.963-.432-1.324-2.683a1.078,1.078,0,0,0-1.935,0l-1.324,2.683-2.963.432a1.077,1.077,0,0,0-.6,1.838Zm2.288-2.307a1.075,1.075,0,0,0,.81-.589l.609-1.235.609,1.235a1.075,1.075,0,0,0,.811.589l1.363.2-.985.96a1.079,1.079,0,0,0-.311.954l.234,1.357-1.219-.641a1.083,1.083,0,0,0-1,0l-1.219.641.234-1.357a1.078,1.078,0,0,0-.309-.954l-.985-.96Z" transform="translate(-551.196 -448.008)" fill="#fff"/>
          </g>
        </g>
      </g>
    </g>
  </g>
</svg>
