<svg width="30" height="30" viewBox="0 0 30 30" fill="none" xmlns="http://www.w3.org/2000/svg">
<rect width="30" height="30" fill="#009EFF"/>
<path d="M17.5238 8.70306V8.7002H18.2693L18.5417 8.7546C18.7234 8.78992 18.8882 8.83621 19.0364 8.89348C19.1845 8.95075 19.3279 9.01757 19.4665 9.09392C19.6051 9.17028 19.7308 9.24808 19.8436 9.3273C19.9554 9.40557 20.0558 9.48861 20.1447 9.57642C20.2326 9.66519 20.3697 9.6881 20.5561 9.64515C20.7425 9.60219 20.9432 9.54253 21.1583 9.46618C21.3733 9.38982 21.586 9.30392 21.7963 9.20846C22.0066 9.11301 22.1347 9.0524 22.1805 9.02663C22.2255 8.99992 22.2494 8.9856 22.2522 8.98368L22.2551 8.97939L22.2694 8.97223L22.2838 8.96507L22.2981 8.95791L22.3124 8.95075L22.3153 8.94646L22.3196 8.94359L22.3239 8.94073L22.3268 8.93643L22.3411 8.93214L22.3554 8.92927L22.3526 8.95075L22.3483 8.97223L22.3411 8.9937L22.3339 9.01518L22.3268 9.0295L22.3196 9.04381L22.3124 9.06529C22.3077 9.07961 22.3029 9.09869 22.2981 9.12256C22.2933 9.14643 22.2479 9.24187 22.1619 9.40891C22.0759 9.57595 21.9683 9.74537 21.8393 9.91718C21.7103 10.089 21.5946 10.2188 21.4924 10.3066C21.3891 10.3954 21.3208 10.4574 21.2873 10.4927C21.2539 10.529 21.2133 10.5624 21.1655 10.593L21.0938 10.6402L21.0794 10.6474L21.0651 10.6545L21.0622 10.6588L21.0579 10.6617L21.0536 10.6645L21.0508 10.6688L21.0364 10.676L21.0221 10.6832L21.0192 10.6875L21.0149 10.6903L21.0106 10.6932L21.0077 10.6975L21.0049 10.7018L21.0006 10.7046L20.9963 10.7075L20.9934 10.7118H21.0651L21.4665 10.6259C21.7342 10.5686 21.9898 10.4994 22.2336 10.4183L22.6207 10.2894L22.6637 10.2751L22.6852 10.268L22.6995 10.2608L22.7139 10.2536L22.7282 10.2465L22.7426 10.2393L22.7712 10.235L22.7999 10.2322V10.2608L22.7927 10.2637L22.7856 10.268L22.7827 10.2722L22.7784 10.2751L22.7741 10.278L22.7712 10.2823L22.7684 10.2866L22.7641 10.2894L22.7598 10.2923L22.7569 10.2966L22.754 10.3009L22.7497 10.3037L22.7426 10.3181L22.7354 10.3324L22.7311 10.3352C22.7292 10.3381 22.6685 10.4192 22.549 10.5786C22.4295 10.739 22.365 10.8201 22.3554 10.822C22.3459 10.8249 22.3325 10.8392 22.3153 10.865C22.2991 10.8917 22.1977 10.9981 22.0114 11.1843C21.825 11.3704 21.6424 11.536 21.4637 11.6811C21.284 11.8271 21.1932 12.0066 21.1913 12.2194C21.1884 12.4313 21.1774 12.6709 21.1583 12.9382C21.1392 13.2054 21.1033 13.4941 21.0508 13.8044C20.9982 14.1146 20.917 14.4654 20.807 14.8567C20.6971 15.248 20.5633 15.6298 20.4056 16.0021C20.2479 16.3743 20.083 16.7084 19.9109 17.0043C19.7389 17.3002 19.5812 17.5508 19.4378 17.756C19.2944 17.9612 19.1487 18.1545 19.0005 18.3358C18.8524 18.5172 18.6651 18.7214 18.4385 18.9486C18.211 19.1748 18.0868 19.2989 18.0658 19.3209C18.0438 19.3419 17.9501 19.4201 17.7847 19.5557C17.6203 19.6922 17.4435 19.8286 17.2543 19.9651C17.066 20.1007 16.893 20.2138 16.7353 20.3045C16.5775 20.3951 16.3873 20.4987 16.1646 20.6152C15.9429 20.7326 15.703 20.8414 15.4449 20.9416C15.1868 21.0418 14.9144 21.1349 14.6277 21.2208C14.3409 21.3067 14.0637 21.3735 13.7961 21.4212C13.5285 21.4689 13.225 21.5095 12.8857 21.5429L12.3767 21.593V21.6002H11.4448V21.593L11.3229 21.5859C11.2417 21.5811 11.1748 21.5763 11.1222 21.5716C11.0697 21.5668 10.8713 21.5405 10.5272 21.4928C10.1831 21.4451 9.91312 21.3974 9.71717 21.3496C9.52124 21.3019 9.2297 21.2112 8.8426 21.0776C8.45549 20.944 8.1243 20.8089 7.84903 20.6724C7.57471 20.5369 7.40267 20.451 7.33289 20.4147C7.26407 20.3794 7.18665 20.3355 7.10062 20.283L6.97159 20.2042L6.96874 20.2L6.96442 20.1971L6.96012 20.1942L6.95725 20.1899L6.94291 20.1828L6.92858 20.1756L6.92572 20.1713L6.92141 20.1685L6.91711 20.1656L6.91424 20.1613L6.91139 20.157L6.90707 20.1541H6.8999V20.1255L6.91424 20.1284L6.92858 20.1327L6.99309 20.1398C7.03611 20.1446 7.1532 20.1517 7.34436 20.1613C7.53553 20.1708 7.73863 20.1708 7.95369 20.1613C8.16875 20.1517 8.3886 20.1303 8.6132 20.0969C8.83782 20.0635 9.10306 20.0062 9.40892 19.9251C9.71479 19.8439 9.9958 19.7475 10.252 19.6358C10.5072 19.5232 10.6888 19.4392 10.7968 19.3839C10.9038 19.3295 11.0673 19.2283 11.2871 19.0803L11.6169 18.8584L11.6197 18.8541L11.624 18.8513L11.6283 18.8484L11.6312 18.8441L11.6341 18.8398L11.6384 18.8369L11.6427 18.8341L11.6455 18.8298L11.6599 18.8255L11.6742 18.8226L11.6771 18.8083L11.6814 18.794L11.6857 18.7911L11.6885 18.7868L11.5738 18.7797C11.4974 18.7749 11.4233 18.7701 11.3516 18.7653C11.2799 18.7606 11.1676 18.7391 11.0147 18.7009C10.8618 18.6627 10.6969 18.6055 10.5201 18.5291C10.3432 18.4528 10.1712 18.3621 10.0039 18.2571C9.83666 18.1521 9.71574 18.0647 9.64118 17.9951C9.56759 17.9263 9.472 17.829 9.35444 17.703C9.23783 17.5761 9.13651 17.4458 9.05049 17.3121C8.96447 17.1785 8.88227 17.0243 8.8039 16.8497L8.68489 16.5891L8.67772 16.5676L8.67055 16.5461L8.66625 16.5318L8.66338 16.5175L8.68489 16.5204L8.70639 16.5247L8.8641 16.5461C8.96925 16.5605 9.13413 16.5652 9.35874 16.5605C9.58336 16.5557 9.73868 16.5461 9.8247 16.5318C9.91072 16.5175 9.9633 16.508 9.98241 16.5032L10.0111 16.496L10.0469 16.4889L10.0828 16.4817L10.0856 16.4774L10.0899 16.4746L10.0943 16.4717L10.0971 16.4674L10.0684 16.4602L10.0398 16.4531L10.0111 16.4459L9.98241 16.4388L9.95373 16.4316C9.93462 16.4268 9.90117 16.4173 9.85337 16.403C9.80559 16.3887 9.67655 16.3362 9.46627 16.2455C9.256 16.1548 9.08873 16.0665 8.96447 15.9806C8.8399 15.8945 8.72112 15.8002 8.6089 15.6986C8.49707 15.5955 8.37426 15.4628 8.24043 15.3005C8.10662 15.1383 7.98715 14.9498 7.882 14.735C7.77687 14.5202 7.69801 14.315 7.64544 14.1193C7.59308 13.9248 7.55853 13.7259 7.54223 13.5252L7.5164 13.2245L7.53074 13.2274L7.54508 13.2317L7.55942 13.2388L7.57375 13.246L7.58809 13.2531L7.60243 13.2603L7.82465 13.3605C7.97282 13.4273 8.15681 13.4846 8.37664 13.5323C8.59649 13.58 8.7279 13.6063 8.77091 13.6111L8.83543 13.6182H8.96447L8.96161 13.6139L8.9573 13.6111L8.953 13.6082L8.95013 13.6039L8.94727 13.5996L8.94296 13.5968L8.93866 13.5939L8.93579 13.5896L8.92145 13.5824L8.90712 13.5753L8.90426 13.571L8.89995 13.5681L8.89565 13.5653L8.89278 13.561L8.87844 13.5538L8.8641 13.5466L8.86125 13.5423C8.85838 13.5404 8.81728 13.5099 8.73794 13.4507C8.65955 13.3906 8.57736 13.3128 8.49134 13.2173C8.40531 13.1219 8.31929 13.0217 8.23327 12.9167C8.14708 12.8114 8.07032 12.6989 8.00387 12.5802C7.93697 12.4609 7.86623 12.3091 7.79168 12.1249C7.71809 11.9417 7.66217 11.757 7.62393 11.5708C7.58571 11.3847 7.5642 11.201 7.55942 11.0196C7.55464 10.8383 7.55942 10.6832 7.57375 10.5543C7.58809 10.4254 7.61676 10.2799 7.65978 10.1176C7.70279 9.95536 7.76493 9.78355 7.84616 9.60219L7.96803 9.33016L7.9752 9.30869L7.98236 9.28721L7.98668 9.28435L7.98953 9.28005L7.9924 9.27576L7.9967 9.27289L8.00102 9.27576L8.00387 9.28005L8.00674 9.28435L8.01104 9.28721L8.01535 9.29007L8.01821 9.29437L8.02107 9.29866L8.02538 9.30153L8.03254 9.31584L8.03971 9.33016L8.04403 9.33303L8.04688 9.33732L8.24043 9.55208C8.36947 9.69526 8.5224 9.85514 8.69923 10.0317C8.87606 10.2083 8.97403 10.2999 8.99314 10.3066C9.01227 10.3142 9.03615 10.3362 9.06483 10.3725C9.0935 10.4078 9.18909 10.4923 9.35157 10.6259C9.51407 10.7595 9.72673 10.9146 9.98958 11.0912C10.2524 11.2678 10.544 11.442 10.8641 11.6138C11.1844 11.7856 11.5285 11.9407 11.8964 12.0791C12.2644 12.2175 12.5225 12.3082 12.6706 12.3511C12.8188 12.3941 13.0721 12.449 13.4305 12.5158C13.7889 12.5826 14.059 12.6256 14.2406 12.6446C14.4222 12.6637 14.5464 12.6747 14.6133 12.6776L14.7137 12.6804L14.7108 12.659L14.7065 12.6375L14.6779 12.4585C14.6587 12.3392 14.6492 12.1722 14.6492 11.9574C14.6492 11.7426 14.6659 11.5446 14.6994 11.3632C14.7328 11.1819 14.783 10.9981 14.8499 10.812C14.9168 10.6259 14.9823 10.4765 15.0463 10.3639C15.1113 10.2522 15.1964 10.1248 15.3015 9.98161C15.4067 9.83843 15.5429 9.69049 15.7101 9.53776C15.8774 9.38504 16.0686 9.24903 16.2836 9.12972C16.4987 9.01041 16.697 8.91972 16.8786 8.85769C17.0602 8.79565 17.2132 8.75507 17.3374 8.73599C17.4617 8.7169 17.5238 8.70592 17.5238 8.70306V8.70306Z" fill="white"/>
</svg>
