<svg width="30" height="30" viewBox="0 0 30 30" fill="none" xmlns="http://www.w3.org/2000/svg">
<rect width="30" height="30" fill="#2FCA22"/>
<path fill-rule="evenodd" clip-rule="evenodd" d="M21.6314 8.08267C19.9782 6.42802 17.7795 5.51631 15.437 5.51538C10.6103 5.51538 6.68204 9.44217 6.68011 14.2688C6.67947 15.8117 7.08272 17.3177 7.84898 18.6452L6.60669 23.1816L11.2488 21.9643C12.5278 22.6616 13.9679 23.0292 15.4335 23.0298H15.4371C20.2632 23.0298 24.1919 19.1025 24.1938 14.2758C24.1947 11.9367 23.2848 9.73732 21.6314 8.08267V8.08267ZM15.4371 21.5513H15.4341C14.1281 21.5508 12.8471 21.2 11.7297 20.5371L11.4639 20.3794L8.7092 21.1018L9.44449 18.4168L9.27141 18.1416C8.54285 16.9831 8.15804 15.6441 8.15861 14.2694C8.16021 10.2577 11.4253 6.99388 15.44 6.99388C17.384 6.99461 19.2114 7.75244 20.5856 9.12772C21.9597 10.503 22.7161 12.3311 22.7153 14.2752C22.7137 18.2873 19.4487 21.5513 15.4371 21.5513V21.5513ZM19.4294 16.102C19.2105 15.9925 18.1348 15.4633 17.9342 15.3903C17.7337 15.3173 17.5879 15.2808 17.442 15.4998C17.2961 15.7188 16.8768 16.2115 16.7491 16.3574C16.6215 16.5034 16.4939 16.5217 16.2751 16.4122C16.0563 16.3027 15.3513 16.0718 14.5155 15.3266C13.8651 14.7466 13.4259 14.0302 13.2983 13.8113C13.1707 13.5923 13.2847 13.4739 13.3943 13.3649C13.4927 13.2669 13.6131 13.1094 13.7225 12.9817C13.8319 12.8539 13.8683 12.7627 13.9412 12.6167C14.0142 12.4707 13.9777 12.343 13.923 12.2335C13.8683 12.124 13.4308 11.0474 13.2484 10.6095C13.0708 10.1829 12.8904 10.2406 12.7561 10.234C12.6286 10.2276 12.4826 10.2263 12.3368 10.2263C12.1909 10.2263 11.9539 10.281 11.7533 10.5C11.5527 10.719 10.9875 11.2481 10.9875 12.3248C10.9875 13.4014 11.7715 14.4415 11.8809 14.5874C11.9903 14.7334 13.4238 16.9428 15.6187 17.8903C16.1407 18.1156 16.5483 18.2502 16.866 18.351C17.3902 18.5175 17.8672 18.494 18.2442 18.4377C18.6646 18.3749 19.5387 17.9085 19.7211 17.3976C19.9034 16.8866 19.9034 16.4487 19.8487 16.3575C19.794 16.2662 19.6482 16.2115 19.4294 16.102" fill="white"/>
</svg>
