<svg width="30" height="30" viewBox="0 0 30 30" fill="none" xmlns="http://www.w3.org/2000/svg">
<rect width="30" height="30" fill="#FF0000"/>
<path d="M15.3853 21.2824L11.8155 21.2157C10.6597 21.1925 9.50096 21.2389 8.3678 20.998C6.644 20.6381 6.52188 18.8736 6.3941 17.3935C6.21802 15.3127 6.28618 13.1941 6.61846 11.1306C6.80604 9.97281 7.54425 9.28193 8.68587 9.20675C12.5397 8.93391 16.4191 8.96625 20.2643 9.09354C20.6704 9.10521 21.0793 9.16899 21.4798 9.24158C23.4565 9.59566 23.5047 11.5953 23.6328 13.2785C23.7606 14.9792 23.7066 16.6886 23.4624 18.3776C23.2664 19.7761 22.8915 20.9489 21.3094 21.0621C19.327 21.2102 17.3902 21.3294 15.4023 21.2914C15.4024 21.2824 15.391 21.2824 15.3853 21.2824ZM13.2866 17.7418C14.7804 16.8653 16.2458 16.0034 17.7311 15.1328C16.2345 14.2562 14.7719 13.3943 13.2866 12.5237V17.7418Z" fill="white"/>
</svg>
